<?xml version="1.0" encoding="utf-8"?>
<!-- Generator: Adobe Illustrator 16.0.0, SVG Export Plug-In . SVG Version: 6.00 Build 0)  -->
<!DOCTYPE svg PUBLIC "-//W3C//DTD SVG 1.1//EN" "http://www.w3.org/Graphics/SVG/1.1/DTD/svg11.dtd">
<svg version="1.1" xmlns="http://www.w3.org/2000/svg" xmlns:xlink="http://www.w3.org/1999/xlink" x="0px" y="0px" width="1400px"
	 height="980px" viewBox="0 0 1400 980" enable-background="new 0 0 1400 980" xml:space="preserve">
<g id="BACKGROUND">
	<rect x="-11.874" y="-10.776" fill="#fcf5f2" width="1424.929" height="1001.949"/>
</g>
<g id="OBJECTS">
	<path fill="#ffce84bd" d="M1028.81,722.973c-25.409,11.572-53.329,16.225-80.878,20.767c-19.639,3.238-39.277,6.477-58.917,9.714
		c-30.935,5.101-66.116,13.101-80.929,40.733c-6.403,11.946-7.839,25.987-7.083,39.52c0.193,3.458,0.531,6.954,1.729,10.203
		c1.566,4.251,4.52,7.844,7.689,11.08c26.291,26.839,67.276,32.198,104.847,31.978c28.029-0.165,58.239-3.466,79.187-22.092
		c14.263-12.683,22.455-31.048,36.527-43.943c14.12-12.939,33.204-19.496,47.172-32.601c10.89-10.217,18.01-23.825,23.412-37.747
		c6.683-17.225,19.643-63.142-9.887-66.646c-12.504-1.483-19.343,7.986-27.428,15.409
		C1053.667,709.066,1041.906,717.008,1028.81,722.973z"/>
	<g>
		<path fill="#ffce84bd" d="M1143.465,405.874c8.079,97.324-21.922,175.602-83.48,251.415c-12.181,15.002-25.758,29.288-42.495,38.946
			c-15.914,9.185-33.988,13.797-51.823,18.215c-35.271,8.737-70.837,17.15-107.097,19.512c-26.342,1.715-53.019,0.236-78.937,5.242
			c-85.754,16.564-143.813,98.549-225.257,130.089c-34.709,13.442-72.462,17.167-109.684,17.189
			c-35.788,0.021-73.958-4.174-101.808-26.65c-32.745-26.428-43.284-71.629-45.891-113.627s0.461-85.29-13.402-125.02
			c-18.918-54.214-68.535-100.265-63.674-157.478c4.516-53.16,56.292-90.824,108.01-103.929
			c51.717-13.104,106.323-9.191,158.709-19.294c51.789-9.987,100.825-33.898,140.585-68.553
			c33.329-29.048,60.162-65.36,95.794-91.532c74.747-54.902,182.038-55.652,263.218-10.805
			c81.179,44.848,136.062,130.01,154.683,220.865L1143.465,405.874z"/>
	</g>
	<g>
		<path fill="#FFD72D" d="M535.277,656.465l-71.082,38.071l44.489,83.065c5.667,10.581,18.838,14.563,29.418,8.897l51.925-27.812
			c5.719-3.062,7.872-10.182,4.809-15.901l-43.658-81.513C548.116,655.555,540.997,653.401,535.277,656.465z"/>
		<path fill="#F6BAA0" d="M537.663,655.188l-71.083,38.071l44.49,83.065c5.667,10.58,18.837,14.563,29.418,8.896l51.925-27.811
			c5.719-3.062,7.872-10.183,4.809-15.901l-43.658-81.513C550.501,654.277,543.382,652.124,537.663,655.188z"/>
		<path fill="none" stroke="#C9BAB5" stroke-miterlimit="10" d="M468.114,692.438l49.686,92.768
			c2.797,5.222,9.298,7.188,14.52,4.391"/>
		<path fill="none" stroke="#C9BAB5" stroke-miterlimit="10" d="M469.647,691.616l49.686,92.768
			c2.797,5.222,9.298,7.188,14.52,4.392"/>
		<path fill="#FFD72D" d="M541.582,653.088l-71.083,38.072l44.489,83.065c5.667,10.58,18.838,14.563,29.418,8.896l51.925-27.811
			c5.719-3.063,7.872-10.183,4.809-15.901l-43.658-81.513C554.42,652.179,547.3,650.025,541.582,653.088z"/>
		<path fill="#6C97A8" d="M546.826,650.279l-5.452,2.92l54.75,102.224l5.452-2.92c2.823-1.512,3.886-5.026,2.374-7.849
			l-49.275-92.001C553.162,649.83,549.648,648.768,546.826,650.279z"/>
		<circle fill="#257955" cx="553.131" cy="661.921" r="3.638"/>
		<circle fill="#0F4B4C" cx="553.132" cy="661.92" r="2.133"/>
		<path fill="#E5D9D6" d="M552.812,660.526l7.742-4.146c0.733-0.393,1.645-0.116,2.038,0.616c0.393,0.733,0.117,1.646-0.616,2.038
			l-7.741,4.146c-0.733,0.393-1.646,0.116-2.038-0.616C551.803,661.831,552.079,660.919,552.812,660.526z"/>
		<circle fill="#257955" cx="561.709" cy="677.936" r="3.638"/>
		<circle fill="#0F4B4C" cx="561.709" cy="677.936" r="2.133"/>
		<path fill="#E5D9D6" d="M561.389,676.541l7.742-4.146c0.733-0.393,1.645-0.116,2.038,0.617c0.393,0.732,0.117,1.645-0.616,2.037
			l-7.742,4.146c-0.733,0.393-1.645,0.117-2.038-0.616S560.656,676.934,561.389,676.541z"/>
		<circle fill="#257955" cx="570.286" cy="693.95" r="3.638"/>
		<circle fill="#0F4B4C" cx="570.286" cy="693.95" r="2.133"/>
		<path fill="#E5D9D6" d="M569.967,692.557l7.741-4.146c0.733-0.393,1.646-0.117,2.038,0.616c0.393,0.732,0.117,1.646-0.616,2.038
			l-7.742,4.146c-0.733,0.394-1.645,0.117-2.038-0.616C568.958,693.861,569.234,692.949,569.967,692.557z"/>
		<circle fill="#257955" cx="578.864" cy="709.966" r="3.638"/>
		<circle fill="#0F4B4C" cx="578.864" cy="709.966" r="2.133"/>
		<path fill="#E5D9D6" d="M578.544,708.571l7.741-4.146c0.733-0.393,1.646-0.116,2.038,0.616c0.393,0.733,0.117,1.646-0.617,2.038
			l-7.741,4.146c-0.733,0.393-1.646,0.116-2.038-0.616C577.535,709.876,577.812,708.964,578.544,708.571z"/>
		<circle fill="#257955" cx="587.442" cy="725.98" r="3.638"/>
		<circle fill="#0F4B4C" cx="587.442" cy="725.98" r="2.133"/>
		<path fill="#E5D9D6" d="M587.122,724.586l7.742-4.146c0.733-0.393,1.646-0.116,2.038,0.617c0.393,0.732,0.116,1.645-0.617,2.037
			l-7.741,4.146c-0.733,0.393-1.646,0.117-2.038-0.616S586.389,724.979,587.122,724.586z"/>
		<circle fill="#257955" cx="596.019" cy="741.995" r="3.638"/>
		<circle fill="#0F4B4C" cx="596.019" cy="741.995" r="2.133"/>
		<path fill="#E5D9D6" d="M595.699,740.602l7.742-4.146c0.733-0.393,1.645-0.117,2.038,0.616c0.393,0.732,0.117,1.646-0.616,2.038
			l-7.741,4.146c-0.733,0.392-1.646,0.116-2.038-0.617C594.69,741.906,594.966,740.994,595.699,740.602z"/>
		
			<rect x="565.84" y="647.061" transform="matrix(0.8815 -0.4721 0.4721 0.8815 -265.6451 351.3897)" fill="#FDEEEB" width="3.092" height="115.962"/>
		
			<rect x="491.322" y="685.386" transform="matrix(-0.8815 0.4721 -0.4721 -0.8815 1311.5614 1074.3212)" fill="#FCEFDF" width="59.334" height="32.663"/>
		
			<rect x="493.812" y="687.421" transform="matrix(-0.8815 0.4721 -0.4721 -0.8815 1311.8362 1074.075)" fill="#9DC2F7" width="54.695" height="28.411"/>
		
			<rect x="504.975" y="692.703" transform="matrix(-0.8815 0.4721 -0.4721 -0.8815 1301.5371 1061.9043)" fill="#FCEFDF" width="25.125" height="3.092"/>
		<line fill="none" stroke="#FCEFDF" stroke-miterlimit="10" x1="542.045" y1="689.454" x2="500.134" y2="711.901"/>
		<line fill="none" stroke="#FCEFDF" stroke-miterlimit="10" x1="544.875" y1="694.735" x2="502.963" y2="717.183"/>
		<line fill="none" stroke="#FCEFDF" stroke-miterlimit="10" x1="537.736" y1="705.354" x2="515.839" y2="717.083"/>
	</g>
	<g>
		<path fill="#19BCC3" d="M437.423,733.43l7.096,91.625l105.765-8.618L437.423,733.43z M458.284,810.188l-3.713-48.04l59.459,43.497
			L458.284,810.188z"/>
		<path fill="#3F6C83" d="M437.753,737.696l6.766,87.358l100.84-8.217L437.753,737.696z M458.284,810.188l-3.713-48.04
			l59.459,43.497L458.284,810.188z"/>
		<polygon fill="#19BCC3" points="444.52,825.055 437.423,733.43 440.298,735.545 447.572,824.807 		"/>
		<polygon fill="#1BA8AF" points="545.266,812.745 550.285,816.437 444.52,825.055 444.204,820.981 		"/>
		<g>
			<g>
				<g>
					<line fill="none" stroke="#0A5656" stroke-miterlimit="10" x1="450.898" y1="817.768" x2="443.972" y2="818.332"/>
				</g>
				<g>
					<line fill="none" stroke="#0A5656" stroke-miterlimit="10" x1="448.644" y1="815.283" x2="443.755" y2="815.682"/>
				</g>
				<g>
					<line fill="none" stroke="#0A5656" stroke-miterlimit="10" x1="448.427" y1="812.634" x2="443.54" y2="813.031"/>
				</g>
				<g>
					<line fill="none" stroke="#0A5656" stroke-miterlimit="10" x1="448.211" y1="809.983" x2="443.324" y2="810.382"/>
				</g>
				<g>
					<line fill="none" stroke="#0A5656" stroke-miterlimit="10" x1="450.034" y1="807.167" x2="443.107" y2="807.731"/>
				</g>
				<g>
					<line fill="none" stroke="#0A5656" stroke-miterlimit="10" x1="447.779" y1="804.683" x2="442.892" y2="805.081"/>
				</g>
				<g>
					<line fill="none" stroke="#0A5656" stroke-miterlimit="10" x1="447.563" y1="802.032" x2="442.676" y2="802.431"/>
				</g>
				<g>
					<line fill="none" stroke="#0A5656" stroke-miterlimit="10" x1="447.348" y1="799.382" x2="442.459" y2="799.78"/>
				</g>
				<g>
					<line fill="none" stroke="#0A5656" stroke-miterlimit="10" x1="449.17" y1="796.565" x2="442.244" y2="797.13"/>
				</g>
				<g>
					<line fill="none" stroke="#0A5656" stroke-miterlimit="10" x1="446.916" y1="794.082" x2="442.028" y2="794.48"/>
				</g>
				<g>
					<line fill="none" stroke="#0A5656" stroke-miterlimit="10" x1="446.7" y1="791.432" x2="441.812" y2="791.83"/>
				</g>
				<g>
					<line fill="none" stroke="#0A5656" stroke-miterlimit="10" x1="446.484" y1="788.781" x2="441.596" y2="789.18"/>
				</g>
				<g>
					<line fill="none" stroke="#0A5656" stroke-miterlimit="10" x1="448.307" y1="785.965" x2="441.38" y2="786.529"/>
				</g>
				<g>
					<line fill="none" stroke="#0A5656" stroke-miterlimit="10" x1="446.052" y1="783.48" x2="441.164" y2="783.879"/>
				</g>
				<g>
					<line fill="none" stroke="#0A5656" stroke-miterlimit="10" x1="445.836" y1="780.83" x2="440.948" y2="781.229"/>
				</g>
				<g>
					<line fill="none" stroke="#0A5656" stroke-miterlimit="10" x1="445.62" y1="778.181" x2="440.732" y2="778.578"/>
				</g>
				<g>
					<line fill="none" stroke="#0A5656" stroke-miterlimit="10" x1="447.442" y1="775.364" x2="440.516" y2="775.929"/>
				</g>
				<g>
					<line fill="none" stroke="#0A5656" stroke-miterlimit="10" x1="445.188" y1="772.88" x2="440.3" y2="773.278"/>
				</g>
				<g>
					<line fill="none" stroke="#0A5656" stroke-miterlimit="10" x1="444.972" y1="770.229" x2="440.084" y2="770.628"/>
				</g>
				<g>
					<line fill="none" stroke="#0A5656" stroke-miterlimit="10" x1="444.756" y1="767.579" x2="439.868" y2="767.978"/>
				</g>
				<g>
					<line fill="none" stroke="#0A5656" stroke-miterlimit="10" x1="446.579" y1="764.763" x2="439.652" y2="765.327"/>
				</g>
				<g>
					<line fill="none" stroke="#0A5656" stroke-miterlimit="10" x1="444.324" y1="762.279" x2="439.436" y2="762.677"/>
				</g>
				<g>
					<line fill="none" stroke="#0A5656" stroke-miterlimit="10" x1="444.108" y1="759.629" x2="439.22" y2="760.027"/>
				</g>
				<g>
					<line fill="none" stroke="#0A5656" stroke-miterlimit="10" x1="443.892" y1="756.979" x2="439.004" y2="757.377"/>
				</g>
				<g>
					<line fill="none" stroke="#0A5656" stroke-miterlimit="10" x1="445.715" y1="754.162" x2="438.788" y2="754.727"/>
				</g>
				<g>
					<line fill="none" stroke="#0A5656" stroke-miterlimit="10" x1="443.46" y1="751.678" x2="438.572" y2="752.076"/>
				</g>
				<g>
					<line fill="none" stroke="#0A5656" stroke-miterlimit="10" x1="443.244" y1="749.027" x2="438.356" y2="749.426"/>
				</g>
				<g>
					<line fill="none" stroke="#0A5656" stroke-miterlimit="10" x1="443.028" y1="746.378" x2="438.141" y2="746.775"/>
				</g>
				<g>
					<line fill="none" stroke="#0A5656" stroke-miterlimit="10" x1="444.851" y1="743.562" x2="437.924" y2="744.125"/>
				</g>
				<g>
					<line fill="none" stroke="#0A5656" stroke-miterlimit="10" x1="448.29" y1="747.557" x2="451.224" y2="743.559"/>
				</g>
				<g>
					<line fill="none" stroke="#0A5656" stroke-miterlimit="10" x1="457.327" y1="751.146" x2="458.809" y2="749.126"/>
				</g>
				<g>
					<line fill="none" stroke="#0A5656" stroke-miterlimit="10" x1="464.913" y1="756.712" x2="466.395" y2="754.693"/>
				</g>
				<g>
					<line fill="none" stroke="#0A5656" stroke-miterlimit="10" x1="471.045" y1="764.258" x2="473.979" y2="760.261"/>
				</g>
				<g>
					<line fill="none" stroke="#0A5656" stroke-miterlimit="10" x1="480.083" y1="767.847" x2="481.564" y2="765.827"/>
				</g>
				<g>
					<line fill="none" stroke="#0A5656" stroke-miterlimit="10" x1="487.668" y1="773.414" x2="489.149" y2="771.395"/>
				</g>
				<g>
					<line fill="none" stroke="#0A5656" stroke-miterlimit="10" x1="493.801" y1="780.959" x2="496.735" y2="776.962"/>
				</g>
				<g>
					<line fill="none" stroke="#0A5656" stroke-miterlimit="10" x1="502.838" y1="784.548" x2="504.32" y2="782.529"/>
				</g>
				<g>
					<line fill="none" stroke="#0A5656" stroke-miterlimit="10" x1="510.423" y1="790.115" x2="511.905" y2="788.096"/>
				</g>
				<g>
					<line fill="none" stroke="#0A5656" stroke-miterlimit="10" x1="516.556" y1="797.661" x2="519.49" y2="793.663"/>
				</g>
				<g>
					<line fill="none" stroke="#0A5656" stroke-miterlimit="10" x1="525.593" y1="801.249" x2="527.075" y2="799.23"/>
				</g>
				<g>
					<line fill="none" stroke="#0A5656" stroke-miterlimit="10" x1="533.178" y1="806.816" x2="534.66" y2="804.797"/>
				</g>
			</g>
		</g>
	</g>
	<g>
		<path fill="#3B5B66" d="M970.891,507.428c0,0,49.52,21.403,102.604-60.323C1073.495,447.105,995.586,449.162,970.891,507.428z"/>
		<path fill="#40061E" d="M932.551,236.778c0,0,17.638-10.146,38.513,7.482c20.876,17.627,29.696-9.371,44.668-11.28
			c14.971-1.909,49.442,6.984,52.919,37.957c3.477,30.973-24.804,63.84-56.098,60.899c-31.294-2.94-49.142-29.539-56.41-31.044
			c-7.268-1.506-31.504-22.946-35.616-44.382L932.551,236.778z"/>
		<path fill="#F6BAA0" d="M994.294,516.008l39.641-86.315c5.093-11.629-1.067-25.102-13.194-28.857l0,0
			c-11.618-3.598-23.883,3.26-26.902,15.042l-22.947,91.551c-1.907,7.444,2.339,14.403,9.831,16.111l0,0
			C987.112,524.996,991.664,522.012,994.294,516.008z"/>
		<path fill="#F6BAA0" d="M1105.107,525.649l0.785-10.09l-119.194-16.648c-8.196-1.145-15.213,5.868-14.073,14.065l0,0
			c0.847,6.088,6.004,10.65,12.149,10.749L1105.107,525.649z"/>
		<polygon fill="#FCFFFF" points="1105.893,515.56 1105.107,525.649 1023.438,524.344 1022.92,503.971 		"/>
		
			<rect x="944.786" y="278.975" transform="matrix(-0.8721 0.4893 -0.4893 -0.8721 1930.7983 79.4837)" fill="#E8B59C" width="20.452" height="26.169"/>
		<path fill="#F6BAA0" d="M915.988,268.338c5.633,9.712,14.241,28.276,23.411,30.833c6.961,1.941,33.977-29.824,12.745-40.21
			c-13.659-6.681-11.471-24.028-22.363-18.219C918.889,246.551,908.36,255.185,915.988,268.338z"/>
		<path fill="#FFFFFF" d="M937.632,289.738l-4.859,4.285c0,0,2.223,1.343,2.764,1.019S938.38,292,937.632,289.738z"/>
		<path fill="#F6BAA0" d="M927.878,284.843c0,0-1.819,2.654,0.14,11.247c0,0,2.689-0.796,5.684-3.761L927.878,284.843z"/>
		<path fill="#F6BAA0" d="M809.56,342.963c0,0-7.715,2.551-10.979,0.612c-3.266-1.939,2.745-4.379,2.745-4.379
			s-14.05-4.946-10.564-10.619c3.485-5.672,16.654-1.624,22.82,5.598L809.56,342.963z"/>
		<path fill="#F6BAA0" d="M809.56,342.963l66.514,28.106c7.274,3.074,15.526-1.365,16.972-9.128l0,0
			c1.234-6.628-3.068-13.023-9.673-14.378l-71.609-14.689L809.56,342.963z"/>
		<path fill="#F6BAA0" d="M884.45,371.085l67.019-17.005c9.127-2.315,14.265-11.998,11.066-20.854l0,0
			c-2.988-8.276-12.12-12.562-20.396-9.573l-65.031,23.486c-6.513,2.352-9.886,9.539-7.534,16.052v0
			C871.764,369.257,878.199,372.671,884.45,371.085z"/>
		<path fill="#EFEFEF" d="M945.182,321.043l-32.602,13.286c0,0-4.108,23.938,10.64,32.485l36.638-15.577L945.182,321.043z"/>
		<path fill="#F6BAA0" d="M1048.383,485.938l16.95-93.916c2.089-12.522-7.184-24.076-19.861-24.747l0,0
			c-12.146-0.642-22.357,9.01-22.398,21.173l-0.319,93.897c-0.026,7.685,6.291,13.878,13.974,13.698l0,0
			C1043.28,495.892,1047.304,492.403,1048.383,485.938z"/>
		<path fill="#F6BAA0" d="M1154.083,450.424l-3.168-9.612l-116.393,30.612c-8.003,2.105-11.772,11.281-7.56,18.404l0,0
			c3.129,5.291,9.647,7.511,15.355,5.232L1154.083,450.424z"/>
		<polygon fill="#FCFFFF" points="1073.743,461.109 1150.915,440.812 1154.083,450.424 1076.504,481.407 		"/>
		<polygon fill="#000500" points="1149.363,451.879 1162.965,468.741 1158.166,438.672 1150.863,440.691 		"/>
		<path fill="#598699" d="M992.122,406.701c0,0-17.138,64.096-21.231,100.727c0,0,51.675-34.655,102.604-60.323
			c0,0,25.623-40.288-15.753-80.252C1057.742,366.853,1033.367,393.117,992.122,406.701z"/>
		<path fill="#FCFFFF" d="M948.006,365.062c-3.487-4.875-4.302-14.783-6.205-19.151c-12.282-17.625-12.098-17.665-12.098-17.665
			s7.014-13.206,29.737-29.458c22.911-16.386,37.913-19.439,37.913-19.439s14.682,9.486,29.409,44.848
			c7.356,17.663,1.242,11.005,34.109,43.123c0,0-9.792,15.265-29.501,30.797c-23.92,18.85-39.778,14.855-39.778,14.855
			c-18.895-31.595-27.357-37.158-29.793-38.61C957.232,374.125,951.455,369.886,948.006,365.062z"/>
		<path fill="#F6BAA0" d="M1095.761,201.278c0,0-5.131-6.3-4.481-10.042c0.648-3.742,5.069,1.006,5.069,1.006
			s-0.382-14.891,6.159-13.654c6.542,1.236,7.449,14.984,2.897,23.317L1095.761,201.278z"/>
		<path fill="#F6BAA0" d="M1105.352,201.415l-8.233,71.737c-0.901,7.846-8.823,12.849-16.294,10.29l0,0
			c-6.379-2.185-9.832-9.076-7.764-15.493l22.422-69.577L1105.352,201.415z"/>
		<path fill="#F6BAA0" d="M1081.006,258.173l-77.582,18.952c-9.132,2.231-14.391,11.808-11.372,20.71h0.001
			c2.841,8.38,11.938,12.87,20.318,10.028l75.506-25.604c6.559-2.224,10.072-9.343,7.848-15.901l0,0
			C1093.654,260.25,1087.287,256.71,1081.006,258.173z"/>
		<path fill="#FCFFFF" d="M1042.314,297.709c0,0,3.025-24.543-8.277-34.532l-33.499,13.454c-9.761,3.92-13.374,15.875-7.419,24.546
			l3.371,4.908l5.07,2.699c2.484,1.323,5.412,1.538,8.063,0.591L1042.314,297.709z"/>
		<path fill="#E8B59C" d="M972.264,333.266c0,0-14.463,1.863-31.691-18.548c4.518-4.595,10.665-10.061,18.868-15.928
			c6.322-4.521,12.037-8.022,17.006-10.73C978.922,292.233,987.221,309.479,972.264,333.266z"/>
		<polygon fill="#E2E2F7" points="982.975,303.781 949.748,327.546 972.264,333.266 		"/>
		
			<rect x="949.161" y="315.64" transform="matrix(-0.8134 0.5817 -0.5817 -0.8134 1937.6718 12.4534)" fill="#BDBDE0" width="35.355" height="2.775"/>
		<path fill="#F26979" d="M995.002,289.13c0,0,15.616,24.545-5.316,37.774s-17.422,6.362-17.422,6.362L995.002,289.13z"/>
		<path fill="#F26979" d="M938.902,329.253l33.361,4.012c0,0,1.869,3.02-2.165,5.905
			C966.063,342.056,945.231,348.254,938.902,329.253z"/>
		<path fill="#598699" d="M976.446,288.059l-4.183,45.207c0,0,28.156-14.836,23.51-53.512
			C995.773,279.753,986.334,278.847,976.446,288.059z"/>
		<path fill="#598699" d="M940.572,314.717l31.691,18.548c0,0-27.477,6.814-42.561-5.019
			C929.703,328.247,932.592,319.576,940.572,314.717z"/>
		<path fill="#DB5A6D" d="M973.344,334.92c0,0,13.667-9.79,27.783,1.622C1001.127,336.542,983.159,348.926,973.344,334.92z"/>
		<path fill="#DB5A6D" d="M986.117,358.483c0,0-25.692-13.675-13.812-23.941C972.306,334.542,990.527,345.568,986.117,358.483z"/>
		
			<ellipse transform="matrix(-0.9076 0.4197 -0.4197 -0.9076 1995.9904 230.0714)" fill="#E55757" cx="972.684" cy="334.623" rx="3.037" ry="4.015"/>
		<polygon fill="#000500" points="1102.424,526.171 1112.81,545.184 1113.436,514.74 1105.891,515.428 		"/>
		<path fill="#40061E" d="M914.937,246.683c0,0-11.178,10.406-1.771,26.019c0,0,5.795,13.337,32.986-0.148
			c0,0,11.582,23.6,23.031,22.943c0,0,7.09-2.579,7.095-23.184c0,0-3.799-31.371-24.276-37.766
			C932.294,228.392,922.634,238.181,914.937,246.683z"/>
	</g>
	<g>
		<path fill="#F6BAA0" d="M274.912,483.892l65.579-65.216c8.867-8.818,23.433-7.958,31.2,1.843l0,0
			c7.44,9.389,5.509,23.094-4.236,30.062l-75.235,53.79c-6.157,4.402-14.733,2.859-18.969-3.413l0,0
			C269.637,495.607,270.334,488.444,274.912,483.892z"/>
		<path fill="#F6BAA0" d="M162.558,503.361l-0.162-9.968l118.187-9.163c8.127-0.63,14.602,6.688,12.986,14.677v0.001
			c-1.2,5.934-6.546,10.107-12.594,9.833L162.558,503.361z"/>
		<polygon fill="#FAE9E1" points="162.558,503.36 162.396,493.394 178.629,492.135 183.323,504.305 		"/>
		<polygon fill="#6C3694" points="164.016,504.267 150.82,521.035 155.189,491.362 162.405,493.265 		"/>
		<path fill="#F6BAA0" d="M417.848,529.106l-63.071-67.645c-8.528-9.146-7.199-23.677,2.847-31.124l0,0
			c9.624-7.135,23.259-4.763,29.909,5.201l51.34,76.929c4.202,6.295,2.383,14.816-4.022,18.849l0,0
			C429.387,534.756,422.25,533.828,417.848,529.106z"/>
		<path fill="#F6BAA0" d="M385.561,634.845l-9.171-3.906l39.707-111.694c2.73-7.681,12.049-10.618,18.691-5.892l0,0
			c4.933,3.51,6.571,10.092,3.86,15.505L385.561,634.845z"/>
		<polygon fill="#FAE9E1" points="393.532,618.931 385.561,634.845 376.389,630.938 382.025,615.084 		"/>
		<polygon fill="#6C3694" points="387.237,632.738 399.118,650.463 372.24,637.154 376.275,630.878 		"/>
		
			<rect x="440.619" y="306.298" transform="matrix(0.8251 0.5651 -0.5651 0.8251 259.6957 -200.4152)" fill="#E2A38D" width="25.775" height="25.775"/>
		<path fill="#F6BAA0" d="M495.725,300.681c-4.432,14.022-19.776,29.984-25.971,27.144c-11.052-5.069-26.737-30.612-18.934-43.395
			s22.543-18.009,32.921-11.673C494.12,279.091,500.237,286.4,495.725,300.681z"/>
		<path fill="#FFFFFF" d="M471.247,313.339l7.042,8.186c0,0-5.119,2.183-7.811-0.483
			C466.534,317.137,470.437,314.32,471.247,313.339z"/>
		<path fill="#F6BAA0" d="M488.68,312.22c0,0,2.624,3.859-0.712,10.086c-2.305-1.339-2.305-1.339-4.699-2.609L488.68,312.22z"/>
		<path fill="#F6BAA0" d="M610.337,353.631c0,0,4.837-6.376,8.569-6.625c3.732-0.249,0.217,5.086,0.217,5.086
			s14.163-3.828,14.501,2.721c0.337,6.549-12.61,10.614-21.645,8.195L610.337,353.631z"/>
		<path fill="#6F99AF" d="M612.586,363.064l-66.756,24.538c-7.301,2.683-15.212-2.07-16.271-9.776l0,0
			c-0.904-6.579,3.628-12.67,10.19-13.693l71.142-11.099L612.586,363.064z"/>
		<path fill="#6F99AF" d="M537.412,388.679L470.151,378c-9.16-1.454-15.067-10.492-12.723-19.465l0,0
			c2.19-8.385,10.764-13.407,19.149-11.217l65.892,17.213c6.6,1.724,10.552,8.472,8.828,15.071l0,0
			C549.692,385.749,543.686,389.675,537.412,388.679z"/>
		<path fill="#563F93" d="M361.115,468.622l-59.826,31.595c0,0-23.736-16.703-23.322-40.521l57.915-46.206L361.115,468.622z"/>
		<path fill="#7151B4" d="M335.13,413.15c0,0-16.718,44.841,10.128,66.207l47.281,49.588c0,0,33.359-0.112,46.281-21.658
			c0,0-7.472-14.363-33.202-44.442C405.618,462.845,361.916,419.293,335.13,413.15z"/>
		<path fill="#6F99AF" d="M407.097,308.143c-13.136,16.274-47.923,54.479-73.938,104.373c0,0,16.407,22.987,29.353,31.949
			c15.104,10.456,43.106,18.38,43.106,18.38c67.082-93.667,75.184-115.296,75.184-115.296L421,306.151
			C416.555,303.074,410.493,303.936,407.097,308.143z"/>
		<path fill="#F6BAA0" d="M369.577,172.638c0,0,5.373-5.931,4.928-9.645c-0.445-3.714-5.039,0.727-5.039,0.727
			s1.146-14.627-5.352-13.749c-6.499,0.878-8.102,14.354-4.056,22.786L369.577,172.638z"/>
		<path fill="#6F99AF" d="M359.773,172.47l-11.437,70.198c-1.251,7.677,4.916,14.544,12.683,14.122l0,0
			c6.631-0.36,11.752-5.965,11.513-12.602l-2.59-71.955L359.773,172.47z"/>
		<path fill="#6F99AF" d="M351.217,252.069l37.407,69.2c4.403,8.145,14.839,10.768,22.57,5.671l0,0
			c7.276-4.798,9.286-14.586,4.488-21.862l-43.228-65.563c-3.754-5.694-11.414-7.267-17.109-3.512l0,0
			C350.042,239.5,348.256,246.449,351.217,252.069z"/>
		<polygon fill="#FCF1DF" points="414.85,386.753 477.341,345.132 425.874,309.504 		"/>
		<polygon fill="#3D4B63" points="441.808,341.628 447.71,345.67 447.489,347.845 442.568,350.399 439.628,348.386 439.958,342.053 
					"/>
		<polygon fill="#3D4B63" points="439.628,348.386 417.979,370.996 414.587,387.49 429.439,377.036 442.568,350.399 		"/>
		<polygon fill="#E2A38D" points="439.954,319.251 445.499,342.001 461.147,333.921 		"/>
		<path fill="#D4BFBA" d="M445.499,342.001l-8.309,2.245l-1.969-28.412c0,0,3.936,0.15,4.732,3.417L445.499,342.001z"/>
		<path fill="#D4BFBA" d="M461.147,333.921l-15.648,8.08l0.908,8.557l19.358-13.44C465.765,337.119,464.965,334.055,461.147,333.921
			z"/>
		<path fill="#475977" d="M429.819,311.372l-14.969,75.382l-3.283-42.009l8.54-6.841l-0.049-32.455
			C420.058,305.449,426.768,304.297,429.819,311.372z"/>
		<path fill="#475977" d="M471.337,340.976l-56.488,45.778l38.346-17.446l1.874-8.868l26.331-12.803
			C481.4,347.637,478.155,340.137,471.337,340.976z"/>
		<path fill="#010000" d="M492.776,302.197c0,0-7.213,1.462-16.176-1.143c0,0-4.797,9.569-12.488,2.456
			c0,0-6.856,9.029-16.838,2.858c0,0-13.125-32.37,7.711-44.412c0,0,68.877-11.496,43.768,36.394
			C498.752,298.35,496.652,302.33,492.776,302.197z"/>
		<path fill="#F6BAA0" d="M468.938,300.467c0,0,0.03-9.359-5.065-6.979c-5.095,2.381-4.122,13.679-1.049,15.303L468.938,300.467z"/>
		<path fill="#F0D353" d="M342.46,382.706c-1.593,0.993-7.879,24.967-54.973,7.889s-37.96-57.463-37.96-57.463
			s26.782-27.617,57.144-18.085c0,0,13.708,29.279,33.4,35.983c4.787,1.63,7.707,6.45,6.664,11.398L342.46,382.706z"/>
		<path fill="#C4AB41" d="M287.487,390.594c36.167,13.116,48.257,2.025,52.646-4.28c0.154-2.324,0.207-4.246,0.465-5.392
			c1.376-6.114-1.676-14.554-21.316-17.664c-19.641-3.11-37.933-21.918-49.642-32.053c-6.303-5.456-11.646-4.478-15.238-2.413
			c-3.114,2.529-4.875,4.339-4.875,4.339S240.393,373.516,287.487,390.594z"/>
		<path fill="#FFEB97" d="M333.414,377.836c0,0,1.446-14.275-11.113-19.728c-12.559-5.452-9.359-27.027,5.414-25.987
			c14.773,1.041,31.068,3.404,36.417-0.295c5.349-3.7,6.396,16.112-4.33,27.342S354.304,385.041,333.414,377.836z"/>
		<path fill="#F0D353" d="M479.731,344.942c0,0-40.604,77.355-151.633,25.544c0,0-9.432,2.378-5.711,13.792
			c3.72,11.413,123.465,50.825,170.469-32.708C492.855,351.571,488.396,344.212,479.731,344.942z"/>
		
			<ellipse transform="matrix(0.9999 0.0153 -0.0153 0.9999 5.2778 -5.3242)" fill="#32345B" cx="351.206" cy="342.866" rx="4.891" ry="1.844"/>
		<circle fill="#464A70" cx="330.976" cy="380.557" r="5.714"/>
	</g>
	<g>
		<path fill="#242744" d="M661.86,690.581c0,0-19.336,33.665-18.715,48.475l21.71-1.381L661.86,690.581z"/>
		<path fill="#DB8E8A" d="M689.201,867.717l-6.969-92.224c-0.942-12.469,9.176-22.983,21.673-22.52l0,0
			c11.971,0.444,21.135,10.816,20.1,22.751l-7.99,92.141c-0.654,7.541-7.398,13.058-14.92,12.203l0,0
			C694.679,879.339,689.688,874.154,689.201,867.717z"/>
		<path fill="#DB8E8A" d="M588.076,901.22l-2.385-9.679l113.149-35.346c7.781-2.431,15.728,3.255,15.938,11.404l0,0
			c0.157,6.052-4.121,11.315-10.077,12.399L588.076,901.22z"/>
		<polygon fill="#FAE9E1" points="588.075,901.22 585.69,891.541 601.231,886.686 608.526,897.499 		"/>
		<polygon fill="#2C3458" points="592.776,899.965 590.246,921.152 578.52,893.548 585.67,891.413 		"/>
		<path fill="#DB8E8A" d="M833.756,789.229l-92.605-3.21c-12.49-0.603-21.676-11.94-19.674-24.284l0,0
			c1.917-11.825,13.34-19.64,25.057-17.141l91.422,20.837c7.402,1.579,11.074,7.412,9.298,14.77l0,0
			C845.738,786.477,840.204,789.541,833.756,789.229z"/>
		<path fill="#DB8E8A" d="M852.946,896.391l-9.926,0.915l-18.072-117.156c-1.242-8.057,5.565-15.065,13.654-14.059l0,0
			c6.008,0.748,10.574,5.764,10.757,11.814L852.946,896.391z"/>
		<polygon fill="#FAE9E1" points="852.408,878.6 852.947,896.391 843.02,897.306 840.455,880.676 		"/>
		<polygon fill="#2C3458" points="853.423,893.741 872.293,903.702 842.319,904.747 842.891,897.307 		"/>
		
			<rect x="673.9" y="601.191" transform="matrix(0.9755 -0.22 0.22 0.9755 -118.261 166.1203)" fill="#CE8280" width="25.775" height="25.775"/>
		<path fill="#DB8E8A" d="M701.958,570.551c7.259,12.79,8.512,34.896,2.215,37.501c-11.235,4.649-40.625-1.241-44.681-15.658
			c-4.056-14.417,2.146-28.773,13.851-32.066C685.047,557.035,694.565,557.525,701.958,570.551z"/>
		<path fill="#FFFFFF" d="M698.471,597.511l8.876-1.767c0,0-0.609,3.644-2.168,3.998
			C703.622,600.097,699.144,599.156,698.471,597.511z"/>
		<path fill="#DB8E8A" d="M704.736,584.258c0,0,3.329-0.376,8.416,6.835c0,0-2.47,2.286-6.62,2.218L704.736,584.258z"/>
		<path fill="#DB8E8A" d="M789.234,544.486c0,0-5.244-6.044-4.72-9.748s5.022,0.835,5.022,0.835s-0.833-14.648,5.645-13.632
			c6.479,1.018,7.793,14.523,3.567,22.867L789.234,544.486z"/>
		<path fill="#7151B4" d="M799.175,543.048l16.052,69.288c1.756,7.577-3.943,14.837-11.722,14.93l0,0
			c-6.64,0.079-12.12-5.175-12.32-11.812l-2.173-71.97L799.175,543.048z"/>
		<path fill="#7151B4" d="M800.723,630.403l-66.634,14.074c-9.074,1.916-17.821-4.412-18.841-13.631l0,0
			c-0.951-8.614,5.26-16.369,13.874-17.321l67.691-7.48c6.779-0.749,12.883,4.139,13.632,10.918l0,0
			C811.144,623.277,806.938,629.091,800.723,630.403z"/>
		<path fill="#45357C" d="M748.201,780.483l-27.307,69.388c0,0-23.485,12.779-41.272-3.067l-1.919-79.714L748.201,780.483z"/>
		<path fill="#594296" d="M676.037,765.574c0,0,19.23,61.77,77.31,38.994l65.655-7.278c0,0,12.578-13.359,9.373-34.041
			c0,0-37.431-15.843-70.322-16.84C758.053,746.409,692.538,743.6,676.037,765.574z"/>
		<path fill="#7151B4" d="M647.113,640.568c2.985,20.7,7.305,72.189,26.161,125.205c0,0,28.009,3.621,43.385,0.234
			c17.94-3.952,42.803-19.077,42.803-19.077c-22.981-112.895-33.316-133.551-33.316-133.551l-71.03,15.646
			C649.835,630.189,646.341,635.218,647.113,640.568z"/>
		<path fill="#709AB0" d="M691.932,743.035c0,0-21.495,65.016-46.248,75.891c-24.753,10.875-59.581-37.798-59.581-37.798
			s17.711-60.005,38.137-66.886C644.666,707.362,682.677,731.449,691.932,743.035z"/>
		<path fill="#314056" d="M625.063,817.201c0.575-7.78,2.946-19.137,7.597-35.519c17.883-62.982,53.821-43.225,53.821-43.225
			c0.724,0.291,1.399,0.616,2.054,0.957c1.366,1.295,2.514,2.515,3.396,3.62c0,0-21.495,65.016-46.248,75.891
			C639.23,821.762,632.091,820.544,625.063,817.201z"/>
		<path fill="#5A8496" d="M691.932,743.035c0,0-31.117-16.768-45.065,13.847c-13.947,30.615-53.286-2.019-52.664-11.24
			c0.622-9.223,22.613-36.586,33.657-36.341C638.904,709.545,688.589,723.585,691.932,743.035z"/>
		
			<ellipse transform="matrix(-0.8882 -0.4595 0.4595 -0.8882 801.8179 1704.3198)" fill="#242744" cx="608.272" cy="754.604" rx="5.987" ry="2.673"/>
		<path fill="#DB8E8A" d="M566.088,538.187c0,0,1.964-7.759-0.171-10.83s-4.109,3.005-4.109,3.005s-5.848-13.456-11.175-9.633
			s-0.424,16.477,7.104,22.026L566.088,538.187z"/>
		<path fill="#7151B4" d="M557.069,542.212l20.362,68.146c2.227,7.453,10.773,10.938,17.577,7.167l0,0
			c5.808-3.219,7.968-10.497,4.855-16.363l-33.749-63.604L557.069,542.212z"/>
		<path fill="#7151B4" d="M594.354,595.761l69.133,37.531c8.137,4.418,10.741,14.859,5.63,22.58l0,0
			c-4.811,7.268-14.603,9.26-21.87,4.449l-65.485-43.346c-5.688-3.765-7.247-11.427-3.482-17.114l0,0
			C581.787,594.564,588.74,592.791,594.354,595.761z"/>
		<polygon fill="#FAE9E1" points="709.988,688.385 722.019,614.271 660.889,627.736 		"/>
		<polygon fill="#3D4B63" points="695.27,637.923 702.248,636.349 703.691,637.991 702.214,643.335 698.738,644.119 
			694.322,639.567 		"/>
		<polygon fill="#3D4B63" points="698.738,644.119 700.572,675.368 710.351,689.078 712.797,671.082 702.214,643.335 		"/>
		<polygon fill="#CE8280" points="677.612,624.053 698.056,635.473 702.783,618.508 		"/>
		<path fill="#D4BFBA" d="M698.056,635.473l-4.009,7.615l-22.158-17.893c0,0,2.788-2.782,5.724-1.143L698.056,635.473z"/>
		<path fill="#D4BFBA" d="M702.783,618.508l-4.728,16.965l6.887,5.158l3.327-23.331C708.27,617.3,705.48,615.802,702.783,618.508z"
			/>
		<path fill="#594296" d="M664.941,626.117l45.047,62.268l-33.015-26.183l0.799-10.913l-23.814-22.051
			C653.958,629.238,657.682,623.538,664.941,626.117z"/>
		<path fill="#594296" d="M714.888,615.842l-4.899,72.543l13.312-39.97l-5.223-7.408l8.538-28.006
			C726.616,613.001,718.912,610.275,714.888,615.842z"/>
		<path fill="#709AB0" d="M723.682,612.407c0,0,7.836,92.795-49.654,130.694c0,0-4.265,20.654,13.989,10.702
			c4.82-2.629,73.354-63.548,44.217-141.814C732.233,611.989,727.596,609.242,723.682,612.407z"/>
		<path fill="#443029" d="M711.146,566.838c0,0-0.148,4.769-8.334,5.321c0,0-1.606,4.438-10.978,5.548c0,0-1.524,4.641-8.015,6.902
			c0,0,6.78,7.904,0.654,10.141c0,0-1.914,7.714-6.255,6.801c0,0,4.78,6.565-0.421,7.373c0,0,0.468,3.689-4.403,4.35
			c0,0-6.859,4.822-13.686-4.448c0,0-19.12-1.092-17.96-16.025c0,0-12.382-17.499-1.164-25.656c0,0,0.762-14.124,15.565-17.394
			c0,0,9.913-16.175,27.527-5.841c0,0,10.07-5.743,15.822,3.154C699.498,547.063,717.511,551.852,711.146,566.838z"/>
		<path fill="#DB8E8A" d="M683.573,590.033c0,0-6.838-6.391-8.561-1.037c-1.723,5.353,7.218,12.328,10.499,11.183L683.573,590.033z"
			/>
		<circle fill="#5E7391" cx="681.304" cy="748.767" r="4.792"/>
	</g>
	<g>
		<path fill="#AED034" d="M693.861,300.724l-78.935,37.001c-3.585,1.681-5.285,5.919-3.687,9.542
			c0.835,1.892,2.373,3.244,4.166,3.892c1.743,0.631,3.727,0.596,5.539-0.253l79.067-37.063c1.168-0.548,2.56-0.044,3.107,1.124
			c0.548,1.169,0.045,2.56-1.124,3.108l-79.629,37.328c-2.981,1.397-6.244,1.453-9.112,0.416c-2.845-1.029-5.3-3.133-6.703-6.074
			c-2.842-5.958-0.088-13.213,5.888-16.014l79.438-37.238c1.168-0.548,2.56-0.044,3.108,1.124S695.029,300.176,693.861,300.724z"/>
		<path fill="#E8DCCF" d="M700.169,313.769l-6.149-13.119l-79.226,37.138c-3.623,1.698-5.183,6.012-3.484,9.634
			c0.849,1.811,2.352,3.107,4.096,3.737c1.743,0.631,3.727,0.596,5.539-0.253L700.169,313.769z"/>
		
			<line fill="none" stroke="#AFA59A" stroke-width="0.5" stroke-miterlimit="10" x1="617.688" y1="350.198" x2="699.31" y2="311.936"/>
		
			<line fill="none" stroke="#AFA59A" stroke-width="0.5" stroke-miterlimit="10" x1="616.557" y1="349.438" x2="698.814" y2="310.878"/>
		
			<line fill="none" stroke="#AFA59A" stroke-width="0.5" stroke-miterlimit="10" x1="615.426" y1="348.677" x2="698.318" y2="309.82"/>
		
			<line fill="none" stroke="#AFA59A" stroke-width="0.5" stroke-miterlimit="10" x1="614.295" y1="347.917" x2="697.822" y2="308.762"/>
		
			<line fill="none" stroke="#AFA59A" stroke-width="0.5" stroke-miterlimit="10" x1="613.341" y1="347.074" x2="697.326" y2="307.704"/>
		
			<line fill="none" stroke="#AFA59A" stroke-width="0.5" stroke-miterlimit="10" x1="613.057" y1="345.917" x2="696.831" y2="306.646"/>
		
			<line fill="none" stroke="#AFA59A" stroke-width="0.5" stroke-miterlimit="10" x1="613.019" y1="344.644" x2="696.334" y2="305.588"/>
		
			<line fill="none" stroke="#AFA59A" stroke-width="0.5" stroke-miterlimit="10" x1="612.946" y1="343.387" x2="695.838" y2="304.53"/>
		
			<line fill="none" stroke="#AFA59A" stroke-width="0.5" stroke-miterlimit="10" x1="613.085" y1="342.032" x2="695.343" y2="303.472"/>
		
			<line fill="none" stroke="#AFA59A" stroke-width="0.5" stroke-miterlimit="10" x1="613.224" y1="340.676" x2="694.847" y2="302.414"/>
	</g>
	<g>
		
			<rect x="792.327" y="309.755" transform="matrix(0.9168 -0.3993 0.3993 0.9168 -65.4535 344.9807)" fill="#492823" width="6.125" height="39.709"/>
		
			<rect x="799.771" y="345.49" transform="matrix(0.9168 -0.3993 0.3993 0.9168 -71.6586 349.3741)" fill="#12AB6A" width="6.125" height="2.424"/>
		<path fill="#663E3A" d="M791.145,325.845l-0.617,0.269l-5.432-12.472l0.617-0.269c1.209-0.527,2.617,0.026,3.144,1.236
			l3.524,8.091C792.907,323.91,792.354,325.318,791.145,325.845z"/>
		
			<rect x="801.51" y="347.725" transform="matrix(0.9169 -0.3992 0.3992 0.9169 -72.412 349.8776)" fill="#492823" width="4.454" height="2.103"/>
		<path fill="#663E3A" d="M806.468,353.361l-1.233,0.537c-1.21,0.527-2.618-0.026-3.145-1.236l-0.771-1.771l5.615-2.445l0.771,1.771
			C808.231,351.426,807.678,352.834,806.468,353.361z"/>
		<polygon fill="#663E3A" points="784.654,312.629 784.414,304.409 790.27,310.184 		"/>
		<polygon fill="#FCEFDE" points="784.414,304.409 784.485,306.851 786.154,306.125 		"/>
		<path fill="#F5F1E5" d="M799.256,349.264l-7.008-16.09c-0.291-0.668,0.015-1.445,0.683-1.736l0.682-0.297
			c0.668-0.291,1.445,0.015,1.736,0.683l7.008,16.09c0.291,0.668-0.015,1.445-0.683,1.736l-0.682,0.296
			C800.324,350.237,799.547,349.932,799.256,349.264z"/>
	</g>
	<path fill="#FCFFFF" d="M709.275,436.997c0.079,1.345,13.694,0.677,20.346,2.522c2.052,0.569,4.028,1.405,6.051,2.087
		c0.65,0.22,0.709,0.688,0.724,1.25c0.112,4.393,0.233,8.786,0.355,13.179c0.026,0.953,0.047,1.906,0.106,2.857
		c0.053,0.856-0.261,1.545-0.865,2.116c-1.117,1.057-2.472,1.784-3.898,2.23c-2.627,0.822-5.282,1.636-7.986,2.111
		c-3.54,0.623-7.128,1.096-10.714,1.302c-4.8,0.276-9.622,0.415-14.425,0.276c-4.356-0.125-8.703-0.667-13.047-1.089
		c-3.642-0.353-7.195-1.189-10.633-2.419c-1.401-0.501-2.718-1.283-3.998-2.061c-0.947-0.575-1.314-1.515-1.299-2.678
		c0.078-6.022,0.086-12.045,0.158-18.067c0.008-0.693-0.181-1.006-0.843-1.251c-3.438-1.275-6.851-2.619-10.278-3.923
		c-3.166-1.205-6.34-2.391-9.511-3.583c-0.106-0.04-0.221-0.055-0.399-0.098c-0.024,0.207-0.061,0.377-0.061,0.547
		c-0.003,9.577-0.006,19.153,0.01,28.729c0,0.284,0.146,0.63,0.34,0.841c1.536,1.672,1.547,4.251,0.027,5.98
		c-0.204,0.232-0.34,0.589-0.367,0.9c-0.188,2.208,0.639,4.251,1.115,6.347c0.844,3.712,1.766,7.407,2.651,11.109
		c0.02,0.084,0.002,0.177,0.002,0.359c-1.087-0.478-11.022,0-11.022,0s2.925-12.653,3.904-16.428c0.069-0.268,0.1-0.547,0.139-0.822
		c0.077-0.54-0.092-0.919-0.547-1.294c-1.827-1.505-1.848-4.681-0.04-6.25c0.457-0.396,0.6-0.786,0.599-1.359
		c-0.015-7.789-0.01-15.577-0.01-23.366c0-1.999-0.012-3.998,0.01-5.996c0.005-0.434-0.111-0.644-0.544-0.802
		c-1.938-0.708-3.859-1.465-5.957-2.271c1.327-0.428,2.497-0.81,3.669-1.184c6.258-1.998,12.514-3.999,18.774-5.987
		c4.269-1.356,8.548-2.68,12.815-4.042c6.363-2.031,12.718-4.086,19.079-6.124c3.116-0.999,6.237-1.986,9.36-2.962
		c0.222-0.069,0.504-0.065,0.726,0.007c6.271,2.027,12.537,4.07,18.805,6.106c2.976,0.966,5.955,1.919,8.931,2.887
		c4.875,1.586,9.747,3.182,14.621,4.77c4.899,1.596,9.802,3.185,14.701,4.778c2.024,0.659,4.046,1.323,6.255,2.045
		c-1.432,0.52-2.688,0.982-3.948,1.433c-4.636,1.654-9.273,3.299-13.907,4.957c-3.824,1.369-7.642,2.757-11.47,4.119
		c-0.233,0.083-0.559,0.088-0.782-0.008c-5.845-2.51-11.973-3.313-18.271-2.99C715.035,435.98,710.156,436.217,709.275,436.997z"/>
	<g>
		<path fill="none" stroke="#FFFFFF" stroke-miterlimit="10" d="M238.433,418.699c0,0-28.204-62.423-77.752-48.224
			C160.68,370.476,183.554,435.239,238.433,418.699z"/>
		<path fill="none" stroke="#FFFFFF" stroke-miterlimit="10" d="M204.539,345.754c0,0,13.247,45.772,33.894,72.945
			C238.433,418.699,237.95,367.597,204.539,345.754z"/>
		<path fill="none" stroke="#FFFFFF" stroke-miterlimit="10" d="M179.087,383.045c0,0,27.047,21.382,59.346,35.654"/>
		<path fill="none" stroke="#FFFFFF" stroke-miterlimit="10" d="M214.472,359.844c0,0,23.356,43.306,19.573,52.646"/>
	</g>
	<g>
		<path fill="none" stroke="#FFFFFF" stroke-miterlimit="10" d="M1136.394,379.917c0,0,63.912-24.644,52.524-74.914
			C1188.918,305.004,1122.97,324.195,1136.394,379.917z"/>
		<path fill="none" stroke="#FFFFFF" stroke-miterlimit="10" d="M1211.131,350.185c0,0-46.445,10.649-74.737,29.733
			C1136.394,379.917,1187.442,382.312,1211.131,350.185z"/>
		<path fill="none" stroke="#FFFFFF" stroke-miterlimit="10" d="M1175.332,322.674c0,0-22.871,25.8-38.938,57.244"/>
		<path fill="none" stroke="#FFFFFF" stroke-miterlimit="10" d="M1196.504,359.309c0,0-44.552,20.88-53.664,16.578"/>
	</g>
	<g>
		<path fill="none" stroke="#FFFFFF" stroke-miterlimit="10" d="M1042.395,717.216c0,0-2.63-45.675-36.924-48.69
			C1005.471,668.525,1004.218,714.382,1042.395,717.216z"/>
		<path fill="none" stroke="#FFFFFF" stroke-miterlimit="10" d="M1038.737,663.618c0,0-2.706,31.711,3.657,53.598
			C1042.395,717.216,1054.335,685.239,1038.737,663.618z"/>
		<path fill="none" stroke="#FFFFFF" stroke-miterlimit="10" d="M1013.936,680.771c0,0,11.741,19.811,28.459,36.445"/>
		<path fill="none" stroke="#FFFFFF" stroke-miterlimit="10" d="M1041.555,674.782c0,0,4.188,32.595-0.408,37.512"/>
	</g>
	<g>
		<path fill="none" stroke="#FFFFFF" stroke-miterlimit="10" d="M602.85,291.449c0,0,19.229-50.533-16.3-70.354
			C586.55,221.095,563.044,269.948,602.85,291.449z"/>
		<path fill="none" stroke="#FFFFFF" stroke-miterlimit="10" d="M624.799,231.875c0,0-18.238,32.894-21.949,59.574
			C602.85,291.449,631.177,262.73,624.799,231.875z"/>
		<path fill="none" stroke="#FFFFFF" stroke-miterlimit="10" d="M589.763,238.392c0,0,3.092,27.038,13.087,53.057"/>
		<path fill="none" stroke="#FFFFFF" stroke-miterlimit="10" d="M622.445,245.277c0,0-11.231,37.178-18.563,40.26"/>
	</g>
	<circle fill="#FF889C" cx="1114.336" cy="629.942" r="6.407"/>
	<circle fill="#FF889C" cx="243.757" cy="649.233" r="19.291"/>
	<circle fill="#FF889C" cx="187.88" cy="610.526" r="4.557"/>
	<circle fill="#FF889C" cx="760.351" cy="868.883" r="7.883"/>
	<circle fill="#FF889C" cx="406.984" cy="214.866" r="7.866"/>
	<circle fill="#FF889C" cx="271.833" cy="220.739" r="18.833"/>
	<circle fill="#FF889C" cx="655.983" cy="132.966" r="16.966"/>
	<circle fill="#FF889C" cx="615.255" cy="161.729" r="6.729"/>
	<circle fill="#FF889C" cx="1006.272" cy="130.466" r="19.466"/>
	<circle fill="#FF889C" cx="1152.902" cy="248.455" r="10.062"/>
	<circle fill="#FF889C" cx="1177.04" cy="558.884" r="14.075"/>
	<circle fill="#FF889C" cx="227.021" cy="809.459" r="7.438"/>
	<g>
		<g>
			<path fill="#6947A0" d="M940.139,773.193l-2.825,1.824c-2.412-3.738-6.762-5.238-9.695-3.344l-21.788,14.065
				c-2.934,1.894-3.356,6.476-0.943,10.213l-2.825,1.823c-3.418-5.295-2.546-11.961,1.945-14.86l21.788-14.065
				C930.285,765.95,936.72,767.899,940.139,773.193z"/>
		</g>
		<path fill="#5F428E" d="M952.614,762.004l-76.556,49.423c-3.816,2.465-4.914,7.558-2.449,11.374l32.374,50.147
			c2.464,3.817,7.557,4.914,11.374,2.449l76.555-49.422c3.818-2.465,4.914-7.558,2.45-11.374l-32.374-50.147
			C961.523,760.637,956.432,759.54,952.614,762.004z"/>
		<path fill="#7A51B1" d="M959.257,757.716l-76.556,49.423c-3.817,2.465-4.914,7.557-2.449,11.374l32.374,50.147
			c2.464,3.817,7.557,4.914,11.374,2.449l76.555-49.422c3.817-2.465,4.914-7.558,2.45-11.375l-32.374-50.146
			C968.166,756.349,963.074,755.252,959.257,757.716z"/>
		<path fill="none" stroke="#542283" stroke-miterlimit="10" d="M879.408,812.4l54.7,1.77c4.532,0.146,8.688-2.508,10.463-6.682
			l21.438-50.452"/>
		<circle fill="#FEF2DA" cx="937.312" cy="807.727" r="3.86"/>
		<path fill="#6947A0" d="M977.308,832.962L944.2,854.336c-5.72,3.692-13.349,2.049-17.042-3.67l0,0
			c-3.692-5.72-2.049-13.35,3.671-17.042l33.107-21.374c5.72-3.691,13.35-2.049,17.042,3.671l0,0
			C984.671,821.641,983.027,829.27,977.308,832.962z"/>
	</g>
</g>
<g id="TEXT">
	<g>
		
			<text transform="matrix(1 0 0 1 384.041 66.0039)" fill="#FFFFFF" font-family="'Rubik-Regular'" font-size="28.4305" letter-spacing="28">BACK TO SCHOOL</text>
	</g>
</g>
</svg>
