<?xml version="1.0" encoding="utf-8"?>
<!-- Generator: Adobe Illustrator 16.0.0, SVG Export Plug-In . SVG Version: 6.00 Build 0)  -->
<!DOCTYPE svg PUBLIC "-//W3C//DTD SVG 1.1//EN" "http://www.w3.org/Graphics/SVG/1.1/DTD/svg11.dtd">
<svg version="1.1" xmlns="http://www.w3.org/2000/svg" xmlns:xlink="http://www.w3.org/1999/xlink" x="0px" y="0px" width="1400px"
	 height="980px" viewBox="0 0 1400 980" enable-background="new 0 0 1400 980" xml:space="preserve">
<g id="BACKGROUND">
	<rect x="-11.874" y="-10.885" fill="#fcf5f2" width="1424.929" height="1001.95"/>
</g>
<g id="OBJECTS">
	<path fill="#ffce84bd" d="M746.415,275.404c-42.438,27.402-50.473,86.381-16.604,123.862c38.201,42.274,102.102,83.53,203.48,74.792
		c197.7-17.042,132.241-155.042,32.971-161.042c-56.513-3.416-104.554-23.359-135.811-40.644
		C804.063,257.78,771.748,259.046,746.415,275.404L746.415,275.404z"/>
	<path fill="#ffce84bd" d="M158.081,824.546l1044.076-2.031c0,0,26.818-276.71-292.578-273.72
		c-319.396,2.99-179.756-316.493-470.065-307.494C149.205,250.301,109.959,575.333,158.081,824.546z"/>
	<g>
		<rect x="215.905" y="492.061" fill="#9989D3" width="155" height="294.583"/>
		<rect x="370.905" y="355.341" fill="#9989D3" width="168" height="431.302"/>
		<rect x="388.155" y="379.156" fill="#8871C6" width="35.573" height="35.572"/>
		<rect x="437.119" y="379.156" fill="#8871C6" width="35.573" height="35.572"/>
		<rect x="486.083" y="379.156" fill="#8871C6" width="35.572" height="35.572"/>
		<rect x="388.155" y="429.857" fill="#8871C6" width="35.573" height="35.573"/>
		<rect x="437.119" y="429.857" fill="#8871C6" width="35.573" height="35.573"/>
		<rect x="486.083" y="429.857" fill="#8871C6" width="35.572" height="35.573"/>
		<rect x="388.155" y="480.558" fill="#8871C6" width="35.573" height="35.573"/>
		<rect x="437.119" y="480.558" fill="#8871C6" width="35.573" height="35.573"/>
		<rect x="486.083" y="480.558" fill="#8871C6" width="35.572" height="35.573"/>
		<rect x="388.155" y="531.259" fill="#8871C6" width="35.573" height="35.573"/>
		<rect x="437.119" y="531.259" fill="#8871C6" width="35.573" height="35.573"/>
		<rect x="486.083" y="531.259" fill="#8871C6" width="35.572" height="35.573"/>
		<rect x="388.155" y="581.96" fill="#8871C6" width="35.573" height="35.573"/>
		<rect x="437.119" y="581.96" fill="#8871C6" width="35.573" height="35.573"/>
		<rect x="486.083" y="581.96" fill="#8871C6" width="35.572" height="35.573"/>
		<rect x="388.155" y="632.661" fill="#8871C6" width="35.573" height="35.572"/>
		<rect x="437.119" y="632.661" fill="#8871C6" width="35.573" height="35.572"/>
		<rect x="486.083" y="632.661" fill="#8871C6" width="35.572" height="35.572"/>
		<rect x="388.155" y="683.362" fill="#8871C6" width="35.573" height="35.572"/>
		<rect x="437.119" y="683.362" fill="#8871C6" width="35.573" height="35.572"/>
		<rect x="486.083" y="683.362" fill="#8871C6" width="35.572" height="35.572"/>
		<rect x="230.822" y="505.977" fill="#8871C6" width="35.572" height="35.572"/>
		<rect x="279.786" y="505.977" fill="#8871C6" width="35.572" height="35.572"/>
		<rect x="328.75" y="505.977" fill="#8871C6" width="35.573" height="35.572"/>
		<rect x="230.822" y="556.678" fill="#8871C6" width="35.572" height="35.572"/>
		<rect x="279.786" y="556.678" fill="#8871C6" width="35.572" height="35.572"/>
		<rect x="328.75" y="556.678" fill="#8871C6" width="35.573" height="35.572"/>
		<rect x="230.822" y="607.378" fill="#8871C6" width="35.572" height="35.573"/>
		<rect x="279.786" y="607.378" fill="#8871C6" width="35.572" height="35.573"/>
		<rect x="328.75" y="607.378" fill="#8871C6" width="35.573" height="35.573"/>
		<rect x="230.822" y="658.079" fill="#8871C6" width="35.572" height="35.573"/>
		<rect x="279.786" y="658.079" fill="#8871C6" width="35.572" height="35.573"/>
		<rect x="328.75" y="658.079" fill="#8871C6" width="35.573" height="35.573"/>
		<rect x="248.608" y="711.644" fill="#8871C6" width="100.797" height="75"/>
	</g>
	<g>
		<rect x="825.663" y="659.075" fill="#9989D3" width="111.812" height="164.149"/>
		<rect x="704.473" y="543.5" fill="#9989D3" width="121.19" height="279.725"/>
		<rect x="716.916" y="553.067" fill="#8871C6" width="25.661" height="25.661"/>
		<rect x="752.237" y="553.067" fill="#8871C6" width="25.661" height="25.661"/>
		<rect x="787.559" y="553.067" fill="#8871C6" width="25.661" height="25.661"/>
		<rect x="716.916" y="589.642" fill="#8871C6" width="25.661" height="25.661"/>
		<rect x="752.237" y="589.642" fill="#8871C6" width="25.661" height="25.661"/>
		<rect x="787.559" y="589.642" fill="#8871C6" width="25.661" height="25.661"/>
		<rect x="716.916" y="626.216" fill="#8871C6" width="25.661" height="25.661"/>
		<rect x="752.237" y="626.216" fill="#8871C6" width="25.661" height="25.661"/>
		<rect x="787.559" y="626.216" fill="#8871C6" width="25.661" height="25.661"/>
		<rect x="716.916" y="662.79" fill="#8871C6" width="25.661" height="25.661"/>
		<rect x="752.237" y="662.79" fill="#8871C6" width="25.661" height="25.661"/>
		<rect x="787.559" y="662.79" fill="#8871C6" width="25.661" height="25.661"/>
		<rect x="716.916" y="699.364" fill="#8871C6" width="25.661" height="25.661"/>
		<rect x="752.237" y="699.364" fill="#8871C6" width="25.661" height="25.661"/>
		<rect x="787.559" y="699.364" fill="#8871C6" width="25.661" height="25.661"/>
		<rect x="716.916" y="735.938" fill="#8871C6" width="25.661" height="25.661"/>
		<rect x="752.237" y="735.938" fill="#8871C6" width="25.661" height="25.661"/>
		<rect x="787.559" y="735.938" fill="#8871C6" width="25.661" height="25.661"/>
		<rect x="836.424" y="669.809" fill="#8871C6" width="25.66" height="25.661"/>
		<rect x="871.744" y="669.809" fill="#8871C6" width="25.661" height="25.661"/>
		<rect x="907.065" y="669.809" fill="#8871C6" width="25.661" height="25.661"/>
		<rect x="836.424" y="706.383" fill="#8871C6" width="25.66" height="25.661"/>
		<rect x="871.744" y="706.383" fill="#8871C6" width="25.661" height="25.661"/>
		<rect x="907.065" y="706.383" fill="#8871C6" width="25.661" height="25.661"/>
		<rect x="836.424" y="742.957" fill="#8871C6" width="25.66" height="25.661"/>
		<rect x="871.744" y="742.957" fill="#8871C6" width="25.661" height="25.661"/>
		<rect x="907.065" y="742.957" fill="#8871C6" width="25.661" height="25.661"/>
		<rect x="836.424" y="779.532" fill="#8871C6" width="25.66" height="25.66"/>
		<rect x="871.744" y="779.532" fill="#8871C6" width="25.661" height="25.66"/>
		<rect x="907.065" y="779.532" fill="#8871C6" width="25.661" height="25.66"/>
		<rect x="728.712" y="769.121" fill="#8871C6" width="72.712" height="54.104"/>
	</g>
	<path fill="#80CDBB" d="M724.381,822.515h477.836c0,0,4.529-70.448-72.592-55.408c0,0-31.06-67.976-70.507-46.835
		c0,0-14.662-29.294-54.853-17.655c-40.189,11.639-43.104,56.427-43.104,56.427s-24.636-43.873-51.806-13.024
		c0,0-46.51-37.496-61.997,41.021c0,0-23.047-42.043-43.562-1.252c0,0-15.16-18.932-21.121,13.445c0,0-8.659-23.842-22.851-12.221
		C759.825,787.012,722.827,742.618,724.381,822.515z"/>
	<path fill="#80CDBB" d="M144.703,822.515h477.836c0,0,4.528-70.448-72.593-55.408c0,0-31.059-67.976-70.506-46.835
		c0,0-14.662-29.294-54.852-17.655s-43.104,56.427-43.104,56.427s-24.635-43.873-51.805-13.024c0,0-46.51-37.496-61.997,41.021
		c0,0-23.047-42.043-43.562-1.252c0,0-15.161-18.932-21.122,13.445c0,0-8.659-23.842-22.85-12.221
		C180.147,787.012,143.148,742.618,144.703,822.515z"/>
	<g>
		<path fill="#E5AC38" d="M375.543,409.368l-74.715,5.954c-5.706,0.455-9.955,5.46-9.476,11.164l11.619,138.336l98.292-4.574
			c6.222-0.289,10.94-5.718,10.361-11.92l-11.02-117.892C399.418,417.742,388.253,408.355,375.543,409.368z"/>
		<path fill="#F9ACA4" d="M415.314,676.512L385.406,575.99c-4.044-13.592-19.015-20.64-32.066-15.096l0,0
			c-12.503,5.312-18.018,20.006-12.095,32.231l45.724,94.386c3.742,7.725,13.118,10.842,20.74,6.895l0,0
			C414.21,691.04,417.402,683.529,415.314,676.512z"/>
		<path fill="#F9ACA4" d="M497.065,780.712l7.722-8.257l-92.382-97.648c-6.353-6.715-17.365-5.49-22.087,2.456v0.001
			c-3.507,5.901-2.19,13.479,3.104,17.851L497.065,780.712z"/>
		<polygon fill="#FBFDFF" points="497.065,780.712 504.787,772.456 492.098,759.043 478.891,765.702 		"/>
		<polygon fill="#2C3458" points="493.109,776.867 483.876,799.232 510.771,778.414 504.877,772.341 		"/>
		<path fill="#F9ACA4" d="M300.996,687.729l53.722-90.073c7.264-12.179,2.313-27.967-10.604-33.818l0,0
			c-12.375-5.604-26.921,0.287-31.908,12.924l-38.498,97.556c-3.15,7.984,0.904,16.995,8.97,19.932l0,0
			C289.557,696.754,297.246,694.018,300.996,687.729z"/>
		<path fill="#F9ACA4" d="M238.91,810.605l10.748,3.504l49.406-125.015c3.397-8.597-2.371-18.057-11.568-18.975l0,0
			c-6.832-0.682-13.141,3.717-14.863,10.363L238.91,810.605z"/>
		<polygon fill="#FBFDFF" points="243.973,791.067 238.91,810.605 249.657,814.109 256.67,796.365 		"/>
		<polygon fill="#2C3458" points="239.049,807.556 215.68,813.832 248.563,822.515 249.8,814.144 		"/>
		
			<rect x="312.248" y="400.987" transform="matrix(-0.9949 0.1014 -0.1014 -0.9949 694.1632 795.9327)" fill="#E89692" width="29.229" height="29.228"/>
		<path fill="#F9ACA4" d="M294.867,374.265c-3.197,16.367,3.421,40.587,11.13,41.12c13.755,0.951,43.234-15.972,42.4-32.934
			c-0.834-16.963-12.674-30.165-26.445-29.488C308.18,353.64,298.123,357.597,294.867,374.265z"/>
		<path fill="#FFFFFF" d="M308.33,401.996l-10.181,1.3c0,0,1.968,3.697,3.771,3.517C303.724,406.632,308.2,404.008,308.33,401.996z"
			/>
		<path fill="#F9ACA4" d="M296.819,390.004c0,0-1.943,5.668-6.587,10.381c0,0,3.479,1.569,7.917,0L296.819,390.004z"/>
		<path fill="#F9ACA4" d="M144.655,372.967c0,0-7.472,1.392-9.809-2.148c-2.337-3.54,0.849-4.971,0.849-4.971
			s-0.68-4.479,3.395-7.274c3.152-2.162,8.365-3.551,13.89,7.52L144.655,372.967z"/>
		<path fill="#4E7B92" d="M144.655,372.967l53.155,60.658c5.813,6.634,16.27,6.194,21.505-0.905l0,0
			c4.47-6.061,3.262-14.584-2.716-19.164L151.786,363.9L144.655,372.967z"/>
		<path fill="#4E7B92" d="M205.607,439.265l72.768,25.866c9.909,3.522,20.695-2.271,23.23-12.478l0,0
			c2.369-9.538-3.442-19.191-12.98-21.56l-74.95-18.616c-7.507-1.865-15.104,2.709-16.968,10.216l0,0
			C194.97,429.684,198.82,436.852,205.607,439.265z"/>
		<path fill="#294C56" d="M334.124,603.712l29.372,70.876c0,0,32.81,2.592,49.684-18.503l-17.13-82.25L334.124,603.712z"/>
		<path fill="#375E6D" d="M396.049,573.835c0,0-7.686,53.721-46.011,60.428l-28.809,39.28c0,0-30.291,6.753-41.658-14.081
			c0,0,14.13-55.145,20.476-81.089C300.047,578.373,366.045,565.418,396.049,573.835z"/>
		<path fill="#4E7B92" d="M379.065,429.788c4.249,23.332,18.155,80.251,16.984,144.047c0,0-28.811,13.986-46.564,15.885
			c-20.713,2.214-52.895-5.09-52.895-5.09c-15.967-129.667-12.297-155.6-12.297-155.6l82.01-8.769
			C372.398,419.609,377.967,423.757,379.065,429.788z"/>
		<path fill="#F9ACA4" d="M489.474,558.505c0,0-1.829,8.889,0.747,12.26c2.575,3.37,4.502-3.614,4.502-3.614
			s7.311,14.945,13.151,10.343s-0.36-18.687-9.171-24.59L489.474,558.505z"/>
		<path fill="#4E7B92" d="M499.146,553.019l-29.289-75.146c-3.203-8.218-13.183-11.37-20.525-6.482l0,0
			c-6.269,4.173-8.039,12.599-3.981,18.942l44,68.779L499.146,553.019z"/>
		<path fill="#4E7B92" d="M461.626,470.351l-76.414-46.022c-8.994-5.417-20.698-1.963-25.31,7.47l0,0
			c-4.341,8.879-0.663,19.596,8.216,23.938l80.002,39.114c6.948,3.397,15.335,0.519,18.732-6.43l0,0
			C470.018,481.95,467.756,474.133,461.626,470.351z"/>
		<polygon fill="#FDF0EA" points="328.688,503.855 289.05,428.501 359.63,420.955 		"/>
		<polygon fill="#F5687B" points="326.333,444.294 318.263,445.117 317.302,447.402 320.816,452.616 324.836,452.206 
			327.945,445.721 		"/>
		<polygon fill="#F5687B" points="324.836,452.206 334.124,486.467 328.55,504.731 319.435,486.263 320.816,452.616 		"/>
		<polygon fill="#E89692" points="340.322,423.02 322.455,442.664 311.259,426.127 		"/>
		<path fill="#E8DBD6" d="M322.455,442.664l7.055,6.744l17.378-27.222c0,0-4-1.987-6.565,0.834L322.455,442.664z"/>
		<path fill="#E8DBD6" d="M311.259,426.127l11.196,16.537l-5.547,8.027l-11.982-23.887
			C304.925,426.804,307.384,424.188,311.259,426.127z"/>
		<path fill="#375E6D" d="M354.689,420.673l-26,83.182l26.065-40.048l-4.792-11.445l17.66-32.29
			C367.622,420.073,361.565,415.285,354.689,420.673z"/>
		<path fill="#375E6D" d="M297.284,427.621l31.405,76.234l-28.715-38.18l2.946-9.847l-19.271-27.036
			C283.649,428.793,290.951,423.086,297.284,427.621z"/>
		<path fill="#000304" d="M283.929,362.211c0,0,5.552,13.457,25.737,15.821c0,0,4.605,14.002,16.124,11.093
			c0,0,0.946,17.822,14.234,17.094c0,0,14.924-15.094,16.561-37.825c0,0-16.884-29.642-54.451-28.005
			C302.134,340.389,275.649,344.208,283.929,362.211z"/>
		<path fill="#F9ACA4" d="M321.655,388.589c0,0,5.049-9.335,8.831-4.2c3.781,5.135-3.318,15.856-7.259,15.807L321.655,388.589z"/>
		<path fill="#F9ACA4" d="M135.694,365.849c0,0-10.153-6.092-8.971-11.82c0,0,6.456,5.637,12.184,6.729
			C138.907,360.757,139.847,366.667,135.694,365.849z"/>
		<path fill="#FCC544" d="M377.405,420.955c0,0-4.939,63.704,16.237,97.472c0,0-39.678-16.341-28.73-99.735
			C364.913,418.692,372.767,414.231,377.405,420.955z"/>
		<path fill="#FCC544" d="M289.536,522.218c0,0,6.583-52.185,11.572-95.006c0,0-12.058-6.717-18.842,2.303
			C282.267,429.515,278.413,506.893,289.536,522.218z"/>
	</g>
	<g>
		<path fill="#242744" d="M1025.021,495.283c0,0,24.306,36.707,24.669,53.512h-24.669V495.283z"/>
		<path fill="#DB8E8A" d="M1051.762,678.606l-25.735-101.672c-3.479-13.746-18.146-21.405-31.416-16.404l0,0
			c-12.712,4.791-18.828,19.244-13.415,31.704l41.791,96.192c3.42,7.872,12.659,11.373,20.438,7.744l0,0
			C1050.059,693.076,1053.559,685.703,1051.762,678.606z"/>
		<path fill="#DB8E8A" d="M1152.289,759.076l5.757-9.729l-111.287-75.398c-7.652-5.186-18.14-1.611-21.035,7.167l0,0
			c-2.15,6.52,0.772,13.634,6.885,16.76L1152.289,759.076z"/>
		<polygon fill="#FCFFF8" points="1152.289,759.076 1158.046,749.348 1142.761,738.991 1131.303,748.345 		"/>
		<polygon fill="#2C3458" points="1147.597,756.176 1143.41,780.008 1165.175,753.873 1158.109,749.216 		"/>
		<path fill="#DB8E8A" d="M944.381,688.338l51.559-91.556c6.789-12.449,1.234-28.036-11.898-33.385l0,0
			c-12.581-5.124-26.891,1.323-31.387,14.142L918.86,678.355c-2.841,8.1,0.639,15.097,8.811,17.721l0,0
			C934.642,698.314,940.875,694.766,944.381,688.338z"/>
		<path fill="#DB8E8A" d="M874.506,808.535l10.467,4.27l58.291-121.127c4.008-8.33-1.062-18.182-10.17-19.76l0,0
			c-6.765-1.173-13.375,2.76-15.571,9.265L874.506,808.535z"/>
		<polygon fill="#FCFFF8" points="880.966,789.412 874.506,808.535 884.974,812.805 893.247,795.611 		"/>
		<polygon fill="#2C3458" points="874.865,805.503 851.104,810.078 883.276,821.109 885.113,812.849 		"/>
		
			<rect x="952.886" y="400.986" transform="matrix(-0.9949 0.1014 -0.1014 -0.9949 1972.1401 731.0022)" fill="#C47674" width="29.229" height="29.228"/>
		<path fill="#DB8E8A" d="M935.505,374.265c-3.196,16.367,3.422,40.587,11.13,41.12c13.756,0.951,43.234-15.972,42.4-32.934
			c-0.834-16.963-12.674-30.165-26.445-29.488C948.818,353.64,938.761,357.597,935.505,374.265z"/>
		<path fill="#FFFFFF" d="M948.968,401.996l-10.181,1.3c0,0,1.969,3.697,3.771,3.517
			C944.361,406.632,948.838,404.008,948.968,401.996z"/>
		<path fill="#DB8E8A" d="M937.457,390.004c0,0-3.715,0.795-6.587,10.381c0,0,3.479,1.569,7.917,0L937.457,390.004z"/>
		<path fill="#DB8E8A" d="M822.834,571.374c0,0-8.903,1.752-11.016,5.431c-2.113,3.678,5.073,2.753,5.073,2.753
			s-10.954,12.522-4.45,16.128c6.503,3.605,17.093-7.561,19.128-17.969L822.834,571.374z"/>
		<path fill="#FCC544" d="M830.723,579.589l62.65-50.791c6.852-5.555,6.812-16.021-0.08-21.524l0,0
			c-5.885-4.699-14.448-3.818-19.254,1.979l-52.104,62.863L830.723,579.589z"/>
		<path fill="#FCC544" d="M898.823,523.346l37.687-67.408c5.132-9.179,1.227-20.783-8.411-24.992l0,0
			c-9.007-3.933-19.496,0.18-23.429,9.187l-30.905,70.775c-3.095,7.088,0.142,15.343,7.23,18.438l0,0
			C887.597,532.229,895.308,529.633,898.823,523.346z"/>
		<path fill="#242744" d="M974.762,603.712l29.371,70.876c0,0,28.683,9.822,45.557-11.272l-13.003-89.48L974.762,603.712z"/>
		<path fill="#32345B" d="M1036.687,573.835c0,0-7.686,53.721-46.011,60.428L962.4,678.955c0,0-29.064,4.148-40.432-16.687
			c0,0,12.371-57.951,18.717-83.896C940.686,578.373,1006.684,565.418,1036.687,573.835z"/>
		<path fill="#FCC544" d="M1019.703,429.788c4.249,23.332,18.155,80.251,16.983,144.047c0,0-28.81,13.986-46.563,15.885
			c-20.713,2.214-52.895-5.09-52.895-5.09c-15.968-129.667-12.297-155.6-12.297-155.6l82.01-8.769
			C1013.037,419.609,1018.604,423.757,1019.703,429.788z"/>
		<path fill="#DB8E8A" d="M1129.298,449.542c0,0-1.04-5.949,2.56-8.193c3.599-2.244,5.395,0.016,5.395,0.016s4.86-3.277,8.699,3.091
			c3.839,6.369,0.33,11.174-9.998,13.586L1129.298,449.542z"/>
		<path fill="#FCC544" d="M1136.408,458.09l-53.936,59.965c-5.898,6.558-16.349,5.982-21.492-1.184l0,0
			c-4.391-6.117-3.072-14.625,2.964-19.127l65.451-48.812L1136.408,458.09z"/>
		<path fill="#FCC544" d="M1083.46,500.124l-55.242-70.039c-6.502-8.244-18.672-9.145-26.317-1.948l0,0
			c-7.196,6.774-7.539,18.1-0.765,25.297l61.038,64.844c5.301,5.632,14.164,5.899,19.796,0.598l0,0
			C1087.215,513.938,1087.859,505.827,1083.46,500.124z"/>
		<polygon fill="#FAE9E1" points="969.327,503.855 929.688,428.501 1000.268,420.955 		"/>
		<polygon fill="#3D4B63" points="966.972,444.294 958.9,445.117 957.94,447.402 961.455,452.616 965.475,452.206 968.583,445.721 
					"/>
		<polygon fill="#3D4B63" points="965.475,452.206 974.762,486.467 969.188,504.731 960.072,486.263 961.455,452.616 		"/>
		<polygon fill="#C47674" points="980.96,423.02 963.093,442.664 951.896,426.127 		"/>
		<path fill="#D4BFBA" d="M963.093,442.664l7.055,6.744l17.378-27.222c0,0-4-1.987-6.565,0.834L963.093,442.664z"/>
		<path fill="#D4BFBA" d="M951.896,426.127l11.196,16.537l-5.547,8.027l-11.982-23.887
			C945.563,426.804,948.022,424.188,951.896,426.127z"/>
		<path fill="#D8A235" d="M995.327,420.673l-26.001,83.182l26.065-40.048l-4.792-11.445l17.66-32.29
			C1008.26,420.073,1002.203,415.285,995.327,420.673z"/>
		<path fill="#D8A235" d="M937.922,427.621l31.404,76.234l-28.715-38.18l2.947-9.847l-19.271-27.036
			C924.287,428.793,931.589,423.086,937.922,427.621z"/>
		<path fill="#475977" d="M988.793,559.479c0,0,0.517,77.65,23.433,98.018s77.472-20.004,77.472-20.004s1.818-70.923-17.821-85.471
			C1052.235,537.474,1002.82,550.206,988.793,559.479z"/>
		<path fill="#314056" d="M1035.076,662.827c2.094-8.596,3.497-21.677,4.191-40.975c2.671-74.195-42.997-65.411-42.997-65.411
			c-0.882,0.062-1.725,0.177-2.55,0.316c-1.925,0.92-3.589,1.836-4.927,2.721c0,0,0.516,77.65,23.432,98.018
			C1018.2,662.807,1026.328,663.982,1035.076,662.827z"/>
		<path fill="#5E7391" d="M988.793,559.479c0,0,39.425-7.239,43.796,30.659s58.199,16.406,60.745,6.239
			s-11.639-47.362-23.641-50.951C1057.691,541.838,999.184,539.658,988.793,559.479z"/>
		<path fill="#242744" d="M927.229,427.097c0,0,14.143,89.646,81.031,139.109c0,0-1.487,17.669-13.854,13.383
			c-5.882-2.038-79.651-55.209-76.522-149.861C917.884,429.728,921.881,425.104,927.229,427.097z"/>
		
			<ellipse transform="matrix(0.9865 -0.164 0.164 0.9865 -84.0227 184.4192)" fill="#242744" cx="1075.027" cy="601.141" rx="6.789" ry="3.03"/>
		<g>
			<g>
				<path fill="#80CDBB" d="M1146.737,235.382c-0.035,1.721-1.413,65.562-1.452,67.291c35.689,27.67,53.402-16.069,92.703-10.81
					c0.063-1.785,18.963-24.868,19.022-26.644C1220.955,238.393,1182.791,262.213,1146.737,235.382z"/>
			</g>
			<path fill="#6D6C6C" d="M1135.227,594.798l-5.316-0.226l15.595-367.725c0.042-1.009,0.896-1.792,1.904-1.75l1.662,0.07
				c1.009,0.043,1.793,0.896,1.75,1.905L1135.227,594.798z"/>
		</g>
		<path fill="#DB8E8A" d="M1130.271,442.961c0,0,3.826-6.871,8.04-7.144s2.486,5.546-2.696,6.546L1130.271,442.961z"/>
		<path fill="#DB8E8A" d="M1141.817,439.385c0,0-8.698,11.796-0.722,17.026c0,0,2.976-0.498,3.521-4.59
			c0.545-4.092,1.598-6.898,1.598-6.898S1145.02,440.406,1141.817,439.385z"/>
		<path fill="#000304" d="M924.287,373.584c0,0,1.878,5.073,10.88,2.718c0,0,3.325,4.192,13.801,2.01c0,0,3.312,4.44,11.104,4.534
			c0,0-4.442,10.941,2.951,11.139c0,0,4.837,7.604,9.176,5.058c0,0-2.773,8.782,3.109,7.776c0,0,0.826,4.136,6.302,3.09
			c0,0,9.112,2.713,13.112-9.713c0,0,20.164-8.062,13.537-23.702c0,0,7.009-23.277-7.992-28.005c0,0-5.908-14.912-23.002-13.093
			c0,0-16.486-13.821-31.702,3.637c0,0-12.897-2.546-15.875,9.093C929.688,348.125,912.045,359.764,924.287,373.584z"/>
		<path fill="#DB8E8A" d="M962.293,388.589c0,0,5.049-9.335,8.831-4.2c3.781,5.135-3.318,15.856-7.26,15.807L962.293,388.589z"/>
	</g>
	<g>
		<path fill="#000304" d="M623.458,381.636c0,0,6.801,22.59,5.251,40.823c0,0,20.191-1.862,25.67-17.83
			C659.859,388.662,634.664,371.374,623.458,381.636z"/>
		<path fill="#FFC3C0" d="M622.45,684.939l43.718-98.437c5.609-13.259-1.568-28.447-15.373-32.532h0
			c-13.225-3.914-27.034,4.036-30.289,17.438l-24.714,104.136c-2.057,8.468,2.857,16.298,11.377,18.128l0,0
			C614.436,695.234,619.554,691.785,622.45,684.939z"/>
		<path fill="#FFC3C0" d="M566.853,810.865l11.057,3.076l44.541-129.002c3.063-8.871-3.208-18.209-12.579-18.73l0,0
			c-6.959-0.387-13.163,4.356-14.613,11.174L566.853,810.865z"/>
		<polygon fill="#FBFDFF" points="577.91,813.941 566.853,810.865 586.132,720.271 608.915,724.142 		"/>
		
			<rect x="645.679" y="396.609" transform="matrix(-0.9829 0.1843 -0.1843 -0.9829 1379.1104 694.7335)" fill="#F4B5B3" width="23.192" height="29.675"/>
		<path fill="#FFC3C0" d="M623.965,371.794c2.524,12.479,5.032,35.547,13.954,41.624c6.773,4.613,47.33-19.701,28.292-38.568
			c-12.247-12.137-3.597-29.978-17.407-27.692C634.993,349.442,620.547,354.894,623.965,371.794z"/>
		<path fill="#FFFFFF" d="M639.578,404.83l-6.119,1.51c0,0,1.46,2.117,2.548,1.88S639.64,406.067,639.578,404.83z"/>
		<path fill="#FFC3C0" d="M628.948,391.888c0,0-0.134,2.903-3.934,12.133c0,0,3.178,0.122,7.471-1.977L628.948,391.888z"/>
		<path fill="#FFC3C0" d="M515.229,564.1c0,0-1.948,9.005-5.722,11.08c-3.774,2.074-2.699-5.203-2.699-5.203
			s-12.919,10.881-16.456,4.211c-3.536-6.67,8-17.207,18.604-19.075L515.229,564.1z"/>
		<path fill="#FFC3C0" d="M515.229,564.1l65.744-48.812c7.19-5.338,7.603-15.956,0.85-21.836l0,0
			c-5.766-5.021-14.491-4.498-19.616,1.176L506.64,556.14L515.229,564.1z"/>
		<path fill="#FFC3C0" d="M583.683,512.579l55.034-55.846c7.494-7.605,6.794-20.016-1.508-26.729l0,0
			c-7.758-6.274-19.134-5.071-25.408,2.688L562.5,493.658c-4.938,6.106-3.99,15.059,2.116,19.996l0,0
			C570.302,518.253,578.549,517.788,583.683,512.579z"/>
		<path fill="#EDF0F2" d="M613.22,428.373l-23.828,32.03c0,0,10.068,25.635,29.395,25.269l26.398-36.624L613.22,428.373z"/>
		<path fill="#FFC3C0" d="M806.915,586.498c0,0,6.846,6.166,11.12,5.642s-0.854-5.799-0.854-5.799s16.844,1.271,15.812-6.206
			c-1.032-7.479-16.551-9.28-26.246-4.595L806.915,586.498z"/>
		<path fill="#FFC3C0" d="M806.896,586.417l-64.743-50.132c-7.08-5.482-7.278-16.105-0.407-21.849l0,0
			c5.866-4.903,14.579-4.204,19.588,1.572l54.312,62.624L806.896,586.417z"/>
		<path fill="#FFC3C0" d="M737.542,531.037L688.04,455.2c-5.827-8.926-2.752-20.928,6.648-25.954l0,0
			c8.849-4.731,19.857-1.392,24.589,7.457l42.625,79.731c3.703,6.926,1.09,15.54-5.835,19.242v0.001
			C749.618,539.125,741.604,537.118,737.542,531.037z"/>
		<path fill="#FBFDFF" d="M736.181,468.322c0,0-16.526,22.654-33.624,22.157l-17.88-42.513l20.082-22.104l6.288,1.698
			c3.082,0.832,5.671,2.924,7.131,5.763L736.181,468.322z"/>
		<path fill="#FFC3C0" d="M731.448,675.852l-38.53-101.127c-5.303-13.384-21.073-19.174-33.777-12.401l0,0
			c-12.171,6.487-16.435,21.841-9.354,33.676l54.67,91.371c4.474,7.478,14.234,9.793,21.591,5.121l0,0
			C732.322,688.506,734.187,682.762,731.448,675.852z"/>
		<path fill="#FFC3C0" d="M796.946,794.075l9.123-6.963L730.052,673.77c-5.228-7.794-16.459-8.426-22.526-1.267l0,0
			c-4.508,5.317-4.467,13.126,0.096,18.396L796.946,794.075z"/>
		<polygon fill="#FBFDFF" points="755.667,711.963 806.069,787.112 796.946,794.075 734.943,722.457 		"/>
		<polygon fill="#2E1E1E" points="793.635,789.559 780.618,810.394 811.055,794.086 806.18,787.012 		"/>
		<path fill="#A1BDFF" d="M613.918,546.812c0,0-4.277,60.529-18.875,93.446c0,0,57.159,43.243,131.125,2.581
			c0,0-2.907-70.626-18.235-92.433C707.934,550.407,661.476,534.044,613.918,546.812z"/>
		<path fill="#FBFDFF" d="M605.322,473.869c0-6.797,5.784-16.473,6.91-21.757c0.299-24.358,0.495-24.273,0.495-24.273
			s15.181-7.553,46.861-7.553c31.94,0,47.791,7.081,47.791,7.081s7.284,18.435-2.458,60.767
			c-4.867,21.145-6.115,10.971,3.013,62.275c0,0-19.101,7.62-47.525,8.944c-34.498,1.607-46.49-12.539-46.49-12.539
			c3.415-41.605-0.721-52.319-2.009-55.266C607.854,488.313,605.322,480.593,605.322,473.869z"/>
		<path fill="#F4B5B3" d="M648.672,460.543c0,0-14.568-7.822-16.995-38.014c7.198-1.258,16.474-2.244,27.911-2.244
			c8.813,0,16.395,0.541,22.763,1.321C681.882,427.089,678.159,448.47,648.672,460.543z"/>
		<polygon fill="#FFE9DB" points="678.001,440.414 631.677,440.414 648.672,460.543 		"/>
		<rect x="634.334" y="440.414" fill="#8CACEA" width="40.09" height="3.147"/>
		<path fill="#F5687B" d="M698.76,434.834c0,0-1.789,32.941-29.822,31.333c-28.034-1.607-20.266-5.625-20.266-5.625L698.76,434.834z
			"/>
		<path fill="#F5687B" d="M620.548,434.834l28.124,25.708c0,0-0.268,4.018-5.893,4.018S613.852,456.535,620.548,434.834z"/>
		<path fill="#A1BDFF" d="M682.351,421.606l-33.679,38.937c0,0,35.757,4.89,56.984-33.849
			C705.656,426.694,697.548,419.632,682.351,421.606z"/>
		<path fill="#A1BDFF" d="M631.677,422.529l16.995,38.014c0,0-29.838-11.84-35.945-32.705
			C612.727,427.838,621.111,421.746,631.677,422.529z"/>
		<path fill="#EF619B" d="M648.577,462.781c0,0,13.89,0.44,14.693,16.913C663.27,479.694,647.812,477.876,648.577,462.781z"/>
		<path fill="#EF619B" d="M629.655,479.694c0,0,6.428-20.089,18.214-17.946C647.869,461.749,645.19,479.292,629.655,479.694z"/>
		
			<ellipse transform="matrix(-0.9824 -0.1867 0.1867 -0.9824 1198.6792 1037.0162)" fill="#D8455E" cx="648.164" cy="462.072" rx="3.444" ry="4.553"/>
		<polygon fill="#2E1E1E" points="566.858,807.766 543.436,815.173 577.175,822.515 578.056,813.969 		"/>
		<path fill="#000304" d="M630.699,348.148c0,0-16.975,9.699-8.614,35.35c0,0,6.863,8.389,33.824,6.795c0,0,12.3,11.519,8.04,32.166
			c0,0,21.333,0.178,28.82-21.956c0,0,13.46-36.353-6.216-50.659C667.617,336.078,642.055,341.811,630.699,348.148z"/>
	</g>
	<g>
		<path fill="none" stroke="#FFFFFF" stroke-miterlimit="10" d="M177.478,822.515c0,0,0.728-68.495-50.191-76.496
			C127.287,746.019,120.74,814.389,177.478,822.515z"/>
		<path fill="none" stroke="#FFFFFF" stroke-miterlimit="10" d="M177.479,742.08c0,0-7.274,47.092,0,80.435
			C177.478,822.515,198.574,775.968,177.479,742.08z"/>
		<path fill="none" stroke="#FFFFFF" stroke-miterlimit="10" d="M138.683,765.173c0,0,15.518,30.789,38.795,57.342"/>
		<path fill="none" stroke="#FFFFFF" stroke-miterlimit="10" d="M180.55,759.043c0,0,2.933,49.116-4.434,55.992"/>
	</g>
	<g>
		<path fill="none" stroke="#FFFFFF" stroke-miterlimit="10" d="M648.567,822.515c0,0-0.487-45.894,33.629-51.255
			C682.197,771.26,686.583,817.07,648.567,822.515z"/>
		<path fill="none" stroke="#FFFFFF" stroke-miterlimit="10" d="M648.567,768.621c0,0,4.875,31.554,0,53.894
			C648.567,822.515,634.433,791.327,648.567,768.621z"/>
		<path fill="none" stroke="#FFFFFF" stroke-miterlimit="10" d="M674.561,784.095c0,0-10.397,20.629-25.994,38.42"/>
		<path fill="none" stroke="#FFFFFF" stroke-miterlimit="10" d="M646.509,779.987c0,0-1.965,32.909,2.971,37.516"/>
	</g>
	<g>
		<path fill="none" stroke="#FFFFFF" stroke-miterlimit="10" d="M1191.763,822.515c0,0-0.487-45.894,33.629-51.255
			C1225.392,771.26,1229.778,817.07,1191.763,822.515z"/>
		<path fill="none" stroke="#FFFFFF" stroke-miterlimit="10" d="M1191.762,768.621c0,0,4.874,31.554,0.001,53.894
			C1191.763,822.515,1177.627,791.327,1191.762,768.621z"/>
		<path fill="none" stroke="#FFFFFF" stroke-miterlimit="10" d="M1217.756,784.095c0,0-10.397,20.629-25.993,38.42"/>
		<path fill="none" stroke="#FFFFFF" stroke-miterlimit="10" d="M1189.704,779.987c0,0-1.965,32.909,2.971,37.516"/>
	</g>
	<rect x="143.484" y="822.515" fill="#513E84" width="1058.672" height="4.062"/>
</g>
<g id="TEXT">
	<g>
		
			<text transform="matrix(1 0 0 1 405.9419 82.0039)" fill="#FFFFFF" font-family="'Rubik-Regular'" font-size="28.4305" letter-spacing="28">BACK TO SCHOOL</text>
	</g>
</g>
</svg>
