<?xml version="1.0" encoding="utf-8"?>
<!-- Generator: Adobe Illustrator 16.0.0, SVG Export Plug-In . SVG Version: 6.00 Build 0)  -->
<!DOCTYPE svg PUBLIC "-//W3C//DTD SVG 1.1//EN" "http://www.w3.org/Graphics/SVG/1.1/DTD/svg11.dtd">
<svg version="1.1" xmlns="http://www.w3.org/2000/svg" xmlns:xlink="http://www.w3.org/1999/xlink" x="0px" y="0px" width="1400px"
	 height="980px" viewBox="0 0 1400 980" enable-background="new 0 0 1400 980" xml:space="preserve">
<g id="BACKGROUND">
	<rect x="-12.728" y="-8.885" fill="#ffe2b5" width="1424.929" height="1001.95"/>
</g>
<g id="OBJECTS">
	<g>
		
			<rect x="504.305" y="604.27" transform="matrix(0.9606 -0.2778 0.2778 0.9606 -175.5901 172.2446)" fill="#442B0D" width="31.398" height="202.914"/>
		<polygon fill="#C45D3C" points="476.736,612.625 482.4,575.701 506.898,603.902 		"/>
		
			<rect x="477.746" y="608.033" transform="matrix(0.9606 -0.2778 0.2778 0.9606 -151.136 161.2703)" fill="#F58225" width="31.398" height="11.716"/>
		
			<ellipse transform="matrix(0.9606 -0.2778 0.2778 0.9606 -174.1039 171.5881)" fill="#F58225" cx="518.376" cy="700.099" rx="10.075" ry="73.105"/>
		
			<rect x="531.19" y="794.001" transform="matrix(0.9606 -0.2778 0.2778 0.9606 -200.3575 183.3729)" fill="#F58225" width="31.398" height="9.373"/>
		<path fill="#442B0D" d="M563.271,798.828l-30.162,8.723l2.968,10.262c1.285,4.443,5.929,7.004,10.372,5.719l14.071-4.069
			c4.443-1.285,7.004-5.93,5.719-10.372L563.271,798.828z"/>
		<polygon fill="#0A4C5C" points="491.996,586.748 482.4,575.701 480.182,590.165 		"/>
	</g>
	<g>
		<path fill="#A33423" d="M850.471,862.85h150.431c16.568,0,30-13.431,30-30V596.703c0-16.568-13.432-30-30-30H794.971V807.35
			C794.971,838.002,819.819,862.85,850.471,862.85z"/>
		<path fill="#E8DCCF" d="M857.381,862.85h150.431c16.568,0,30-13.431,30-30V596.703c0-16.568-13.432-30-30-30H801.881V807.35
			C801.881,838.002,826.729,862.85,857.381,862.85z"/>
		<path fill="none" stroke="#C9BAB5" stroke-miterlimit="10" d="M806.323,566.703v268.753c0,15.13,12.265,27.394,27.394,27.394"/>
		<path fill="none" stroke="#C9BAB5" stroke-miterlimit="10" d="M810.766,566.703v268.753c0,15.13,12.265,27.394,27.394,27.394"/>
		<path fill="#A33423" d="M868.733,862.85h150.431c16.568,0,30-13.431,30-30V596.703c0-16.568-13.432-30-30-30H813.233V807.35
			C813.233,838.002,838.081,862.85,868.733,862.85z"/>
		<path fill="#AFCC4C" d="M1018.562,566.703h15.795c8.178,0,14.808,6.63,14.808,14.808v266.532c0,8.178-6.63,14.807-14.808,14.807
			h-15.795V566.703z"/>
		<circle fill="#257955" cx="1034.516" cy="600.514" r="9.292"/>
		<circle fill="#0F4B4C" cx="1034.517" cy="600.514" r="5.446"/>
		<path fill="#E5D9D6" d="M1035.478,596.989h22.428c2.123,0,3.845,1.721,3.845,3.845c0,2.123-1.722,3.845-3.845,3.845h-22.428
			c-2.123,0-3.845-1.722-3.845-3.845C1031.633,598.71,1033.354,596.989,1035.478,596.989z"/>
		<circle fill="#257955" cx="1034.516" cy="646.909" r="9.292"/>
		<circle fill="#0F4B4C" cx="1034.517" cy="646.909" r="5.446"/>
		<path fill="#E5D9D6" d="M1035.478,643.385h22.428c2.123,0,3.845,1.722,3.845,3.846c0,2.123-1.722,3.844-3.845,3.844h-22.428
			c-2.123,0-3.845-1.721-3.845-3.844C1031.633,645.106,1033.354,643.385,1035.478,643.385z"/>
		<circle fill="#257955" cx="1034.516" cy="693.306" r="9.292"/>
		<circle fill="#0F4B4C" cx="1034.517" cy="693.306" r="5.446"/>
		<path fill="#E5D9D6" d="M1035.478,689.781h22.428c2.123,0,3.845,1.722,3.845,3.845c0,2.124-1.722,3.845-3.845,3.845h-22.428
			c-2.123,0-3.845-1.721-3.845-3.845C1031.633,691.503,1033.354,689.781,1035.478,689.781z"/>
		<circle fill="#257955" cx="1034.516" cy="739.702" r="9.292"/>
		<circle fill="#0F4B4C" cx="1034.517" cy="739.702" r="5.446"/>
		<path fill="#E5D9D6" d="M1035.478,736.178h22.428c2.123,0,3.845,1.722,3.845,3.845c0,2.124-1.722,3.845-3.845,3.845h-22.428
			c-2.123,0-3.845-1.721-3.845-3.845C1031.633,737.899,1033.354,736.178,1035.478,736.178z"/>
		<circle fill="#257955" cx="1034.516" cy="786.099" r="9.292"/>
		<circle fill="#0F4B4C" cx="1034.517" cy="786.099" r="5.446"/>
		<path fill="#E5D9D6" d="M1035.478,782.574h22.428c2.123,0,3.845,1.722,3.845,3.845s-1.722,3.845-3.845,3.845h-22.428
			c-2.123,0-3.845-1.722-3.845-3.845S1033.354,782.574,1035.478,782.574z"/>
		<circle fill="#257955" cx="1034.516" cy="832.495" r="9.292"/>
		<circle fill="#0F4B4C" cx="1034.517" cy="832.495" r="5.446"/>
		<path fill="#E5D9D6" d="M1035.478,828.971h22.428c2.123,0,3.845,1.722,3.845,3.845s-1.722,3.845-3.845,3.845h-22.428
			c-2.123,0-3.845-1.722-3.845-3.845S1033.354,828.971,1035.478,828.971z"/>
		<rect x="1010.664" y="566.703" fill="#C6E058" width="7.897" height="296.146"/>
		<rect x="838.405" y="609.645" fill="#FCEFDF" width="151.529" height="83.415"/>
		<rect x="844.822" y="615.074" fill="#4BA156" width="139.683" height="72.556"/>
		<rect x="883.321" y="626.426" fill="#FCEFDF" width="64.165" height="7.897"/>
		<line fill="none" stroke="#FCEFDF" stroke-miterlimit="10" x1="976.36" y1="649.131" x2="854.94" y2="649.131"/>
		<line fill="none" stroke="#FCEFDF" stroke-miterlimit="10" x1="976.36" y1="664.432" x2="854.94" y2="664.432"/>
		<line fill="none" stroke="#FCEFDF" stroke-miterlimit="10" x1="947.486" y1="679.732" x2="884.049" y2="679.732"/>
	</g>
	<g>
		<path fill="#19BCC3" d="M198.363,863.531l279.273,0.524l-0.691-322.474L198.363,863.531z M435.908,818.784l-146.424-0.298
			l146.06-169.67L435.908,818.784z"/>
		<path fill="#138A8E" d="M211.368,863.556l266.268,0.5l-0.658-307.457L211.368,863.556z M435.908,818.784l-146.424-0.298
			l146.06-169.67L435.908,818.784z"/>
		<polygon fill="#19BCC3" points="477.636,864.056 198.363,863.532 205.461,855.329 477.616,854.746 		"/>
		<polygon fill="#1BA8AF" points="464.559,555.896 476.945,541.582 477.636,864.056 465.219,864.032 		"/>
		<g>
			<g>
				<g>
					<line fill="none" stroke="#0A5656" stroke-miterlimit="10" x1="457.093" y1="842.98" x2="457.138" y2="864.1"/>
				</g>
				<g>
					<line fill="none" stroke="#0A5656" stroke-miterlimit="10" x1="449.026" y1="849.214" x2="449.058" y2="864.116"/>
				</g>
				<g>
					<line fill="none" stroke="#0A5656" stroke-miterlimit="10" x1="440.945" y1="849.23" x2="440.978" y2="864.134"/>
				</g>
				<g>
					<line fill="none" stroke="#0A5656" stroke-miterlimit="10" x1="432.865" y1="849.248" x2="432.897" y2="864.151"/>
				</g>
				<g>
					<line fill="none" stroke="#0A5656" stroke-miterlimit="10" x1="424.771" y1="843.05" x2="424.816" y2="864.168"/>
				</g>
				<g>
					<line fill="none" stroke="#0A5656" stroke-miterlimit="10" x1="416.704" y1="849.283" x2="416.736" y2="864.186"/>
				</g>
				<g>
					<line fill="none" stroke="#0A5656" stroke-miterlimit="10" x1="408.624" y1="849.3" x2="408.655" y2="864.203"/>
				</g>
				<g>
					<line fill="none" stroke="#0A5656" stroke-miterlimit="10" x1="400.543" y1="849.317" x2="400.575" y2="864.221"/>
				</g>
				<g>
					<line fill="none" stroke="#0A5656" stroke-miterlimit="10" x1="392.449" y1="843.119" x2="392.495" y2="864.238"/>
				</g>
				<g>
					<line fill="none" stroke="#0A5656" stroke-miterlimit="10" x1="384.382" y1="849.352" x2="384.414" y2="864.255"/>
				</g>
				<g>
					<line fill="none" stroke="#0A5656" stroke-miterlimit="10" x1="376.302" y1="849.369" x2="376.333" y2="864.272"/>
				</g>
				<g>
					<line fill="none" stroke="#0A5656" stroke-miterlimit="10" x1="368.221" y1="849.387" x2="368.253" y2="864.29"/>
				</g>
				<g>
					<line fill="none" stroke="#0A5656" stroke-miterlimit="10" x1="360.127" y1="843.188" x2="360.173" y2="864.307"/>
				</g>
				<g>
					<line fill="none" stroke="#0A5656" stroke-miterlimit="10" x1="352.061" y1="849.421" x2="352.092" y2="864.324"/>
				</g>
				<g>
					<line fill="none" stroke="#0A5656" stroke-miterlimit="10" x1="343.98" y1="849.438" x2="344.012" y2="864.342"/>
				</g>
				<g>
					<line fill="none" stroke="#0A5656" stroke-miterlimit="10" x1="335.899" y1="849.456" x2="335.932" y2="864.359"/>
				</g>
				<g>
					<line fill="none" stroke="#0A5656" stroke-miterlimit="10" x1="327.806" y1="843.258" x2="327.851" y2="864.376"/>
				</g>
				<g>
					<line fill="none" stroke="#0A5656" stroke-miterlimit="10" x1="319.738" y1="849.49" x2="319.771" y2="864.394"/>
				</g>
				<g>
					<line fill="none" stroke="#0A5656" stroke-miterlimit="10" x1="311.658" y1="849.508" x2="311.69" y2="864.411"/>
				</g>
				<g>
					<line fill="none" stroke="#0A5656" stroke-miterlimit="10" x1="303.578" y1="849.525" x2="303.609" y2="864.428"/>
				</g>
				<g>
					<line fill="none" stroke="#0A5656" stroke-miterlimit="10" x1="295.484" y1="843.326" x2="295.529" y2="864.445"/>
				</g>
				<g>
					<line fill="none" stroke="#0A5656" stroke-miterlimit="10" x1="287.417" y1="849.56" x2="287.449" y2="864.463"/>
				</g>
				<g>
					<line fill="none" stroke="#0A5656" stroke-miterlimit="10" x1="279.336" y1="849.577" x2="279.368" y2="864.48"/>
				</g>
				<g>
					<line fill="none" stroke="#0A5656" stroke-miterlimit="10" x1="271.256" y1="849.595" x2="271.288" y2="864.497"/>
				</g>
				<g>
					<line fill="none" stroke="#0A5656" stroke-miterlimit="10" x1="263.162" y1="843.396" x2="263.207" y2="864.515"/>
				</g>
				<g>
					<line fill="none" stroke="#0A5656" stroke-miterlimit="10" x1="255.095" y1="849.629" x2="255.126" y2="864.532"/>
				</g>
				<g>
					<line fill="none" stroke="#0A5656" stroke-miterlimit="10" x1="247.014" y1="849.646" x2="247.046" y2="864.549"/>
				</g>
				<g>
					<line fill="none" stroke="#0A5656" stroke-miterlimit="10" x1="238.934" y1="849.664" x2="238.966" y2="864.566"/>
				</g>
				<g>
					<line fill="none" stroke="#0A5656" stroke-miterlimit="10" x1="230.84" y1="843.465" x2="230.885" y2="864.584"/>
				</g>
				<g>
					<line fill="none" stroke="#0A5656" stroke-miterlimit="10" x1="243.771" y1="834.007" x2="232.366" y2="824.158"/>
				</g>
				<g>
					<line fill="none" stroke="#0A5656" stroke-miterlimit="10" x1="256.813" y1="807.492" x2="251.053" y2="802.518"/>
				</g>
				<g>
					<line fill="none" stroke="#0A5656" stroke-miterlimit="10" x1="275.501" y1="785.852" x2="269.741" y2="780.878"/>
				</g>
				<g>
					<line fill="none" stroke="#0A5656" stroke-miterlimit="10" x1="299.834" y1="769.087" x2="288.429" y2="759.237"/>
				</g>
				<g>
					<line fill="none" stroke="#0A5656" stroke-miterlimit="10" x1="312.877" y1="742.571" x2="307.117" y2="737.598"/>
				</g>
				<g>
					<line fill="none" stroke="#0A5656" stroke-miterlimit="10" x1="331.565" y1="720.932" x2="325.805" y2="715.957"/>
				</g>
				<g>
					<line fill="none" stroke="#0A5656" stroke-miterlimit="10" x1="355.898" y1="704.167" x2="344.493" y2="694.317"/>
				</g>
				<g>
					<line fill="none" stroke="#0A5656" stroke-miterlimit="10" x1="368.94" y1="677.651" x2="363.18" y2="672.677"/>
				</g>
				<g>
					<line fill="none" stroke="#0A5656" stroke-miterlimit="10" x1="387.628" y1="656.012" x2="381.868" y2="651.037"/>
				</g>
				<g>
					<line fill="none" stroke="#0A5656" stroke-miterlimit="10" x1="411.961" y1="639.246" x2="400.556" y2="629.397"/>
				</g>
				<g>
					<line fill="none" stroke="#0A5656" stroke-miterlimit="10" x1="425.004" y1="612.731" x2="419.244" y2="607.757"/>
				</g>
				<g>
					<line fill="none" stroke="#0A5656" stroke-miterlimit="10" x1="443.692" y1="591.091" x2="437.932" y2="586.117"/>
				</g>
			</g>
		</g>
	</g>
	<g>
		<defs>
			<rect id="SVGID_1_" x="238.068" y="-8.885" width="995.932" height="516.449"/>
		</defs>
		<clipPath id="SVGID_2_">
			<use xlink:href="#SVGID_1_"  overflow="visible"/>
		</clipPath>
		<circle clip-path="url(#SVGID_2_)" fill="#FCEFDF" cx="690.874" cy="3.77" r="401.39"/>
	</g>
	<g>
		<path fill="#242744" d="M502.028,395.789c0,0-23.936,28.083-25.938,42.028l20.525,2.495L502.028,395.789z"/>
		<path fill="#A07F5E" d="M478.302,563.934l29.143-82.364c4.058-11.171,16.933-16.324,27.578-11.038l0,0
			c10.198,5.064,14.082,17.632,8.52,27.567l-44.459,76.29c-3.514,6.277-9.995,8.831-16.176,5.15l0,0
			C477.635,576.4,476.207,569.701,478.302,563.934z"/>
		<path fill="#A07F5E" d="M451.917,674.469l-8.803-3.504l35.188-107.031c2.42-7.359,11.208-10.362,17.625-6.023l0,0
			c4.767,3.224,6.473,9.439,4.02,14.645L451.917,674.469z"/>
		<polygon fill="#FAE9E1" points="451.916,674.469 443.113,670.965 447.946,656.264 460.339,656.599 		"/>
		<polygon fill="#2C3458" points="452.62,675.293 459.212,694.472 437.766,675.692 443.003,670.91 		"/>
		<path fill="#A07F5E" d="M649.03,486.771l-85.958,19.166c-11.634,2.429-22.792-5.807-23.9-17.641l0,0
			c-1.061-11.336,7.582-21.253,18.957-21.753l89.079-2.668c7.187-0.315,11.958,4.173,12.082,11.366l0,0
			C659.396,481.377,655.037,485.518,649.03,486.771z"/>
		<path fill="#A07F5E" d="M604.534,580.184l-8.52-4.145L639.012,471.9c2.957-7.161,11.942-9.507,18.022-4.705l0,0
			c4.516,3.566,5.758,9.892,2.927,14.901L604.534,580.184z"/>
		<polygon fill="#FAE9E1" points="612.856,565.455 604.534,580.184 596.014,576.039 602.117,561.257 		"/>
		<polygon fill="#2C3458" points="605.675,580.012 612.95,598.943 590.846,580.943 595.909,575.977 		"/>
		
			<rect x="527.496" y="316.522" transform="matrix(0.9958 0.0912 -0.0912 0.9958 32.2511 -47.8788)" fill="#917256" width="24.498" height="24.498"/>
		<path fill="#A07F5E" d="M551.583,282.807c9.242,10.486,14.708,30.808,9.357,34.457c-9.548,6.511-38.036,6.75-44.614-5.873
			c-6.578-12.624-3.603-27.186,6.646-32.526C533.221,273.523,542.171,272.128,551.583,282.807z"/>
		<path fill="#FFFFFF" d="M553.584,308.566l7.915-3.37c0,0,0.142,3.508-1.239,4.141S554.531,309.966,553.584,308.566z"/>
		<path fill="#A07F5E" d="M556.834,295.018c0,0,3.024-0.997,9.16,4.721c0,0-1.853,2.608-5.727,3.352L556.834,295.018z"/>
		<path fill="#A07F5E" d="M635.287,225.106c0,0-1.583-7.439,0.555-10.279c2.139-2.84,3.794,3.003,3.794,3.003
			s6.041-12.568,10.962-8.744s-0.194,15.664-7.545,20.662L635.287,225.106z"/>
		<path fill="#14BAC6" d="M644.217,228.479l-18.502,65.017c-2.023,7.11-10.102,10.529-16.614,7.03l0,0
			c-5.561-2.987-7.704-9.877-4.818-15.491l31.28-60.866L644.217,228.479z"/>
		<path fill="#14BAC6" d="M623.363,299.696l-29.783,57.469c-4.056,7.826-13.978,10.447-21.369,5.644l0,0
			c-6.907-4.488-8.868-13.726-4.38-20.633l35.268-54.276c3.532-5.436,10.802-6.979,16.238-3.447l0,0
			C624.399,287.742,626.141,294.335,623.363,299.696z"/>
		<path fill="#32345B" d="M563.861,497.314l-45.978,53.934c0,0-25.056,4.231-36.149-15.506l22.897-72.243L563.861,497.314z"/>
		<path fill="#32345B" d="M503.266,469.561c0,0,3.92,53.985,62.155,42.833l53.036-8.879c0,0,12.794-1.692,15.233-40.32
			c0,0-29.098-0.71-50.297,2.261C583.393,465.455,522.514,451.906,503.266,469.561z"/>
		<path fill="#14BAC6" d="M496.969,346.491c-0.821,19.86-5.761,68.721,2.612,121.541c0,0,25.538,8.268,40.495,7.784
			c17.45-0.564,43.316-10.36,43.316-10.36c-1.788-109.486-7.843-130.587-7.843-130.587l-69.092,2.234
			C501.322,337.268,497.181,341.357,496.969,346.491z"/>
		<path fill="#475977" d="M520.979,450.041c0,0-31.418,56.997-56.442,62.842s-49.077-45.704-49.077-45.704
			s27.01-52.975,47.293-55.842C483.037,408.47,514.352,437.603,520.979,450.041z"/>
		<path fill="#314056" d="M445.572,507.677c1.894-7.17,6.088-17.367,13.29-31.861c27.689-55.728,57.822-31.002,57.822-31.002
			c0.625,0.398,1.2,0.82,1.752,1.252c1.05,1.448,1.91,2.788,2.542,3.975c0,0-31.418,56.997-56.442,62.842
			C458.012,514.407,451.555,512.024,445.572,507.677z"/>
		<path fill="#5E7391" d="M520.979,450.041c0,0-26.15-21.092-44.519,5.08c-18.369,26.172-49.434-11.177-47.245-19.685
			c2.188-8.508,27.506-30.24,37.782-28.085C477.273,409.505,521.247,431.286,520.979,450.041z"/>
		
			<ellipse transform="matrix(-0.7889 -0.6146 0.6146 -0.7889 514.2614 1069.2039)" fill="#242744" cx="440.797" cy="446.263" rx="5.69" ry="2.54"/>
		<path fill="#A07F5E" d="M439.404,470.718c0,0,3.187,6.906,1.729,10.148c-1.459,3.242-4.364-2.091-4.364-2.091
			s-3.117,13.591-8.761,10.949c-5.644-2.643-3.269-15.32,2.797-21.818L439.404,470.718z"/>
		<path fill="#14BAC6" d="M430.275,468.529l7.144-67.22c0.781-7.351,8.159-12.097,15.172-9.76l0,0
			c5.988,1.995,9.275,8.419,7.389,14.442L439.538,471.3L430.275,468.529z"/>
		<path fill="#14BAC6" d="M455.775,411.997l58.048-47.119c6.833-5.546,7.445-15.756,1.324-22.079l0,0
			c-5.762-5.952-15.258-6.105-21.209-0.344l-53.626,51.916c-4.658,4.509-4.778,11.94-0.269,16.598l0,0
			C444.242,415.306,451.047,415.751,455.775,411.997z"/>
		<polygon fill="#FAE9E1" points="547.378,402.128 571.54,334.98 512.078,336.904 		"/>
		<polygon fill="#993223" points="542.424,352.415 549.219,352.161 550.281,353.947 547.968,358.683 544.584,358.809 
			541.251,353.787 		"/>
		<polygon fill="#993223" points="544.584,358.809 540.85,388.326 547.595,402.84 553.019,386.452 547.968,358.683 		"/>
		<polygon fill="#917256" points="528.344,336.378 545.454,350.611 552.83,335.586 		"/>
		<path fill="#D4BFBA" d="M545.454,350.611l-5.073,6.416l-17.583-20.58c0,0,3.09-2.113,5.547-0.069L545.454,350.611z"/>
		<path fill="#D4BFBA" d="M552.83,335.586l-7.375,15.025l5.536,6.02l7.175-21.218C558.165,335.413,555.821,333.527,552.83,335.586z"
			/>
		<path fill="#0C6868" d="M516.146,336.097l31.232,66.031l-26.281-30.219l2.649-10.057l-18.405-24.754
			C505.341,337.099,509.813,332.422,516.146,336.097z"/>
		<path fill="#0C6868" d="M564.603,335.205l-17.225,66.923l19.407-35.023l-3.588-7.832l12.86-24.677
			C576.057,334.596,569.333,330.706,564.603,335.205z"/>
		<path fill="#242744" d="M573.418,333.529c0,0-8.858,88.065-69.179,113.452c0,0-7.585,18.554,11.204,12.438
			c4.962-1.615,79.614-46.583,66.038-124.79C581.481,334.629,577.627,331.255,573.418,333.529z"/>
		<path fill="#262F30" d="M559.409,277.565c0,0,0.79,4.464-6.719,6.572c0,0-0.631,4.44-9.132,7.297c0,0-0.516,4.614-6.114,7.981
			c0,0,7.846,6.033,2.582,9.307c0,0-0.28,7.549-4.496,7.544c0,0,5.725,5.178,1.042,6.941c0,0,1.153,3.341-3.25,4.903
			c0,0-5.443,5.82-13.598-1.475c0,0-18,2.705-19.827-11.414c0,0-14.924-13.871-6.075-23.642c0,0-2.039-13.289,11.096-19.21
			c0,0,6.075-16.977,24.472-10.79c0,0,8.251-7.302,15.333-0.144C544.724,261.435,562.414,262.385,559.409,277.565z"/>
		<path fill="#A07F5E" d="M538.27,304.509c0,0-7.604-4.616-8.166,0.7s9.113,10.065,11.943,8.361L538.27,304.509z"/>
		<circle fill="#5E7391" cx="510.05" cy="453.542" r="4.554"/>
	</g>
	<g>
		<path fill="#AED034" d="M381.549,851.666h218.115c9.907,0,18.258-7.798,18.484-17.702c0.118-5.172-1.932-9.867-5.304-13.24
			c-3.28-3.279-7.811-5.309-12.816-5.309H381.549c-3.229,0-5.847-2.618-5.847-5.847c0-3.229,2.618-5.847,5.847-5.847h220.035
			c8.238,0,15.687,3.338,21.083,8.735c5.352,5.351,8.679,12.726,8.735,20.876c0.112,16.515-13.832,30.026-30.347,30.026H381.549
			c-3.229,0-5.847-2.618-5.847-5.847C375.703,854.283,378.32,851.666,381.549,851.666z"/>
		<path fill="#E8DCCF" d="M381.111,815.415v36.251h218.917c10.01,0,18.125-8.116,18.125-18.126c0-5.005-2.029-9.536-5.309-12.816
			c-3.28-3.279-7.811-5.309-12.816-5.309H381.111z"/>
		<line fill="none" stroke="#AFA59A" stroke-miterlimit="10" x1="606.653" y1="820.479" x2="381.111" y2="820.479"/>
		<line fill="none" stroke="#AFA59A" stroke-miterlimit="10" x1="608.407" y1="823.402" x2="381.111" y2="823.402"/>
		<line fill="none" stroke="#AFA59A" stroke-miterlimit="10" x1="610.161" y1="826.325" x2="381.111" y2="826.325"/>
		<line fill="none" stroke="#AFA59A" stroke-miterlimit="10" x1="611.915" y1="829.249" x2="381.111" y2="829.249"/>
		<line fill="none" stroke="#AFA59A" stroke-miterlimit="10" x1="613.182" y1="832.172" x2="381.111" y2="832.172"/>
		<line fill="none" stroke="#AFA59A" stroke-miterlimit="10" x1="612.598" y1="835.096" x2="381.111" y2="835.096"/>
		<line fill="none" stroke="#AFA59A" stroke-miterlimit="10" x1="611.331" y1="838.02" x2="381.111" y2="838.02"/>
		<line fill="none" stroke="#AFA59A" stroke-miterlimit="10" x1="610.161" y1="840.942" x2="381.111" y2="840.942"/>
		<line fill="none" stroke="#AFA59A" stroke-miterlimit="10" x1="608.407" y1="843.866" x2="381.111" y2="843.866"/>
		<line fill="none" stroke="#AFA59A" stroke-miterlimit="10" x1="606.653" y1="846.789" x2="381.111" y2="846.789"/>
	</g>
	<g>
		<path fill="#0C8689" d="M586.379,792.027H368.264c-9.907,0-18.258-7.797-18.484-17.701c-0.118-5.173,1.932-9.867,5.304-13.24
			c3.28-3.28,7.811-5.309,12.816-5.309h218.479c3.229,0,5.847-2.618,5.847-5.847c0-3.229-2.618-5.847-5.847-5.847H366.345
			c-8.238,0-15.687,3.338-21.083,8.734c-5.352,5.352-8.679,12.727-8.735,20.877c-0.112,16.515,13.832,30.026,30.347,30.026h219.506
			c3.229,0,5.847-2.618,5.847-5.848C592.226,794.646,589.608,792.027,586.379,792.027z"/>
		<path fill="#E8DCCF" d="M586.818,755.777v36.25H367.9c-10.01,0-18.125-8.115-18.125-18.125c0-5.005,2.029-9.536,5.309-12.816
			c3.28-3.28,7.811-5.309,12.816-5.309H586.818z"/>
		<line fill="none" stroke="#AFA59A" stroke-miterlimit="10" x1="361.275" y1="760.841" x2="586.818" y2="760.841"/>
		<line fill="none" stroke="#AFA59A" stroke-miterlimit="10" x1="359.521" y1="763.764" x2="586.818" y2="763.764"/>
		<line fill="none" stroke="#AFA59A" stroke-miterlimit="10" x1="357.768" y1="766.688" x2="586.818" y2="766.688"/>
		<line fill="none" stroke="#AFA59A" stroke-miterlimit="10" x1="356.013" y1="769.61" x2="586.818" y2="769.61"/>
		<line fill="none" stroke="#AFA59A" stroke-miterlimit="10" x1="354.747" y1="772.534" x2="586.818" y2="772.534"/>
		<line fill="none" stroke="#AFA59A" stroke-miterlimit="10" x1="355.331" y1="775.458" x2="586.818" y2="775.458"/>
		<line fill="none" stroke="#AFA59A" stroke-miterlimit="10" x1="356.598" y1="778.381" x2="586.818" y2="778.381"/>
		<line fill="none" stroke="#AFA59A" stroke-miterlimit="10" x1="357.768" y1="781.305" x2="586.818" y2="781.305"/>
		<line fill="none" stroke="#AFA59A" stroke-miterlimit="10" x1="359.521" y1="784.228" x2="586.818" y2="784.228"/>
		<line fill="none" stroke="#AFA59A" stroke-miterlimit="10" x1="361.275" y1="787.151" x2="586.818" y2="787.151"/>
	</g>
	<g>
		<path fill="#EB5D45" d="M607.335,732.39H389.22c-9.907,0-18.259-7.797-18.485-17.701c-0.118-5.173,1.932-9.868,5.304-13.24
			c3.28-3.28,7.812-5.309,12.816-5.309h218.479c3.229,0,5.847-2.618,5.847-5.848c0-3.229-2.618-5.847-5.847-5.847H387.301
			c-8.238,0-15.687,3.339-21.084,8.735c-5.352,5.352-8.679,12.727-8.734,20.877c-0.112,16.515,13.832,30.026,30.347,30.026h219.506
			c3.229,0,5.847-2.618,5.847-5.848C613.182,735.008,610.564,732.39,607.335,732.39z"/>
		<path fill="#E8DCCF" d="M607.774,696.14v36.25H388.856c-10.01,0-18.125-8.115-18.125-18.125c0-5.005,2.029-9.536,5.309-12.816
			c3.28-3.28,7.812-5.309,12.816-5.309H607.774z"/>
		<line fill="none" stroke="#AFA59A" stroke-miterlimit="10" x1="382.231" y1="701.202" x2="607.774" y2="701.202"/>
		<line fill="none" stroke="#AFA59A" stroke-miterlimit="10" x1="380.478" y1="704.126" x2="607.774" y2="704.126"/>
		<line fill="none" stroke="#AFA59A" stroke-miterlimit="10" x1="378.724" y1="707.05" x2="607.774" y2="707.05"/>
		<line fill="none" stroke="#AFA59A" stroke-miterlimit="10" x1="376.969" y1="709.973" x2="607.774" y2="709.973"/>
		<line fill="none" stroke="#AFA59A" stroke-miterlimit="10" x1="375.703" y1="712.896" x2="607.774" y2="712.896"/>
		<line fill="none" stroke="#AFA59A" stroke-miterlimit="10" x1="376.287" y1="715.819" x2="607.774" y2="715.819"/>
		<line fill="none" stroke="#AFA59A" stroke-miterlimit="10" x1="377.554" y1="718.743" x2="607.774" y2="718.743"/>
		<line fill="none" stroke="#AFA59A" stroke-miterlimit="10" x1="378.724" y1="721.667" x2="607.774" y2="721.667"/>
		<line fill="none" stroke="#AFA59A" stroke-miterlimit="10" x1="380.478" y1="724.59" x2="607.774" y2="724.59"/>
		<line fill="none" stroke="#AFA59A" stroke-miterlimit="10" x1="382.231" y1="727.514" x2="607.774" y2="727.514"/>
	</g>
	<g>
		<path fill="#5A6C70" d="M652.451,850.446h240.862c10.939,0,20.162-8.61,20.412-19.548c0.13-5.712-2.133-10.896-5.857-14.621
			c-3.622-3.622-8.626-5.862-14.153-5.862H652.451c-3.566,0-6.457-2.891-6.457-6.456c0-3.566,2.891-6.457,6.457-6.457h242.981
			c9.098,0,17.323,3.687,23.282,9.646c5.91,5.909,9.585,14.053,9.646,23.054c0.124,18.237-15.273,33.157-33.511,33.157H652.451
			c-3.566,0-6.457-2.891-6.457-6.457C645.994,853.337,648.885,850.446,652.451,850.446z"/>
		<path fill="#E8DCCF" d="M651.966,810.415v40.031h241.748c11.054,0,20.016-8.962,20.016-20.016c0-5.526-2.24-10.53-5.862-14.153
			c-3.622-3.622-8.626-5.862-14.153-5.862H651.966z"/>
		<line fill="none" stroke="#AFA59A" stroke-miterlimit="10" x1="901.029" y1="816.007" x2="651.966" y2="816.007"/>
		<line fill="none" stroke="#AFA59A" stroke-miterlimit="10" x1="902.967" y1="819.234" x2="651.966" y2="819.234"/>
		<line fill="none" stroke="#AFA59A" stroke-miterlimit="10" x1="904.903" y1="822.463" x2="651.966" y2="822.463"/>
		<line fill="none" stroke="#AFA59A" stroke-miterlimit="10" x1="906.841" y1="825.691" x2="651.966" y2="825.691"/>
		<line fill="none" stroke="#AFA59A" stroke-miterlimit="10" x1="908.239" y1="828.92" x2="651.966" y2="828.92"/>
		<line fill="none" stroke="#AFA59A" stroke-miterlimit="10" x1="907.594" y1="832.148" x2="651.966" y2="832.148"/>
		<line fill="none" stroke="#AFA59A" stroke-miterlimit="10" x1="906.195" y1="835.376" x2="651.966" y2="835.376"/>
		<line fill="none" stroke="#AFA59A" stroke-miterlimit="10" x1="904.903" y1="838.604" x2="651.966" y2="838.604"/>
		<line fill="none" stroke="#AFA59A" stroke-miterlimit="10" x1="902.967" y1="841.833" x2="651.966" y2="841.833"/>
		<line fill="none" stroke="#AFA59A" stroke-miterlimit="10" x1="901.029" y1="845.062" x2="651.966" y2="845.062"/>
	</g>
	<g>
		<path fill="#E9C394" d="M937.743,783.122H680.262c-11.695,0-21.554-9.204-21.821-20.896c-0.14-6.106,2.28-11.648,6.261-15.63
			c3.872-3.872,9.221-6.267,15.129-6.267h257.911c3.812,0,6.901-3.091,6.901-6.902s-3.09-6.902-6.901-6.902H677.996
			c-9.725,0-18.519,3.941-24.889,10.312c-6.317,6.317-10.246,15.023-10.311,24.646c-0.133,19.495,16.328,35.444,35.824,35.444
			h259.123c3.812,0,6.901-3.09,6.901-6.902C944.645,786.212,941.555,783.122,937.743,783.122z"/>
		<path fill="#E8DCCF" d="M938.261,740.329v42.793H679.832c-11.816,0-21.396-9.58-21.396-21.396c0-5.908,2.395-11.258,6.267-15.13
			s9.221-6.267,15.129-6.267H938.261z"/>
		<line fill="none" stroke="#AFA59A" stroke-miterlimit="10" x1="672.012" y1="746.306" x2="938.261" y2="746.306"/>
		<line fill="none" stroke="#AFA59A" stroke-miterlimit="10" x1="669.941" y1="749.757" x2="938.261" y2="749.757"/>
		<line fill="none" stroke="#AFA59A" stroke-miterlimit="10" x1="667.871" y1="753.208" x2="938.261" y2="753.208"/>
		<line fill="none" stroke="#AFA59A" stroke-miterlimit="10" x1="665.8" y1="756.659" x2="938.261" y2="756.659"/>
		<line fill="none" stroke="#AFA59A" stroke-miterlimit="10" x1="664.305" y1="760.11" x2="938.261" y2="760.11"/>
		<line fill="none" stroke="#AFA59A" stroke-miterlimit="10" x1="664.995" y1="763.562" x2="938.261" y2="763.562"/>
		<line fill="none" stroke="#AFA59A" stroke-miterlimit="10" x1="666.49" y1="767.013" x2="938.261" y2="767.013"/>
		<line fill="none" stroke="#AFA59A" stroke-miterlimit="10" x1="667.871" y1="770.463" x2="938.261" y2="770.463"/>
		<line fill="none" stroke="#AFA59A" stroke-miterlimit="10" x1="669.941" y1="773.914" x2="938.261" y2="773.914"/>
		<line fill="none" stroke="#AFA59A" stroke-miterlimit="10" x1="672.012" y1="777.365" x2="938.261" y2="777.365"/>
	</g>
	<g>
		<path fill="#CC4331" d="M623.418,714.631h210.357c9.554,0,17.608-7.52,17.827-17.071c0.113-4.989-1.863-9.517-5.116-12.77
			c-3.163-3.163-7.533-5.12-12.36-5.12H623.418c-3.114,0-5.639-2.524-5.639-5.639s2.524-5.639,5.639-5.639h212.208
			c7.945,0,15.13,3.22,20.334,8.424c5.161,5.161,8.37,12.274,8.424,20.135c0.108,15.927-13.34,28.958-29.268,28.958H623.418
			c-3.114,0-5.639-2.524-5.639-5.639S620.304,714.631,623.418,714.631z"/>
		<path fill="#E8DCCF" d="M622.995,679.67v34.961h211.131c9.654,0,17.48-7.826,17.48-17.48c0-4.827-1.956-9.197-5.12-12.36
			c-3.163-3.163-7.533-5.12-12.36-5.12H622.995z"/>
		<line fill="none" stroke="#AFA59A" stroke-miterlimit="10" x1="840.516" y1="684.554" x2="622.995" y2="684.554"/>
		<line fill="none" stroke="#AFA59A" stroke-miterlimit="10" x1="842.207" y1="687.373" x2="622.995" y2="687.373"/>
		<line fill="none" stroke="#AFA59A" stroke-miterlimit="10" x1="843.898" y1="690.192" x2="622.995" y2="690.192"/>
		<line fill="none" stroke="#AFA59A" stroke-miterlimit="10" x1="845.59" y1="693.012" x2="622.995" y2="693.012"/>
		<line fill="none" stroke="#AFA59A" stroke-miterlimit="10" x1="846.812" y1="695.831" x2="622.995" y2="695.831"/>
		<line fill="none" stroke="#AFA59A" stroke-miterlimit="10" x1="846.248" y1="698.65" x2="622.995" y2="698.65"/>
		<line fill="none" stroke="#AFA59A" stroke-miterlimit="10" x1="845.026" y1="701.47" x2="622.995" y2="701.47"/>
		<line fill="none" stroke="#AFA59A" stroke-miterlimit="10" x1="843.898" y1="704.289" x2="622.995" y2="704.289"/>
		<line fill="none" stroke="#AFA59A" stroke-miterlimit="10" x1="842.207" y1="707.108" x2="622.995" y2="707.108"/>
		<line fill="none" stroke="#AFA59A" stroke-miterlimit="10" x1="840.516" y1="709.929" x2="622.995" y2="709.929"/>
	</g>
	<g>
		
			<rect x="925.995" y="625.707" transform="matrix(0.8757 -0.4829 0.4829 0.8757 -242.8711 548.8761)" fill="#492823" width="37.148" height="240.851"/>
		
			<rect x="980.597" y="837.796" transform="matrix(0.8757 -0.4829 0.4829 0.8757 -283.8967 587.5521)" fill="#12AB6A" width="37.148" height="14.704"/>
		<path fill="#663E3A" d="M913.228,727.762L913.228,727.762l-39.843-72.252l0,0c8.982-4.953,20.28-1.687,25.234,7.296l21.904,39.723
			C925.477,711.511,922.211,722.809,913.228,727.762z"/>
		
			<rect x="992.293" y="850.794" transform="matrix(0.8757 -0.4829 0.4829 0.8757 -288.877 592.2415)" fill="#492823" width="27.017" height="12.756"/>
		<path fill="#663E3A" d="M1021.306,885.287L1021.306,885.287c-8.983,4.953-20.281,1.688-25.234-7.296l-3.687-6.685l32.53-17.938
			l3.687,6.685C1033.555,869.036,1030.288,880.334,1021.306,885.287z"/>
		<polygon fill="#663E3A" points="870.151,649.647 864.06,600.136 902.682,631.709 		"/>
		<polygon fill="#FCEFDE" points="864.06,600.135 865.869,614.846 875.535,609.517 		"/>
		<path fill="#F5F1E5" d="M977.922,860.669l-49.225-89.266c-2.735-4.96-0.932-11.198,4.028-13.934l0,0
			c4.96-2.735,11.198-0.932,13.934,4.028l49.225,89.266c2.735,4.96,0.932,11.198-4.028,13.934l0,0
			C986.896,867.433,980.657,865.629,977.922,860.669z"/>
	</g>
	<g>
		<path fill="#E8B59C" d="M821.762,435.437l89.69-10.259c11.962-1.584,19.884-13.224,16.967-24.933l0,0
			c-2.794-11.217-14.406-17.813-25.472-14.468l-85.73,26.409c-6.99,2.113-10.559,8.991-8.259,15.924l0,0
			C810.919,434.023,815.586,436.255,821.762,435.437z"/>
		<path fill="#E8B59C" d="M895.821,512.238l7.03-6.564l-72.805-88.225c-5.007-6.067-14.426-5.662-18.894,0.812l0,0
			c-3.317,4.809-2.636,11.318,1.606,15.334L895.821,512.238z"/>
		<polygon fill="#FBEAE2" points="902.852,505.674 895.821,512.238 839.448,458.864 852.172,444.259 		"/>
		
			<rect x="895.837" y="259.963" transform="matrix(-0.9996 0.0283 -0.0283 -0.9996 1818.467 519.0295)" fill="#E8B59C" width="19.438" height="24.872"/>
		<path fill="#F6C7AD" d="M892.11,229.585c-2.701,10.324-9.319,28.611-4.845,36.475c3.397,5.969,42.889,2.622,35.516-18.599
			c-4.742-13.651,8.346-23.89-2.892-27.262C908.651,216.827,895.769,215.604,892.11,229.585z"/>
		<path fill="#FFFFFF" d="M892.388,258.513l-6.147-0.362c0,0,0.602,2.395,1.184,2.538
			C888.006,260.831,891.379,260.539,892.388,258.513z"/>
		<path fill="#F6C7AD" d="M889.084,248.681c0,0-3.004,0.573-7.435,7.682c0,0,2.347,1.264,6.352,1.267L889.084,248.681z"/>
		<path fill="#F6C7AD" d="M776.56,211.86c0,0-7.462-1.986-9.05-5.227s4.462-2.054,4.462-2.054s-8.601-11.246-2.877-13.943
			c5.724-2.698,14.091,7.375,15.236,16.327L776.56,211.86z"/>
		<path fill="#F6C7AD" d="M776.56,211.86l38.274,56.966c4.186,6.23,13.059,6.995,18.248,1.572l0,0
			c4.431-4.629,4.337-11.955-0.211-16.469l-49.309-48.947L776.56,211.86z"/>
		<path fill="#F6C7AD" d="M817.383,271.63l47.963,44.923c6.532,6.118,16.915,5.267,22.364-1.833l0,0
			c5.092-6.634,3.841-16.14-2.793-21.231l-52.132-40.011c-5.221-4.007-12.702-3.023-16.709,2.198l0,0
			C812.344,260.54,812.909,267.44,817.383,271.63z"/>
		<path fill="#F4EFED" d="M888.565,294.586l-27.345-19.283c0,0-21.265,8.982-20.546,25.167l31.247,21.339L888.565,294.586z"/>
		<path fill="#F6C7AD" d="M996.053,482.847l-30.384-85.462c-4.192-11.315-17.297-16.463-28.07-11.027l0,0
			c-10.32,5.208-14.182,17.992-8.471,28.042l45.797,78.037c3.608,6.35,10.038,8.028,16.29,4.252l0,0
			C996.547,493.467,998.218,488.689,996.053,482.847z"/>
		<path fill="#F6C7AD" d="M1030.328,594.819l8.72-4.062l-41.87-106.447c-2.88-7.32-11.961-9.854-18.215-5.084l0,0
			c-4.645,3.543-6.014,9.943-3.226,15.077L1030.328,594.819z"/>
		<polygon fill="#FBEAE2" points="1011.286,520.18 1039.048,590.758 1030.328,594.819 992.436,525.049 		"/>
		<polygon fill="#2E1E1E" points="1029.253,594.824 1021.928,614.066 1044.312,595.723 1039.156,590.695 		"/>
		<path fill="#14BAC6" d="M883.137,390.115l-45.72,14.56c0,0,31.751,109.861,153.673,64.212c0,0-10.48-63.001-29.57-87.402
			L883.137,390.115z"/>
		<path fill="#FFF8F5" d="M867.002,330.707c-0.84-5.635,2.761-14.371,3.041-18.891c-0.468-3.428-0.852-6.274-1.165-8.637
			c-0.991-7.447,3.339-14.542,10.383-17.151c6.132-2.272,14.756-4.753,26.11-6.444c26.479-3.944,40.493-0.032,40.493-0.032
			s8.315,14.383,5.466,50.679c-1.423,18.13-3.714,9.85,10.189,51.254c0,0-14.895,8.676-38.295,13.284
			c-28.4,5.592-40.088-4.654-40.088-4.654c-2.308-34.913-7.06-43.284-8.49-45.567C870.885,342.368,867.832,336.281,867.002,330.707z
			"/>
		<path fill="#F6C7AD" d="M1017.58,391.353c0,0-5.43,5.491-5.158,9.09s4.889-0.488,4.889-0.488s-1.724,14.052,4.578,13.48
			s8.417-13.495,4.873-21.794L1017.58,391.353z"/>
		<path fill="#F6C7AD" d="M1026.666,392.101l-1.229-68.619c-0.135-7.504-7.172-12.962-14.474-11.224l0,0
			c-6.233,1.483-10.131,7.687-8.761,13.947l14.85,67.873L1026.666,392.101z"/>
		<path fill="#F6C7AD" d="M1009.402,334.855l-71.663-25.023c-8.435-2.945-12.534-12.486-8.864-20.632l0,0
			c3.455-7.668,12.472-11.083,20.14-7.629l69.09,31.127c6.001,2.704,8.674,9.76,5.97,15.76l0,0
			C1021.557,334.047,1015.21,336.814,1009.402,334.855z"/>
		<path fill="#FFF8F5" d="M976.413,293.915c0,0,0.618,23.495-10.987,31.912l-30.461-15.791c-8.876-4.601-11.201-16.242-4.774-23.9
			l3.638-4.334l5.044-2.09c2.472-1.024,5.261-0.96,7.682,0.178L976.413,293.915z"/>
		<path fill="#E8B59C" d="M901.293,314.306c0,0-13.043-4.686-18.782-29.416c5.812-1.932,13.379-3.895,22.86-5.307
			c7.307-1.088,13.658-1.577,19.034-1.716C924.693,282.472,924.248,300.656,901.293,314.306z"/>
		<polygon fill="#E2E2F7" points="923.122,293.997 884.719,299.718 901.293,314.306 		"/>
		
			<rect x="886.933" y="296.899" transform="matrix(-0.9891 0.1473 -0.1473 -0.9891 1841.5427 460.0323)" fill="#BDBDE0" width="33.602" height="2.638"/>
		<path fill="#CD4640" d="M939.642,286.808c0,0,2.585,27.529-20.854,29.658c-23.438,2.13-17.495-2.16-17.495-2.16L939.642,286.808z"
			/>
		<path fill="#CD4640" d="M874.804,296.467l26.489,17.839c0,0,0.274,3.364-4.389,4.058
			C892.241,319.059,871.933,315.284,874.804,296.467z"/>
		<path fill="#14BAC6" d="M924.405,277.868l-23.112,36.438c0,0,30.246-0.362,43.061-35.098
			C944.354,279.208,936.76,274.355,924.405,277.868z"/>
		<path fill="#14BAC6" d="M887.552,283.345l13.741,30.961c0,0-17.834-10.831-25.474-27.374
			C875.819,286.933,878.696,284,887.552,283.345z"/>
		<path fill="#A52F2F" d="M901.491,316.173c0,0,15.802-2.366,22.805,13.401C924.296,329.575,903.731,332.273,901.491,316.173z"/>
		<path fill="#A52F2F" d="M902.096,341.641c0,0-15.816-22.694-1.319-26.236C900.776,315.405,911.419,332.623,902.096,341.641z"/>
		
			<ellipse transform="matrix(-0.9992 -0.0398 0.0398 -0.9992 1788.8317 666.9222)" fill="#E55757" cx="901.062" cy="315.636" rx="2.886" ry="3.817"/>
		<polygon fill="#2E1E1E" points="893.606,510.88 888.67,530.869 908.663,509.945 902.936,505.581 		"/>
		<path fill="#442F34" d="M905.897,214.27c0,0-14.509-0.461-18.612,16.37c0,0-5.018,12.877,22.355,21.981
			c0,0-2.553,11.59,5.611,18.812c0,0,11.282,0.966,20.103-11.998c0,0,11.635-17.131,1.88-30.443
			C927.054,215.1,916.781,213.687,905.897,214.27z"/>
		<path fill="#442F34" d="M940.172,240.895c0,0-16.081-28.833,25.152-30.435c27.093-1.053,30.254,31.188,30.254,31.188
			s-11.064-12.087-19.592-5.248C967.459,243.241,951.242,262.86,940.172,240.895z"/>
	</g>
	<path fill="#442F34" d="M718.988,154.864c0.076,1.278,13.017,0.644,19.338,2.397c1.95,0.541,3.829,1.335,5.751,1.984
		c0.618,0.208,0.674,0.654,0.688,1.188c0.107,4.175,0.223,8.351,0.339,12.525c0.025,0.906,0.044,1.812,0.101,2.716
		c0.051,0.813-0.248,1.469-0.821,2.011c-1.063,1.005-2.35,1.695-3.706,2.12c-2.497,0.781-5.021,1.555-7.591,2.007
		c-3.364,0.591-6.774,1.042-10.183,1.238c-4.562,0.263-9.146,0.394-13.71,0.263c-4.141-0.12-8.272-0.635-12.401-1.035
		c-3.461-0.335-6.838-1.13-10.105-2.299c-1.332-0.477-2.583-1.22-3.8-1.958c-0.9-0.546-1.249-1.439-1.235-2.545
		c0.075-5.724,0.083-11.448,0.15-17.172c0.008-0.659-0.172-0.956-0.801-1.189c-3.268-1.212-6.511-2.489-9.769-3.728
		c-3.009-1.145-6.025-2.272-9.04-3.405c-0.101-0.038-0.21-0.052-0.379-0.093c-0.022,0.197-0.058,0.358-0.058,0.52
		c-0.003,9.102-0.006,18.204,0.01,27.306c0,0.27,0.139,0.599,0.322,0.799c1.46,1.589,1.47,4.041,0.026,5.684
		c-0.194,0.221-0.324,0.56-0.349,0.855c-0.179,2.099,0.607,4.041,1.06,6.032c0.802,3.528,1.678,7.04,2.52,10.559
		c0.019,0.08,0.002,0.168,0.002,0.341c-1.033-0.454-2.017-0.88-2.995-1.317c-2.075-0.928-4.143-1.873-6.225-2.785
		c-0.387-0.169-0.464-0.345-0.356-0.752c0.952-3.583,1.881-7.171,2.811-10.759c0.066-0.255,0.095-0.52,0.132-0.781
		c0.073-0.513-0.087-0.873-0.521-1.229c-1.737-1.43-1.756-4.449-0.038-5.94c0.434-0.376,0.57-0.747,0.569-1.292
		c-0.015-7.402-0.01-14.805-0.01-22.208c0-1.899-0.011-3.799,0.009-5.699c0.004-0.412-0.106-0.611-0.518-0.762
		c-1.842-0.673-3.667-1.393-5.662-2.158c1.261-0.407,2.373-0.77,3.487-1.125c5.948-1.898,11.894-3.8,17.844-5.69
		c4.058-1.289,8.125-2.547,12.18-3.841c6.048-1.93,12.088-3.884,18.133-5.821c2.962-0.949,5.928-1.887,8.897-2.815
		c0.21-0.065,0.479-0.062,0.689,0.006c5.96,1.927,11.915,3.869,17.873,5.804c2.827,0.918,5.659,1.824,8.487,2.744
		c4.633,1.507,9.264,3.024,13.896,4.533c4.657,1.517,9.315,3.027,13.973,4.542c1.924,0.626,3.846,1.257,5.945,1.944
		c-1.361,0.494-2.556,0.934-3.754,1.362c-4.405,1.572-8.813,3.135-13.217,4.711c-3.635,1.301-7.264,2.621-10.901,3.915
		c-0.222,0.079-0.531,0.083-0.744-0.008c-5.555-2.386-11.379-3.149-17.364-2.842C724.464,153.898,719.826,154.123,718.988,154.864z"
		/>
</g>
</svg>
