<svg  viewBox="0 0 40 32" version="1.1" xmlns="http://www.w3.org/2000/svg" xmlns:xlink="http://www.w3.org/1999/xlink">
    <g id="Page-1" stroke="none" stroke-width="1" fill="none" fill-rule="evenodd">
        <g id="Training-Copy-8" transform="translate(-581.000000, -589.000000)">
            <g id="Group-5" transform="translate(581.000000, 589.000000)">
                <g id="Group-2" transform="translate(0.000000, 13.000000)">
                    <rect id="Rectangle-51" stroke="#FFFFFF" x="0" y="0" width="39" height="19" rx="2"></rect>
                    <rect id="Rectangle-52" fill="#FFFFFF" x="3" y="13" width="3" height="3"></rect>
                    <rect id="Rectangle-52-Copy-5" fill="#FFFFFF" x="3" y="3" width="3" height="3"></rect>
                    <rect id="Rectangle-52-Copy-9" fill="#FFFFFF" x="3" y="8" width="5" height="3"></rect>
                    <rect id="Rectangle-52-Copy-12" fill="#FFFFFF" x="30" y="8" width="6" height="3"></rect>
                    <rect id="Rectangle-52-Copy-3" fill="#FFFFFF" x="28" y="13" width="3" height="3"></rect>
                    <rect id="Rectangle-52-Copy" fill="#FFFFFF" x="8" y="13" width="3" height="3"></rect>
                    <rect id="Rectangle-52-Copy-7" fill="#FFFFFF" x="8" y="3" width="3" height="3"></rect>
                    <rect id="Rectangle-52-Copy-15" fill="#FFFFFF" x="13" y="3" width="3" height="3"></rect>
                    <rect id="Rectangle-52-Copy-18" fill="#FFFFFF" x="28" y="3" width="3" height="3"></rect>
                    <rect id="Rectangle-52-Copy-16" fill="#FFFFFF" x="18" y="3" width="3" height="3"></rect>
                    <rect id="Rectangle-52-Copy-20" fill="#FFFFFF" x="23" y="3" width="3" height="3"></rect>
                    <rect id="Rectangle-52-Copy-19" fill="#FFFFFF" x="33" y="3" width="3" height="3"></rect>
                    <rect id="Rectangle-52-Copy-11" fill="#FFFFFF" x="10" y="8" width="3" height="3"></rect>
                    <rect id="Rectangle-52-Copy-13" fill="#FFFFFF" x="15" y="8" width="3" height="3"></rect>
                    <rect id="Rectangle-52-Copy-14" fill="#FFFFFF" x="20" y="8" width="3" height="3"></rect>
                    <rect id="Rectangle-52-Copy-17" fill="#FFFFFF" x="25" y="8" width="3" height="3"></rect>
                    <rect id="Rectangle-52-Copy-4" fill="#FFFFFF" x="33" y="13" width="3" height="3"></rect>
                    <rect id="Rectangle-52-Copy-2" fill="#FFFFFF" x="13" y="13" width="13" height="3"></rect>
                </g>
                <path d="M19.1097832,13 C19.1097832,13 17,7 22.1459623,7 C28.0000004,7 25.1097832,0 25.1097832,0" id="Path-100" stroke="#FFFFFF" stroke-linecap="round"></path>
            </g>
        </g>
    </g>
</svg>