<svg width="50" height="50" viewBox="0 0 45 45" fill="none" xmlns="http://www.w3.org/2000/svg">
<path d="M24.986 22.5001L44.4851 3.00086C45.1716 2.31435 45.1716 1.20131 44.4851 0.514884C43.7986 -0.17154 42.6856 -0.171628 41.9991 0.514884L22.5 20.0141L3.00086 0.514884C2.31435 -0.171628 1.20131 -0.171628 0.514884 0.514884C-0.17154 1.2014 -0.171628 2.31444 0.514884 3.00086L20.014 22.5L0.514884 41.9992C-0.171628 42.6857 -0.171628 43.7987 0.514884 44.4851C0.858096 44.8284 1.30801 44.9999 1.75792 44.9999C2.20783 44.9999 2.65765 44.8284 3.00095 44.4851L22.5 24.986L41.999 44.4851C42.3423 44.8284 42.7922 44.9999 43.2421 44.9999C43.692 44.9999 44.1418 44.8284 44.4851 44.4851C45.1716 43.7986 45.1716 42.6856 44.4851 41.9992L24.986 22.5001Z" fill="white"/>
</svg>