<svg width="50" height="50" viewBox="0 0 50 50" fill="none" xmlns="http://www.w3.org/2000/svg">
<path d="M46.7391 19.5652H42.6696C42.3283 18.4511 41.8815 17.375 41.3391 16.35L44.2141 13.475C44.8293 12.8598 45.1685 12.0402 45.1685 11.1674C45.1685 10.2957 44.8293 9.47609 44.2141 8.86087L41.138 5.78478C39.9087 4.55543 37.7565 4.55217 36.525 5.78478L33.65 8.65978C32.6261 8.11739 31.5489 7.67174 30.4348 7.32935V3.26087C30.4348 1.46304 28.9717 0 27.1739 0H22.8261C21.0283 0 19.5652 1.46304 19.5652 3.26087V7.33043C18.4511 7.67283 17.375 8.11848 16.35 8.66087L13.4739 5.78587C12.2022 4.51413 10.1326 4.51413 8.86087 5.78587L5.7837 8.86196C4.51304 10.1337 4.51304 12.2033 5.7837 13.475L8.6587 16.3511C8.1163 17.375 7.67065 18.4522 7.32826 19.5663H3.26087C1.46304 19.5663 0 21.0293 0 22.8272V27.175C0 28.9717 1.46304 30.4348 3.26087 30.4348H7.33043C7.67283 31.5489 8.11848 32.625 8.66087 33.65L5.78587 36.5261C4.51413 37.7978 4.51413 39.8674 5.78587 41.1391L8.86196 44.2163C10.1337 45.487 12.2033 45.487 13.475 44.2163L16.3511 41.3413C17.375 41.8837 18.4522 42.3293 19.5663 42.6717V46.7391C19.5663 48.537 21.0293 50 22.8272 50H27.175C28.9728 50 30.4359 48.537 30.4359 46.7391V42.6696C31.55 42.3272 32.6272 41.8815 33.6511 41.3391L36.5261 44.2152C37.7587 45.4467 39.9109 45.4446 41.1391 44.2152L44.2152 41.1391C44.8304 40.5239 45.1696 39.7043 45.1696 38.8326C45.1696 37.9598 44.8304 37.1413 44.2152 36.5261L41.3402 33.65C41.8826 32.6261 42.3283 31.5489 42.6707 30.4348H46.7391C48.537 30.4348 50 28.9717 50 27.1739V22.8261C50 21.0283 48.537 19.5652 46.7391 19.5652ZM47.8261 27.1739C47.8261 27.7728 47.3391 28.2609 46.7391 28.2609H41.8478C41.3522 28.2609 40.9196 28.5967 40.7957 29.0761C40.4109 30.5598 39.825 31.9761 39.0522 33.2848C38.8011 33.712 38.8696 34.2554 39.2196 34.6054L42.6761 38.063C42.8804 38.2674 42.9935 38.5402 42.9935 38.8326C42.9935 39.125 42.8804 39.3978 42.6761 39.6022L39.6 42.6783C39.1913 43.087 38.4706 43.087 38.0609 42.6783L34.6043 39.2217C34.2543 38.8707 33.7109 38.8033 33.2826 39.0543C31.9761 39.8261 30.5598 40.413 29.075 40.7967C28.5967 40.9196 28.2609 41.3522 28.2609 41.8478V46.7391C28.2609 47.338 27.7739 47.8261 27.1739 47.8261H22.8261C22.2272 47.8261 21.7391 47.338 21.7391 46.7391V41.8478C21.7391 41.3522 21.4033 40.9196 20.9239 40.7957C19.4402 40.412 18.0239 39.8261 16.7152 39.0533C16.5435 38.9511 16.3533 38.9022 16.163 38.9022C15.8815 38.9022 15.6033 39.0109 15.3935 39.2206L11.937 42.6772C11.512 43.1011 10.8228 43.1011 10.3978 42.6772L7.32174 39.6011C6.89674 39.1761 6.89674 38.4859 7.32174 38.062L10.7783 34.6054C11.1293 34.2543 11.1978 33.7109 10.9457 33.2848C10.1739 31.9761 9.58696 30.5609 9.20326 29.0761C9.08043 28.5967 8.64783 28.2609 8.15217 28.2609H3.26087C2.66196 28.2609 2.17391 27.7728 2.17391 27.1739V22.8261C2.17391 22.2272 2.66196 21.7391 3.26087 21.7391H8.15217C8.64783 21.7391 9.08043 21.4033 9.20435 20.9239C9.58804 19.4402 10.1739 18.0239 10.9467 16.7152C11.1989 16.288 11.1304 15.7446 10.7793 15.3946L7.32283 11.938C6.89891 11.5141 6.89891 10.8239 7.32283 10.3989L10.3989 7.32283C10.8239 6.89783 11.513 6.89891 11.938 7.32283L15.3946 10.7793C15.7457 11.1304 16.288 11.2 16.7152 10.9467C18.0239 10.175 19.4391 9.58804 20.9239 9.20435C21.4033 9.08043 21.7391 8.64783 21.7391 8.15217V3.26087C21.7391 2.66196 22.2272 2.17391 22.8261 2.17391H27.1739C27.7739 2.17391 28.2609 2.66196 28.2609 3.26087V8.15217C28.2609 8.64783 28.5967 9.08043 29.0761 9.20435C30.5609 9.58804 31.9772 10.175 33.2837 10.9467C33.712 11.1989 34.2554 11.1315 34.6054 10.7793L38.062 7.32283C38.4717 6.91196 39.1924 6.91304 39.6011 7.32283L42.6772 10.3989C42.8815 10.6033 42.9946 10.8772 42.9946 11.1685C42.9946 11.4598 42.8815 11.7337 42.6772 11.938L39.2206 15.3946C38.8707 15.7457 38.8011 16.2891 39.0533 16.7152C39.8261 18.0239 40.412 19.4391 40.7967 20.9239C40.9196 21.4033 41.3522 21.7391 41.8478 21.7391H46.7391C47.3391 21.7391 47.8261 22.2272 47.8261 22.8261V27.1739Z" fill="white"/>
<path d="M25 15.2174C19.6065 15.2174 15.2174 19.6065 15.2174 25C15.2174 30.3935 19.6065 34.7826 25 34.7826C30.3946 34.7826 34.7826 30.3935 34.7826 25C34.7826 19.6065 30.3946 15.2174 25 15.2174ZM25 32.6087C20.8044 32.6087 17.3913 29.1957 17.3913 25C17.3913 20.8044 20.8044 17.3913 25 17.3913C29.1946 17.3913 32.6087 20.8044 32.6087 25C32.6087 29.1957 29.1946 32.6087 25 32.6087Z" fill="white"/>
</svg>