<svg id="Layer_1" fill="#fff" enable-background="new 0 0 512 512" height="512" viewBox="0 0 512 512" width="512" xmlns="http://www.w3.org/2000/svg"><g><path d="m497 136.567h-49.267v-81.4c0-5.199-2.692-10.027-7.114-12.76s-9.945-2.981-14.594-.657l-170.025 85.013-170.025-85.013c-4.65-2.325-10.171-2.077-14.594.657-4.422 2.733-7.114 7.561-7.114 12.76v81.4h-49.267c-8.284 0-15 6.716-15 15v305.267c0 8.284 6.716 15 15 15h482c8.284 0 15-6.716 15-15v-305.267c0-8.284-6.716-15-15-15zm-467 305.267v-275.267h34.267v201.9c0 5.682 3.21 10.875 8.292 13.417l119.9 59.95zm211-9.271-146.733-73.366v-279.76l146.733 73.367zm30-279.759 146.733-73.367v279.759l-146.733 73.367zm211 289.03h-162.459l119.9-59.95c5.082-2.541 8.292-7.735 8.292-13.417v-201.9h34.267z"/><path fill="#fff" d="m136.825 179.042 48.2 24.1c7.408 3.705 16.42.702 20.125-6.708s.701-16.419-6.708-20.125l-48.2-24.1c-7.408-3.705-16.42-.702-20.125 6.708s-.701 16.42 6.708 20.125z"/><path d="m136.825 257.367 48.2 24.1c7.408 3.705 16.42.702 20.125-6.708s.701-16.419-6.708-20.124l-48.2-24.1c-7.408-3.705-16.42-.702-20.125 6.708-3.705 7.409-.701 16.419 6.708 20.124z"/><path d="m136.825 335.692 48.2 24.1c7.408 3.705 16.42.702 20.125-6.708s.701-16.419-6.708-20.125l-48.2-24.1c-7.408-3.705-16.42-.702-20.125 6.708s-.701 16.42 6.708 20.125z"/><path d="m361.759 152.209-48.2 24.1c-7.41 3.705-10.413 12.715-6.708 20.125s12.716 10.414 20.125 6.708l48.2-24.1c7.41-3.705 10.413-12.715 6.708-20.125s-12.717-10.413-20.125-6.708z"/><path d="m361.759 230.534-48.2 24.1c-7.41 3.705-10.413 12.715-6.708 20.124 3.705 7.41 12.716 10.414 20.125 6.708l48.2-24.1c7.41-3.705 10.413-12.715 6.708-20.124-3.705-7.41-12.717-10.413-20.125-6.708z"/><path d="m361.759 308.859-48.2 24.1c-7.41 3.705-10.413 12.715-6.708 20.125s12.716 10.414 20.125 6.708l48.2-24.1c7.41-3.705 10.413-12.715 6.708-20.125s-12.717-10.413-20.125-6.708z"/></g></svg>