<?xml version="1.0" encoding="iso-8859-1"?>
<!-- Generator: Adobe Illustrator 19.0.0, SVG Export Plug-In . SVG Version: 6.00 Build 0)  -->
<svg version="1.1" id="Capa_1" xmlns="http://www.w3.org/2000/svg" xmlns:xlink="http://www.w3.org/1999/xlink" x="0px" y="0px"
	 viewBox="0 0 511.998 511.998" style="enable-background:new 0 0 511.998 511.998;" xml:space="preserve">
<path style="fill:#FFC107;" d="M440.425,301.781L266.644,475.584V10.667C266.644,4.776,261.868,0,255.977,0
	c-5.891,0-10.667,4.776-10.667,10.667v464.917L71.529,301.781c-4.237-4.093-10.99-3.975-15.083,0.262
	c-3.992,4.134-3.992,10.687,0,14.82l192,192c4.16,4.171,10.914,4.179,15.085,0.019c0.006-0.006,0.013-0.013,0.019-0.019l192-192
	c4.093-4.237,3.975-10.99-0.262-15.083c-4.134-3.993-10.687-3.993-14.821,0L440.425,301.781z"/>
<g>
</g>
<g>
</g>
<g>
</g>
<g>
</g>
<g>
</g>
<g>
</g>
<g>
</g>
<g>
</g>
<g>
</g>
<g>
</g>
<g>
</g>
<g>
</g>
<g>
</g>
<g>
</g>
<g>
</g>
</svg>
