<svg width="35" height="38" viewBox="0 0 35 38" fill="none" xmlns="http://www.w3.org/2000/svg">
<path d="M15.1978 21.6252V21.8916H15.4642H18.0819H18.3482V21.6252V20.9061H18.3485L18.3479 20.8943C18.304 19.9079 18.8361 18.9797 20.0635 18.108C22.2163 16.6566 23.2946 15.0405 23.1222 13.2546C23.0108 11.7933 22.4679 10.6524 21.4715 9.86924C20.4829 9.09212 19.0814 8.6938 17.3024 8.63959L17.3024 8.63956L17.2982 8.6395C15.554 8.61408 14.127 9.05059 13.0456 9.97722C11.9662 10.9021 11.2627 12.2883 10.9109 14.1019L10.8494 14.419H11.1724H13.8738H14.0854L14.1332 14.2128C14.3912 13.101 14.7909 12.2995 15.3128 11.778C15.8262 11.2651 16.4765 11.004 17.2859 11.0023C18.0851 11.0539 18.6619 11.2901 19.0522 11.6801C19.4434 12.0709 19.6807 12.6494 19.7335 13.4516C19.7758 14.4779 19.1262 15.5171 17.6204 16.5537C15.9775 17.6508 15.1423 19.0247 15.1978 20.6748V21.6252ZM15.1179 26.4573V26.7237H15.3843H18.3292H18.5955V26.4573V23.6722V23.4059H18.3292H15.3843H15.1179V23.6722V26.4573Z" fill="#2F281E" stroke="#2F281E" stroke-width="0.532672"/>
<path d="M29.3401 35.9694L29.3591 35.9237L21.6354 32.0543L21.6126 32.1037C21.5289 32.0847 21.4528 32.0543 21.3653 32.0543C21.1522 32.0543 20.9734 32.1304 20.8098 32.2369C20.806 32.2255 20.7983 32.2141 20.7945 32.2027C19.5884 32.5147 18.329 32.7011 17.0278 32.7011C8.72953 32.6973 2.00645 25.9742 2.00645 17.6797C2.00645 9.38529 8.72953 2.66221 17.024 2.66221C25.3146 2.66221 32.0415 9.38529 32.0415 17.6797C32.0415 21.4655 30.6299 24.9127 28.3204 27.5532C28.1264 27.7396 28.0008 27.9984 28.0008 28.2913C28.0008 28.8582 28.4612 29.3148 29.0281 29.3148C29.2069 29.3148 29.3706 29.2577 29.5189 29.174C29.5227 29.1817 29.5304 29.1893 29.5342 29.1969C29.5532 29.174 29.5722 29.1474 29.5988 29.1246C29.7624 29.0104 29.8994 28.862 29.9793 28.668C32.5019 25.7041 34.0505 21.884 34.0505 17.6797C34.0428 8.27809 26.4218 0.660889 17.024 0.660889C7.62614 0.660889 0.00512695 8.2819 0.00512695 17.6797C0.00512695 27.0814 7.62614 34.6986 17.024 34.6986C18.4774 34.6986 19.8776 34.4817 21.2207 34.1355L28.3889 37.731C28.5601 37.8604 28.7656 37.9479 28.9939 37.9479C29.5608 37.9479 30.0212 37.4875 30.0212 36.9244C30.0212 36.4792 29.7358 36.1102 29.3401 35.9694Z" fill="#2F281E"/>
</svg>
