<svg width="26" height="39" viewBox="0 0 26 39" fill="none" xmlns="http://www.w3.org/2000/svg">
<path d="M13.5067 38.0126L25.3967 26.1226C25.7063 25.813 25.7063 25.3114 25.3967 25.0018C25.087 24.6921 24.5854 24.6921 24.2758 25.0018L13.7389 35.5387L13.7389 0.989559C13.7389 0.551413 13.3844 0.196868 12.9462 0.196868C12.5081 0.196868 12.1535 0.551413 12.1535 0.989559L12.1535 35.5387L1.61668 25.0018C1.30702 24.6921 0.805409 24.6921 0.495824 25.0018C0.341031 25.1566 0.263598 25.3594 0.263598 25.5622C0.263598 25.765 0.341031 25.9678 0.495824 26.1227L12.3858 38.0127C12.6954 38.3223 13.197 38.3223 13.5067 38.0126Z" fill="black"/>
</svg>
