<svg width="39" height="40" viewBox="0 0 39 40" fill="none" xmlns="http://www.w3.org/2000/svg">
<path d="M31.3848 36.6509L31.4038 36.6053L23.6801 32.7358L23.6572 32.7852C23.5735 32.7662 23.4974 32.7358 23.4099 32.7358C23.1969 32.7358 23.018 32.8119 22.8544 32.9184C22.8506 32.907 22.843 32.8956 22.8392 32.8842C21.6331 33.1962 20.3737 33.3826 19.0725 33.3826C10.7742 33.3788 4.05113 26.6557 4.05113 18.3613C4.05113 10.0668 10.7742 3.34373 19.0687 3.34373C27.3593 3.34373 34.0862 10.0668 34.0862 18.3613C34.0862 22.147 32.6746 25.5942 30.3651 28.2347C30.1711 28.4211 30.0455 28.6799 30.0455 28.9728C30.0455 29.5398 30.5059 29.9963 31.0728 29.9963C31.2516 29.9963 31.4152 29.9393 31.5636 29.8556C31.5674 29.8632 31.575 29.8708 31.5788 29.8784C31.5979 29.8556 31.6169 29.8289 31.6435 29.8061C31.8071 29.6919 31.9441 29.5436 32.024 29.3495C34.5466 26.3856 36.0951 22.5656 36.0951 18.3613C36.0875 8.95961 28.4665 1.34241 19.0687 1.34241C9.67081 1.34241 2.0498 8.96342 2.0498 18.3613C2.0498 27.7629 9.67081 35.3801 19.0687 35.3801C20.5221 35.3801 21.9223 35.1632 23.2654 34.817L30.4336 38.4125C30.6048 38.5419 30.8103 38.6294 31.0386 38.6294C31.6055 38.6294 32.0658 38.169 32.0658 37.6059C32.0658 37.1608 31.7805 36.7917 31.3848 36.6509Z" fill="#2F281E"/>
<path d="M21.7947 25.1034C21.7871 25.1053 21.1441 25.3203 20.5848 25.3203C20.2766 25.3203 20.151 25.2556 20.1111 25.2289C19.9151 25.092 19.5518 24.8371 20.1739 23.5967L21.34 21.2739C22.0306 19.8946 22.1333 18.5591 21.6254 17.5166C21.2107 16.6624 20.4155 16.0765 19.3882 15.8672C19.0191 15.7912 18.6443 15.755 18.2715 15.755C16.1161 15.755 14.6664 17.0144 14.6056 17.0677C14.3963 17.2522 14.3487 17.5566 14.4876 17.7963C14.6284 18.036 14.9156 18.1463 15.1801 18.055C15.1858 18.0531 15.8307 17.8362 16.39 17.8362C16.6963 17.8362 16.8199 17.9009 16.858 17.9275C17.0558 18.0645 17.4192 18.3232 16.799 19.5617L15.6328 21.8864C14.9404 23.2676 14.8395 24.6012 15.3475 25.6437C15.7622 26.4978 16.5574 27.0838 17.5866 27.2931C17.9519 27.3672 18.3285 27.4053 18.6976 27.4053C20.853 27.4053 22.3046 26.1459 22.3654 26.0926C22.5747 25.91 22.6223 25.6037 22.4834 25.364C22.3464 25.1243 22.0553 25.0178 21.7947 25.1034Z" fill="#2F281E"/>
<path d="M20.8169 14.587C22.4254 14.587 23.7294 13.283 23.7294 11.6744C23.7294 10.0658 22.4254 8.76184 20.8169 8.76184C19.2083 8.76184 17.9043 10.0658 17.9043 11.6744C17.9043 13.283 19.2083 14.587 20.8169 14.587Z" fill="#2F281E"/>
</svg>
