<svg width="39" height="39" viewBox="0 0 39 39" fill="none" xmlns="http://www.w3.org/2000/svg">
<rect x="0.922363" y="0.224121" width="38.048" height="38.048" rx="19.024" fill="#00CD08"/>
<path d="M19.4712 17.7226C22.024 17.7226 23.9041 18.2314 25.1115 19.2491C26.3361 20.2667 26.9484 21.6294 26.9484 23.337C26.9484 24.4409 26.6725 25.4499 26.1205 26.3641C25.5686 27.261 24.7234 27.9854 23.585 28.5374C22.4638 29.0721 21.0753 29.3394 19.4195 29.3394C18.1431 29.3394 16.884 29.1755 15.6421 28.8478C14.4175 28.5029 13.3739 28.0199 12.5115 27.399L14.1674 24.1908C14.8573 24.7082 15.6507 25.1135 16.5476 25.4068C17.4446 25.6827 18.3673 25.8207 19.316 25.8207C20.3682 25.8207 21.1961 25.6137 21.7998 25.1998C22.4035 24.7858 22.7053 24.208 22.7053 23.4663C22.7053 22.6901 22.3862 22.1037 21.748 21.707C21.1271 21.3103 20.0404 21.1119 18.4881 21.1119H13.8569L14.7883 10.9181H25.8359V14.2815H18.2811L17.9965 17.7226H19.4712Z" fill="white"/>
</svg>
