<svg width="39" height="39" viewBox="0 0 39 39" fill="none" xmlns="http://www.w3.org/2000/svg">
<rect x="0.498779" y="0.143066" width="38.048" height="38.048" rx="19.024" fill="#F03E3D"/>
<path d="M21.3365 18.2107C22.9233 18.4695 24.1393 19.0645 24.9845 19.9959C25.8297 20.9101 26.2523 22.0485 26.2523 23.4111C26.2523 24.4633 25.9763 25.4378 25.4243 26.3347C24.8724 27.2144 24.0272 27.9216 22.8888 28.4563C21.7677 28.991 20.3878 29.2583 18.7492 29.2583C17.4728 29.2583 16.2137 29.0945 14.9718 28.7668C13.7472 28.4218 12.7036 27.9388 11.8412 27.3179L13.4712 24.1097C14.1611 24.6271 14.9546 25.0325 15.8515 25.3257C16.7656 25.6017 17.6971 25.7397 18.6457 25.7397C19.6979 25.7397 20.5258 25.5413 21.1295 25.1446C21.7332 24.7306 22.035 24.1528 22.035 23.4111C22.035 21.9278 20.9053 21.1861 18.6457 21.1861H16.7311V18.4177L20.4568 14.2005H12.7468V10.837H25.4243V13.5537L21.3365 18.2107Z" fill="white"/>
</svg>
