<svg width="39" height="39" viewBox="0 0 39 39" fill="none" xmlns="http://www.w3.org/2000/svg">
<rect x="0.0422363" y="0.429321" width="38.048" height="38.048" rx="19.024" fill="#FAB005"/>
<path d="M25.9762 25.8189V29.2341H12.2896V26.5175L19.2752 19.92C20.0169 19.2128 20.5171 18.6091 20.7758 18.1089C21.0346 17.5915 21.1639 17.0826 21.1639 16.5824C21.1639 15.858 20.9138 15.306 20.4136 14.9266C19.9307 14.5299 19.2149 14.3315 18.2662 14.3315C17.4728 14.3315 16.757 14.4867 16.1188 14.7972C15.4806 15.0904 14.9459 15.5389 14.5147 16.1426L11.4617 14.1763C12.1689 13.1241 13.1434 12.3048 14.3853 11.7184C15.6272 11.1147 17.0502 10.8128 18.6543 10.8128C19.9997 10.8128 21.1725 11.0371 22.173 11.4855C23.1906 11.9167 23.9754 12.5377 24.5274 13.3483C25.0966 14.1418 25.3812 15.0818 25.3812 16.1685C25.3812 17.1516 25.1742 18.0744 24.7602 18.9368C24.3463 19.7992 23.5442 20.7824 22.3541 21.8863L18.1886 25.8189H25.9762Z" fill="white"/>
</svg>
