<svg width="35" height="35" viewBox="0 0 35 35" fill="none" xmlns="http://www.w3.org/2000/svg">
<path d="M35 10.3636V1.98666C35 0.891201 34.1088 0 33.0133 0H24.6364C24.0522 0 23.5263 0.253545 23.1624 0.656182C22.7986 0.253545 22.2726 0 21.6884 0H13.3116C12.7274 0 12.2015 0.253477 11.8376 0.656182C11.4738 0.253477 10.9478 0 10.3636 0H6.20908C5.92587 0 5.69639 0.229551 5.69639 0.512695C5.69639 0.79584 5.92587 1.02539 6.20908 1.02539H10.3636C10.8937 1.02539 11.3249 1.4566 11.3249 1.98666V10.3636C11.3249 10.8936 10.8937 11.3249 10.3636 11.3249H1.98666C1.4566 11.3249 1.02539 10.8937 1.02539 10.3636V1.98666C1.02539 1.4566 1.4566 1.02539 1.98666 1.02539H3.90811C4.19132 1.02539 4.4208 0.79584 4.4208 0.512695C4.4208 0.229551 4.19132 0 3.90811 0H1.98666C0.891201 0 0 0.891201 0 1.98666V10.3636C0 10.9478 0.253545 11.4737 0.656182 11.8376C0.253545 12.2014 0 12.7274 0 13.3116V21.6885C0 22.2726 0.253545 22.7987 0.656182 23.1625C0.253545 23.5263 0 24.0522 0 24.6364V33.0133C0 34.1088 0.891201 35 1.98666 35H10.3636C10.9478 35 11.4738 34.7465 11.8377 34.3438C12.2015 34.7465 12.7274 35 13.3116 35H21.6886C22.2727 35 22.7987 34.7465 23.1625 34.3438C23.5264 34.7465 24.0523 35 24.6365 35H33.0135C34.1088 35 35 34.1088 35 33.0133V24.6364C35 24.0522 34.7465 23.5263 34.3438 23.1624C34.7465 22.7986 35 22.2726 35 21.6884V13.3116C35 12.7274 34.7465 12.2014 34.3438 11.8376C34.7465 11.4737 35 10.9478 35 10.3636V10.3636ZM23.3059 11.8375C23.2557 11.8829 23.2077 11.9308 23.1624 11.981C23.117 11.9308 23.0691 11.8829 23.0189 11.8375C23.0692 11.7921 23.117 11.7442 23.1624 11.694C23.2078 11.7443 23.2557 11.7922 23.3059 11.8375ZM23.3059 23.1624C23.2557 23.2078 23.2078 23.2557 23.1624 23.3059C23.117 23.2557 23.0691 23.2078 23.0189 23.1624C23.0692 23.117 23.117 23.0691 23.1624 23.0189C23.2078 23.0692 23.2557 23.1171 23.3059 23.1624ZM13.3116 1.02539H21.6885C22.2186 1.02539 22.6498 1.4566 22.6498 1.98666V10.3636C22.6498 10.8936 22.2186 11.3249 21.6885 11.3249H13.3116C12.7815 11.3249 12.3503 10.8937 12.3503 10.3636V1.98666C12.3503 1.4566 12.7815 1.02539 13.3116 1.02539V1.02539ZM11.8376 11.694C11.883 11.7443 11.9309 11.7921 11.9811 11.8375C11.9308 11.8829 11.883 11.9308 11.8376 11.981C11.7922 11.9308 11.7443 11.8829 11.6941 11.8375C11.7443 11.7922 11.7922 11.7443 11.8376 11.694ZM1.02539 21.6884V13.3116C1.02539 12.7815 1.4566 12.3503 1.98666 12.3503H10.3637C10.8938 12.3503 11.325 12.7815 11.325 13.3116V15.4608C11.325 15.744 11.5544 15.9735 11.8377 15.9735C12.1209 15.9735 12.3504 15.744 12.3504 15.4608V13.3116C12.3504 12.7815 12.7816 12.3503 13.3116 12.3503H21.6886C22.2186 12.3503 22.6499 12.7815 22.6499 13.3116V21.6885C22.6499 22.2186 22.2186 22.6498 21.6886 22.6498H13.3116C12.7815 22.6498 12.3503 22.2186 12.3503 21.6885V17.7618C12.3503 17.4787 12.1208 17.2491 11.8376 17.2491C11.5544 17.2491 11.3249 17.4787 11.3249 17.7618V21.6884C11.3249 22.2185 10.8937 22.6497 10.3636 22.6497C9.83356 22.6497 10.3636 22.6497 10.3636 22.6497H1.98666C1.4566 22.6497 1.02539 22.2185 1.02539 21.6884V21.6884ZM11.8376 23.306C11.7922 23.2557 11.7443 23.2079 11.6941 23.1625C11.7443 23.1171 11.7923 23.0692 11.8376 23.019C11.883 23.0692 11.9309 23.1171 11.9811 23.1625C11.9308 23.2078 11.883 23.2557 11.8376 23.306ZM10.3636 33.9746H1.98666C1.4566 33.9746 1.02539 33.5434 1.02539 33.0133V24.6364C1.02539 24.1064 1.4566 23.6751 1.98666 23.6751H10.3636C10.8937 23.6751 11.325 24.1063 11.325 24.6364V33.0133C11.3249 33.5434 10.8936 33.9746 10.3636 33.9746ZM21.6884 33.9746H13.3116C12.7815 33.9746 12.3503 33.5434 12.3503 33.0133V24.6364C12.3503 24.1064 12.7815 23.6751 13.3116 23.6751H21.6885C22.2186 23.6751 22.6498 24.1063 22.6498 24.6364V33.0133C22.6497 33.5434 22.2185 33.9746 21.6884 33.9746V33.9746ZM33.9746 13.3116V21.6885C33.9746 22.2186 33.5434 22.6498 33.0133 22.6498H30.2032C29.92 22.6498 29.6905 22.8793 29.6905 23.1625C29.6905 23.4456 29.92 23.6752 30.2032 23.6752H33.0133C33.5434 23.6752 33.9746 24.1064 33.9746 24.6364V33.0134C33.9746 33.5434 33.5434 33.9747 33.0133 33.9747H24.6364C24.1063 33.9747 23.6751 33.5435 23.6751 33.0134V24.6364C23.6751 24.1064 24.1063 23.6751 24.6364 23.6751H27.9022C28.1855 23.6751 28.4149 23.4456 28.4149 23.1624C28.4149 22.8793 28.1855 22.6497 27.9022 22.6497H24.6364C24.1063 22.6497 23.6751 22.2185 23.6751 21.6884V13.3116C23.6751 12.7815 24.1063 12.3503 24.6364 12.3503H33.0134C33.5434 12.3503 33.9746 12.7815 33.9746 13.3116V13.3116ZM24.6364 11.3249C24.1064 11.3249 23.6751 10.8937 23.6751 10.3636V1.98666C23.6751 1.45667 24.1064 1.02539 24.6364 1.02539H33.0134C33.5434 1.02539 33.9746 1.4566 33.9746 1.98666V10.3636C33.9746 10.8936 33.5434 11.3249 33.0133 11.3249H24.6364Z" fill="black" fill-opacity="0.56"/>
</svg>
