<svg width="35" height="35" viewBox="0 0 35 35" fill="none" xmlns="http://www.w3.org/2000/svg">
<path d="M32.7174 13.6957H29.8687C29.6298 12.9158 29.3171 12.1625 28.9374 11.445L30.9499 9.4325C31.3805 9.00185 31.6179 8.42815 31.6179 7.81717C31.6179 7.20696 31.3805 6.63326 30.9499 6.20261L28.7966 4.04935C27.9361 3.1888 26.4296 3.18652 25.5675 4.04935L23.555 6.06185C22.8383 5.68217 22.0842 5.37022 21.3043 5.13054V2.28261C21.3043 1.02413 20.2802 0 19.0217 0H15.9783C14.7198 0 13.6957 1.02413 13.6957 2.28261V5.1313C12.9158 5.37098 12.1625 5.68293 11.445 6.06261L9.43174 4.05011C8.54152 3.15989 7.09283 3.15989 6.20261 4.05011L4.04859 6.20337C3.15913 7.09359 3.15913 8.54228 4.04859 9.4325L6.06109 11.4458C5.68141 12.1625 5.36946 12.9165 5.12978 13.6964H2.28261C1.02413 13.6964 0 14.7205 0 15.979V19.0225C0 20.2802 1.02413 21.3043 2.28261 21.3043H5.1313C5.37098 22.0842 5.68293 22.8375 6.06261 23.555L4.05011 25.5683C3.15989 26.4585 3.15989 27.9072 4.05011 28.7974L6.20337 30.9514C7.09359 31.8409 8.54228 31.8409 9.4325 30.9514L11.4458 28.9389C12.1625 29.3186 12.9165 29.6305 13.6964 29.8702V32.7174C13.6964 33.9759 14.7205 35 15.979 35H19.0225C20.281 35 21.3051 33.9759 21.3051 32.7174V29.8687C22.085 29.629 22.839 29.3171 23.5558 28.9374L25.5683 30.9507C26.4311 31.8127 27.9376 31.8112 28.7974 30.9507L30.9507 28.7974C31.3813 28.3667 31.6187 27.793 31.6187 27.1828C31.6187 26.5718 31.3813 25.9989 30.9507 25.5683L28.9382 23.555C29.3178 22.8383 29.6298 22.0842 29.8695 21.3043H32.7174C33.9759 21.3043 35 20.2802 35 19.0217V15.9783C35 14.7198 33.9759 13.6957 32.7174 13.6957ZM33.4783 19.0217C33.4783 19.441 33.1374 19.7826 32.7174 19.7826H29.2935C28.9465 19.7826 28.6437 20.0177 28.557 20.3533C28.2876 21.3918 27.8775 22.3833 27.3365 23.2993C27.1608 23.5984 27.2087 23.9788 27.4537 24.2238L29.8733 26.6441C30.0163 26.7872 30.0954 26.9782 30.0954 27.1828C30.0954 27.3875 30.0163 27.5785 29.8733 27.7215L27.72 29.8748C27.4339 30.1609 26.9295 30.1609 26.6426 29.8748L24.223 27.4552C23.978 27.2095 23.5976 27.1623 23.2978 27.338C22.3833 27.8783 21.3918 28.2891 20.3525 28.5577C20.0177 28.6437 19.7826 28.9465 19.7826 29.2935V32.7174C19.7826 33.1366 19.4417 33.4783 19.0217 33.4783H15.9783C15.559 33.4783 15.2174 33.1366 15.2174 32.7174V29.2935C15.2174 28.9465 14.9823 28.6437 14.6467 28.557C13.6082 28.2884 12.6167 27.8783 11.7007 27.3373C11.5804 27.2658 11.4473 27.2315 11.3141 27.2315C11.1171 27.2315 10.9223 27.3076 10.7754 27.4545L8.35587 29.874C8.05837 30.1708 7.57598 30.1708 7.27848 29.874L5.12522 27.7208C4.82772 27.4233 4.82772 26.9401 5.12522 26.6434L7.54478 24.2238C7.79054 23.978 7.83848 23.5976 7.66196 23.2993C7.12174 22.3833 6.71087 21.3926 6.44228 20.3533C6.3563 20.0177 6.05348 19.7826 5.70652 19.7826H2.28261C1.86337 19.7826 1.52174 19.441 1.52174 19.0217V15.9783C1.52174 15.559 1.86337 15.2174 2.28261 15.2174H5.70652C6.05348 15.2174 6.3563 14.9823 6.44304 14.6467C6.71163 13.6082 7.12174 12.6167 7.66272 11.7007C7.83924 11.4016 7.7913 11.0212 7.54554 10.7762L5.12598 8.35663C4.82924 8.05989 4.82924 7.57674 5.12598 7.27924L7.27924 5.12598C7.57674 4.82848 8.05913 4.82924 8.35663 5.12598L10.7762 7.54554C11.022 7.7913 11.4016 7.84 11.7007 7.66272C12.6167 7.1225 13.6074 6.71163 14.6467 6.44304C14.9823 6.3563 15.2174 6.05348 15.2174 5.70652V2.28261C15.2174 1.86337 15.559 1.52174 15.9783 1.52174H19.0217C19.4417 1.52174 19.7826 1.86337 19.7826 2.28261V5.70652C19.7826 6.05348 20.0177 6.3563 20.3533 6.44304C21.3926 6.71163 22.384 7.1225 23.2986 7.66272C23.5984 7.83924 23.9788 7.79207 24.2238 7.54554L26.6434 5.12598C26.9302 4.83837 27.4347 4.83913 27.7208 5.12598L29.874 7.27924C30.0171 7.42228 30.0962 7.61402 30.0962 7.81793C30.0962 8.02185 30.0171 8.21359 29.874 8.35663L27.4545 10.7762C27.2095 11.022 27.1608 11.4024 27.3373 11.7007C27.8783 12.6167 28.2884 13.6074 28.5577 14.6467C28.6437 14.9823 28.9465 15.2174 29.2935 15.2174H32.7174C33.1374 15.2174 33.4783 15.559 33.4783 15.9783V19.0217Z" fill="black" fill-opacity="0.56"/>
<path d="M17.5 10.6522C13.7246 10.6522 10.6522 13.7246 10.6522 17.5C10.6522 21.2754 13.7246 24.3478 17.5 24.3478C21.2762 24.3478 24.3478 21.2754 24.3478 17.5C24.3478 13.7246 21.2762 10.6522 17.5 10.6522ZM17.5 22.8261C14.563 22.8261 12.1739 20.4369 12.1739 17.5C12.1739 14.563 14.563 12.1739 17.5 12.1739C20.4362 12.1739 22.8261 14.563 22.8261 17.5C22.8261 20.4369 20.4362 22.8261 17.5 22.8261Z" fill="black" fill-opacity="0.56"/>
</svg>
