<svg width="36" height="36" viewBox="0 0 36 36" fill="none" xmlns="http://www.w3.org/2000/svg">
<g clip-path="url(#clip0)">
<path d="M6.10957 29.1877C5.93706 29.4033 5.97202 29.7179 6.18765 29.8904C6.40328 30.0629 6.71793 30.028 6.89043 29.8123L6.10957 29.1877ZM34.9 6.3C35.0657 6.07909 35.0209 5.76569 34.8 5.6C34.5791 5.43431 34.2657 5.47909 34.1 5.7L34.9 6.3ZM29.8369 11.8369L29.4834 12.1905L29.8369 11.8369ZM30.1384 11.8155L29.7384 11.5155L30.1384 11.8155ZM25.423 7.85947L25.9119 7.96423L25.423 7.85947ZM25.76 7.75995L26.1135 7.4064L25.76 7.75995ZM22.2365 21.1486L22.6365 20.8486L22.2365 21.1486ZM22.592 21.0705L22.1031 20.9658L22.592 21.0705ZM19.3521 17.7773L19.7933 18.0126L19.3521 17.7773ZM19.6886 17.7514L20.0886 17.4514L19.6886 17.7514ZM15.3091 24.8091L14.9556 25.1627L15.3091 24.8091ZM15.627 24.7618L16.0682 24.9971L15.627 24.7618ZM12.3604 22.1745L11.97 21.8621L12.3604 22.1745ZM6.89043 29.8123L12.7508 22.4868L11.97 21.8621L6.10957 29.1877L6.89043 29.8123ZM12.3045 22.5116L14.9556 25.1627L15.6627 24.4556L13.0116 21.8045L12.3045 22.5116ZM16.0682 24.9971L19.7933 18.0126L18.9109 17.542L15.1858 24.5265L16.0682 24.9971ZM19.2886 18.0514L21.8365 21.4486L22.6365 20.8486L20.0886 17.4514L19.2886 18.0514ZM23.0809 21.1753L25.9119 7.96423L24.9341 7.7547L22.1031 20.9658L23.0809 21.1753ZM25.4064 8.11351L29.4834 12.1905L30.1905 11.4834L26.1135 7.4064L25.4064 8.11351ZM30.5384 12.1155L34.9 6.3L34.1 5.7L29.7384 11.5155L30.5384 12.1155ZM29.4834 12.1905C29.7846 12.4917 30.2828 12.4563 30.5384 12.1155L29.7384 11.5155C29.8479 11.3695 30.0614 11.3543 30.1905 11.4834L29.4834 12.1905ZM25.9119 7.96423C25.8621 8.1967 25.5745 8.28162 25.4064 8.11351L26.1135 7.4064C25.7212 7.01413 25.0503 7.21227 24.9341 7.7547L25.9119 7.96423ZM21.8365 21.4486C22.1968 21.9291 22.9551 21.7625 23.0809 21.1753L22.1031 20.9658C22.1571 20.7141 22.482 20.6427 22.6365 20.8486L21.8365 21.4486ZM19.7933 18.0126C19.6899 18.2064 19.4203 18.2271 19.2886 18.0514L20.0886 17.4514C19.7812 17.0416 19.152 17.0899 18.9109 17.542L19.7933 18.0126ZM14.9556 25.1627C15.288 25.4951 15.847 25.4119 16.0682 24.9971L15.1858 24.5265C15.2807 24.3488 15.5202 24.3131 15.6627 24.4556L14.9556 25.1627ZM12.7508 22.4868C12.6391 22.6265 12.4309 22.638 12.3045 22.5116L13.0116 21.8045C12.7165 21.5094 12.2306 21.5364 11.97 21.8621L12.7508 22.4868Z" fill="black" fill-opacity="0.56"/>
<path d="M3.41656 35.9998C3.14043 35.9998 2.91656 35.6733 2.91656 35.2706V1.72939C2.91656 1.32669 3.14043 1.00021 3.41656 1.00021C3.6927 1.00021 3.91656 1.32669 3.91656 1.72939V35.2706C3.91656 35.6733 3.6927 35.9998 3.41656 35.9998Z" fill="black" fill-opacity="0.56"/>
<path d="M34.2703 32.6248H0.72918C0.32648 32.6248 0 32.4009 0 32.1248C0 31.8487 0.32648 31.6248 0.72918 31.6248H34.2704C34.6731 31.6248 34.9996 31.8487 34.9996 32.1248C34.9995 32.4009 34.673 32.6248 34.2703 32.6248Z" fill="black" fill-opacity="0.56"/>
</g>
<path d="M34 33L35 32L34 31V31.5V33Z" stroke="black" stroke-opacity="0.56"/>
<path d="M2.5 2L3.5 1L4.5 2H2.5Z" stroke="black" stroke-opacity="0.56"/>
<defs>
<clipPath id="clip0">
<rect width="35" height="35" fill="white" transform="translate(0 1)"/>
</clipPath>
</defs>
</svg>
