<svg width="35" height="29" viewBox="0 0 35 29" fill="none" xmlns="http://www.w3.org/2000/svg">
<path d="M30.0867 4.85015C28.7236 4.7455 27.1812 4.43583 25.5022 3.9299C23.4851 3.32191 21.5272 3.41577 19.6826 4.20867C19.4224 4.32051 19.3022 4.62204 19.414 4.88221C19.5258 5.14225 19.827 5.2627 20.0875 5.1508C21.7043 4.45579 23.4266 4.37526 25.2063 4.91168C26.956 5.439 28.5716 5.7622 30.0082 5.87254C30.0216 5.87363 30.0349 5.87404 30.048 5.87404C30.3134 5.87404 30.538 5.66958 30.5587 5.40058C30.5803 5.11826 30.369 4.87182 30.0867 4.85015Z" fill="black" fill-opacity="0.56"/>
<path d="M30.0867 7.02912C28.7239 6.92453 27.1815 6.61493 25.5022 6.10886C23.4851 5.50087 21.5272 5.59473 19.6826 6.38763C19.4224 6.49947 19.3022 6.801 19.414 7.06118C19.5258 7.32128 19.827 7.44167 20.0875 7.32976C21.7043 6.63475 23.4266 6.55422 25.2063 7.09064C26.9564 7.61803 28.5719 7.9413 30.0083 8.0515C30.0216 8.05259 30.0349 8.053 30.048 8.053C30.3134 8.053 30.538 7.84854 30.5587 7.57948C30.5803 7.29715 30.369 7.05079 30.0867 7.02912Z" fill="black" fill-opacity="0.56"/>
<path d="M30.0867 17.9241C28.7236 17.8194 27.1811 17.5098 25.5022 17.0038C23.4853 16.3958 21.5274 16.4897 19.6826 17.2826C19.4224 17.3944 19.3022 17.696 19.414 17.9561C19.5258 18.2162 19.827 18.3366 20.0875 18.2247C21.7044 17.5297 23.4267 17.4493 25.2063 17.9855C26.9559 18.5129 28.5715 18.8361 30.0082 18.9465C30.0216 18.9476 30.0349 18.948 30.048 18.948C30.3134 18.948 30.538 18.7435 30.5587 18.4745C30.5803 18.1922 30.369 17.9458 30.0867 17.9241Z" fill="black" fill-opacity="0.56"/>
<path d="M30.0867 20.1031C28.7236 19.9984 27.1812 19.6887 25.5022 19.1828C23.4851 18.5749 21.5272 18.6687 19.6826 19.4616C19.4224 19.5734 19.3022 19.875 19.414 20.1351C19.5258 20.3952 19.827 20.5156 20.0875 20.4037C21.7043 19.7087 23.4266 19.6282 25.2063 20.1646C26.956 20.6919 28.5716 21.0151 30.0082 21.1255C30.0216 21.1265 30.0349 21.127 30.048 21.127C30.3134 21.127 30.538 20.9225 30.5587 20.6535C30.5803 20.3712 30.369 20.1247 30.0867 20.1031Z" fill="black" fill-opacity="0.56"/>
<path d="M30.0867 9.20816C28.7236 9.1035 27.1811 8.79383 25.5022 8.28784C23.4853 7.67992 21.5274 7.77371 19.6826 8.56668C19.4224 8.67851 19.3022 8.98005 19.414 9.24022C19.5258 9.50026 19.827 9.62064 20.0875 9.50881C21.7044 8.8138 23.4267 8.73334 25.2063 9.26962C26.9559 9.79694 28.5715 10.1202 30.0082 10.2305C30.0216 10.2316 30.0349 10.232 30.048 10.232C30.3134 10.232 30.538 10.0276 30.5587 9.75859C30.5803 9.47627 30.369 9.22983 30.0867 9.20816Z" fill="black" fill-opacity="0.56"/>
<path d="M30.0867 13.566C28.7239 13.4615 27.1815 13.1519 25.5022 12.6458C23.4853 12.0378 21.5272 12.1317 19.6826 12.9246C19.4224 13.0364 19.3022 13.338 19.414 13.5982C19.5258 13.8583 19.827 13.9786 20.0875 13.8667C21.7042 13.1718 23.4266 13.0913 25.2063 13.6276C26.9564 14.155 28.5719 14.4783 30.0083 14.5885C30.0216 14.5896 30.0349 14.59 30.048 14.59C30.3134 14.59 30.538 14.3855 30.5587 14.1165C30.5803 13.8341 30.369 13.5878 30.0867 13.566Z" fill="black" fill-opacity="0.56"/>
<path d="M30.0867 11.3871C28.7236 11.2825 27.1812 10.9728 25.5022 10.4669C23.4853 9.85888 21.5272 9.95274 19.6826 10.7456C19.4224 10.8575 19.3022 11.159 19.414 11.4192C19.5258 11.6792 19.827 11.7997 20.0875 11.6878C21.7045 10.9928 23.4267 10.9123 25.2063 11.4487C26.956 11.976 28.5716 12.2992 30.0082 12.4095C30.0216 12.4106 30.0349 12.411 30.048 12.411C30.3134 12.411 30.538 12.2066 30.5587 11.9376C30.5803 11.6552 30.369 11.4088 30.0867 11.3871Z" fill="black" fill-opacity="0.56"/>
<path d="M30.0867 15.745C28.7237 15.6405 27.1812 15.3308 25.5022 14.8248C23.4853 14.2169 21.5274 14.3107 19.6826 15.1036C19.4224 15.2155 19.3022 15.517 19.414 15.7772C19.5258 16.0372 19.827 16.1576 20.0875 16.0458C21.7044 15.3508 23.4267 15.2704 25.2063 15.8066C26.9561 16.334 28.5717 16.6573 30.0083 16.7675C30.0216 16.7685 30.0349 16.769 30.048 16.769C30.3134 16.769 30.538 16.5645 30.5587 16.2954C30.5803 16.0131 30.369 15.7667 30.0867 15.745Z" fill="black" fill-opacity="0.56"/>
<path d="M4.95193 5.87399C4.96506 5.87399 4.97839 5.87351 4.99172 5.87248C6.42843 5.76222 8.04396 5.43895 9.79362 4.91162C11.5734 4.37528 13.2956 4.45567 14.9124 5.15075C15.1725 5.26258 15.4742 5.14227 15.586 4.88216C15.6978 4.62199 15.5776 4.32045 15.3174 4.20862C13.4728 3.41565 11.5148 3.32193 9.49776 3.92985C7.81872 4.43578 6.27633 4.74544 4.91324 4.8501C4.63092 4.8717 4.41962 5.11821 4.44136 5.40053C4.46193 5.66953 4.68663 5.87399 4.95193 5.87399Z" fill="black" fill-opacity="0.56"/>
<path d="M4.95193 8.05295C4.96506 8.05295 4.97839 8.05247 4.99165 8.05145C6.42802 7.94132 8.04362 7.61798 9.79362 7.09059C11.5734 6.55424 13.2956 6.63456 14.9124 7.32971C15.1725 7.44148 15.4742 7.32123 15.586 7.06112C15.6978 6.80095 15.5776 6.49941 15.3174 6.38758C13.4728 5.59461 11.5148 5.50096 9.49776 6.10881C7.81845 6.61487 6.27599 6.92447 4.91331 7.02906C4.63092 7.05066 4.41962 7.2971 4.44136 7.57942C4.46193 7.84849 4.68663 8.05295 4.95193 8.05295Z" fill="black" fill-opacity="0.56"/>
<path d="M4.95199 18.948C4.96512 18.948 4.97845 18.9475 4.99178 18.9465C6.42856 18.8362 8.04409 18.5129 9.79368 17.9856C11.5735 17.4491 13.2957 17.5297 14.9125 18.2247C15.1726 18.3365 15.4742 18.2163 15.586 17.9562C15.6979 17.696 15.5776 17.3945 15.3175 17.2826C13.4729 16.4897 11.5148 16.3959 9.49782 17.0038C7.81885 17.5098 6.27646 17.8194 4.9133 17.9241C4.63098 17.9457 4.41968 18.1922 4.44142 18.4745C4.46199 18.7435 4.68669 18.948 4.95199 18.948Z" fill="black" fill-opacity="0.56"/>
<path d="M4.95199 21.127C4.96512 21.127 4.97845 21.1265 4.99178 21.1254C6.42849 21.0152 8.04402 20.6919 9.79368 20.1646C11.5734 19.6282 13.2957 19.7086 14.9125 20.4037C15.1726 20.5154 15.4742 20.3952 15.586 20.1351C15.6979 19.8749 15.5776 19.5734 15.3175 19.4616C13.4729 18.6686 11.5148 18.5749 9.49782 19.1828C7.81878 19.6887 6.27639 19.9984 4.9133 20.1031C4.63098 20.1247 4.41968 20.3712 4.44142 20.6535C4.46199 20.9225 4.68669 21.127 4.95199 21.127Z" fill="black" fill-opacity="0.56"/>
<path d="M4.95193 10.232C4.96506 10.232 4.97839 10.2315 4.99172 10.2305C6.4285 10.1202 8.04403 9.79687 9.79362 9.26955C11.5734 8.73313 13.2956 8.81373 14.9124 9.50874C15.1725 9.62051 15.4742 9.50026 15.586 9.24015C15.6978 8.97998 15.5776 8.67844 15.3174 8.56661C13.4728 7.77364 11.5148 7.67992 9.49776 8.28777C7.81879 8.79377 6.2764 9.10344 4.91324 9.20809C4.63092 9.22969 4.41962 9.4762 4.44136 9.75852C4.46193 10.0275 4.68663 10.232 4.95193 10.232Z" fill="black" fill-opacity="0.56"/>
<path d="M4.95199 14.59C4.96512 14.59 4.97845 14.5895 4.99171 14.5886C6.42808 14.4784 8.04368 14.155 9.79368 13.6276C11.5734 13.0913 13.2957 13.1716 14.9125 13.8667C15.1726 13.9785 15.4742 13.8583 15.586 13.5982C15.6979 13.338 15.5776 13.0365 15.3175 12.9246C13.4729 12.1317 11.515 12.0379 9.49782 12.6458C7.81851 13.1519 6.27605 13.4615 4.91337 13.566C4.63098 13.5877 4.41968 13.8341 4.44142 14.1165C4.46199 14.3855 4.68669 14.59 4.95199 14.59Z" fill="black" fill-opacity="0.56"/>
<path d="M4.95199 12.411C4.96512 12.411 4.97845 12.4105 4.99178 12.4095C6.42849 12.2992 8.04402 11.976 9.79368 11.4487C11.5733 10.9124 13.2956 10.9926 14.9125 11.6878C15.1726 11.7995 15.4742 11.6793 15.586 11.4192C15.6979 11.159 15.5776 10.8575 15.3175 10.7456C13.4727 9.95267 11.5148 9.85882 9.49782 10.4669C7.81878 10.9728 6.27639 11.2825 4.9133 11.3871C4.63098 11.4087 4.41968 11.6552 4.44142 11.9376C4.46199 12.2066 4.68669 12.411 4.95199 12.411Z" fill="black" fill-opacity="0.56"/>
<path d="M4.95199 16.769C4.96512 16.769 4.97845 16.7685 4.99171 16.7675C6.42835 16.6573 8.04389 16.334 9.79368 15.8066C11.5735 15.2701 13.2957 15.3508 14.9125 16.0458C15.1726 16.1576 15.4742 16.0373 15.586 15.7772C15.6979 15.517 15.5776 15.2155 15.3175 15.1036C13.4729 14.3107 11.5148 14.2169 9.49782 14.8248C7.81878 15.3308 6.27625 15.6405 4.91337 15.745C4.63098 15.7667 4.41968 16.0131 4.44142 16.2954C4.46199 16.5645 4.68669 16.769 4.95199 16.769Z" fill="black" fill-opacity="0.56"/>
<path d="M33.7479 2.91529H32.9452V2.4475C32.9452 1.79193 32.386 1.27335 31.731 1.32551C30.9745 1.38601 29.3179 1.3897 26.7229 0.73167C26.4483 0.661875 26.1694 0.828194 26.0999 1.10259C26.0302 1.37712 26.1964 1.65603 26.4708 1.72555C29.0722 2.38516 30.8118 2.42802 31.813 2.34756C31.8713 2.34346 31.9198 2.38878 31.9198 2.4475V23.137C29.9777 23.3465 27.3833 22.7906 25.5022 22.2237C21.3007 20.9575 18.5846 23.1329 18.0127 23.4428V2.94926C18.5667 2.42966 20.7995 0.589277 24.1227 1.12399C24.402 1.16938 24.6653 0.978927 24.7104 0.699336C24.7554 0.419813 24.5653 0.156696 24.2857 0.111647C20.7963 -0.450544 18.3884 1.25394 17.4987 2.03016C15.4589 0.261149 12.5412 -0.524646 9.49784 0.392742C6.2314 1.37712 4.19305 1.39934 3.26903 1.32558C2.61319 1.27294 2.05489 1.79316 2.05489 2.4475V2.91529H1.25215C0.561712 2.91529 0 3.47693 0 4.16743V24.9586C0 25.6491 0.561781 26.2107 1.25221 26.2107H14.5363C14.7354 26.2107 14.9159 26.3206 14.9963 26.4908C15.9913 28.596 19.005 28.6037 20.0036 26.4908C20.0841 26.3207 20.2646 26.2107 20.4637 26.2107H33.7478C34.4382 26.2107 34.9999 25.649 34.9999 24.9586V15.2354C34.9999 14.9522 34.7704 14.7227 34.4872 14.7227C34.204 14.7227 33.9745 14.9522 33.9745 15.2354V24.9585C33.9745 25.0835 33.8728 25.1853 33.7478 25.1853H20.4638C19.8701 25.1853 19.3257 25.5256 19.0767 26.0525C18.45 27.3784 16.5524 27.3836 15.9234 26.0526C15.6744 25.5258 15.13 25.1853 14.5363 25.1853H1.25221C1.12712 25.1853 1.0254 25.0835 1.0254 24.9585V4.16743C1.0254 4.0424 1.12712 3.94068 1.25215 3.94068H2.05489V23.5746C2.05489 23.8072 2.21151 24.0107 2.43641 24.0702C2.53389 24.096 4.88219 24.6858 9.79377 23.2055C12.1702 22.4894 14.4638 22.9285 16.2836 24.2118C16.9872 24.7079 17.9667 24.7407 18.7167 24.2118C19.8157 23.4367 22.12 22.2755 25.2064 23.2055C30.1182 24.6857 32.4663 24.096 32.5638 24.0702C32.7887 24.0107 32.9453 23.8072 32.9453 23.5746V3.94068H33.7479C33.873 3.94068 33.9747 4.0424 33.9747 4.16743V12.8428C33.9747 13.1261 34.2042 13.3555 34.4874 13.3555C34.7706 13.3555 35.0001 13.1261 35.0001 12.8428V4.16743C35 3.47693 34.4383 2.91529 33.7479 2.91529ZM3.08029 2.4475C3.08029 2.39001 3.12725 2.34339 3.18707 2.34756C4.18307 2.42768 6.36614 2.40744 9.79377 1.37446C12.5697 0.538144 15.2216 1.29632 16.9873 2.94967V23.4428C16.6933 23.2836 13.8104 20.9239 9.49784 22.2238C9.22132 22.3071 8.9174 22.3937 8.63616 22.4688C8.63275 22.4697 8.62933 22.4706 8.62598 22.4715C6.97509 22.9119 4.77896 23.3202 3.08022 23.1373C3.08029 21.7122 3.08029 2.82963 3.08029 2.4475Z" fill="black" fill-opacity="0.56"/>
</svg>
