<svg class="logo-svg" width="166" height="34" viewBox="0 0 166 34" fill="none" xmlns="http://www.w3.org/2000/svg">
<path class="logo-path" d="M70.456 27L66.452 21.26C66.284 21.2787 66.032 21.288 65.696 21.288H61.272V27H57.632V7.4H65.696C67.3947 7.4 68.8693 7.68 70.12 8.24C71.3893 8.8 72.36 9.60267 73.032 10.648C73.704 11.6933 74.04 12.9347 74.04 14.372C74.04 15.8467 73.676 17.116 72.948 18.18C72.2387 19.244 71.212 20.0373 69.868 20.56L74.376 27H70.456ZM70.372 14.372C70.372 13.1213 69.9613 12.16 69.14 11.488C68.3187 10.816 67.1147 10.48 65.528 10.48H61.272V18.292H65.528C67.1147 18.292 68.3187 17.956 69.14 17.284C69.9613 16.5933 70.372 15.6227 70.372 14.372ZM84.1885 27.28C82.6765 27.28 81.2111 27.0653 79.7925 26.636C78.3925 26.2067 77.2818 25.6373 76.4605 24.928L77.7205 22.1C78.5231 22.7347 79.5031 23.2573 80.6605 23.668C81.8365 24.06 83.0125 24.256 84.1885 24.256C85.6445 24.256 86.7271 24.0227 87.4365 23.556C88.1645 23.0893 88.5285 22.4733 88.5285 21.708C88.5285 21.148 88.3231 20.6907 87.9125 20.336C87.5205 19.9627 87.0165 19.6733 86.4005 19.468C85.7845 19.2627 84.9445 19.0293 83.8805 18.768C82.3871 18.4133 81.1738 18.0587 80.2405 17.704C79.3258 17.3493 78.5325 16.7987 77.8605 16.052C77.2071 15.2867 76.8805 14.26 76.8805 12.972C76.8805 11.8893 77.1698 10.9093 77.7485 10.032C78.3458 9.136 79.2325 8.42667 80.4085 7.904C81.6031 7.38133 83.0591 7.12 84.7765 7.12C85.9711 7.12 87.1471 7.26933 88.3045 7.568C89.4618 7.86667 90.4605 8.296 91.3005 8.856L90.1525 11.684C89.2938 11.18 88.3978 10.7973 87.4645 10.536C86.5311 10.2747 85.6258 10.144 84.7485 10.144C83.3111 10.144 82.2378 10.3867 81.5285 10.872C80.8378 11.3573 80.4925 12.0013 80.4925 12.804C80.4925 13.364 80.6885 13.8213 81.0805 14.176C81.4911 14.5307 82.0045 14.8107 82.6205 15.016C83.2365 15.2213 84.0765 15.4547 85.1405 15.716C86.5965 16.052 87.7911 16.4067 88.7245 16.78C89.6578 17.1347 90.4511 17.6853 91.1045 18.432C91.7765 19.1787 92.1125 20.1867 92.1125 21.456C92.1125 22.5387 91.8138 23.5187 91.2165 24.396C90.6378 25.2733 89.7511 25.9733 88.5565 26.496C87.3618 27.0187 85.9058 27.28 84.1885 27.28ZM95.7218 7.4H99.3618V23.92H109.61V27H95.7218V7.4ZM117.996 11.88C120.199 11.88 121.879 12.412 123.036 13.476C124.212 14.5213 124.8 16.108 124.8 18.236V27H121.496V25.18C121.067 25.8333 120.451 26.3373 119.648 26.692C118.864 27.028 117.912 27.196 116.792 27.196C115.672 27.196 114.692 27.0093 113.852 26.636C113.012 26.244 112.359 25.712 111.892 25.04C111.444 24.3493 111.22 23.5747 111.22 22.716C111.22 21.372 111.715 20.2987 112.704 19.496C113.712 18.6747 115.29 18.264 117.436 18.264H121.3V18.04C121.3 16.9947 120.983 16.192 120.348 15.632C119.732 15.072 118.808 14.792 117.576 14.792C116.736 14.792 115.906 14.9227 115.084 15.184C114.282 15.4453 113.6 15.8093 113.04 16.276L111.668 13.728C112.452 13.1307 113.395 12.6733 114.496 12.356C115.598 12.0387 116.764 11.88 117.996 11.88ZM117.52 24.648C118.398 24.648 119.172 24.452 119.844 24.06C120.535 23.6493 121.02 23.0707 121.3 22.324V20.588H117.688C115.672 20.588 114.664 21.2507 114.664 22.576C114.664 23.2107 114.916 23.7147 115.42 24.088C115.924 24.4613 116.624 24.648 117.52 24.648ZM137.776 11.88C139.661 11.88 141.173 12.4307 142.312 13.532C143.451 14.6333 144.02 16.2667 144.02 18.432V27H140.52V18.88C140.52 17.5733 140.212 16.5933 139.596 15.94C138.98 15.268 138.103 14.932 136.964 14.932C135.676 14.932 134.659 15.324 133.912 16.108C133.165 16.8733 132.792 17.984 132.792 19.44V27H129.292V12.048H132.624V13.98C133.203 13.2893 133.931 12.7667 134.808 12.412C135.685 12.0573 136.675 11.88 137.776 11.88ZM163.437 12.048V24.732C163.437 29.996 160.749 32.628 155.373 32.628C153.935 32.628 152.573 32.4413 151.285 32.068C149.997 31.7133 148.933 31.1907 148.093 30.5L149.661 27.868C150.314 28.4093 151.135 28.8387 152.125 29.156C153.133 29.492 154.15 29.66 155.177 29.66C156.819 29.66 158.023 29.2867 158.789 28.54C159.554 27.7933 159.937 26.6547 159.937 25.124V24.34C159.339 24.9933 158.611 25.488 157.753 25.824C156.894 26.16 155.951 26.328 154.925 26.328C153.506 26.328 152.218 26.0293 151.061 25.432C149.922 24.816 149.017 23.9573 148.345 22.856C147.691 21.7547 147.365 20.4947 147.365 19.076C147.365 17.6573 147.691 16.4067 148.345 15.324C149.017 14.2227 149.922 13.3733 151.061 12.776C152.218 12.1787 153.506 11.88 154.925 11.88C156.007 11.88 156.987 12.0573 157.865 12.412C158.761 12.7667 159.507 13.308 160.105 14.036V12.048H163.437ZM155.457 23.36C156.782 23.36 157.865 22.968 158.705 22.184C159.563 21.3813 159.993 20.3453 159.993 19.076C159.993 17.8253 159.563 16.808 158.705 16.024C157.865 15.24 156.782 14.848 155.457 14.848C154.113 14.848 153.011 15.24 152.153 16.024C151.313 16.808 150.893 17.8253 150.893 19.076C150.893 20.3453 151.313 21.3813 152.153 22.184C153.011 22.968 154.113 23.36 155.457 23.36Z" fill="#1D2570"/>
<rect width="32" height="32" fill="black"/>
<path d="M13.818 22.3441H21.0953V24H11.7824V8.64375H13.818V22.3441Z" fill="white"/>
</svg>
