<svg width="34" height="34" viewBox="0 0 34 34" fill="none" xmlns="http://www.w3.org/2000/svg">
<path d="M0.5 1.21853C0.5 0.821696 0.821696 0.5 1.21853 0.5H26.3127C26.7096 0.5 27.0313 0.821697 27.0313 1.21853V7.30885C27.0313 8.25785 27.8003 9.02738 28.7496 9.02738H28.7531H28.7566H28.7601H28.7637H28.7672H28.7707H28.7743H28.7778H28.7813H28.7849H28.7884H28.792H28.7955H28.7991H28.8027H28.8062H28.8098H28.8134H28.8169H28.8205H28.8241H28.8276H28.8312H28.8348H28.8384H28.842H28.8456H28.8492H28.8528H28.8564H28.86H28.8636H28.8672H28.8708H28.8744H28.878H28.8816H28.8852H28.8889H28.8925H28.8961H28.8997H28.9034H28.907H28.9107H28.9143H28.9179H28.9216H28.9252H28.9289H28.9325H28.9362H28.9398H28.9435H28.9471H28.9508H28.9545H28.9581H28.9618H28.9655H28.9692H28.9728H28.9765H28.9802H28.9839H28.9876H28.9912H28.9949H28.9986H29.0023H29.006H29.0097H29.0134H29.0171H29.0208H29.0245H29.0282H29.032H29.0357H29.0394H29.0431H29.0468H29.0505H29.0543H29.058H29.0617H29.0654H29.0692H29.0729H29.0766H29.0804H29.0841H29.0879H29.0916H29.0954H29.0991H29.1028H29.1066H29.1104H29.1141H29.1179H29.1216H29.1254H29.1291H29.1329H29.1367H29.1404H29.1442H29.148H29.1518H29.1555H29.1593H29.1631H29.1669H29.1706H29.1744H29.1782H29.182H29.1858H29.1896H29.1934H29.1972H29.201H29.2048H29.2085H29.2123H29.2161H29.22H29.2238H29.2276H29.2314H29.2352H29.239H29.2428H29.2466H29.2504H29.2542H29.2581H29.2619H29.2657H29.2695H29.2733H29.2772H29.281H29.2848H29.2887H29.2925H29.2963H29.3002H29.304H29.3078H29.3117H29.3155H29.3193H29.3232H29.327H29.3309H29.3347H29.3386H29.3424H29.3463H29.3501H29.354H29.3578H29.3617H29.3655H29.3694H29.3732H29.3771H29.381H29.3848H29.3887H29.3925H29.3964H29.4003H29.4041H29.408H29.4119H29.4157H29.4196H29.4235H29.4274H29.4312H29.4351H29.439H29.4429H29.4467H29.4506H29.4545H29.4584H29.4623H29.4661H29.47H29.4739H29.4778H29.4817H29.4856H29.4894H29.4933H29.4972H29.5011H29.505H29.5089H29.5128H29.5167H29.5206H29.5245H29.5284H29.5323H29.5362H29.5401H29.544H29.5479H29.5518H29.5557H29.5596H29.5635H29.5674H29.5713H29.5752H29.5791H29.583H29.5869H29.5908H29.5947H29.5986H29.6025H29.6064H29.6103H29.6142H29.6181H29.6221H29.626H29.6299H29.6338H29.6377H29.6416H29.6455H29.6494H29.6534H29.6573H29.6612H29.6651H29.669H29.6729H29.6769H29.6808H29.6847H29.6886H29.6925H29.6964H29.7004H29.7043H29.7082H29.7121H29.716H29.72H29.7239H29.7278H29.7317H29.7356H29.7396H29.7435H29.7474H29.7513H29.7552H29.7592H29.7631H29.767H29.7709H29.7748H29.7788H29.7827H29.7866H29.7905H29.7945H29.7984H29.8023H29.8062H29.8102H29.8141H29.818H29.8219H29.8258H29.8298H29.8337H29.8376H29.8415H29.8455H29.8494H29.8533H29.8572H29.8611H29.8651H29.869H29.8729H29.8768H29.8807H29.8847H29.8886H29.8925H29.8964H29.9003H29.9043H29.9082H29.9121H29.916H29.9199H29.9239H29.9278H29.9317H29.9356H29.9395H29.9434H29.9474H29.9513H29.9552H29.9591H29.963H29.9669H29.9708H29.9748H29.9787H29.9826H29.9865H29.9904H29.9943H29.9982H30.0021H30.0061H30.01H30.0139H30.0178H30.0217H30.0256H30.0295H30.0334H30.0373H30.0412H30.0451H30.049H30.0529H30.0568H30.0607H30.0646H30.0685H30.0724H30.0763H30.0802H30.0841H30.088H30.0919H30.0958H30.0997H30.1036H30.1075H30.1114H30.1153H30.1192H30.1231H30.1269H30.1308H30.1347H30.1386H30.1425H30.1464H30.1503H30.1541H30.158H30.1619H30.1658H30.1697H30.1735H30.1774H30.1813H30.1852H30.189H30.1929H30.1968H30.2007H30.2045H30.2084H30.2123H30.2161H30.22H30.2239H30.2277H30.2316H30.2355H30.2393H30.2432H30.247H30.2509H30.2547H30.2586H30.2624H30.2663H30.2702H30.274H30.2778H30.2817H30.2855H30.2894H30.2932H30.2971H30.3009H30.3048H30.3086H30.3124H30.3163H30.3201H30.3239H30.3278H30.3316H30.3354H30.3392H30.3431H30.3469H30.3507H30.3545H30.3584H30.3622H30.366H30.3698H30.3736H30.3774H30.3812H30.3851H30.3889H30.3927H30.3965H30.4003H30.4041H30.4079H30.4117H30.4155H30.4193H30.4231H30.4269H30.4307H30.4344H30.4382H30.442H30.4458H30.4496H30.4534H30.4571H30.4609H30.4647H30.4685H30.4722H30.476H30.4798H30.4835H30.4873H30.4911H30.4948H30.4986H30.5023H30.5061H30.5099H30.5136H30.5174H30.5211H30.5248H30.5286H30.5323H30.5361H30.5398H30.5435H30.5473H30.551H30.5547H30.5585H30.5622H30.5659H30.5696H30.5734H30.5771H30.5808H30.5845H30.5882H30.5919H30.5956H30.5994H30.6031H30.6068H30.6105H30.6142H30.6178H30.6215H30.6252H30.6289H30.6326H30.6363H30.64H30.6437H30.6473H30.651H30.6547H30.6583H30.662H30.6657H30.6693H30.673H30.6767H30.6803H30.684H30.6876H30.6913H30.6949H30.6986C30.9027 9.02738 31.2852 9.1717 31.736 9.4948C32.1671 9.80377 32.5758 10.2161 32.835 10.6232C33.3532 11.4372 33.466 12.0189 33.4878 13.0453C33.5 13.617 33.4753 14.0524 33.3825 14.4532C33.2909 14.8483 33.1277 15.2326 32.8357 15.6888C32.6042 16.0504 32.1959 16.4643 31.7523 16.7879C31.5332 16.9478 31.3171 17.0771 31.1238 17.1645C30.9236 17.2551 30.7809 17.2857 30.6986 17.2857H30.6952H30.6918H30.6883H30.6849H30.6815H30.6781H30.6747H30.6712H30.6678H30.6644H30.6609H30.6575H30.654H30.6506H30.6471H30.6437H30.6402H30.6368H30.6333H30.6298H30.6263H30.6229H30.6194H30.6159H30.6124H30.6089H30.6054H30.6019H30.5984H30.5949H30.5914H30.5879H30.5844H30.5808H30.5773H30.5738H30.5702H30.5667H30.5632H30.5596H30.5561H30.5525H30.549H30.5454H30.5419H30.5383H30.5348H30.5312H30.5276H30.5241H30.5205H30.5169H30.5133H30.5097H30.5061H30.5026H30.499H30.4954H30.4918H30.4882H30.4845H30.4809H30.4773H30.4737H30.4701H30.4665H30.4628H30.4592H30.4556H30.452H30.4483H30.4447H30.441H30.4374H30.4337H30.4301H30.4264H30.4228H30.4191H30.4155H30.4118H30.4081H30.4045H30.4008H30.3971H30.3934H30.3898H30.3861H30.3824H30.3787H30.375H30.3713H30.3676H30.3639H30.3602H30.3565H30.3528H30.3491H30.3454H30.3417H30.3379H30.3342H30.3305H30.3268H30.3231H30.3193H30.3156H30.3119H30.3081H30.3044H30.3006H30.2969H30.2932H30.2894H30.2857H30.2819H30.2781H30.2744H30.2706H30.2669H30.2631H30.2593H30.2556H30.2518H30.248H30.2442H30.2405H30.2367H30.2329H30.2291H30.2253H30.2216H30.2178H30.214H30.2102H30.2064H30.2026H30.1988H30.195H30.1912H30.1874H30.1836H30.1797H30.1759H30.1721H30.1683H30.1645H30.1607H30.1568H30.153H30.1492H30.1454H30.1415H30.1377H30.1339H30.13H30.1262H30.1224H30.1185H30.1147H30.1108H30.107H30.1031H30.0993H30.0955H30.0916H30.0877H30.0839H30.08H30.0762H30.0723H30.0685H30.0646H30.0607H30.0569H30.053H30.0491H30.0453H30.0414H30.0375H30.0336H30.0298H30.0259H30.022H30.0181H30.0142H30.0104H30.0065H30.0026H29.9987H29.9948H29.9909H29.987H29.9831H29.9792H29.9753H29.9714H29.9675H29.9636H29.9597H29.9558H29.9519H29.948H29.9441H29.9402H29.9363H29.9324H29.9285H29.9246H29.9207H29.9168H29.9128H29.9089H29.905H29.9011H29.8972H29.8933H29.8893H29.8854H29.8815H29.8776H29.8736H29.8697H29.8658H29.8619H29.8579H29.854H29.8501H29.8462H29.8422H29.8383H29.8344H29.8304H29.8265H29.8226H29.8186H29.8147H29.8107H29.8068H29.8029H29.7989H29.795H29.7911H29.7871H29.7832H29.7792H29.7753H29.7713H29.7674H29.7635H29.7595H29.7556H29.7516H29.7477H29.7437H29.7398H29.7358H29.7319H29.7279H29.724H29.72H29.7161H29.7121H29.7082H29.7042H29.7003H29.6963H29.6924H29.6884H29.6845H29.6805H29.6765H29.6726H29.6686H29.6647H29.6607H29.6568H29.6528H29.6489H29.6449H29.6409H29.637H29.633H29.6291H29.6251H29.6212H29.6172H29.6132H29.6093H29.6053H29.6014H29.5974H29.5935H29.5895H29.5855H29.5816H29.5776H29.5737H29.5697H29.5658H29.5618H29.5578H29.5539H29.5499H29.546H29.542H29.5381H29.5341H29.5302H29.5262H29.5222H29.5183H29.5143H29.5104H29.5064H29.5025H29.4985H29.4946H29.4906H29.4867H29.4827H29.4788H29.4748H29.4708H29.4669H29.4629H29.459H29.455H29.4511H29.4472H29.4432H29.4393H29.4353H29.4314H29.4274H29.4235H29.4195H29.4156H29.4116H29.4077H29.4038H29.3998H29.3959H29.3919H29.388H29.384H29.3801H29.3762H29.3722H29.3683H29.3644H29.3604H29.3565H29.3526H29.3486H29.3447H29.3408H29.3368H29.3329H29.329H29.325H29.3211H29.3172H29.3133H29.3093H29.3054H29.3015H29.2976H29.2937H29.2897H29.2858H29.2819H29.278H29.2741H29.2702H29.2662H29.2623H29.2584H29.2545H29.2506H29.2467H29.2428H29.2389H29.235H29.2311H29.2272H29.2233H29.2194H29.2155H29.2116H29.2077H29.2038H29.1999H29.196H29.1921H29.1882H29.1843H29.1804H29.1766H29.1727H29.1688H29.1649H29.161H29.1572H29.1533H29.1494H29.1455H29.1417H29.1378H29.1339H29.13H29.1262H29.1223H29.1185H29.1146H29.1107H29.1069H29.103H29.0992H29.0953H29.0915H29.0876H29.0838H29.0799H29.0761H29.0722H29.0684H29.0645H29.0607H29.0569H29.053H29.0492H29.0454H29.0415H29.0377H29.0339H29.0301H29.0262H29.0224H29.0186H29.0148H29.011H29.0072H29.0033H28.9995H28.9957H28.9919H28.9881H28.9843H28.9805H28.9767H28.9729H28.9691H28.9653H28.9616H28.9578H28.954H28.9502H28.9464H28.9426H28.9389H28.9351H28.9313H28.9276H28.9238H28.92H28.9163H28.9125H28.9087H28.905H28.9012H28.8975H28.8937H28.89H28.8862H28.8825H28.8788H28.875H28.8713H28.8676H28.8638H28.8601H28.8564H28.8527H28.8489H28.8452H28.8415H28.8378H28.8341H28.8304H28.8267H28.823H28.8193H28.8156H28.8119H28.8082H28.8045H28.8008H28.7971H28.7934H28.7898H28.7861H28.7824H28.7787H28.7751H28.7714H28.7677H28.7641H28.7604H28.7568H28.7531H28.7495C27.8002 17.2857 27.0313 18.0553 27.0313 19.0042V26.8C27.0313 27.1968 26.7096 27.5185 26.3127 27.5185H19.3697C18.4207 27.5185 17.6511 28.2874 17.6511 29.2367V29.2396V29.2426V29.2455V29.2484V29.2513V29.2542V29.2571V29.26V29.263V29.2659V29.2688V29.2717V29.2747V29.2776V29.2805V29.2835V29.2864V29.2893V29.2923V29.2952V29.2982V29.3011V29.3041V29.307V29.31V29.3129V29.3159V29.3188V29.3218V29.3247V29.3277V29.3307V29.3336V29.3366V29.3396V29.3425V29.3455V29.3485V29.3514V29.3544V29.3574V29.3604V29.3633V29.3663V29.3693V29.3723V29.3753V29.3783V29.3812V29.3842V29.3872V29.3902V29.3932V29.3962V29.3992V29.4022V29.4052V29.4082V29.4112V29.4142V29.4172V29.4202V29.4232V29.4262V29.4292V29.4323V29.4353V29.4383V29.4413V29.4443V29.4473V29.4504V29.4534V29.4564V29.4594V29.4625V29.4655V29.4685V29.4716V29.4746V29.4776V29.4807V29.4837V29.4867V29.4898V29.4928V29.4958V29.4989V29.5019V29.505V29.508V29.5111V29.5141V29.5172V29.5202V29.5233V29.5263V29.5294V29.5324V29.5355V29.5385V29.5416V29.5447V29.5477V29.5508V29.5539V29.5569V29.56V29.5631V29.5661V29.5692V29.5723V29.5753V29.5784V29.5815V29.5846V29.5876V29.5907V29.5938V29.5969V29.5999V29.603V29.6061V29.6092V29.6123V29.6154V29.6185V29.6215V29.6246V29.6277V29.6308V29.6339V29.637V29.6401V29.6432V29.6463V29.6494V29.6525V29.6556V29.6587V29.6618V29.6649V29.668V29.6711V29.6742V29.6773V29.6804V29.6835V29.6866V29.6897V29.6928V29.6959V29.699V29.7021V29.7053V29.7084V29.7115V29.7146V29.7177V29.7208V29.724V29.7271V29.7302V29.7333V29.7364V29.7396V29.7427V29.7458V29.7489V29.752V29.7552V29.7583V29.7614V29.7645V29.7677V29.7708V29.7739V29.7771V29.7802V29.7833V29.7865V29.7896V29.7927V29.7959V29.799V29.8021V29.8053V29.8084V29.8115V29.8147V29.8178V29.8209V29.8241V29.8272V29.8304V29.8335V29.8366V29.8398V29.8429V29.8461V29.8492V29.8524V29.8555V29.8587V29.8618V29.8649V29.8681V29.8712V29.8744V29.8775V29.8807V29.8838V29.887V29.8901V29.8933V29.8964V29.8996V29.9027V29.9059V29.909V29.9122V29.9154V29.9185V29.9217V29.9248V29.928V29.9311V29.9343V29.9374V29.9406V29.9438V29.9469V29.9501V29.9532V29.9564V29.9595V29.9627V29.9659V29.969V29.9722V29.9753V29.9785V29.9817V29.9848V29.988V29.9911V29.9943V29.9975V30.0006V30.0038V30.007V30.0101V30.0133V30.0164V30.0196V30.0228V30.0259V30.0291V30.0323V30.0354V30.0386V30.0418V30.0449V30.0481V30.0512V30.0544V30.0576V30.0607V30.0639V30.0671V30.0702V30.0734V30.0766V30.0797V30.0829V30.0861V30.0892V30.0924V30.0956V30.0987V30.1019V30.1051V30.1082V30.1114V30.1146V30.1177V30.1209V30.1241V30.1272V30.1304V30.1336V30.1367V30.1399V30.1431V30.1462V30.1494V30.1525V30.1557V30.1589V30.162V30.1652V30.1684V30.1715V30.1747V30.1779V30.181V30.1842V30.1874V30.1905V30.1937V30.1969V30.2V30.2032V30.2063V30.2095V30.2127V30.2158V30.219V30.2222V30.2253V30.2285V30.2316V30.2348V30.238V30.2411V30.2443V30.2474V30.2506V30.2538V30.2569V30.2601V30.2632V30.2664V30.2696V30.2727V30.2759V30.279V30.2822V30.2853V30.2885V30.2916V30.2948V30.298V30.3011V30.3043V30.3074V30.3106V30.3137V30.3169V30.32V30.3232V30.3263V30.3295V30.3326V30.3358V30.3389V30.3421V30.3452V30.3484V30.3515V30.3547V30.3578V30.361V30.3641V30.3673V30.3704V30.3735V30.3767V30.3798V30.383V30.3861V30.3892V30.3924V30.3955V30.3987V30.4018V30.4049V30.4081V30.4112V30.4144V30.4175V30.4206V30.4238V30.4269V30.43V30.4332V30.4363V30.4394V30.4426V30.4457V30.4488V30.4519V30.4551V30.4582V30.4613V30.4644V30.4676V30.4707V30.4738V30.4769V30.4801V30.4832V30.4863V30.4894V30.4925V30.4957V30.4988V30.5019V30.505V30.5081V30.5112V30.5143V30.5175V30.5206V30.5237V30.5268V30.5299V30.533V30.5361V30.5392V30.5423V30.5454V30.5485V30.5516V30.5547V30.5578V30.5609V30.564V30.5671V30.5702V30.5733V30.5764V30.5795V30.5826V30.5857V30.5888V30.5919V30.595V30.5981V30.6012V30.6042V30.6073V30.6104V30.6135V30.6166V30.6197V30.6227V30.6258V30.6289V30.632V30.635V30.6381V30.6412V30.6443V30.6473V30.6504V30.6535V30.6565V30.6596V30.6627V30.6657V30.6688V30.6719V30.6749V30.678V30.6811V30.6841V30.6872V30.6902V30.6933V30.6963V30.6994V30.7024V30.7055V30.7085V30.7116V30.7146V30.7177V30.7207V30.7237V30.7268V30.7298V30.7329V30.7359V30.7389V30.742V30.745V30.748V30.7511V30.7541V30.7571V30.7602V30.7632V30.7662V30.7692V30.7722V30.7753V30.7783V30.7813V30.7843V30.7873V30.7903V30.7934V30.7964V30.7994V30.8024V30.8054V30.8084V30.8114V30.8144V30.8174V30.8204C17.6511 31.3219 17.5136 31.6678 17.295 31.9587C17.0625 32.2681 16.7253 32.5343 16.279 32.8496C15.5483 33.3657 14.9938 33.4463 13.9879 33.4893C13.3939 33.5147 12.9382 33.4978 12.5193 33.4058C12.1069 33.3152 11.7068 33.1466 11.2376 32.8396C10.7518 32.5217 10.4151 32.2832 10.1624 31.9834C9.92229 31.6985 9.73752 31.3316 9.62843 30.731C9.5596 30.3522 9.54279 29.862 9.55151 29.3895C9.56956 28.4112 8.80672 27.5185 7.77152 27.5185H1.21853C0.821698 27.5185 0.5 27.1968 0.5 26.8V1.21853Z" stroke="black" stroke-opacity="0.56"/>
<path d="M16.1812 16.7097L17.1204 16.3662L16.8803 15.7097H16.1812V16.7097ZM11.5356 16.7097V15.7097H10.8331L10.5949 16.3705L11.5356 16.7097ZM10.4922 19.6037V20.6037H11.1947L11.433 19.9429L10.4922 19.6037ZM8.9843 19.6037L8.0501 19.247L7.532 20.6037H8.9843V19.6037ZM13.2187 8.51508V7.51508H12.5301L12.2845 8.15833L13.2187 8.51508ZM14.4981 8.51508L15.4321 8.15777L15.1863 7.51508H14.4981V8.51508ZM18.7402 19.6037V20.6037H20.1934L19.6741 19.2464L18.7402 19.6037ZM17.2398 19.6037L16.3007 19.9472L16.5408 20.6037H17.2398V19.6037ZM11.9773 15.5064L11.0372 15.1654L10.5509 16.5064H11.9773V15.5064ZM15.7471 15.5064V16.5064H17.1756L16.6868 15.1642L15.7471 15.5064ZM13.8584 10.32L14.7981 9.97784L13.8565 7.39242L12.9183 9.97906L13.8584 10.32ZM16.1812 15.7097H11.5356V17.7097H16.1812V15.7097ZM10.5949 16.3705L9.5515 19.2645L11.433 19.9429L12.4763 17.0488L10.5949 16.3705ZM10.4922 18.6037H8.9843V20.6037H10.4922V18.6037ZM9.9185 19.9604L14.1529 8.87182L12.2845 8.15833L8.0501 19.247L9.9185 19.9604ZM13.2187 9.51508H14.4981V7.51508H13.2187V9.51508ZM13.5642 8.87238L17.8062 19.961L19.6741 19.2464L15.4321 8.15777L13.5642 8.87238ZM18.7402 18.6037H17.2398V20.6037H18.7402V18.6037ZM18.179 19.2602L17.1204 16.3662L15.2421 17.0532L16.3007 19.9472L18.179 19.2602ZM11.9773 16.5064H15.7471V14.5064H11.9773V16.5064ZM16.6868 15.1642L14.7981 9.97784L12.9188 10.6622L14.8075 15.8486L16.6868 15.1642ZM12.9183 9.97906L11.0372 15.1654L12.9174 15.8474L14.7985 10.661L12.9183 9.97906Z" fill="black" fill-opacity="0.56"/>
</svg>
