<svg width="35" height="35" viewBox="0 0 35 35" fill="none" xmlns="http://www.w3.org/2000/svg">
<g clip-path="url(#clip0)">
<path d="M34.4115 7.60177L34.3511 7.5414C33.5665 6.75677 32.1784 6.75677 31.3937 7.5414L28.2553 10.7402C28.0743 10.9213 27.8328 10.9213 27.6517 10.7402L23.2458 6.6361C22.8233 6.27394 22.2801 6.03252 21.6765 6.03252H15.0978C14.9167 6.03252 14.796 6.09289 14.7356 6.15326L9.18294 11.4645C8.39832 12.3095 8.33794 13.6373 9.0622 14.4219C9.42436 14.8444 9.9675 15.0858 10.5711 15.0858C11.1747 15.0858 11.7178 14.8444 12.08 14.4219L16.003 10.2574H17.3912L8.21734 20.5177H2.54398C1.15584 20.5177 0.0694297 21.5438 0.00905809 22.8112C-0.0513135 23.4751 0.190104 24.1391 0.67294 24.6219C1.15578 25.0444 1.75936 25.3462 2.42324 25.3462H10.873C11.054 25.3462 11.1748 25.2858 11.2955 25.1651L15.6411 20.5178L19.2623 24.3202L18.1759 31.3214C17.8741 32.5285 18.4777 33.6753 19.5037 34.1581C19.8659 34.3391 20.1676 34.3995 20.5298 34.3995C20.892 34.3995 21.254 34.3391 21.6162 34.1581C22.2198 33.8563 22.7026 33.2528 22.8837 32.5285L24.7546 22.4491C24.7546 22.2681 24.6943 22.0267 24.5736 21.9059L19.5641 16.8965L23.5475 12.913L26.3239 15.6894C27.1085 16.474 28.4363 16.474 29.2209 15.6894L34.4114 10.4989C35.1961 9.71416 35.1961 8.3864 34.4115 7.60177ZM33.5665 9.65386L28.376 14.8444C28.0138 15.1462 27.4707 15.1462 27.1689 14.8444L23.9701 11.6456C23.7287 11.4042 23.3665 11.4042 23.1251 11.6456L18.2967 16.474C18.1759 16.5947 18.1156 16.7154 18.1156 16.8965C18.1156 17.0775 18.176 17.1983 18.357 17.3793L23.5475 22.5698L21.7369 32.287C21.6161 32.5888 21.3747 32.8906 21.073 33.0716C20.7712 33.1924 20.4091 33.2527 20.047 33.0716C19.5037 32.8302 19.2623 32.2266 19.3831 31.5627L20.5298 24.1994C20.5298 24.0183 20.4694 23.8372 20.3487 23.7165L16.0635 19.2503C15.9428 19.1295 15.8221 19.0692 15.6411 19.0692C15.46 19.0692 15.2789 19.1296 15.2186 19.2503L10.6316 24.139H2.42331C2.06115 24.139 1.75942 24.0183 1.51801 23.7768C1.33696 23.5354 1.21622 23.2336 1.21622 22.8715C1.21622 22.2077 1.8198 21.7248 2.54405 21.7248H8.45882C8.63987 21.7248 8.76061 21.6645 8.88129 21.6645L19.1417 10.197C19.3227 10.016 19.3227 9.77453 19.2624 9.53312C19.202 9.2917 18.9606 9.17095 18.7192 9.17095H15.7014C15.5807 9.17095 15.3996 9.23133 15.279 9.352L11.1748 13.6976C11.0541 13.8786 10.8126 13.9994 10.5712 13.9994C10.3298 13.9994 10.0884 13.8786 9.90733 13.6976C9.60554 13.3354 9.60554 12.7923 9.9677 12.4301L15.3393 7.29998H21.7369C21.9784 7.29998 22.2802 7.42072 22.4612 7.60177L26.8671 11.7059C27.531 12.3095 28.557 12.2492 29.1606 11.6456L32.2991 8.44677C32.6009 8.14498 33.2044 8.14498 33.5062 8.44677L33.5666 8.50714C33.8683 8.80886 33.8683 9.35207 33.5665 9.65386Z" fill="black" fill-opacity="0.56"/>
<path d="M27.7724 7.84318C29.7641 7.84318 31.3937 6.21363 31.3937 4.22184C31.3937 2.23006 29.7641 0.600574 27.7724 0.600574C25.7807 0.600574 24.1511 2.23013 24.1511 4.22191C24.1511 6.2137 25.7807 7.84318 27.7724 7.84318ZM27.7724 1.80766C29.1002 1.80766 30.1866 2.89408 30.1866 4.22184C30.1866 5.54968 29.1002 6.63602 27.7724 6.63602C26.4446 6.63602 25.3582 5.54961 25.3582 4.22184C25.3582 2.89408 26.4446 1.80766 27.7724 1.80766Z" fill="black" fill-opacity="0.56"/>
</g>
<defs>
<clipPath id="clip0">
<rect width="35" height="35" fill="white"/>
</clipPath>
</defs>
</svg>
