<svg width="35" height="35" viewBox="0 0 35 35" fill="none" xmlns="http://www.w3.org/2000/svg">
<path d="M2.0406 11.4211C2.16706 11.4211 2.29414 11.3779 2.39812 11.2896C2.63074 11.092 2.65911 10.7432 2.46148 10.5107C1.58689 9.48104 1.10523 8.16888 1.10523 6.81584C1.10523 3.66707 3.667 1.1053 6.81577 1.1053C9.58815 1.1053 11.9525 3.08287 12.4376 5.8074C12.491 6.10791 12.7784 6.30793 13.0786 6.25461C13.3791 6.20108 13.5793 5.91411 13.5258 5.6136C12.9466 2.36093 10.1246 0 6.81577 0C3.05751 0 0 3.05751 0 6.81577C0 8.43069 0.575039 9.99701 1.61923 11.2261C1.72847 11.3549 1.88405 11.4211 2.0406 11.4211Z" fill="black" fill-opacity="0.56"/>
<path d="M25.6052 19.5263C27.3471 19.5263 28.796 18.2472 29.0616 16.5789H32.9737C34.091 16.5789 35 15.6699 35 14.5526C35 13.4353 34.091 12.5263 32.9737 12.5263H31.6105C31.3052 12.5263 31.0579 12.7738 31.0579 13.0789C31.0579 13.3841 31.3052 13.6315 31.6105 13.6315H32.9737C33.4816 13.6315 33.8948 14.0447 33.8948 14.5526C33.8948 15.0605 33.4816 15.4737 32.9737 15.4737H23.3948C22.8869 15.4737 22.4737 15.0605 22.4737 14.5526C22.4737 14.4904 22.48 14.4287 22.4922 14.3684H24.1316C24.4369 14.3684 24.6842 14.1209 24.6842 13.8158C24.6842 13.5105 24.4369 13.2632 24.1316 13.2632H22.1287C22.1223 13.2631 22.1156 13.263 22.1088 13.2632H10.8685C10.5632 13.2632 10.3158 13.5106 10.3158 13.8158C10.3158 14.121 10.5632 14.3684 10.8685 14.3684H14.5532C14.674 14.6585 14.7368 14.9719 14.7368 15.2895C14.7368 15.7974 14.3237 16.2105 13.8158 16.2105H2.02631C1.5184 16.2105 1.10523 15.7974 1.10523 15.2895C1.10523 13.969 2.1795 12.8947 3.5 12.8947H4.74086C5.20488 13.7704 6.12603 14.3684 7.18423 14.3684H8.65792C8.96321 14.3684 9.21054 14.1209 9.21054 13.8158C9.21054 13.5105 8.96314 13.2632 8.65792 13.2632H7.18423C6.27013 13.2632 5.52631 12.5195 5.52631 11.6052C5.52631 9.87847 6.93109 8.47362 8.65792 8.47362H26.3421C28.0689 8.47362 29.4738 9.87841 29.4738 11.6052C29.4738 12.5194 28.73 13.2632 27.8158 13.2632H26.3421C26.0369 13.2632 25.7895 13.5106 25.7895 13.8158C25.7895 14.121 26.0369 14.3684 26.3421 14.3684H27.8158C29.3395 14.3684 30.579 13.1289 30.579 11.6052C30.579 9.26898 28.6784 7.36839 26.3421 7.36839H8.65792C6.32167 7.36839 4.42107 9.26898 4.42107 11.6052C4.42107 11.6671 4.42306 11.7285 4.42709 11.7895H3.5C1.57015 11.7895 0 13.3596 0 15.2895C0 16.4068 0.909043 17.3158 2.02631 17.3158H7.36832V18.2368C7.36832 20.1667 8.93847 21.7368 10.8683 21.7368H16.9472V30.7632C16.9472 30.775 16.9476 30.7869 16.9484 30.7986L16.5134 31.5599C16.3153 31.9067 16.2105 32.3012 16.2105 32.7007C16.2105 33.1376 16.333 33.5465 16.5454 33.8947H15.1052V32.2368C15.1052 31.9315 14.8578 31.6842 14.5525 31.6842C14.2473 31.6842 13.9999 31.9316 13.9999 32.2368V33.8947H12.8947V32.2368C12.8947 31.9315 12.6474 31.6842 12.3421 31.6842C12.0368 31.6842 11.7895 31.9316 11.7895 32.2368V33.8947H10.6842V32.2368C10.6842 31.9315 10.4369 31.6842 10.1316 31.6842C9.82632 31.6842 9.57899 31.9316 9.57899 32.2368V33.8947H8.47376V32.2368C8.47376 31.9315 8.22644 31.6842 7.92114 31.6842C7.61585 31.6842 7.36853 31.9316 7.36853 32.2368V33.8947H6.26315V32.2368C6.26315 31.9315 6.01576 31.6842 5.71054 31.6842C5.40531 31.6842 5.15792 31.9316 5.15792 32.2368V33.8947H4.05262V32.2368C4.05262 31.9315 3.80522 31.6842 3.5 31.6842C3.19478 31.6842 2.94738 31.9316 2.94738 32.2368V33.8947H1.84208V32.2367C1.84208 31.9315 1.59476 31.6841 1.28946 31.6841C0.98417 31.6841 0.736846 31.9315 0.736846 32.2367V33.8946H0.552617C0.247324 33.8946 0 34.1421 0 34.4472C0 34.7525 0.247393 34.9999 0.552617 34.9999H27.079C27.3843 34.9999 27.6316 34.7524 27.6316 34.4472C27.6316 34.142 27.3843 33.8946 27.079 33.8946H26.4014C25.8609 33.8946 25.4211 33.4549 25.4211 32.9144C25.4211 32.7629 25.4569 32.6114 25.5246 32.476L26.2021 31.1207C26.3693 30.7865 26.7053 30.5789 27.0789 30.5789H28.9737C29.3474 30.5789 29.6833 30.7865 29.8505 31.1207L30.5281 32.476C30.5958 32.6115 30.6315 32.763 30.6315 32.9144C30.6315 33.4549 30.1917 33.8947 29.6513 33.8947H29.2894C28.9841 33.8947 28.7368 34.1422 28.7368 34.4473C28.7368 34.7525 28.9841 34.9999 29.2894 34.9999H34.4473C34.7526 34.9999 34.9999 34.7525 34.9999 34.4473C34.9999 34.1421 34.7526 33.8947 34.4473 33.8947H34.2631V32.2368C34.2631 31.9315 34.0157 31.6842 33.7105 31.6842C33.4052 31.6842 33.1579 31.9316 33.1579 32.2368V33.8947H31.4917C31.648 33.6023 31.7367 33.2685 31.7367 32.9144C31.7367 32.5924 31.6606 32.2699 31.5165 31.9817L30.839 30.6265C30.4835 29.9154 29.7687 29.4736 28.9736 29.4736H27.0789C26.284 29.4736 25.5692 29.9154 25.2136 30.6264L24.536 31.9817C24.392 32.2699 24.3158 32.5923 24.3158 32.9144C24.3158 33.2685 24.4046 33.6023 24.5609 33.8947H18.5099C17.8515 33.8947 17.3158 33.3591 17.3158 32.7007C17.3158 32.4932 17.3703 32.2883 17.4731 32.1083L19.6875 28.2332C19.8996 27.8622 20.2968 27.6316 20.7242 27.6316H23.8548C24.2821 27.6316 24.6794 27.8622 24.8915 28.2332L25.2308 28.8269C25.3822 29.0919 25.7197 29.1838 25.9847 29.0325C26.2497 28.8811 26.3419 28.5435 26.1903 28.2785L25.8511 27.6849C25.4427 26.9702 24.6777 26.5263 23.8547 26.5263H20.7242C19.9011 26.5263 19.1361 26.9702 18.7278 27.6849L18.0526 28.8664V19.5263H25.6052ZM16.9474 14.5526V20.6315H10.8685C9.54796 20.6315 8.47369 19.5572 8.47369 18.2368V17.3157H13.8158C14.933 17.3157 15.8421 16.4067 15.8421 15.2894C15.8421 14.977 15.8003 14.6671 15.719 14.3683H16.9788C16.9584 14.426 16.9474 14.4881 16.9474 14.5526ZM18.0212 14.3684H21.3767C21.3712 14.4295 21.3684 14.491 21.3684 14.5526C21.3684 15.6699 22.2774 16.5789 23.3947 16.5789H27.9356C27.6855 17.6338 26.7355 18.421 25.6052 18.421H18.0526V14.5526C18.0526 14.4881 18.0416 14.426 18.0212 14.3684Z" fill="black" fill-opacity="0.56"/>
<path d="M30.7631 1.10523C31.4741 1.10523 32.0526 1.68376 32.0526 2.3947C32.0526 2.69992 32.2999 2.94731 32.6052 2.94731C32.9105 2.94731 33.1578 2.69985 33.1578 2.3947C33.1578 1.68369 33.7364 1.10523 34.4473 1.10523C34.7526 1.10523 34.9999 0.857773 34.9999 0.552617C34.9999 0.247461 34.7526 0 34.4474 0C33.7075 0 33.0448 0.337353 32.6053 0.866182C32.1657 0.337353 31.503 0 30.7631 0C30.4578 0 30.2105 0.247461 30.2105 0.552617C30.2105 0.857773 30.4578 1.10523 30.7631 1.10523Z" fill="black" fill-opacity="0.56"/>
<path d="M6.81577 4.05263C8.22657 4.05263 9.40734 5.1083 9.56204 6.50817C9.59547 6.81148 9.86699 7.03023 10.172 6.99666C10.4754 6.96317 10.6941 6.69 10.6605 6.38662C10.4438 4.42587 8.79095 2.94733 6.81577 2.94733C4.68276 2.94733 2.94739 4.68263 2.94739 6.81572C2.94739 7.69865 3.25282 8.56243 3.80728 9.2476C3.91645 9.38261 4.07607 9.45268 4.23726 9.45268C4.35928 9.45268 4.48219 9.41235 4.58452 9.32963C4.8218 9.13768 4.85851 8.78966 4.66649 8.55239C4.26501 8.0561 4.05269 7.45563 4.05269 6.81572C4.05262 5.29219 5.29218 4.05263 6.81577 4.05263Z" fill="black" fill-opacity="0.56"/>
</svg>
