<svg width="35" height="35" viewBox="0 0 35 35" fill="none" xmlns="http://www.w3.org/2000/svg">
<path d="M32.9292 0.296539H14.0338C12.8919 0.296539 11.9629 1.15855 11.9629 2.21826V12.1246C11.9629 13.1843 12.8919 14.0464 14.0338 14.0464H27.3982L28.8696 16.6953C28.9902 16.9123 29.2189 17.0469 29.4672 17.0469C29.7155 17.0469 29.9442 16.9123 30.0647 16.6953L31.5364 14.0464H32.9291C34.071 14.0464 35 13.1843 35 12.1246V2.21826C35.0001 1.15855 34.0711 0.296539 32.9292 0.296539ZM33.6329 12.1247C33.6329 12.4253 33.3106 12.6793 32.9291 12.6793H31.1341C30.8859 12.6793 30.6571 12.8139 30.5365 13.0309L29.4673 14.9558L28.398 13.0309C28.2774 12.8139 28.0487 12.6793 27.8004 12.6793H14.0338C13.6523 12.6793 13.3301 12.4253 13.3301 12.1247V2.21826C13.3301 1.91768 13.6523 1.66366 14.0338 1.66366H32.9292C33.3106 1.66366 33.6329 1.91768 33.6329 2.21826V12.1247Z" fill="black" fill-opacity="0.56"/>
<path d="M23.0776 16.3517H2.21539C0.993809 16.3517 0 17.2717 0 18.4025V29.34C0 30.4708 0.993809 31.3907 2.21539 31.3907H3.79497L5.43997 34.3519C5.56056 34.5689 5.78929 34.7034 6.03757 34.7034C6.28585 34.7034 6.51458 34.5688 6.63517 34.3519L8.28023 31.3907H23.0777C24.2992 31.3907 25.293 30.4708 25.293 29.34V18.4025C25.293 17.2717 24.2992 16.3517 23.0776 16.3517ZM23.0777 30.0236H7.87801C7.62973 30.0236 7.401 30.1582 7.28041 30.3751L6.03757 32.6123L4.79473 30.3751C4.67414 30.1581 4.44541 30.0236 4.19713 30.0236H2.21539C1.75561 30.0236 1.36719 29.7105 1.36719 29.34V18.4025C1.36719 18.0319 1.75561 17.7189 2.21539 17.7189H23.0776C23.5374 17.7189 23.9257 18.0319 23.9257 18.4025V29.34H23.9258C23.9258 29.7105 23.5374 30.0236 23.0777 30.0236Z" fill="black" fill-opacity="0.56"/>
<path d="M21.6426 3.83502H21.6101C21.2326 3.83502 20.9265 4.14113 20.9265 4.51862C20.9265 4.89616 21.2326 5.20221 21.6101 5.20221H21.6426C22.0201 5.20221 22.3262 4.8961 22.3262 4.51862C22.3262 4.14107 22.0201 3.83502 21.6426 3.83502Z" fill="black" fill-opacity="0.56"/>
<path d="M19.6219 3.83502H15.5474C15.1699 3.83502 14.8638 4.14113 14.8638 4.51862C14.8638 4.89616 15.1699 5.20221 15.5474 5.20221H19.6219C19.9994 5.20221 20.3055 4.8961 20.3055 4.51862C20.3055 4.14107 19.9994 3.83502 19.6219 3.83502Z" fill="black" fill-opacity="0.56"/>
<path d="M28.8729 6.5694H15.5474C15.1699 6.5694 14.8638 6.87551 14.8638 7.25299C14.8638 7.63047 15.1699 7.93658 15.5474 7.93658H28.8729C29.2503 7.93658 29.5565 7.63047 29.5565 7.25299C29.5565 6.87544 29.2503 6.5694 28.8729 6.5694Z" fill="black" fill-opacity="0.56"/>
<path d="M27.0098 9.30377H15.5474C15.1699 9.30377 14.8638 9.60989 14.8638 9.98737C14.8638 10.3649 15.1699 10.671 15.5474 10.671H27.0098C27.3873 10.671 27.6934 10.3649 27.6934 9.98737C27.6934 9.60982 27.3873 9.30377 27.0098 9.30377Z" fill="black" fill-opacity="0.56"/>
<path d="M8.54757 20.0432H4.47308C4.09553 20.0432 3.78949 20.3494 3.78949 20.7268C3.78949 21.1043 4.09553 21.4104 4.47308 21.4104H8.54757C8.92512 21.4104 9.23117 21.1044 9.23117 20.7268C9.23117 20.3494 8.92512 20.0432 8.54757 20.0432Z" fill="black" fill-opacity="0.56"/>
<path d="M10.5682 20.0432H10.5358C10.1582 20.0432 9.85217 20.3494 9.85217 20.7268C9.85217 21.1043 10.1582 21.4104 10.5358 21.4104H10.5682C10.9458 21.4104 11.2518 21.1044 11.2518 20.7268C11.2518 20.3494 10.9458 20.0432 10.5682 20.0432Z" fill="black" fill-opacity="0.56"/>
<path d="M20.8198 22.7776H4.47308C4.09553 22.7776 3.78949 23.0837 3.78949 23.4612C3.78949 23.8388 4.09553 24.1448 4.47308 24.1448H20.8198C21.1973 24.1448 21.5034 23.8388 21.5034 23.4612C21.5034 23.0837 21.1973 22.7776 20.8198 22.7776Z" fill="black" fill-opacity="0.56"/>
<path d="M18.5343 25.512H4.47308C4.09553 25.512 3.78949 25.8181 3.78949 26.1956C3.78949 26.5731 4.09553 26.8792 4.47308 26.8792H18.5343C18.9117 26.8792 19.2179 26.5731 19.2179 26.1956C19.2179 25.818 18.9118 25.512 18.5343 25.512Z" fill="black" fill-opacity="0.56"/>
</svg>
