<?xml version="1.0" encoding="utf-8"?>
<svg id="master-artboard" viewBox="0 0 720 503.999" version="1.1" xmlns="http://www.w3.org/2000/svg" x="0px" y="0px" width="720px" height="503.9989929199219px" enable-background="new 0 0 720 503.999">
<symbol id="New_Symbol" viewBox="-0.763 -0.763 1.526 1.525">
	<path fill="#FFFFFF" d="M0.763,0c0-0.421-0.342-0.762-0.763-0.762S-0.763-0.421-0.763,0S-0.421,0.763,0,0.763S0.763,0.42,0.763,0z"/>
</symbol>
<radialGradient id="SVGID_1_" cx="406.498" cy="71.6294" r="542.0807" gradientTransform="matrix(1 0 0 0.998 0 0.872)" gradientUnits="userSpaceOnUse">
	<stop offset="0.2481" style="stop-color:#DCB079"/>
	<stop offset="0.5176" style="stop-color:#BB8164"/>
	<stop offset="0.6685" style="stop-color:#905854"/>
	<stop offset="0.7561" style="stop-color:#834A4D"/>
	<stop offset="0.8739" style="stop-color:#783F47"/>
	<stop offset="0.998" style="stop-color:#743B45"/>
</radialGradient>
<path d="M 0 0 H 720 V 502.998993 H 0 V 0 Z" fill="url(#SVGID_1_)"/>
<path opacity="0.7" fill="#592E4A" d="M580.362,476.211c-8.943-7.591-14.934-45.368-13.437-42.269&#10;&#9;c1.501,3.098,11.604,12.333,11.604,12.333c-6.008-8.515-11.95-40.904-11.95-40.904l7.446,6.327&#10;&#9;c-9.06-11.051-10.154-39.392-10.154-39.392l6.253,4.297c-1.404-1.543-3.742-6.049-5.082-12.054&#10;&#9;c-3.812-17.101-6.021-45.492-6.021-45.492s-2.275,28.342-6.113,45.415c-1.323,5.88-3.607,10.61-4.99,12.131l5.758-4.354&#10;&#9;c0,0-1.037,27.592-9.663,39.449l7.128-5.825c0,0-5.625,31.89-11.628,40.402c0,0,10.007-7.97,11.513-11.065&#10;&#9;c1.498-3.1-3.802,31.797-13.349,41.001c-3.866,2.835,20.838-1.946,20.838-1.946S584.229,479.046,580.362,476.211z"/>
<path opacity="0.7" fill="#592E4A" d="M165.094,472.61c-9.704-8.236-16.203-49.225-14.579-45.861&#10;&#9;c1.629,3.361,12.591,13.381,12.591,13.381c-6.518-9.238-12.966-44.381-12.966-44.381l8.079,6.865&#10;&#9;c-9.829-11.99-11.017-42.74-11.017-42.74l6.784,4.662c-1.523-1.674-4.061-6.562-5.514-13.078&#10;&#9;c-4.137-18.554-6.533-49.358-6.533-49.358s-2.469,30.751-6.633,49.275c-1.436,6.379-3.913,11.512-5.414,13.161l6.247-4.725&#10;&#9;c0,0-1.125,29.938-10.484,42.803l7.734-6.32c0,0-6.104,34.6-12.616,43.836c0,0,10.857-8.646,12.491-12.006&#10;&#9;c1.625-3.363-4.125,34.5-14.483,44.486c-4.195,3.075,22.608-2.111,22.608-2.111S169.29,475.686,165.094,472.61z"/>
<path fill="#2B1E2F" d="M634.822,466.078c-9.372-7.954-15.649-47.541-14.08-44.292c1.572,3.246,12.159,12.923,12.159,12.923&#10;&#9;c-6.294-8.922-12.522-42.862-12.522-42.862l7.804,6.63c-9.493-11.579-10.64-41.277-10.64-41.277l6.552,4.503&#10;&#9;c-1.472-1.617-3.921-6.338-5.325-12.631c-3.995-17.919-6.31-47.67-6.31-47.67s-2.385,29.699-6.406,47.59&#10;&#9;c-1.386,6.161-3.778,11.118-5.228,12.711l6.032-4.562c0,0-1.087,28.912-10.125,41.337l7.469-6.104c0,0-5.894,33.416-12.185,42.336&#10;&#9;c0,0,10.486-8.351,12.064-11.595c1.569-3.249-3.984,33.319-13.988,42.964c-4.051,2.97,21.836-2.039,21.836-2.039&#10;&#9;S638.874,469.048,634.822,466.078z"/>
<path d="M 309.3999938964844 -0.22200000286102295 L 173.88900756835938 450.81201171875 L 181.822998046875 451.4670104980469 L 309.3999938964844 -0.22200000286102295 Z" opacity="0.05" fill="#F8F9ED"/>
<path d="M 332.0409851074219 -0.22200000286102295 L 196.52999877929688 450.81201171875 L 204.46400451660156 451.4670104980469 L 332.0409851074219 -0.22200000286102295 Z" opacity="0.05" fill="#F8F9ED"/>
<path d="M 354.2090148925781 0 L 218.27999877929688 452.3160095214844 L 226.21499633789062 452.97100830078125 L 353.9169921875 0 Z" opacity="0.05" fill="#F8F9ED"/>
<path d="M 357.9599914550781 0 L 246.80299377441406 450.3479919433594 L 254.76100158691406 450.6050109863281 L 358.156005859375 0 Z" opacity="0.05" fill="#F8F9ED"/>
<path d="M 367.5010070800781 0 L 274.5610046386719 452.5039978027344 L 282.5220031738281 452.45098876953125 L 367.84100341796875 0 Z" opacity="0.05" fill="#F8F9ED"/>
<path opacity="0.7" fill="#2E2233" d="M66.272,428.116c-9.705-8.236-16.204-49.225-14.58-45.861&#10;&#9;c1.629,3.361,12.59,13.381,12.59,13.381c-6.517-9.238-12.965-44.381-12.965-44.381l8.079,6.865&#10;&#9;c-9.829-11.99-11.016-42.74-11.016-42.74l6.784,4.662c-1.523-1.674-4.06-6.562-5.513-13.078&#10;&#9;c-4.137-18.554-6.533-49.358-6.533-49.358c0,0-2.469,30.751-6.634,49.275c-1.435,6.379-3.913,11.512-5.414,13.161l6.247-4.725&#10;&#9;c0,0-1.125,29.938-10.484,42.803l7.734-6.32c0,0-6.104,34.6-12.616,43.836c0,0,10.858-8.646,12.491-12.006&#10;&#9;c1.625-3.363-4.125,34.5-14.483,44.486c-4.196,3.075,22.608-2.111,22.608-2.111S70.467,431.191,66.272,428.116z"/>
<path opacity="0.7" fill="#2E2233" d="M680.42,451.453c-9.704-8.236-16.203-49.225-14.579-45.861&#10;&#9;c1.629,3.361,12.591,13.381,12.591,13.381c-6.518-9.238-12.966-44.381-12.966-44.381l8.079,6.865&#10;&#9;c-9.829-11.99-11.017-42.74-11.017-42.74l6.784,4.662c-1.523-1.674-4.061-6.562-5.514-13.078&#10;&#9;c-4.137-18.554-6.533-49.358-6.533-49.358s-2.469,30.751-6.633,49.275c-1.436,6.379-3.913,11.512-5.414,13.161l6.247-4.725&#10;&#9;c0,0-1.125,29.938-10.484,42.803l7.734-6.32c0,0-6.104,34.6-12.616,43.836c0,0,10.857-8.646,12.491-12.006&#10;&#9;c1.625-3.363-4.125,34.5-14.483,44.486c-4.195,3.075,22.608-2.111,22.608-2.111S684.615,454.528,680.42,451.453z"/>
<path opacity="0.7" fill="#2E2233" d="M619.655,488.558c-9.704-8.236-16.203-49.225-14.579-45.861&#10;&#9;c1.629,3.361,12.591,13.381,12.591,13.381c-6.518-9.238-12.966-44.381-12.966-44.381l8.079,6.865&#10;&#9;c-9.829-11.99-11.017-42.74-11.017-42.74l6.784,4.662c-1.523-1.674-4.061-6.562-5.514-13.078&#10;&#9;c-4.137-18.554-6.533-49.358-6.533-49.358s-2.469,30.751-6.633,49.275c-1.436,6.379-3.913,11.512-5.414,13.161l6.247-4.725&#10;&#9;c0,0-1.125,29.938-10.484,42.803l7.734-6.32c0,0-6.104,34.6-12.616,43.836c0,0,10.857-8.646,12.491-12.006&#10;&#9;c1.625-3.363-4.125,34.5-14.483,44.486c-4.195,3.075,22.608-2.111,22.608-2.111S623.851,491.633,619.655,488.558z"/>
<path d="M 381.78399658203125 0 L 302.7980041503906 460.0350036621094 L 310.7539978027344 459.7200012207031 L 381.78399658203125 0 Z" opacity="0.05" fill="#F8F9ED"/>
<path d="M 397.5840148925781 0 L 339.7200012207031 461.5880126953125 L 347.65399169921875 460.9169921875 L 397.906005859375 0 Z" opacity="0.05" fill="#F8F9ED"/>
<path d="M 411.8340148925781 0 L 369.2909851074219 463.5849914550781 L 377.197998046875 462.6510009765625 L 412.1549987792969 0 Z" opacity="0.05" fill="#F8F9ED"/>
<path d="M 426.75201416015625 0 L 399.4849853515625 464.1780090332031 L 407.3559875488281 462.9809875488281 L 426.75201416015625 0 Z" opacity="0.05" fill="#F8F9ED"/>
<path d="M 438.2659912109375 0.1420000046491623 L 439.2919921875 467.6510009765625 L 447.07598876953125 465.97900390625 L 438.2659912109375 0.1420000046491623 Z" opacity="0.05" fill="#F8F9ED"/>
<path d="M 445.44500732421875 0.1420000046491623 L 485.0719909667969 466.65399169921875 L 492.6910095214844 464.34698486328125 L 445.44500732421875 0.1420000046491623 Z" opacity="0.05" fill="#F8F9ED"/>
<path fill="#2B1E2F" d="M109.815,438.988c-9.705-8.236-16.204-49.225-14.58-45.861c1.629,3.361,12.59,13.381,12.59,13.381&#10;&#9;c-6.517-9.238-12.965-44.381-12.965-44.381l8.079,6.865c-9.829-11.99-11.016-42.74-11.016-42.74l6.784,4.662&#10;&#9;c-1.523-1.674-4.06-6.562-5.513-13.078c-4.137-18.554-6.533-49.358-6.533-49.358c0,0-2.469,30.751-6.634,49.275&#10;&#9;c-1.435,6.379-3.913,11.512-5.414,13.161l6.247-4.725c0,0-1.125,29.938-10.484,42.803l7.734-6.32c0,0-6.104,34.6-12.616,43.836&#10;&#9;c0,0,10.858-8.646,12.491-12.006c1.625-3.363-4.125,34.5-14.483,44.486c-4.196,3.075,22.608-2.111,22.608-2.111&#10;&#9;S114.01,442.063,109.815,438.988z"/>
<path fill="#2B1E2F" d="M716.495,244.444c-0.002,0-3.382,42.119-9.088,67.492c-1.964,8.737-5.358,15.768-7.414,18.026l8.557-6.471&#10;&#9;c0,0-1.541,41.005-14.36,58.626l10.594-8.657c0,0-8.36,47.391-17.28,60.042c0,0,14.872-11.844,17.108-16.444&#10;&#9;c2.226-4.607-5.649,47.254-19.836,60.932c-5.748,4.212,30.965-2.892,30.965-2.892s1.815,0.338,4.594,0.821v-194.77&#10;&#9;C717.854,261.919,716.495,244.444,716.495,244.444z"/>
<path d="M 445.44500732421875 0.1420000046491623 L 514.030029296875 460.8529968261719 L 521.4869995117188 458.0660095214844 L 445.44500732421875 0.1420000046491623 Z" opacity="0.05" fill="#F8F9ED"/>
<path opacity="0.5" fill="#592E4A" d="M214.943,465.048c-7.714-6.547-12.881-39.129-11.589-36.456&#10;&#9;c1.295,2.672,10.009,10.637,10.009,10.637c-5.181-7.344-10.307-35.279-10.307-35.279l6.422,5.457&#10;&#9;c-7.813-9.531-8.757-33.975-8.757-33.975l5.392,3.706c-1.21-1.331-3.227-5.217-4.381-10.396&#10;&#9;c-3.289-14.749-5.194-39.236-5.194-39.236s-1.962,24.444-5.273,39.169c-1.141,5.071-3.111,9.151-4.304,10.463l4.966-3.756&#10;&#9;c0,0-0.895,23.799-8.334,34.024l6.148-5.023c0,0-4.852,27.504-10.028,34.846c0,0,8.631-6.872,9.929-9.543&#10;&#9;c1.292-2.674-3.279,27.425-11.513,35.362c-3.335,2.445,17.972-1.678,17.972-1.678S218.278,467.493,214.943,465.048z"/>
<path opacity="0.4" fill="#2E2233" d="M272.479,451.395c-6.151-5.22-10.271-31.201-9.241-29.069c1.033,2.13,7.981,8.481,7.981,8.481&#10;&#9;c-4.131-5.855-8.219-28.132-8.219-28.132l5.121,4.352c-6.23-7.6-6.983-27.091-6.983-27.091l4.299,2.955&#10;&#9;c-0.965-1.062-2.573-4.16-3.494-8.289c-2.622-11.761-4.142-31.287-4.142-31.287s-1.564,19.492-4.205,31.233&#10;&#9;c-0.909,4.044-2.48,7.297-3.432,8.343l3.96-2.995c0,0-0.713,18.978-6.646,27.131l4.902-4.006c0,0-3.869,21.932-7.997,27.786&#10;&#9;c0,0,6.882-5.479,7.917-7.609c1.03-2.132-2.615,21.868-9.181,28.197c-2.66,1.95,14.331-1.338,14.331-1.338&#10;&#9;S275.139,453.345,272.479,451.395z"/>
<path opacity="0.4" fill="#2E2233" d="M230.354,463.929c-6.151-5.22-10.271-31.201-9.241-29.069c1.033,2.13,7.981,8.481,7.981,8.481&#10;&#9;c-4.131-5.855-8.219-28.132-8.219-28.132l5.121,4.352c-6.23-7.6-6.983-27.091-6.983-27.091l4.299,2.955&#10;&#9;c-0.965-1.062-2.573-4.16-3.494-8.289c-2.622-11.761-4.142-31.287-4.142-31.287s-1.564,19.492-4.205,31.233&#10;&#9;c-0.909,4.044-2.48,7.297-3.432,8.343l3.96-2.995c0,0-0.713,18.978-6.646,27.131l4.902-4.006c0,0-3.869,21.932-7.997,27.786&#10;&#9;c0,0,6.882-5.479,7.917-7.609c1.03-2.132-2.615,21.868-9.181,28.197c-2.66,1.95,14.331-1.338,14.331-1.338&#10;&#9;S233.013,465.879,230.354,463.929z"/>
<path opacity="0.4" fill="#2E2233" d="M449.359,462.874c-5.407-4.588-9.027-27.423-8.123-25.549&#10;&#9;c0.908,1.872,7.015,7.454,7.015,7.454c-3.63-5.146-7.223-24.725-7.223-24.725l4.501,3.824c-5.477-6.679-6.138-23.81-6.138-23.81&#10;&#9;l3.778,2.598c-0.848-0.934-2.261-3.656-3.069-7.285c-2.306-10.337-3.642-27.498-3.642-27.498s-1.375,17.132-3.694,27.45&#10;&#9;c-0.799,3.555-2.181,6.413-3.017,7.333l3.48-2.633c0,0-0.626,16.679-5.84,23.845l4.309-3.521c0,0-3.4,19.275-7.029,24.421&#10;&#9;c0,0,6.05-4.815,6.959-6.688c0.905-1.874-2.298,19.22-8.068,24.782c-2.337,1.714,12.596-1.176,12.596-1.176&#10;&#9;S451.695,464.588,449.359,462.874z"/>
<path opacity="0.5" fill="#592E4A" d="M516.554,471.172c-7.714-6.547-12.881-39.129-11.589-36.456&#10;&#9;c1.295,2.672,10.008,10.637,10.008,10.637c-5.18-7.344-10.307-35.279-10.307-35.279l6.422,5.457&#10;&#9;c-7.812-9.531-8.757-33.975-8.757-33.975l5.392,3.706c-1.209-1.331-3.227-5.217-4.381-10.396&#10;&#9;c-3.289-14.749-5.193-39.236-5.193-39.236s-1.963,24.444-5.273,39.169c-1.141,5.071-3.111,9.151-4.304,10.463l4.966-3.756&#10;&#9;c0,0-0.895,23.799-8.334,34.024l6.148-5.023c0,0-4.852,27.504-10.029,34.846c0,0,8.631-6.872,9.93-9.543&#10;&#9;c1.291-2.674-3.279,27.425-11.514,35.362c-3.335,2.445,17.973-1.678,17.973-1.678S519.889,473.617,516.554,471.172z"/>
<path d="M 486.8580017089844 0.1420000046491623 L 555.698974609375 462.0050048828125 L 563.156005859375 459.218994140625 L 486.8580017089844 0.1420000046491623 Z" opacity="0.05" fill="#F8F9ED"/>
<path d="M 535.6630249023438 0 L 624.1309814453125 454.8590087890625 L 631.458984375 451.75 L 535.8560180664062 0 Z" opacity="0.05" fill="#F8F9ED"/>
<path d="M 553.5070190429688 0 L 654.0780029296875 449.1289978027344 L 661.3150024414062 445.8139953613281 L 553.7639770507812 0 Z" opacity="0.05" fill="#F8F9ED"/>
<path d="M 568.3170166015625 0 L 692.260009765625 447.43798828125 L 699.322998046875 443.76800537109375 L 568.5239868164062 0 Z" opacity="0.05" fill="#F8F9ED"/>
<path d="M 598.3809814453125 0 L 720.333984375 440.2510070800781 L 720.333984375 412.97698974609375 L 598.6110229492188 0 Z" opacity="0.05" fill="#F8F9ED"/>
<path d="M 623.625 0 L 622.375 0 L 719.6680297851562 323.8869934082031 L 719.6680297851562 303.1319885253906 Z" opacity="0.05" fill="#F8F9ED"/>
<path d="M 646.2930297851562 0 L 645.0709838867188 0 L 719.6680297851562 222.85400390625 L 719.6680297851562 207.69200134277344 Z" opacity="0.05" fill="#F8F9ED"/>
<path d="M 288.90399169921875 -0.7440000176429749 L 153.39300537109375 450.2909851074219 L 161.3280029296875 450.94500732421875 L 288.90399169921875 -0.7440000176429749 Z" opacity="0.05" fill="#F8F9ED"/>
<path d="M 269.8489990234375 -0.5149999856948853 L 123.38999938964844 447.0849914550781 L 131.30599975585938 447.9330139160156 L 269.8489990234375 -0.5149999856948853 Z" opacity="0.05" fill="#F8F9ED"/>
<path d="M 239.3179931640625 0 L 89.37699890136719 436.81201171875 L 97.27999877929688 437.7749938964844 L 239.5850067138672 0 Z" opacity="0.05" fill="#F8F9ED"/>
<path d="M 218.51300048828125 0.030000001192092896 L 51.48099899291992 429.9360046386719 L 59.34000015258789 431.2120056152344 L 218.6959991455078 0 Z" opacity="0.05" fill="#F8F9ED"/>
<path d="M 184.7010040283203 0 L 15.836000442504883 434.62200927734375 L 23.69499969482422 435.89801025390625 L 184.906005859375 0 Z" opacity="0.05" fill="#F8F9ED"/>
<path fill="#1B1327" d="M263.822,145.02c0,0,7.661,3.94,11.31,5.293l5.471-11.54c-4.559,0.657-6.93,8.77-6.93,8.77&#10;&#9;S266.474,144.931,263.822,145.02z"/>
<g opacity="0.5">
	<path fill="#592E4A" d="M527.645,23.953l7.138,430.623l-13.263-0.025L516.744,9.777C520.934,10.424,524.871,14.45,527.645,23.953z"/>
	<path fill="#3D1F34" d="M527.334,0l0.35,26.955c-2.74-7.208-6.664-10.214-10.85-10.637L516.674,0H527.334z"/>
	<path fill="#3D1F34" d="M530.282,182.404c0,0-5.659-0.945-6.814,0.492c-1.153,1.438,6.868,6.26,6.948,9.41&#10;&#9;&#9;C530.497,195.455,530.282,182.404,530.282,182.404z"/>
	<path fill="#3D1F34" d="M519.17,235.641c0,0,5.733,4.226,7.098,4.129c1.365-0.1-3.709,2.152-7.047,0.592L519.17,235.641z"/>
	<path fill="#3D1F34" d="M517.05,37.053c0,0,5.911,4.227,7.276,4.128c1.363-0.098-3.875,2.081-7.213,0.521L517.05,37.053z"/>
	<path d="M 531.3980102539062 264.1300048828125 L 525.073974609375 265.3160095214844 L 523.3610229492188 266.7090148925781 L 525.9970092773438 268.6029968261719 L 522.718017578125 269.75 L 525.1920166015625 271.3039855957031 L 522.7550048828125 272.4800109863281 L 522.7550048828125 272.4800109863281 L 531.5859985351562 274.1369934082031 Z" fill="#3D1F34"/>
	<path fill="#3D1F34" d="M520.54,355.716h9.895c0,0-8.624-8.65-10.009-8.776L520.54,355.716z"/>
	<path fill="#3D1F34" d="M520.873,397.664h9.895c0,0-8.623-8.651-10.009-8.775L520.873,397.664z"/>
	<path fill="#3D1F34" d="M518.295,151.976c0,0,2.704-1.091,5.716-1.984c3.013-0.893-5.093,11.389-5.631,8.725L518.295,151.976z"/>
	<path fill="#3D1F34" d="M532.642,327.536c-0.159,0.009-9.735,0.483-11.042-2.351c-1.307-2.833,11.025-0.805,10.98-3.504&#10;&#9;&#9;L532.642,327.536z"/>
	<path fill="#3D1F34" d="M528.475,76.185c-0.149,0.009-9.284,0.397-10.521-3.088s10.461-0.755,10.408-4.051L528.475,76.185z"/>
	<path fill="#3D1F34" d="M517.812,108.093c0,0,2.309-0.841,4.232-0.306c1.924,0.536,3.547,1.179,3.547,1.179l-2.102,1.249&#10;&#9;&#9;c0,0,2.03,0.949,2.131,0.943c0.101-0.008-1.506,0.446-2.007,0.735c-0.501,0.289-0.587,1.392-0.587,1.392l-5.145,0.034&#10;&#9;&#9;L517.812,108.093z"/>
	<path fill="#3D1F34" d="M521.52,454.551l13.263,0.025l-0.633-37.986C534.149,416.59,523.354,430.924,521.52,454.551z"/>
	<g>
		<path fill="#3D1F34" d="M520.628,63.198v9.319c0,0-3.338-6.462-7.669-13.936c1.01-0.911,1.985-2.006,2.851-3.085&#10;&#9;&#9;&#9;C518.635,59.876,520.628,63.198,520.628,63.198z"/>
		<path fill="#592E4A" d="M490.14,0.142c0,0,1.692,26.352,12.177,37.046c4.062,4.144,9.579,12.243,13.493,18.309&#10;&#9;&#9;&#9;c-0.865,1.079-1.841,2.174-2.851,3.085c-4.818-8.315-10.866-17.882-14.923-21.204c-7.703-6.308-9.843-37.235-9.843-37.235H490.14z&#10;&#9;&#9;&#9;"/>
	</g>
</g>
<g>
	<g opacity="0.8">
		<path fill="#592E4A" d="M168.097,23.951l7.138,434.43l-13.263-0.026L157.197,9.65C161.386,10.302,165.324,14.363,168.097,23.951z"/>
		<path fill="#3D1F34" d="M167.692,0l0.444,26.979c-2.741-7.272-6.665-10.305-10.85-10.73L157.126,0H167.692z"/>
		<path fill="#3D1F34" d="M170.594,183.802c0,0-5.66-0.954-6.814,0.497c-1.154,1.45,6.868,6.315,6.949,9.493&#10;&#9;&#9;&#9;C170.809,196.969,170.594,183.802,170.594,183.802z"/>
		<path fill="#3D1F34" d="M159.444,237.51c0,0,5.912,4.263,7.276,4.165c1.365-0.1-3.874,2.098-7.213,0.524L159.444,237.51z"/>
		<path fill="#3D1F34" d="M157.361,37.167c0,0,5.912,4.264,7.276,4.165c1.364-0.099-3.875,2.1-7.212,0.526L157.361,37.167z"/>
		<path d="M 171.8509979248047 266.2510070800781 L 165.52699279785156 267.4469909667969 L 163.81399536132812 268.8529968261719 L 166.44900512695312 270.76300048828125 L 163.1699981689453 271.9200134277344 L 165.64500427246094 273.4880065917969 L 163.20700073242188 274.677001953125 L 163.20700073242188 274.677001953125 L 172.03799438476562 276.3479919433594 Z" fill="#3D1F34"/>
		<path fill="#3D1F34" d="M160.992,358.646l5.397-1.984c0,0-4.126-6.743-5.511-6.869L160.992,358.646z"/>
		<path fill="#3D1F34" d="M161.024,391.02l9.722-2.162c0,0-8.451-6.565-9.836-6.691L161.024,391.02z"/>
		<path fill="#3D1F34" d="M158.654,153.105c0,0,2.704-1.101,5.715-2.002c3.013-0.9-5.086,11.501-5.624,8.814L158.654,153.105z"/>
		<path fill="#3D1F34" d="M173.252,330.287c-0.159,0.01-9.894,0.495-11.201-2.362c-1.307-2.857,11.15-0.812,11.105-3.535&#10;&#9;&#9;&#9;L173.252,330.287z"/>
		<path fill="#3D1F34" d="M168.817,76.644c-0.149,0.009-9.284,0.401-10.521-3.116s10.46-0.762,10.408-4.087L168.817,76.644z"/>
		<path fill="#3D1F34" d="M158.265,108.834c0,0,2.309-0.849,4.232-0.309c1.924,0.541,3.547,1.189,3.547,1.189l-2.102,1.259&#10;&#9;&#9;&#9;c0,0,2.03,0.958,2.131,0.951c0.101-0.008-1.506,0.45-2.007,0.742c-0.501,0.292-0.587,1.404-0.587,1.404l-5.144,0.034&#10;&#9;&#9;&#9;L158.265,108.834z"/>
		<path fill="#3D1F34" d="M161.972,459.166l13.263-0.785l-1.982-34.137C173.252,424.244,166.078,428.91,161.972,459.166z"/>
	</g>
	<path opacity="0.8" fill="#592E4A" d="M190.667,25.167c-7.167,44.274-15.433,80.752-21.333,96.075V129&#10;&#9;&#9;c13.718-19.932,27.286-129,27.286-129h-1.786C193.011,7.96,192.083,16.416,190.667,25.167z"/>
</g>
<path fill="#2B1E2F" d="M27.518,444.977c-9.705-8.236-16.204-49.225-14.58-45.861c1.629,3.361,12.59,13.381,12.59,13.381&#10;&#9;c-6.517-9.238-12.965-44.381-12.965-44.381l8.079,6.865c-9.829-11.99-11.016-42.74-11.016-42.74l6.784,4.662&#10;&#9;c-1.523-1.674-4.06-6.562-5.513-13.078c-4.137-18.554-6.533-49.358-6.533-49.358c0,0-1.715,21.347-4.696,39.184v129.982&#10;&#9;c2.459-0.44,4.146-0.767,4.146-0.767S31.713,448.052,27.518,444.977z"/>
<path fill="#2B1E2F" d="M0,423.18v2.272v78.032l720-0.79v-59.06c0,0-99.769,1.111-118,10.771&#10;&#9;c-32.75,17.353-69.757-7.435-106.73-16.121c-22.481-5.281-83.564,15.688-99.27,23.264c-15.705,7.576-92-10.86-113.356-20.188&#10;&#9;c-15.958-6.968-52.552-6.152-66.446-3.076c-13.893,3.076-52.218,18.823-96.044,0C59,412.02,0,423.18,0,423.18z"/>
<g opacity="0.6">
	<path fill="#592E4A" d="M111.971,435.5c-5.605-129.516-5.628-121.043-6.105-131.631c-0.443-9.832-1.163-68.722-1.65-77.74&#10;&#9;&#9;c-0.488-9.018-6.056-74.297-5.229-83.653c0.83-9.404-2.171-31.995-2.703-40.197c-0.532-8.203-5.305-28.077-2.526-43.458&#10;&#9;&#9;c2.778-15.38-1.3-29.125-1.861-37.019C91.228,12.434,90.562,0.1,90.562,0.1h15.833l19.266,438.472L111.971,435.5z"/>
	<path fill="#1B1327" d="M102.957,205.111c0,0,8.152-0.42,10.522,1.073c2.37,1.493-9.61,6.919-9.688,10.399&#10;&#9;&#9;S102.957,205.111,102.957,205.111z"/>
	<path fill="#1B1327" d="M116.867,240.433c0,0-7.022,5.947-9.781,5.947c-2.758,0,3.082,1.172,9.781-0.814V240.433z"/>
	<path fill="#1B1327" d="M108.158,41.386c0,0-9.063,5.132-11.822,5.132s5.123,1.987,11.822,0V41.386z"/>
	<path d="M 105.46399688720703 280.77099609375 L 114.88500213623047 282.0409851074219 L 117.45899963378906 284.25 L 113.58200073242188 287.8789978027344 L 118.47799682617188 289.4670104980469 L 114.83300018310547 292.4840087890625 L 118.47799682617188 294.2300109863281 L 118.47799682617188 294.2300109863281 L 105.93900299072266 298.05499267578125 Z" fill="#1B1327"/>
	<path fill="#1B1327" d="M122.085,366.082l-12.94-2.482c-1.756-0.998,12.601-7.205,12.601-7.205L122.085,366.082z"/>
	<path fill="#1B1327" d="M114.284,174.241c0,0-4.82-0.989-10.185-1.734c-5.364-0.745,9.294,12.169,10.185,9.189V174.241z"/>
	<path fill="#1B1327" d="M99.354,156.024c0.173-0.002,10.791-0.246,12.174-3.474c1.382-3.229-12.165,0-12.156-2.98L99.354,156.024z"/>
	<path fill="#1B1327" d="M93.263,80.122c0.141-0.003,8.716-0.332,9.833-4.685s-9.824-0.001-9.818-4.019L93.263,80.122z"/>
	<path fill="#1B1327" d="M111.636,111.627c0,0-4.062-1.087-7.419,0c-3.355,1.087-6.181,2.311-6.181,2.311l3.709,1.767&#10;&#9;&#9;c0,0-3.532,1.767-3.709,1.767s2.649,0.543,3.532,0.952c0.883,0.407,1.06,2.174,1.06,2.174l9.008-0.544V111.627z"/>
	<path fill="#1B1327" d="M90.562,0.1h15.833l1.433,33.242c0,0-12.183-16.088-15.933-11.54L90.562,0.1z"/>
	<g>
		<path fill="#1B1327" d="M109.369,67.778v9.989c0,0,4.788-6.927,11.001-14.938c-1.448-0.976-2.848-2.15-4.089-3.307&#10;&#9;&#9;&#9;C112.227,64.217,109.369,67.778,109.369,67.778z"/>
		<path fill="#3D2437" d="M153.123,0c0,0-2.446,28.434-17.486,39.897c-5.829,4.442-13.742,13.123-19.356,19.625&#10;&#9;&#9;&#9;c1.241,1.157,2.641,2.331,4.089,3.307c6.912-8.913,15.588-19.168,21.407-22.729C152.827,33.338,155.896,0,155.896,0H153.123z"/>
	</g>
	<path fill="#1B1327" d="M111.971,435.5l13.689,5.494l-1.361-33.4c0,0-3.404,12.994-7.404,16.75s-5.884,2.512-5.884,2.512&#10;&#9;&#9;L111.971,435.5z"/>
</g>
<g opacity="0.5">
	<path fill="#592E4A" d="M228.288,440.054c-5.605-130.96-5.628-122.393-6.105-133.099c-0.443-9.942-1.163-69.488-1.65-78.607&#10;&#9;&#9;c-0.488-9.118-6.056-75.125-5.229-84.586c0.83-9.509-2.171-32.352-2.703-40.646c-0.532-8.295-5.305-28.391-2.526-43.942&#10;&#9;&#9;c2.778-15.551-1.3-29.45-1.861-37.432C207.544,12.269,206.878,0,206.878,0l15.844,0.042l19.255,441.664L228.288,440.054z"/>
	<path fill="#1B1327" d="M219.273,207.096c0,0,8.152-0.425,10.522,1.085c2.37,1.51-9.61,6.997-9.688,10.515&#10;&#9;&#9;C220.031,222.214,219.273,207.096,219.273,207.096z"/>
	<path fill="#1B1327" d="M233.183,242.811c0,0-7.022,6.013-9.781,6.013c-2.758,0,3.082,1.186,9.781-0.823V242.811z"/>
	<path fill="#1B1327" d="M224.474,41.544c0,0-9.063,5.189-11.822,5.189s5.123,2.009,11.822,0V41.544z"/>
	<path d="M 221.781005859375 283.6000061035156 L 231.20199584960938 284.88299560546875 L 233.7760009765625 287.11700439453125 L 229.8979949951172 290.7860107421875 L 234.79400634765625 292.3919982910156 L 231.1490020751953 295.4429931640625 L 234.79400634765625 297.2090148925781 L 234.79400634765625 297.2090148925781 L 222.2550048828125 301.07501220703125 Z" fill="#1B1327"/>
	<path fill="#1B1327" d="M238.402,369.861l-12.94-2.51c-1.756-1.009,12.601-7.285,12.601-7.285L238.402,369.861z"/>
	<path fill="#1B1327" d="M230.6,175.88c0,0-4.82-1-10.185-1.753c-5.364-0.753,9.294,12.305,10.185,9.292V175.88z"/>
	<path fill="#1B1327" d="M215.67,157.46c0.173-0.002,10.791-0.248,12.174-3.513c1.382-3.265-12.165,0-12.156-3.014L215.67,157.46z"/>
	<path fill="#1B1327" d="M209.58,80.711c0.141-0.003,8.716-0.335,9.833-4.737c1.117-4.401-9.824-0.001-9.818-4.063L209.58,80.711z"/>
	<path fill="#1B1327" d="M227.953,112.569c0,0-4.062-1.1-7.419,0c-3.355,1.1-6.181,2.336-6.181,2.336l3.709,1.786&#10;&#9;&#9;c0,0-3.532,1.787-3.709,1.787s2.649,0.549,3.532,0.962c0.883,0.412,1.06,2.199,1.06,2.199l9.008-0.55V112.569z"/>
	<path fill="#1B1327" d="M206.878,0l15.844,0.042l1.424,33.414c0,0-12.185-16.312-15.935-11.713L206.878,0z"/>
	<g>
		<path fill="#1B1327" d="M225.685,68.231v10.1c0,0,4.788-7.004,11.001-15.105c-1.448-0.987-2.848-2.174-4.089-3.343&#10;&#9;&#9;&#9;C228.543,64.63,225.685,68.231,225.685,68.231z"/>
		<path fill="#3D2437" d="M269.411-0.011c0,0-2.417,28.458-17.457,40.05c-5.829,4.491-13.742,13.269-19.356,19.844&#10;&#9;&#9;&#9;c1.241,1.169,2.641,2.356,4.089,3.343c6.912-9.012,15.588-19.381,21.407-22.982C269.143,33.406,272.173,0,272.173,0L269.411-0.011&#10;&#9;&#9;&#9;z"/>
	</g>
	<path fill="#1B1327" d="M228.288,440.054l13.689,1.651l-1.361-29.869c0,0-3.404,13.14-7.404,16.938s-5.283,2.893-5.283,2.893&#10;&#9;&#9;L228.288,440.054z"/>
</g>
<path fill="#1B1327" d="M0,480.334v23.665h720V487.65c0,0-67.666-7.983-90.08-1.568c-3.098,0.887-77.391,17.21-116.253,8.919&#10;&#9;c-184.287-39.315-271.006-15.645-334.61-20.392S25.54,472.032,0,480.334z"/>
<path d="M 520.1690063476562 0 L 589.0339965820312 462.0010070800781 L 596.4910278320312 459.21600341796875 L 520.1690063476562 0 Z" opacity="0.05" fill="#F8F9ED"/>
<path d="M 678.718017578125 -0.9980000257492065 L 676.6950073242188 -0.9980000257492065 L 719.6680297851562 105.25199890136719 L 719.6680297851562 95.61000061035156 Z" opacity="0.05" fill="#F8F9ED"/>
<path d="M 145.40499877929688 0 L 0.4009999930858612 373.2120056152344 L 0 399 L 145.78700256347656 0 Z" opacity="0.05" fill="#F8F9ED"/>
<path d="M 120.10399627685547 -0.04200000315904617 L 0.10599999874830246 271.29901123046875 L 0 289.4129943847656 L 120.93199920654297 0 Z" opacity="0.05" fill="#F8F9ED"/>
<path d="M 107.0510025024414 0 L 0.4700000286102295 174.0959930419922 L 0 188.11300659179688 L 108.33100128173828 0 Z" opacity="0.05" fill="#F8F9ED"/>
<path d="M 75.56199645996094 0.10000000149011612 L 0 96.0739974975586 L 0 105.5979995727539 L 77.7490005493164 -0.04200000315904617 Z" opacity="0.05" fill="#F8F9ED"/>
<g>
	<g opacity="0.8">
		<path fill="#592E4A" d="M576.62,24.469l-6.834,435.599l6.501,0.559l6.501-0.484L587.52,9.859&#10;&#9;&#9;&#9;C583.331,10.525,579.393,14.674,576.62,24.469z"/>
		<path fill="#3D1F34" d="M577.024,0l-0.444,27.563c2.741-7.43,6.665-10.528,10.851-10.963L587.59,0H577.024z"/>
		<path fill="#3D1F34" d="M574.123,187.779c0,0,5.66-0.974,6.814,0.507s-6.868,6.452-6.949,9.698&#10;&#9;&#9;&#9;C573.908,201.23,574.123,187.779,574.123,187.779z"/>
		<path fill="#3D1F34" d="M585.273,242.649c0,0-5.912,4.355-7.276,4.255c-1.364-0.102,3.874,2.144,7.213,0.536L585.273,242.649z"/>
		<path fill="#3D1F34" d="M587.355,37.971c0,0-5.912,4.356-7.275,4.255c-1.365-0.101,3.874,2.145,7.212,0.537L587.355,37.971z"/>
		<path d="M 572.8660278320312 272.0119934082031 L 579.1890258789062 273.2340087890625 L 580.9019775390625 274.6700134277344 L 578.2680053710938 276.6210021972656 L 581.5469970703125 277.8039855957031 L 579.072021484375 279.406005859375 L 581.510009765625 280.6199951171875 L 581.510009765625 280.6199951171875 L 572.6790161132812 282.3269958496094 Z" fill="#3D1F34"/>
		<path fill="#3D1F34" d="M583.725,366.406l-5.396-2.027c0,0,4.125-6.889,5.511-7.018L583.725,366.406z"/>
		<path fill="#3D1F34" d="M583.692,399.48l-9.722-2.209c0,0,8.451-6.708,9.836-6.837L583.692,399.48z"/>
		<path fill="#3D1F34" d="M586.062,156.418c0,0-2.703-1.125-5.715-2.045c-3.013-0.92,5.086,11.75,5.624,9.005L586.062,156.418z"/>
		<path fill="#3D1F34" d="M571.465,337.434c0.158,0.01,9.894,0.506,11.201-2.413c1.307-2.92-11.15-0.83-11.105-3.612&#10;&#9;&#9;&#9;L571.465,337.434z"/>
		<path fill="#3D1F34" d="M575.9,78.302c0.148,0.009,9.283,0.41,10.521-3.183s-10.46-0.779-10.408-4.175L575.9,78.302z"/>
		<path fill="#3D1F34" d="M586.452,111.189c0,0-2.31-0.867-4.232-0.315c-1.925,0.553-3.547,1.215-3.547,1.215l2.102,1.287&#10;&#9;&#9;&#9;c0,0-2.03,0.979-2.131,0.972c-0.101-0.008,1.507,0.459,2.007,0.758c0.501,0.298,0.587,1.435,0.587,1.435l5.144,0.035&#10;&#9;&#9;&#9;L586.452,111.189z"/>
		<path fill="#3D1F34" d="M582.788,460.142l-6.501,0.484l-6.501-0.559l1.679-26.644&#10;&#9;&#9;&#9;C571.465,433.424,578.682,429.231,582.788,460.142z"/>
	</g>
	<path opacity="0.8" fill="#592E4A" d="M554.05,25.711c7.167,45.232,15.433,82.5,21.333,98.154v7.926&#10;&#9;&#9;C561.665,111.428,548.098,0,548.098,0h1.785C551.706,8.132,552.633,16.771,554.05,25.711z"/>
</g>
<g>
	<path fill="#592E4A" d="M328.874,24.654l7.138,447.378l-13.263-0.026L317.974,9.927C322.163,10.598,326.101,14.78,328.874,24.654z"/>
	<path fill="#3D1F34" d="M328.47-0.011l0.444,27.784c-2.741-7.489-6.665-10.612-10.85-11.05l-0.16-16.733H328.47z"/>
	<path fill="#3D1F34" d="M331.512,189.27c0,0-5.66-0.982-6.814,0.511c-1.154,1.494,6.868,6.503,6.949,9.776&#10;&#9;&#9;C331.727,202.829,331.512,189.27,331.512,189.27z"/>
	<path fill="#3D1F34" d="M320.399,244.578c0,0,5.734,4.39,7.098,4.29c1.365-0.104-3.708,2.236-7.047,0.615L320.399,244.578z"/>
	<path fill="#3D1F34" d="M318.279,38.263c0,0,5.912,4.392,7.276,4.289c1.364-0.102-3.875,2.163-7.212,0.542L318.279,38.263z"/>
	<path d="M 332.62799072265625 274.1759948730469 L 326.3039855957031 275.4079895019531 L 324.59100341796875 276.85400390625 L 327.22698974609375 278.8219909667969 L 323.9469909667969 280.0140075683594 L 326.4219970703125 281.6289978027344 L 323.9840087890625 282.8529968261719 L 323.9840087890625 282.8529968261719 L 332.81500244140625 284.572998046875 Z" fill="#3D1F34"/>
	<path fill="#3D1F34" d="M321.77,369.325h9.895c0,0-8.624-8.987-10.009-9.117L321.77,369.325z"/>
	<path fill="#3D1F34" d="M322.103,412.905h9.895c0,0-8.624-8.987-10.009-9.116L322.103,412.905z"/>
	<path fill="#3D1F34" d="M319.525,157.658c0,0,2.704-1.133,5.715-2.062c3.013-0.927-5.093,11.833-5.631,9.065L319.525,157.658z"/>
	<path fill="#3D1F34" d="M333.871,340.05c-0.159,0.01-9.735,0.501-11.042-2.442c-1.307-2.943,11.025-0.837,10.98-3.641&#10;&#9;&#9;L333.871,340.05z"/>
	<path fill="#3D1F34" d="M329.704,78.917c-0.149,0.009-9.284,0.413-10.521-3.208c-1.237-3.622,10.46-0.785,10.408-4.209&#10;&#9;&#9;L329.704,78.917z"/>
	<path fill="#3D1F34" d="M319.042,112.067c0,0,2.309-0.874,4.232-0.318c1.924,0.557,3.547,1.225,3.547,1.225l-2.102,1.297&#10;&#9;&#9;c0,0,2.03,0.986,2.131,0.979c0.101-0.008-1.506,0.463-2.007,0.764c-0.501,0.3-0.587,1.446-0.587,1.446l-5.144,0.035&#10;&#9;&#9;L319.042,112.067z"/>
	<path fill="#3D1F34" d="M322.749,472.006l13.263,0.026l-0.633-39.465C335.379,432.567,324.584,447.459,322.749,472.006z"/>
	<g>
		<path fill="#3D1F34" d="M321.857,65.425v9.681c0,0-3.338-6.713-7.669-14.478c1.01-0.946,1.985-2.083,2.851-3.205&#10;&#9;&#9;&#9;C319.865,61.974,321.857,65.425,321.857,65.425z"/>
		<path fill="#592E4A" d="M291.375,0c0,0,1.686,27.293,12.17,38.403c4.063,4.305,9.58,12.719,13.494,19.021&#10;&#9;&#9;&#9;c-0.865,1.122-1.841,2.259-2.851,3.205c-4.818-8.638-10.866-18.577-14.923-22.028c-7.703-6.554-9.817-38.6-9.817-38.6H291.375z"/>
	</g>
</g>
<g opacity="0.8">
	<path fill="#2E2233" d="M20.542,21.131l7.138,399.693l-12.457,0.592L9.643,7.732C13.832,8.344,17.77,12.148,20.542,21.131z"/>
	<path fill="#1B1327" d="M20.138,0l0.444,25.278c-2.741-6.813-6.665-9.654-10.85-10.054L9.572,0H20.138z"/>
	<path fill="#1B1327" d="M23.18,170.898c0,0-5.66-0.894-6.814,0.465c-1.154,1.358,6.868,5.916,6.949,8.894&#10;&#9;&#9;C23.395,183.234,23.18,170.898,23.18,170.898z"/>
	<path fill="#1B1327" d="M12.589,221.217c0,0,5.734,3.995,7.098,3.903c1.365-0.094-3.708,2.035-7.047,0.56L12.589,221.217z"/>
	<path fill="#1B1327" d="M9.948,33.513c0,0,5.912,3.996,7.276,3.902c1.364-0.093-3.875,1.967-7.212,0.492L9.948,33.513z"/>
	<path d="M 24.29599952697754 248.14599609375 L 17.972999572753906 249.26699829101562 L 16.260000228881836 250.58299255371094 L 18.895000457763672 252.3730010986328 L 15.616000175476074 253.45700073242188 L 18.09000015258789 254.927001953125 L 15.652999877929688 256.0400085449219 L 15.652999877929688 256.0400085449219 L 24.483999252319336 257.6050109863281 Z" fill="#1B1327"/>
	<path fill="#1B1327" d="M13.771,334.471h9.895c0,0-8.624-8.177-10.009-8.294L13.771,334.471z"/>
	<path fill="#1B1327" d="M15.08,374.362h9.895c0,0-8.624-8.178-10.009-8.296L15.08,374.362z"/>
	<path fill="#1B1327" d="M11.193,142.138c0,0,2.704-1.031,5.715-1.875c3.013-0.844-5.093,10.765-5.631,8.247L11.193,142.138z"/>
	<path fill="#1B1327" d="M25.54,308.078c-0.159,0.008-9.735,0.456-11.042-2.223c-1.307-2.677,11.025-0.761,10.98-3.312&#10;&#9;&#9;L25.54,308.078z"/>
	<path fill="#1B1327" d="M21.372,70.5c-0.149,0.008-9.284,0.375-10.521-2.919c-1.237-3.295,10.46-0.714,10.408-3.829L21.372,70.5z"/>
	<path fill="#1B1327" d="M10.71,100.66c0,0,2.309-0.795,4.232-0.29c1.924,0.507,3.547,1.114,3.547,1.114l-2.102,1.18&#10;&#9;&#9;c0,0,2.03,0.897,2.131,0.891c0.101-0.007-1.506,0.421-2.007,0.695c-0.501,0.273-0.587,1.315-0.587,1.315l-5.144,0.032L10.71,100.66&#10;&#9;&#9;z"/>
	<path fill="#1B1327" d="M15.223,421.416l12.457-0.592l-0.633-28.574C27.047,392.25,17.058,399.084,15.223,421.416z"/>
	<g>
		<path fill="#1B1327" d="M10.403,53.43l-0.143,8.696c0,0-0.072-1.2-4.403-8.264c1.01-0.861,1.985-1.896,2.851-2.916&#10;&#9;&#9;&#9;C10.403,53.43,6.448,47.635,10.403,53.43z"/>
		<path fill="#2E2233" d="M0,38.581v5.752c2.191,3.161,3.859,6.269,5.857,9.528c1.01-0.861,1.985-1.896,2.851-2.916&#10;&#9;&#9;&#9;C6.156,47.208,3.067,42.384,0,38.581z"/>
	</g>
</g>
<g>
	<path fill="#2B1E2F" d="M55.25,441.194c0,0,0.308-71.826-0.808-77.539c-1.116-5.714,3.347-37.546,3.905-47.34&#10;&#9;&#9;c0.558-9.795,1.116-40.811,3.347-48.156c2.231-7.346,0-71.01,0-71.01L69.562,0l-7.686,0.03&#10;&#9;&#9;c-7.842,215.517-7.794,215.392-7.611,233.849c0.178,17.957-4.842,79.988-7.632,96.312c-2.789,16.324-1.24,111.004-1.24,111.004&#10;&#9;&#9;H55.25z"/>
	<path fill="#1B1327" d="M60.975,35.08c0,0,5.582,4.823,6.946,4.717c0,0-4.19,3.505-7.528,1.833L60.975,35.08z"/>
	<path fill="#1B1327" d="M65.522,100.407c-0.149,0.009-7.084,0.115-7.104-3.82c-0.016-3.262,7.58-0.409,7.527-3.942L65.522,100.407z&#10;&#9;&#9;"/>
	<path fill="#1B1327" d="M57.233,136.375c0,0,2.393-0.276,4.321,0.149c1.929,0.425,2.651,0.869,2.651,0.869l-1.104,0.692&#10;&#9;&#9;c0,0,1.224,0.744,1.123,0.748s-0.485,0.313-0.982,0.529c-0.498,0.215-0.573,1.053-0.573,1.053h-5.737L57.233,136.375z"/>
	<g>
		<path fill="#2B1E2F" d="M119.826-0.095c0,0-3.022,34.654-21.539,48.576C91.11,53.875,73.43,67.354,66.518,75.25&#10;&#9;&#9;&#9;c0,0-2.1,6.812-0.316,7.998C74.711,72.424,95.335,53.825,102.5,49.5c13.604-8.213,20.729-49.595,20.729-49.595H119.826z"/>
	</g>
	<path fill="#1B1327" d="M61.875,0.03L69.562,0L69.269,5.75c0,0-7.82,6.109-8.06,12.744S61.875,0.03,61.875,0.03z"/>
	<path fill="#2B1E2F" d="M42,24.667C39.523,18.477,39.312,6.875,38.562,0h-1.396c0,0,1.397,20.546,2.5,25&#10;&#9;&#9;c0.753,3.04,8.305,20.073,13.885,32.47c-0.117-2.173-0.251-4.351-0.467-6.557C48.812,41.964,46.528,35.981,42,24.667z"/>
	<path fill="#1B1327" d="M59.573,63.864c-2.683-5.182-4.749-9.311-6.487-12.951c0.216,2.206,0.35,4.384,0.467,6.557&#10;&#9;&#9;c3.37,7.485,6.021,13.28,6.021,13.28V63.864z"/>
	<path fill="#1B1327" d="M75.901,66.443c0.224-0.25,1.039,2.512,3.293,2.843l-5.511-1.054&#10;&#9;&#9;C75.283,66.443,75.901,66.443,75.901,66.443z"/>
	<path fill="#1B1327" d="M87.023,57.355c0,0-2.068,0.562,3.438,1.564c0,0-2.562-2.443-1.974-3.018S87.023,57.355,87.023,57.355z"/>
	<path fill="#1B1327" d="M115.712,19.931c0,0,0.705,0,3.122-0.931l-2.075-2.732L115.712,19.931z"/>
	<path fill="#1B1327" d="M106.999,39.053c0,0,1.384,2.756,3.584,1.113c0.616-0.46-2.546-2.677-2.23-3.22&#10;&#9;&#9;S106.999,39.053,106.999,39.053z"/>
</g>
<g>
	<path fill="#3D2437" d="M463.731,440.994c-5.605-129.516-5.283-126.638-5.761-137.226c-0.443-9.832-1.163-68.721-1.65-77.739&#10;&#9;&#9;c-0.488-9.018-6.056-74.297-5.229-83.653c0.83-9.404-2.171-31.995-2.703-40.197c-0.532-8.203-5.305-28.077-2.526-43.458&#10;&#9;&#9;c2.778-15.38-1.3-29.125-1.861-37.019C443.333,12.333,442.667,0,442.667,0H458.5l19.266,438.472L463.731,440.994z"/>
	<path fill="#1B1327" d="M455.062,205.011c0,0,8.152-0.42,10.522,1.073c2.37,1.493-9.61,6.919-9.688,10.399&#10;&#9;&#9;S455.062,205.011,455.062,205.011z"/>
	<path fill="#1B1327" d="M468.972,240.333c0,0-7.022,5.947-9.781,5.947c-2.758,0,3.082,1.172,9.781-0.814V240.333z"/>
	<path fill="#1B1327" d="M460.263,41.286c0,0-9.063,5.132-11.822,5.132s5.123,1.987,11.822,0V41.286z"/>
	<path d="M 457.5690002441406 280.6709899902344 L 466.989990234375 281.9410095214844 L 469.5639953613281 284.1499938964844 L 465.68701171875 287.77899169921875 L 470.5830078125 289.36700439453125 L 466.93798828125 292.385009765625 L 470.5830078125 294.1300048828125 L 470.5830078125 294.1300048828125 L 458.04400634765625 297.9549865722656 Z" fill="#1B1327"/>
	<path fill="#1B1327" d="M474.19,365.982l-12.94-2.482c-1.756-0.999,12.601-7.205,12.601-7.205L474.19,365.982z"/>
	<path fill="#1B1327" d="M466.389,174.141c0,0-4.82-0.989-10.185-1.734c-5.364-0.745,9.294,12.169,10.185,9.189V174.141z"/>
	<path fill="#1B1327" d="M451.459,155.924c0.173-0.002,10.791-0.246,12.174-3.474c1.382-3.229-12.165,0-12.156-2.98L451.459,155.924&#10;&#9;&#9;z"/>
	<path fill="#1B1327" d="M445.368,80.021c0.141-0.003,8.716-0.332,9.833-4.685s-9.824-0.001-9.818-4.019L445.368,80.021z"/>
	<path fill="#1B1327" d="M463.741,111.527c0,0-4.062-1.087-7.419,0c-3.355,1.087-6.181,2.311-6.181,2.311l3.709,1.767&#10;&#9;&#9;c0,0-3.532,1.767-3.709,1.767s2.649,0.543,3.532,0.952c0.883,0.407,1.06,2.174,1.06,2.174l9.008-0.544V111.527z"/>
	<path fill="#1B1327" d="M442.667,0H458.5l1.433,33.242c0,0-12.183-16.088-15.933-11.54L442.667,0z"/>
	<g>
		<path fill="#1B1327" d="M461.474,67.678v9.989c0,0,4.788-6.927,11.001-14.938c-1.448-0.976-2.848-2.15-4.089-3.307&#10;&#9;&#9;&#9;C464.332,64.117,461.474,67.678,461.474,67.678z"/>
		<path fill="#3D2437" d="M505.219,0c0,0-2.437,28.333-17.477,39.797C481.913,44.239,474,52.92,468.386,59.422&#10;&#9;&#9;&#9;c1.241,1.157,2.641,2.331,4.089,3.307c6.912-8.913,15.588-19.168,21.407-22.729c11.05-6.762,14.119-40,14.119-40H505.219z"/>
	</g>
	<path fill="#1B1327" d="M463.731,440.994l14.034-2.522l-1.361-30.979c0,0-3.404,12.995-7.404,16.751s-5.884,2.512-5.884,2.512&#10;&#9;&#9;L463.731,440.994z"/>
</g>
<path fill="#1B1327" d="M62.227,216.223c0,0-4.869-1.213-6.023,0.328c-1.154,1.541,6.148,7.521,6.229,10.897&#10;&#9;C62.512,230.824,62.227,216.223,62.227,216.223z"/>
<path fill="#1B1327" d="M52.464,270.621c0,0,5.734,4.529,7.098,4.426c1.365-0.107-4.126,2.368-7.465,0.696L52.464,270.621z"/>
<path d="M 58.858001708984375 302.66400146484375 L 53.077999114990234 303.2950134277344 L 51.375999450683594 304.42401123046875 L 54.0260009765625 305.9960021972656 L 50.75699996948242 306.9119873046875 L 53.24300003051758 308.2049865722656 L 50.814998626708984 309.1520080566406 L 50.814998626708984 309.1520080566406 L 58.62200164794922 310.16400146484375 Z" fill="#1B1327"/>
<path fill="#1B1327" d="M44.963,398.084l5.397-2.109c0,0-3.887-6.984-5.272-7.117L44.963,398.084z"/>
<path fill="#1B1327" d="M55.511,181.073c0,0,2.806-3.659,5.569-2.125c1.311,0.728-5.253,11.542-5.791,8.686L55.511,181.073z"/>
<path fill="#1B1327" d="M54.847,370.002c-0.159,0.01-7.727,0.848-9.034-2.189c-1.307-3.037,8.703-1.664,8.658-4.557L54.847,370.002z&#10;&#9;"/>
<path fill="#1B1327" d="M45.099,416.626c0,0,7.087,12.999,10.182,13.124l-0.031,11.444h-9.857L45.099,416.626z"/>
<g>
	<path fill="#2E2233" d="M625.944,450.549c0,0-1.115-73.406,0-79.244c1.116-5.84-3.347-38.373-3.904-48.381&#10;&#9;&#9;c-0.558-10.012-1.115-41.709-3.347-49.215c-2.231-7.508,0-72.572,0-72.572L611.084,0h7.439c0,0,7.778,220.322,7.6,238.674&#10;&#9;&#9;s4.843,81.746,7.632,98.43s0,113.445,0,113.445H625.944z"/>
	<path fill="#1B1327" d="M618.523,0l1.01,28.891c-2.276-7.882-4.259-11.046-7.79-11.488L611.084,0H618.523z"/>
	<path fill="#1B1327" d="M625.591,222.088c0,0-4.868-1.24-6.023,0.335c-1.153,1.575,6.148,7.686,6.229,11.137&#10;&#9;&#9;C625.877,237.01,625.591,222.088,625.591,222.088z"/>
	<path fill="#1B1327" d="M619.316,276.66c0,0,6.556,4.629,7.92,4.523c1.364-0.109-3.88,3.014-7.219,1.305L619.316,276.66z"/>
	<path fill="#1B1327" d="M612.45,36.097c0,0,5.162,4.768,6.527,4.659c0,0-2.941,3.63-6.279,1.921L612.45,36.097z"/>
	<path d="M 630.635986328125 309.7560119628906 L 625.35400390625 310.0530090332031 L 623.6530151367188 311.2070007324219 L 626.302978515625 312.81201171875 L 623.0330200195312 313.75 L 625.52001953125 315.07000732421875 L 623.0919799804688 316.03900146484375 L 623.0919799804688 316.03900146484375 L 631.35400390625 317.4200134277344 Z" fill="#1B1327"/>
	<path fill="#1B1327" d="M625.929,416.355l5.397-2.156c0,0-3.887-7.139-5.272-7.273L625.929,416.355z"/>
	<path fill="#1B1327" d="M618.011,183.104c0,0,3.42-3.659,6.184-2.091c1.311,0.744-5.393,11.682-5.931,8.764L618.011,183.104z"/>
	<path fill="#1B1327" d="M634.8,378.227c-0.159,0.01-7.728,0.865-9.035-2.238c-1.307-3.104,8.703-1.701,8.658-4.656L634.8,378.227z"/>
	<path fill="#1B1327" d="M621.974,100.094c-0.148,0.009-6.665-0.065-6.684-4.087c-0.016-3.334,6.49-0.085,6.438-3.695&#10;&#9;&#9;L621.974,100.094z"/>
	<path fill="#1B1327" d="M616.271,137.112c0,0,1.817-0.549,3.745-0.114c1.929,0.434,2.773,0.942,2.773,0.942l-0.688,0.575&#10;&#9;&#9;c0,0,0.456,0.553,0.93,0.735l-1.055,0.703c-0.498,0.22,0.223,1.179,0.223,1.179h-5.736L616.271,137.112z"/>
	<path fill="#1B1327" d="M625.944,450.549h8.672l-0.182-28.656c0,0-2.239,14.422-4.406,15.783c-2.166,1.363-4.198,4.502-4.198,4.502&#10;&#9;&#9;L625.944,450.549z"/>
	<path fill="#2E2233" d="M620.364,56.372c0,0,8.912-11.058,15.961-26.826c4.377-9.793,5.697-19.684,7.722-29.546h1.626&#10;&#9;&#9;c0,0-4.131,22.484-7.627,31.439c-4.15,10.626-17.834,29.65-17.834,29.65L620.364,56.372z"/>
</g>
<g opacity="0.4">
	<path fill="#2E2233" d="M413.195,455.129c0,0-1.001-64.898,0.114-70.945c1.116-6.051-3.347-39.758-3.904-50.127&#10;&#9;&#9;c-0.558-10.373-1.115-43.213-3.347-50.99c-2.231-7.779,0-75.19,0-75.19L398.437-0.876h7.439c0,0,7.791,228.63,7.612,247.644&#10;&#9;&#9;c-0.179,19.014,4.843,84.693,7.632,101.98c2.789,17.285,0.861,103.323,0.861,103.323L413.195,455.129z"/>
	<path fill="#1B1327" d="M405.904-0.042l0.994,29.458c-2.276-8.167-4.259-11.444-7.79-11.902L398.437,0L405.904-0.042z"/>
	<path fill="#1B1327" d="M412.956,229.583c0,0-4.868-1.285-6.023,0.347c-1.153,1.631,6.148,7.963,6.229,11.538&#10;&#9;&#9;C413.242,245.043,412.956,229.583,412.956,229.583z"/>
	<path fill="#1B1327" d="M406.682,286.123c0,0,6.556,4.797,7.92,4.688c1.364-0.113-3.88,3.123-7.219,1.352L406.682,286.123z"/>
	<path fill="#1B1327" d="M399.815,36.882c0,0,5.162,4.939,6.527,4.827c0,0-2.941,3.761-6.279,1.99L399.815,36.882z"/>
	<path d="M 418.0010070800781 320.41400146484375 L 412.7200012207031 320.72100830078125 L 411.0190124511719 321.9179992675781 L 413.6679992675781 323.5799865722656 L 410.39801025390625 324.5530090332031 L 412.885009765625 325.9200134277344 L 410.4570007324219 326.92401123046875 L 410.4570007324219 326.92401123046875 L 418.7200012207031 328.3550109863281 Z" fill="#1B1327"/>
	<path fill="#1B1327" d="M413.294,430.857l5.397-2.232c0,0-3.887-7.396-5.272-7.535L413.294,430.857z"/>
	<path fill="#1B1327" d="M405.376,189.193c0,0,3.42-3.791,6.184-2.167c1.311,0.771-5.393,12.104-5.931,9.08L405.376,189.193z"/>
	<path fill="#1B1327" d="M422.165,391.354c-0.159,0.012-7.728,0.896-9.035-2.318c-1.307-3.215,8.703-1.762,8.658-4.824&#10;&#9;&#9;L422.165,391.354z"/>
	<path fill="#1B1327" d="M409.339,103.188c-0.148,0.009-6.665-0.067-6.684-4.234c-0.016-3.454,6.49-0.088,6.438-3.829&#10;&#9;&#9;L409.339,103.188z"/>
	<path fill="#1B1327" d="M403.637,141.542c0,0,1.817-0.568,3.745-0.119c1.929,0.45,2.773,0.977,2.773,0.977l-0.688,0.596&#10;&#9;&#9;c0,0,0.456,0.573,0.93,0.761l-1.055,0.729c-0.498,0.228,0.223,1.222,0.223,1.222h-5.736L403.637,141.542z"/>
	<path fill="#1B1327" d="M413.294,454.652l8.688-2.581l-0.182-25.922c0,0-2.239,14.941-4.406,16.354&#10;&#9;&#9;c-2.166,1.412-4.198,4.662-4.198,4.662L413.294,454.652z"/>
	<path fill="#2E2233" d="M407.729,57.889c0,0,8.912-11.457,15.961-27.793c4.377-10.146,5.597-19.877,7.621-30.095h1.636&#10;&#9;&#9;c-4.167,23.497-3.984,22.63-7.536,32.057c-4.15,11.009-17.834,30.72-17.834,30.72L407.729,57.889z"/>
</g>
<g>
	<path fill="#2E2233" d="M663.972,38.851l-2.418,459.813h30.735l-2.502-475.865C679.707,23.817,670.346,28.44,663.972,38.851z"/>
	<path fill="#1B1327" d="M664.17,0l-0.198,43.238c6.374-11.959,15.735-17.272,25.815-18.441L689.673,0H664.17z"/>
	<path fill="#1B1327" d="M663.32,203.964c0,0,11.405-1.494,13.775,0c2.37,1.493-13.698,7.451-13.775,10.93&#10;&#9;&#9;S663.32,203.964,663.32,203.964z"/>
	<path fill="#1B1327" d="M690.846,239.287c0,0-11.823,5.132-14.582,5.132c-2.758,0,7.883,1.987,14.582,0V239.287z"/>
	<path fill="#1B1327" d="M689.445,39.572c0,0-10.822,5.132-13.581,5.132s6.882,1.987,13.581,0V39.572z"/>
	<path d="M 662.7890014648438 278.4570007324219 L 675.593994140625 279.885009765625 L 679.093017578125 282.3689880371094 L 673.8209838867188 286.4490051269531 L 680.4769897460938 288.2340087890625 L 675.52099609375 291.625 L 680.4769897460938 293.5880126953125 L 680.4769897460938 293.5880126953125 L 662.6859741210938 298.07598876953125 Z" fill="#1B1327"/>
	<path fill="#1B1327" d="M681.639,500.65c-2.818,0-20.323,0-20.323,0l0.513-54.203c0,0,5.111-8.91,10.776-14.145&#10;&#9;&#9;c4.173-3.854,9.184-15.896,12.399-21.637l-3.392,42.303L681.639,500.65z"/>
	<path fill="#1B1327" d="M692.57,498.762l-11.058-0.062c-1.35-85.318,2.46-88.311,3.206-91.27&#10;&#9;&#9;c3.11-12.332,6.883-20.836,6.883-20.836L692.57,498.762z"/>
	<path fill="#1B1327" d="M691.521,364.936l-20.128-1.738c-1.756-0.998,20.111-7.949,20.111-7.949L691.521,364.936z"/>
	<path fill="#1B1327" d="M690.635,173.094c0,0-5.489-0.989-11.599-1.734c-6.108-0.745,10.585,12.169,11.599,9.189V173.094z"/>
	<path fill="#1B1327" d="M663.658,154.877c0.321-0.002,19.997-0.246,22.559-3.474s-22.541,0-22.525-2.98L663.658,154.877z"/>
	<path fill="#1B1327" d="M664.63,78.975c0.321-0.004,19.997-0.431,22.56-6.081c2.562-5.649-22.541-0.001-22.525-5.216L664.63,78.975&#10;&#9;&#9;z"/>
	<path fill="#1B1327" d="M690.258,107.695c0,0-6.129-1.425-11.192,0c-5.062,1.425-9.326,3.028-9.326,3.028l5.596,2.315&#10;&#9;&#9;c0,0-5.329,2.316-5.596,2.316c-0.266,0,3.998,0.712,5.33,1.247c1.332,0.534,1.599,2.85,1.599,2.85l13.59-0.713V107.695z"/>
	<path fill="#1B1327" d="M664.63,79.923c0,0-3.029-4.847-6.923-12.732c-2.703-0.032-5.364-0.187-7.825-0.943&#10;&#9;&#9;c6.287,12.785,14.09,24.7,14.09,24.7L664.63,79.923z"/>
	<path fill="#2E2233" d="M641.044,0h-4.528c0,0-1.706,24.143,7.487,52.282c1.438,4.404,3.557,9.244,5.879,13.966&#10;&#9;&#9;c2.461,0.756,5.122,0.911,7.825,0.943C650.143,51.875,639.312,25.085,641.044,0z"/>
</g>
<path fill="#1B1327" d="M340.37,207.639c0,0,7,4.938,10.334,6.633l4.999-14.462c-4.166,0.823-6.332,10.99-6.332,10.99&#10;&#9;S342.792,207.527,340.37,207.639z"/>
<path fill="#1B1327" d="M247.013,95.432c0,0,4.922,2.532,7.268,3.401l3.516-7.415c-2.93,0.422-4.454,5.635-4.454,5.635&#10;&#9;S248.717,95.375,247.013,95.432z"/>
<path fill="#1B1327" d="M342.645,182.35c0,0,4.922,2.532,7.268,3.401l3.516-7.415c-2.93,0.422-4.454,5.635-4.454,5.635&#10;&#9;S344.349,182.292,342.645,182.35z"/>
<path fill="#1B1327" d="M297.839,138.657c0,0,4.922,2.531,7.268,3.4l3.516-7.415c-2.93,0.422-4.453,5.635-4.453,5.635&#10;&#9;S299.542,138.6,297.839,138.657z"/>
<path fill="#1B1327" d="M234.382,478.331c0,0-5.392-23.228-23.228-32.353c0,0,17.213,3.525,26.545,32.353"/>
<path fill="#1B1327" d="M259.961,454.841c0,0,6.962,8.454,5.47,20.638h2.984C268.415,475.479,270.653,464.041,259.961,454.841z"/>
<path fill="#1B1327" d="M315.06,457.207c0,0,6.41,5.951,7.937,16.431l1.997-0.492C324.993,473.146,324.121,463.17,315.06,457.207z"/>
<path fill="#1B1327" d="M341.07,459.142c0,0-5.197,5.126-6.311,14.287l-1.651-0.459C333.108,472.97,333.689,464.241,341.07,459.142z&#10;&#9;"/>
<path fill="#1B1327" d="M131.965,452.377c0,0,2.131,13.887-7.504,26.34l3.29,1.957C127.75,480.674,137.719,469.532,131.965,452.377z&#10;&#9;"/>
<path fill="#1B1327" d="M148.86,443.486c0,0,9.516,3.323,13.111,15.68l1.695-0.083C163.667,459.083,162.965,447.934,148.86,443.486z&#10;&#9;"/>
<path fill="#2B1E2F" d="M136.761,429.093c0,0-7.735,3.623-10.764,12.704l-2.102-0.998&#10;&#9;C123.895,440.799,126.149,431.993,136.761,429.093z"/>
<path fill="#1B1327" d="M79.119,453.559c0,0,10.598,9.224,11.287,24.954l3.775-0.631C94.181,477.882,94.593,462.938,79.119,453.559z&#10;&#9;"/>
<path fill="#1B1327" d="M39.189,428.01c0,0,5.514,4.799,5.873,12.984l1.964-0.328C47.026,440.666,47.241,432.89,39.189,428.01z"/>
<path fill="#2B1E2F" d="M10.07,411.17c0,0,4.487,3.905,4.779,10.565l1.599-0.267C16.448,421.469,16.622,415.141,10.07,411.17z"/>
<path fill="#1B1327" d="M617.583,459.826c0,0,14.52,10.225,17.424,29.915l4.665-1.283&#10;&#9;C639.672,488.458,638.254,469.613,617.583,459.826z"/>
<path fill="#1B1327" d="M620.045,440.437c0,0,5.058,3.562,6.068,10.419l1.625-0.446&#10;&#9;C627.738,450.409,627.244,443.846,620.045,440.437z"/>
<path fill="#1B1327" d="M704.86,459.701c0,0-9.614,8.876-10.165,27.919l-3.444-1.619C691.251,486.001,690.801,467.67,704.86,459.701&#10;&#9;z"/>
<path fill="#1B1327" d="M71.117,449.116c0,0-10.312,8.408-14.606,31.435l-2.735-2.824C53.775,477.727,57.04,455.317,71.117,449.116z&#10;&#9;"/>
<path fill="#1B1327" d="M34.21,451.207c0,0-10.312,8.408-14.606,31.435l-2.735-2.824C16.869,479.817,20.133,457.408,34.21,451.207z"/>
<path fill="#1B1327" d="M92.88,475.203h1.91c0,0-0.057-13.129,13.873-17.491c3.246-1.017-5.73,0.904-9.55,4.523&#10;&#9;C93.846,467.226,92.78,473.695,92.88,475.203z"/>
<path fill="#1B1327" d="M169.699,459.528h1.284c0,0-0.038-8.823,9.325-11.757c2.181-0.683-3.852,0.607-6.419,3.041&#10;&#9;C170.348,454.167,169.631,458.516,169.699,459.528z"/>
<path fill="#1B1327" d="M173.392,459.482h1.544c0,0-0.046-10.618,11.22-14.146c2.625-0.822-4.635,0.731-7.724,3.658&#10;&#9;C174.172,453.03,173.311,458.263,173.392,459.482z"/>
<path fill="#1B1327" d="M54.743,475.203h-1.642c0,0,0.049-10.058-11.928-13.399c-2.791-0.779,4.927,0.692,8.211,3.465&#10;&#9;C53.913,469.092,54.83,474.048,54.743,475.203z"/>
<path fill="#1B1327" d="M19.964,477.231h-1.642c0,0,0.049-10.058-11.928-13.399c-2.791-0.779,4.927,0.692,8.211,3.465&#10;&#9;C19.134,471.12,20.051,476.076,19.964,477.231z"/>
<path fill="#1B1327" d="M54.122,441.111l0.978,0.053c0,0,0.391-7.641,7.663-9.785c1.695-0.5-2.963,0.364-5.035,2.361&#10;&#9;C54.871,436.496,54.118,440.229,54.122,441.111z"/>
<path fill="#2B1E2F" d="M26.79,421.046l1.074,0.058c0,0,0.429-8.396,8.421-10.753c1.862-0.55-3.256,0.4-5.533,2.596&#10;&#9;C27.613,415.974,26.785,420.076,26.79,421.046z"/>
<path fill="#2B1E2F" d="M103.399,419.222c0,0,8.384,7.298,8.93,19.743l2.987-0.499C115.315,438.466,115.642,426.643,103.399,419.222&#10;&#9;z"/>
<path fill="#2B1E2F" d="M88.629,450.882h1.66c0,0-0.049-11.411,12.058-15.202c2.821-0.884-4.981,0.785-8.301,3.932&#10;&#9;C89.468,443.948,88.542,449.571,88.629,450.882z"/>
<path fill="#1B1327" d="M463.435,493.518h-3.449c0,0,0.104-23.705-25.048-31.583c-5.861-1.836,10.346,1.634,17.243,8.168&#10;&#9;C461.691,479.113,463.616,490.794,463.435,493.518z"/>
<path fill="#1B1327" d="M459.003,493.039h2.686c0,0-0.08-18.461,19.507-24.595c4.564-1.43-8.058,1.272-13.429,6.36&#10;&#9;C460.36,481.822,458.862,490.919,459.003,493.039z"/>
<path fill="#1B1327" d="M635.002,487.271h2.367c0,0-0.07-16.273,17.196-21.681c4.023-1.261-7.104,1.121-11.838,5.606&#10;&#9;C636.198,477.384,634.878,485.402,635.002,487.271z"/>
<path fill="#1B1327" d="M633.395,449.852h0.913c0,0-0.026-6.282,6.64-8.37c1.553-0.486-2.743,0.434-4.57,2.165&#10;&#9;C633.856,446.035,633.347,449.131,633.395,449.852z"/>
<path fill="#1B1327" d="M236.349,487.065h-3.379c0,0,0.101-23.226-24.541-30.942c-5.742-1.799,10.137,1.601,16.895,8.002&#10;&#9;C234.641,472.953,236.527,484.397,236.349,487.065z"/>
<path fill="#1B1327" d="M509.479,496.08l2.198-1.123c0,0,3.024-17.515,12.332-23.603C524.01,471.354,512.365,477.21,509.479,496.08z&#10;&#9;"/>
<path fill="#1B1327" d="M475.343,438.844l1.791-0.915c0,0,2.632-13.946,10.23-18.88&#10;&#9;C487.364,419.049,477.876,423.822,475.343,438.844z"/>
<path fill="#1B1327" d="M509.111,496.606l-1.66-0.848c0,0-2.283-13.225-9.312-17.822&#10;&#9;C498.14,477.937,506.933,482.358,509.111,496.606z"/>
<path fill="#1B1327" d="M509.111,496.955l-1.66-0.848c0,0-2.283-13.225-9.312-17.822&#10;&#9;C498.14,478.285,506.933,482.707,509.111,496.955z"/>
<path fill="#1B1327" d="M463.831,441.464l-1.464-0.747c0,0-2.013-11.66-8.21-15.714C454.157,425.003,461.91,428.902,463.831,441.464&#10;&#9;z"/>
</svg>