<?xml version="1.0" encoding="utf-8"?>
<svg id="master-artboard" viewBox="0 0 1400 1050" data-name="Layer 1" xmlns="http://www.w3.org/2000/svg" width="1400px" height="1050px" xmlns:xlink="http://www.w3.org/1999/xlink"><defs><clipPath id="clip-path"><path d="M 0 -4.53 H 1400 V 1051.819975 H 0 V -4.53 Z" id="_Rectangle_" data-name="&lt;Rectangle&gt;" class="cls-1" style="fill: none;"/></clipPath><linearGradient id="linear-gradient" x1="700" y1="4.03" x2="700" y2="581.14" gradientUnits="userSpaceOnUse"><stop offset="0" stop-color="#88c5cc"/><stop offset="0.53" stop-color="#fbe0c3"/><stop offset="1" stop-color="#fbe1b0"/></linearGradient><linearGradient id="linear-gradient-2" x1="1287" y1="361.93" x2="1287" y2="495.98" gradientUnits="userSpaceOnUse"><stop offset="0" stop-color="#f39f8a"/><stop offset="1" stop-color="#f5dd7c"/></linearGradient><linearGradient id="linear-gradient-3" x1="351.99" y1="289.02" x2="351.99" y2="441.75" xlink:href="#linear-gradient-2"/><linearGradient id="linear-gradient-4" x1="799.67" y1="272.56" x2="799.67" y2="619.63" gradientUnits="userSpaceOnUse"><stop offset="0" stop-color="#f9b296"/><stop offset="1" stop-color="#f5dd7c"/></linearGradient><linearGradient id="linear-gradient-5" x1="843.07" y1="488.43" x2="843.07" y2="632.7" gradientTransform="matrix(1, -0.02, 0, 1, 1.32, 10.77)" xlink:href="#linear-gradient-2"/><linearGradient id="linear-gradient-6" x1="306.42" y1="451.3" x2="306.42" y2="599.93" gradientUnits="userSpaceOnUse"><stop offset="0" stop-color="#d66372"/><stop offset="1" stop-color="#fab47b"/></linearGradient><linearGradient id="linear-gradient-7" x1="698.75" y1="964.2" x2="698.75" y2="1211.23" gradientUnits="userSpaceOnUse"><stop offset="0" stop-color="#15799c"/><stop offset="1" stop-color="#0b3b61"/></linearGradient><linearGradient id="linear-gradient-8" x1="956.15" y1="1038.42" x2="1361.15" y2="1038.42" gradientUnits="userSpaceOnUse"><stop offset="0" stop-color="#1a81a0"/><stop offset="1" stop-color="#32a7ad"/></linearGradient><linearGradient id="linear-gradient-9" x1="676.13" y1="792.31" x2="676.13" y2="1020.88" xlink:href="#linear-gradient-8"/><linearGradient id="linear-gradient-10" x1="621.2" y1="943.03" x2="621.2" y2="744.36" gradientUnits="userSpaceOnUse"><stop offset="0" stop-color="#59d3d3"/><stop offset="1" stop-color="#f6c891"/></linearGradient><linearGradient id="linear-gradient-11" x1="1312.16" y1="463.06" x2="1312.16" y2="597.13" xlink:href="#linear-gradient-6"/><linearGradient id="linear-gradient-12" x1="677.11" y1="579.69" x2="677.11" y2="752.58" gradientUnits="userSpaceOnUse"><stop offset="0" stop-color="#d78076"/><stop offset="1" stop-color="#fcb981"/></linearGradient><linearGradient id="linear-gradient-13" x1="1035.99" y1="686.48" x2="1035.99" y2="825.26" gradientUnits="userSpaceOnUse"><stop offset="0" stop-color="#226b77"/><stop offset="0.32" stop-color="#236d79"/><stop offset="0.5" stop-color="#287580"/><stop offset="0.65" stop-color="#2f838c"/><stop offset="0.77" stop-color="#39979e"/><stop offset="0.88" stop-color="#46b0b4"/><stop offset="0.99" stop-color="#57cfcf"/><stop offset="1" stop-color="#59d3d3"/></linearGradient><linearGradient id="linear-gradient-14" x1="59.58" y1="590.84" x2="59.58" y2="691.38" gradientUnits="userSpaceOnUse"><stop offset="0" stop-color="#d78076"/><stop offset="1" stop-color="#5c4367"/></linearGradient><linearGradient id="linear-gradient-15" x1="74.67" y1="241.04" x2="74.67" y2="604.81" xlink:href="#linear-gradient-14"/><linearGradient id="linear-gradient-16" x1="179.13" y1="570.46" x2="179.13" y2="719.54" gradientUnits="userSpaceOnUse"><stop offset="0" stop-color="#7a4c68"/><stop offset="1" stop-color="#393c64"/></linearGradient><linearGradient id="linear-gradient-17" x1="179.43" y1="189.46" x2="179.43" y2="554.86" xlink:href="#linear-gradient-16"/><linearGradient id="linear-gradient-18" x1="308.53" y1="786.83" x2="308.53" y2="869.92" xlink:href="#linear-gradient-13"/><linearGradient id="linear-gradient-19" x1="1129.01" y1="789.96" x2="1129.01" y2="974.91" gradientUnits="userSpaceOnUse"><stop offset="0" stop-color="#0c5172"/><stop offset="0.43" stop-color="#0f5473"/><stop offset="0.75" stop-color="#175e74"/><stop offset="1" stop-color="#226b77"/></linearGradient><linearGradient id="linear-gradient-20" x1="227.03" y1="793.49" x2="227.03" y2="873.67" gradientUnits="userSpaceOnUse"><stop offset="0" stop-color="#0c5172"/><stop offset="0.08" stop-color="#0e5372"/><stop offset="1" stop-color="#226b77"/></linearGradient><radialGradient id="radial-gradient" cx="534.65" cy="363.54" r="150" gradientUnits="userSpaceOnUse"><stop offset="0" stop-color="#fff"/><stop offset="1" stop-color="#fff" stop-opacity="0"/></radialGradient></defs><title>FirstPersonKayak</title><g id="_Clip_Group_" data-name="&lt;Clip Group&gt;"><g class="cls-2" style="clip-path: url('#clip-path');"><g id="_Group_" data-name="&lt;Group&gt;"><path d="M 0 1.81 H 1400 V 1685.03998 H 0 V 1.81 Z" id="_Rectangle_2" data-name="&lt;Rectangle&gt;" class="cls-3" style="fill: url('#linear-gradient');"/><path d="M 591.090023 363.540009 A 56.439999 56.439999 0 0 1 534.650024 419.980007 A 56.439999 56.439999 0 0 1 478.210026 363.540009 A 56.439999 56.439999 0 0 1 534.650024 307.10001 A 56.439999 56.439999 0 0 1 591.090023 363.540009 Z" id="_Path_" data-name="&lt;Path&gt;" class="cls-4" style="fill: rgb(255, 255, 255);"/><g id="_Group_2" data-name="&lt;Group&gt;"><path id="_Path_2" data-name="&lt;Path&gt;" class="cls-5" d="M1479.3,462.27c.71-2.19.27-3.87-1.34-5-25.53,1.84-56.62,5.3-81.63.82-16.49-3-31.33-7.58-48.42-6.74-12.12.6-22.91,2.56-34.88-.86-14.55-4.17-18.66-8.61-33.2-6.63-28.32,3.84-35.38,6-56.08-15.17-18.8-19.2-28-15-48.5-.25-26.71,19.19-58.06,36.18-84.78,54.27,1.22,6.82,3.35,6.75,9.53,11.22,21.44,15.5,40.4,32.13,65.63,41.35,52.16,19.06,112.51,14.91,167.1,14.85,31.78,0,60.52,2.65,91.55-4.77,17-4.06,39.12-4,52.8-16.41C1493.39,514.16,1472.85,482.19,1479.3,462.27Z" style="fill: url('#linear-gradient-2');"/><path id="_Path_3" data-name="&lt;Path&gt;" class="cls-6" d="M110.54,446.59c37.12-8.13,75.06-11.21,111.66-21.07,13.56-3.65,28.19-5.74,40-12.94,8.1-4.92,22.29-16.55,28.43-22.25,13.6-.75,26.51,2.76,39.71,5.44a229,229,0,0,0,26,3.5c9.73.79,13.52-2.81,23.2-5.35,12.82-3.37,18.93-4.5,29.71-13.82,5.41-4.66,10.06-9.32,15.28-14.15,19.45-18,45.58-2.39,69.38.74,23,3,45.09,9.55,67,16.23,11.8,3.59,29.19,1.69,38.75,9.58.07,27.75,3.23,53.3,1.37,81.11-1.45,21.75,5.06,47.51-10.32,65.3-19.82,22.93-52,32.59-80.54,37.73-66.42,12-131.74,5.7-198.76,6.3-58.41.52-120.6-1.05-175.22-25.76-26.37-11.93-32.42-28.45-33.89-55.3C101.4,484.19,110.5,464.32,110.54,446.59Z" style="fill: url('#linear-gradient-3');"/><path id="_Path_4" data-name="&lt;Path&gt;" class="cls-7" d="M1322.91,536c-42-22.28-89.08-37-133.74-56.44-18.58-8.08-37.84-16.83-55.49-26-14.32-7.45-23.65-21.39-40.16-24.36-13.12-2.36-26-.91-38.94-3.9-13.18-3-25.92-7.1-38-13.3-22.71-11.67-39.94-31.69-65.11-39.21-14-4.17-26.35,3.48-39,4.75-13.58,1.37-22.37-6.15-32.85-13.19-10.77-7.24-15.64-18.8-25-27.25C843.49,326.9,833,317.94,821,308.78c-7.94-6.1-11.76-15.74-19-22.23-6.5-5.81-15.8-11.05-23-16.37-11.57-8.58-26.66-16.85-39.41-23.49-27.91,10.2-42.09,42.46-69.33,54.69-9.9,4.44-20.71,3.49-30.56,7.81-10.66,4.67-16.13,13.92-25.26,20.5-13,9.36-28.41,15.1-41.29,24.74-16,11.95-31.76,24.33-47.11,37.26-15.67,13.18-33.35,20.92-49.62,33-12.93,9.59-24.59,20.11-38.75,27.84C418,463.29,398.33,474.12,378.05,484c-27.54,13.45-52.94,31.76-81.72,42.55-11.15,21-13.67,57.32-17.8,80.43-5.07,28.38-2.72,55.49,26.59,68.63,26.92,12.06,59.13,9.34,87.75,14.23,41.5,7.1,81.26,10.21,123,13.79,75.65,6.49,152.26,13.56,228.19,14.32,42.36.42,83.42,1.66,125.65,4.71,50.47,3.64,104.44,8.77,155,6.06,36.76-2,73.37-11,109.9-15.63,23.62-3,48.2-3.41,68.53-17,45.34-30.37,78.72-76.36,93.17-127.38C1299.73,556.67,1317.91,547.65,1322.91,536Z" style="fill: url('#linear-gradient-4');"/></g><path id="_Path_5" data-name="&lt;Path&gt;" class="cls-8" d="M1165.91,602c0-3-.69-5.63-.65-8.59,0-2.22,0-5.08,0-7.3l.53-.31a17,17,0,0,0-.21-5.84c-.28-2.19-.26-4.4-.35-6.66-.14-3.5-1.21-6.61-1.76-9.95-.16-1-.07-2.81-.94-3.25-.79,2.13-.54,4.51-.79,6.62-.23,1.93-.25,3.74-.34,5.65-.08,1.59-1.49,16.61-3.68,17-1.11-1.71-.58-3.76-.91-5.87-.45-2.93-.43-6.3-1.26-9a4.91,4.91,0,0,0-1.33,2.22c-2-2.06-.69-7-2.33-9.46-1.75,2-1.26,4.85-2.87,7-1,1.33-1.23,1.15-2,0-1.24-1.86-.9-4.7-1-7.08a41.92,41.92,0,0,0-.55-6.9c-.26-1.13-.84-1.94-1.14-3.12-.72-2.75-.71-6-.93-8.95a101.62,101.62,0,0,0-1.47-12.35c-.19-1-.23-3.65-1.11-4.06-.83,1.91-.49,4.05-.79,6-.13.77-.27,1.52-.33,2.28-.19,2.36.18,4.62-.1,7-.19,1.69-.83,3.44-1.17,5.13-.84,4.24-1.38,8.53-2.73,12.75a60.9,60.9,0,0,0-2.41,10.12c.27-1.74-1.36-3.32-1.92-4.74-.71-1.79-1.31-3.74-1.93-5.6a16.54,16.54,0,0,1-.59,5.2,32.45,32.45,0,0,0-.66,7.34,19.85,19.85,0,0,1-.11,5c-1.68-.44-1.1-5-1.76-6.61a55.38,55.38,0,0,1-2.75-10c-.55-2.62-.24-5.26-1.29-7.55-.58-1.28-.49-2.83-.81-4.28s-1.23-2.69-1.54-4.16c-.39-1.84.12-3.77-.48-5.59s-1.87-2-2.58-3.65-2-2.92-2.64-4.8a59,59,0,0,1-1.7-5.67c-.49-1.94-.28-4.58-1.09-6.28-1,.74-.37,3.11-.45,4.14a24.92,24.92,0,0,1-.83,3.52c-.34,1.46-.35,2.93-.8,4.39-.38,1.24-1.12,2.6-1.44,3.76-.7,2.59-.94,5.17-1.41,7.75a37.25,37.25,0,0,1-1.56,5.44c-.25.73-.29,1.77-1,2.33-1.22,1-1.81.18-2.58,1.94s-.38,7.32-2.56,7.76c0-2.24.36-5,0-7.09-.16-1-.59-1.86-.71-2.92-.19-1.74.33-3.77-.06-5.46s-1.36-1.19-1.79-2.51-.25-3.26-.52-4.68c-.4-2,0-4.3-.1-6.42a74.89,74.89,0,0,0-1.18-8.68c-.2-1.39-.1-4.42-.94-5.59-1.48,1.72-.46,5.75-1.26,7.79a7.58,7.58,0,0,1-1.12-5.35,26.75,26.75,0,0,0-.63,6.18c-.07,2.86-.66,5.8-.7,8.68,0,2.49,0,5,.06,7.45.08-.53-.09-.69-.49-.49-.51,2.13-.51,4-.84,6-.21,1.3-.93,2.69-1.27,4-.2.76-.36,3.29-1.1,4.06-1.4-2.89-.59-7-2.07-9.78a27.76,27.76,0,0,1-3.19-8.91c-.48-3.7-2.94-5.18-3.29-9.08-.33-3.6-1.15-7-1.66-10.51s-.86-7.6-2.62-10.33c-.45,1.83-.13,4-.11,5.75a49.6,49.6,0,0,1-.5,6.59c-.53,4.24.14,8.17.44,12.19a15.7,15.7,0,0,1,0,3.75,44.34,44.34,0,0,1-1.54,5.06c-.16.55-.32,1.09-.47,1.63a1.28,1.28,0,0,1-.79.37c-.48.58-.54.33-1,1.21a16.53,16.53,0,0,0-.9,3.67c-.37,1.76,0,3.48-.5,5.18-1.33.33-1.06-2.56-1.21-3.42a8.43,8.43,0,0,0-1.55-3.18c-1.42-2.3-.71-6-2.21-8.1-.29-.42-.93-.49-1.18-.89s0-1.34-.09-1.92a30.49,30.49,0,0,0-.8-4.42c-.82-3.74-1.19-7.78-2.45-11.3.09,1.75,0,3.54,0,5.3,0,2.46-.62,5-.68,7.44,0,1,.54,3.14-.43,4a8.82,8.82,0,0,1-.83-.79c.1.87-.49,1.62-.66,2.5-.12.65.13,1.29,0,1.93-.15,1.25-.67,2-.65,3.35,0,1.56,1,10.26-1.92,10.09.55-2.11-1.48-2.85-2.25-4.16-1-1.7-1.33-4-2-6-.3-.92-2.33-3.33-1.23-4.47.51-.52,2.75-.73,3.31-.81-.8-.6-1.12-1.89-1.66-2.78a37.43,37.43,0,0,0-3.75-5.57,18.91,18.91,0,0,1-2.68-4.36c-.64-1.27-2-3-1.88-4.62.8-.43,2.49-.17,3.1-.93s-.69-2.39-.9-3c-1.41-3.66-2.18-7.55-3.86-11.1-1.62-3.4-1.92-7-2.81-10.84-.5-2.16-1.71-3.8-2.36-5.85a5.18,5.18,0,0,1-.14-.66,19.57,19.57,0,0,1-.12,3c-.24,1.74-1.08,3.23-1.55,4.95a16.4,16.4,0,0,0-.33,4.27,24.43,24.43,0,0,1-.83,4.43c-.44,2-.32,3.94-.56,5.95a29.88,29.88,0,0,1-2.36,7.32c-.38.94-1.22,2.47-.65,3.24.79-.52,1.06-1.37,1.87-1.9,1.89.21.08,8.31,0,9.66-.21,2.34-.82,4.72-1.1,7.08a22.36,22.36,0,0,1-.84,4.9,3.75,3.75,0,0,0-.53,2.21c.75-.38,1.22-1.92,2.11-1.82.74.08.37,1.77.37,2.47a9.62,9.62,0,0,1-.71,4.74c-.87,1.84-2,3.54-2.8,5.44a25.16,25.16,0,0,1-1.15,3c-.55-.47-.93-2.66-1.13-3.51a23.43,23.43,0,0,1,0-3.64,17,17,0,0,0-.51-2.68c-.49-2.61-.58-5.21-1.42-7.71a22.8,22.8,0,0,1-1.21-4.78,7.18,7.18,0,0,1-.21,2.38c-.28.09-.45,0-.5-.25-1,2.79-.47,5.13-.61,7.8-.22,4-1.62,7.8-1.3,11.71-1.06-2.3-1.82-5-3-7.06-.89-1.51-2.45-3.15-2.76-5a21.26,21.26,0,0,0-.42-3.67c-.54-1.58-1.32-3-1.78-4.64-.91-3.3-1.4-6.79-2-10.23-.21-1.31-.5-2.6-.76-3.89-.06.69-.12,1.29-.12,1.67v20.94c0,2.44.94,6.66-.62,9.15-1.53.57-1.22-3.36-1.26-4.22-.15-3-1.64-4.66-2.87-7a12.62,12.62,0,0,1-1.65-4.94,15.07,15.07,0,0,0-.13-3.31c-.12-.46-.51-.44-.49-1.07,0-.8,1.08-1.44,1.25-2.26a3.09,3.09,0,0,0-.12-1.41c0-.11-.59-1.95-.58-1.92-.45-1.27-1.82-1.06-2.55-1.91-1.27-1.46-.43-4.6-.69-6.62-.36-2.81-.82-5.55-1-8.43-.11-1.61.2-4.16-.25-5.73-.76.54-.94,3-1.16,3.88a22.44,22.44,0,0,0-.66,5.81,45.61,45.61,0,0,1-.11,7.83,73.8,73.8,0,0,0-1.17,8.85c-.05,1.42,1.06,7-.6,8.19-1.5-.28-.64-6.09-.64-7.7,0-2.88,0-5.76,0-8.64.1-9.83-3.84-18.26-3.84-28.06,0,3.38-.36,6.52-.64,9.93-.16,2.1-.6,4.26-.67,6.34s.12,3.74-.11,5.77c-.34,3.07-.44,6-.81,9.1a54.6,54.6,0,0,0-.32,7.74c0,1.17.68,4.39-.49,5.37a15,15,0,0,1-.8-5,20,20,0,0,0-.3-5.29c-.37-1.36-.86-2.57-1.31-3.88-.61-1.82-.65-3.94-1.33-5.75-.51-1.37-1.68-2-2-3.47s-.27-3.08-.9-4.56c-1.75-4.06-1.74-9.16-1.78-14a57,57,0,0,1-1,8.29c-.42,2.55-.27,4.95-.78,7.53-.22,1.08-.29,3.87-1.29,4.62-.45-.57-.67-2.13-1.28-2.2-1.08,3.51-.76,6.76-1.62,10.28-.47,2-.15,3.78-.6,5.7a16.79,16.79,0,0,1-1,2.2c-1.33,3.19-1.15,6.6-2.31,9.92-.59,1.68-2.39,8.56-4.9,8.45a2.52,2.52,0,0,0-.53.08c-.44-1.64-.52-3.56-.92-5.28a13.92,13.92,0,0,1-.48-5.2,8.73,8.73,0,0,1,1-2.46,6.59,6.59,0,0,0-.08-4.54c-.39-1.24-1.17-2.78-1.4-3.9a29.24,29.24,0,0,1-.13-5c0-2.12-.69-3.85-.67-6,0-1.92,0-3.83,0-5.76.08,1.31-.67,2.75-.66,4.19,0,3.2,0,6.41,0,9.62V546.5c0,5.33.38,10.76-.06,16.18-.09,1.15-.24,2.32-.41,3.48a14.19,14.19,0,0,1-1.14-2.55,8.71,8.71,0,0,0-1-2.57c-.22-.35-.74-.32-1-.74-.73-1.22-.92-4.29-1-5.78a24.26,24.26,0,0,0-2.64-11,20.3,20.3,0,0,1-1.44-4.59c-.28-1.14-.33-3.34-1.2-4-.5,1.81,0,3.59-.34,5.44a48.15,48.15,0,0,0-.61,9.45,14.68,14.68,0,0,1-.07,2.73c-.09.52-.62.82-.76,1.39-.38,1.7,0,3.86,0,5.51.08,6.2-3.8,12.28-3.92,18.33-.08,4,.26,7.72-.92,11.89-3.09,1.67-2.15-15.38-2.35-16.78-.77-5.22-2-10.52-3.17-15.56-1.25.88-.49,4.14-.65,5.45-.21,1.71-1,3.48-.66,5.09-1.06-5.47-3.22-10.61-4-16.18-.24-1.76-.23-3.56-1-5.15-.49-1.06-1.24-1.69-1.76-2.74-.75-1.52-.91-3.4-1.66-4.89-.34-.68-.77-.67-1-1.35-.45-1.33-.24-3.22-.54-4.66a31,31,0,0,1-1.11-7.26c0-.38,0-.75,0-1.13-.26,8.7-2.17,17.79-2.38,26.48a19.73,19.73,0,0,1-1,6.67,16.23,16.23,0,0,0-.5,7c-.21-1.78-1.55-8-4-7.86-1.66,1.61-2.1,6.27-2.61,8.42-.56,2.36-.65,4.83-1.18,7.12-.36,1.51-1.45,2.78-2.19,4.2-.38.73-.68,1.4-1,2.06.61-5.32-.09-10.74,0-15.75,0-3.12.21-6.33-.78-9.09a9.78,9.78,0,0,1-.4-5.85,11.13,11.13,0,0,0-.39-6.35c-.77-.27-1-.91-.82-1.93a19.15,19.15,0,0,0,0-3.86c-.39-3.1-1.54-5.62-1.58-8.92,0-1.78.24-3.76,0-5.53a15.33,15.33,0,0,0-.72-7.4c-.44-1-1.39-1.73-1.66-2.85a14.84,14.84,0,0,1-.12-3.95c-.35,1.93-1,3.92-1.23,5.83-.48,4.2-.66,8.22-1.33,12.47-.55,3.48-1,6.92-1.26,10.36-.39,4.32-1.67,9.26-1.38,13.41a1.89,1.89,0,0,0,1.36-.91c.77,2.07-.31,5.7-.51,8.13a91.2,91.2,0,0,1-.94,10.2c-.89,4.68-.57,9-1.57,13.65l-3.13-7.82a47.46,47.46,0,0,0,0-5.46c-.25-2.11-1.33-3.58-2-5.4-.79-2.05-.55-5.06-1-7.39a70.09,70.09,0,0,1-1-11.12c0,3.67-1.6,7.31-1.56,10.91,0,2.64.26,5.38,0,8.07a21.1,21.1,0,0,1-3.16,8.66,14.79,14.79,0,0,0-.72-4.13c-.28-1.31,0-2.87-.13-4.24-.37-2.79-1-5.51-1.31-8.33-.28-2.29-.23-4.62-1-6.7a38.49,38.49,0,0,1-.38,8.6c-.74,3.89-2.37,7.74-2.75,11.64.31-1.15-.53-1.22-.77-2s-.41-2.17-.58-3.07c-.43-2.24,0-4.78-.35-7.06-.59-4.26-.58-8.7-1.29-12.92a102.24,102.24,0,0,1-1.66-18.35c0,3.37,0,6.73,0,10.1,0,2.37.41,4.92.07,7.33-.21,1.47-1,2.45-1.64,3.87a16.05,16.05,0,0,0-1.64,7.14c0,3.25,1.11,8.31-.9,11.72a4.89,4.89,0,0,1-.76-1.91,3.65,3.65,0,0,0-1.26-1.3c-.76-1.56-.13-4.4-.13-6.32,0-2.3,0-4.59,0-6.9,0-4.52-.15-9.29-1.8-13-.67-1.5-.58-3-.76-4.83a51.82,51.82,0,0,1-.57-8.86c.1,1.14-.66,2.08-.84,3.22a18.73,18.73,0,0,0,0,3.09,18.76,18.76,0,0,1-.7,5.95q-1.15,3.48-2.07,7a3.9,3.9,0,0,1-1.15,3c-1-.91-.8-2.62-1.39-3.82-.46,1.27.15,2.28-.12,3.48a22.2,22.2,0,0,0-.84,2.5c-.48,3.78.88,9.14-1.76,12.85-1.2-.48-.53-3.87-.74-5a20.19,20.19,0,0,0-1.18-3.72c-1-2.56-.84-4.7-1-7.64-.11-2.21-1.94-3.3-2.36-5.53-.58-3.1-.29-6.59-.94-9.62-.17-.8-1.08-4.68-2-4.63-.76,2.16-.16,5.14-.16,7.26,0,2.86-.8,5.43-.78,8.28,0,2.51,0,5,0,7.54a40.66,40.66,0,0,1-.7,6.72c-.29,2-1.08,4.25-.88,6.1-.69-2.41-1.75-4.84-2.21-7.36s.15-5-.29-7.37c-.41-2.19-1.11-4.42-1.41-6.77-.57-4.44.12-10.84-2.21-14.47-1,3.2-.13,8.22-.14,11.44.9.8-1.34,10.07-1.54,12.13-.26,2.77-1.42,5.45-1.6,8.12s-.3,5.57-.79,8.46c.33-1.81-.82-3-1.54-4.25-1-1.71-.82-5.4-2.32-6.44a17.61,17.61,0,0,0-1.64,8.18c-.24-1.88-1-3.46-1.38-5.38s0-4.21-.31-6.21c-.69-4.12,0-8.84-1.39-12.61-.81-2.17-.68-4.37-.91-6.83-.26-2.77-1.56-3.23-2.18-5.22a13.63,13.63,0,0,1,0-3.72,24.7,24.7,0,0,0-.5-5.82c-.31-1.9-.8-3.81-1-5.78a120.18,120.18,0,0,1,0,12.3c-.23,3.13-.67,6.26-.82,9.4-.06,1.31.36,5.53-1.39,6.54-.14-.89.09-4.53-1.6-3.51a9,9,0,0,0-.09,2.73c0,2.53-.76,5.14-.87,7.67a35.53,35.53,0,0,1-.56,4.85c-.37,2.12-.37,3.9-.87,6-.94,4-.19,7.89-1,11.85-1-.51-1.19-2.54-1.8-3.55a12,12,0,0,1-1.17-2.52,25.51,25.51,0,0,1-.92-4.15c-.35-2-2.47-4.21-2.11-6.42,1,.14,1.69,1.22,2.93.72.55-1.21-1.07-2.34-1.31-3.37-.51-2.12.28-4.37-.92-6-.43-.6-.86-.42-1.22-1.34a15.44,15.44,0,0,1-.46-3.45,50.7,50.7,0,0,1-.78-5.45,10.92,10.92,0,0,0,3.71,2.08c-.8-.47-.34-1.64-.6-2.49-.35-1.11-1.45-1.53-2.06-2.4a40.43,40.43,0,0,1-3.91-7.44,25.27,25.27,0,0,0-1.74-4.33,12,12,0,0,1-1.95-4.4c-.83-3.73-1.67-7.51-3.58-10.6.21,2.29.75,6.36,0,8.76-.42,1.32-1.37,2.38-1.55,3.94-.22,1.92.09,3.86.06,5.76-.06,3.5-2.68,6.14-3.32,9.54a31.65,31.65,0,0,1-1.87,6.45c-.61,1.41-1.7,2.81-1.75,4.26a24,24,0,0,0,2.23-1.41c.91-.88,1.31-2.18,2.24-2.77.26,1.19-1.22,3.73-1.68,5a36.15,36.15,0,0,0-1.55,7.2,31.12,31.12,0,0,1-.73,4.28c-.34,1-1,1.69-1.33,2.56,1.07-.52,1.79-2.26,3-1.94.16,1-.71,3.1-.68,4.39a14.41,14.41,0,0,1-.76,5.51c-.39,1-1.1,2-1.44,3.09a13.6,13.6,0,0,1-.72,2.75c-.52,1-.79-.07-1,1,.18-2.11-.37-4-.6-6s-.08-3.81-.13-5.75-.75-3.78-.86-5.79a49,49,0,0,0-.4-7.2c-.37-1.89-1.44-3.17-1.86-5s0-4-.58-5.85c-.93-3-1.68-4.53-2.08-8a59.06,59.06,0,0,1-.55-8.73c.2,2.93-.65,6.32-.93,9.38-.43,4.47-1.92,9.06-2.2,13.45-.28,4.61-1.37,9.24-1.63,13.8-.16,2.81.21,17.76-3.75,19a59,59,0,0,1-.83-12.93c.07-5.65-1.32-10.69-1.56-16.24.06,2.73.18,5.47,0,8.23s-.85,5.53-.83,8.4c0,3.15.19,6.38-.06,9.6-.15,2-.51,3.93-.62,5.89-.08,1.57.39,3.75-.68,5.24a54,54,0,0,1-1.74-8.37c-.29,2-.77,4-1.1,5.91s-.15,4-1.07,5.83c-2.05-2.83-1.79-8.06-1.76-11.82,0-1.72,0-3.44,0-5.16.17-.83-.05-1.34-.67-1.52-.46-2,.37-4.42.57-6.66a12.25,12.25,0,0,0-.72-5.67c-.7-2.1-.39-4-.74-6.15s-1.11-3.82-1.39-5.91c-.48-3.53-.69-7.25-1.84-10.48.23,10.74.06,21.6.06,32.39,0,3,0,6,0,9,0,4.76.77,11.18-1.38,16.07-.34-2-1.71-3.26-2.35-5-1.17-3.13-1.82-6.87-2.71-10.17-.93.86-.51,1.77-.57,2.78a22.49,22.49,0,0,1-1,6.39c-2-1.63-2.17-5.17-2.15-8,0-3.51,0-7,0-10.51a49.84,49.84,0,0,0-.66-7.8,5.86,5.86,0,0,1,0-3c.92.09.95,2,1.16,2.83a6.83,6.83,0,0,0,3.13,4.57c-.84-.92-.54-2.39-.51-3.71,0-2.25.12-5-1-6.79a8.48,8.48,0,0,1-1.57-2.7c-.83-3.18-1.88-6.28-3-9.32a65.79,65.79,0,0,1-3.81-28.67c-.34,2.89-1.77,5.69-2.62,8.52-1.16,3.89-1,8.41-1.44,12.26a109.28,109.28,0,0,1-3,15.56c-.88,3.44-3.16,8.1-3,11.41,2.73.28,3.41-3.69,5.45-3.76,2.32-.09-1.36,9.22-1.62,10.12-1.9,6.55-2.63,13.67-5.48,20.08-1.46,3.28-2.58,10.13-7,10.36-2,.89-3.4-1.13-4.26-2.4-1.89-2.74-3.81-5.38-5.56-8.26-2.92-4.83-3.1-10.36-4.62-15.81-1.65-5.93-5-11.12-5.84-17.42a25.61,25.61,0,0,0-.81-5.27,42.63,42.63,0,0,0-2.42-5.8c.11,1.72-.1,3.53,0,5.25.15,2.68.87,5,.84,7.81,0,3.76.91,8.48-.84,12.41.15-3.08.3-6.22-.46-9-.65-2.42-2.24-4.11-3.21-6.3A56.57,56.57,0,0,1,687,531.6c-.3-3.31.06-6.65-.63-9.86-.44-2-1.36-3.66-1.79-5.7-.59-2.83-.54-6-1.34-8.73-.47-1.59-.56-3.69-1.17-5.1-.88,2-.65,4.3-.64,6.19,0,3,0,6.08,0,9.11a66.3,66.3,0,0,1-.72,9.89c-.69,4.67-2.58,9.44-3.44,14.16-.48,2.63-.28,4.8-.61,7.4-.28,2.19-1.67,4.44-1.08,6.25.24.72,1,.86,1.21,1.73.34,1.21-.26,3-.47,4.33-.39,2.46-.19,4.77-.78,7.19a17.89,17.89,0,0,0-.39,4.35c.33-10.73-2.45-20.5-2.34-31.19a78.81,78.81,0,0,0-1.39-13.69,33.07,33.07,0,0,1-.16-5.83c0-1.5.86-7.5-1-8.12-1.34,1.39-1.21,4.08-1.31,5.61-.26,4.24.08,8.33-.12,12.55-.26,5.44-.76,10.76-.7,16.13,0,4.17-1.41,8.46-1.62,12.65-.14,2.81,0,4.82-1.37,7.78a10.53,10.53,0,0,1-.14-3.65c0-2.88-.41-5.49-.61-8.31-.24-3.58-.37-7.15-.79-10.67a13.06,13.06,0,0,1-.12-3.81c-.61,4.41-2.47,8.8-2.44,13.16a6.7,6.7,0,0,1-.72,4c-.73-4.7-2.28-9.08-3.24-13.69-.7-3.37-.95-6.91-1.54-10.32-.91-5.23-4.06-8.94-5.52-13.8-.88-2.94-1.2-5.71-3-8.13a8.36,8.36,0,0,0,.08,4.58q.62,5.58.67,11.33c.07,5.08-.08,10.22,0,15.32,0,5.73-.41,12.77-2.52,18.66-3.51-3-1.5-10.63-3.09-14.89-1.12-3-4.23-4.19-5.32-7.32-.82-2.36-1.29-4.91-2.32-7.17s-2.51-4-3.6-6.17a35.11,35.11,0,0,1-2.73-8c-.34-1.36-.57-4.34-2.2-4.5-.82,3.87-.07,9.5.08,12.72.29,6.31.78,12.52.22,19a115.05,115.05,0,0,0-.29,17.18c-1.16-3.13-2.71-6-3.72-9.22-1.27-4.1-1.61-8.53-2.58-12.76a26.44,26.44,0,0,0-4.51-9.38c-.8-1.18-.78-3.05-1.65-4-.47,5.28-.94,10.41-1.77,15.76-.49,3.13-1.46,6-1.58,9-.13,3.44.69,7.28-.06,10.84-.49,2.32-2.38,5.28-3.78,7.33-2.36,0-2.93-4-3.55-5.81a78.5,78.5,0,0,1-3.12-13.66c-1.61-10-5.58-16.78-13-22.31-1.16-.87-2-1.76-3.59-1.6-2.59.26-4.07,3.44-5.55,5.45-.82,1.11-2.55,3.61-4,3.83-1.92.3-1.89-1.88-2.41-3.25a1.14,1.14,0,0,0-1.27.83c-8.91-10.1-13.06-23.92-17-37.45a3.19,3.19,0,0,0-.73,3.19c-.43,3.55-.85,7.09-1.26,10.64-.24,3.06,0,5.75-.62,8.84a140.26,140.26,0,0,1-6.44,20.66c-1.05-5.17.27-11.34-.85-16.6-.32-1.48-1.22-2.81-1.5-4.24a40.37,40.37,0,0,1-.15-4.42c-.27-3.46-1.06-6.95-1.62-10.31-.3-1.82-.67-5.25-2.11-6.18a9,9,0,0,0-.15,4.06c0,3.46,0,6.93,0,10.4,0,3,0,5.92,0,8.87a39,39,0,0,1-1.54,12.39c-.72,2.5-2.89,6.34-3.14,8.92-1.42-2.77-2-6.93-2.59-9.94-1-5.19-1.77-10.47-2.83-15.64-.89,7.46,0,14.65-.84,22.17-.63,5.38-1.42,10.7-1.52,16a112,112,0,0,1-.88,13.47c-1.3,9.53-.61,18.64-1.65,28.15-1,8.85-2,17.68-2.56,26.46-.66,11.17-.37,22.11-.65,33.2-.47,18.17-.46,36.06,0,54,.38,15.36.92,30.71,1,46.15.07,12.35.31,24.59.67,36.86.11,3.78.1,7.59.07,11.42,0,2.33-.37,5,.13,7.16l.65-1c44-4.2,90-7,134.38-15.26,23.59-4.42,47.28-9.42,70.87-16.92,42.87-13.62,84.74-35.23,126.14-57.24q53.41-28.41,106.46-58c2.94-1.64,6.09-3.49,7.84-6.46a14.13,14.13,0,0,0,1.66-6.38l196-42C1166.42,607.76,1165.9,604.7,1165.91,602Z" style="fill: url('#linear-gradient-5');"/><path id="_Path_6" data-name="&lt;Path&gt;" class="cls-9" d="M630.5,596.64c0-3-.69-5.81-.65-8.75,0-2.22,0-5.08,0-7.3l.52-.17a17,17,0,0,0-.21-5.9c-.28-2.27-.25-4.47-.35-6.75-.14-3.53-1.21-6.92-1.76-10.4-.16-1-.07-2.82-.94-3.49-.8,1.93-.55,4.37-.79,6.42-.23,1.87-.26,3.67-.35,5.56-.08,1.58-1.49,16.23-3.68,16-1.11-2-.59-3.91-.91-6.11-.46-3-.44-6.4-1.27-9.35-.74.35-1,1.16-1.33,1.88-2-2.58-.69-7.22-2.33-10.06-1.76,1.59-1.27,4.54-2.88,6.24-1,1.06-1.23.83-2-.52-1.25-2.17-.91-4.93-1-7.34a44.35,44.35,0,0,0-.55-7c-.26-1.19-.84-2.16-1.15-3.41A56.91,56.91,0,0,1,608,537a113.27,113.27,0,0,0-1.48-12.73c-.19-1-.23-3.71-1.11-4.33-.83,1.69-.49,3.92-.8,5.76-.12.74-.27,1.46-.33,2.2-.19,2.31.19,4.67-.09,7-.2,1.64-.84,3.23-1.17,4.83-.85,4-1.39,8.19-2.74,12.06a51.81,51.81,0,0,0-2.42,9.51c.27-1.67-1.36-3.68-1.92-5.23-.71-2-1.31-4.08-1.93-6.09a15.42,15.42,0,0,1-.6,5,29.82,29.82,0,0,0-.65,7.18,20,20,0,0,1-.11,5c-1.69-.87-1.11-5.33-1.77-7.06a66.9,66.9,0,0,1-2.76-10.74c-.55-2.76-.23-5.32-1.29-7.88-.59-1.43-.49-2.95-.82-4.48s-1.23-3-1.54-4.56c-.39-1.94.12-3.73-.47-5.71s-1.88-2.46-2.59-4.31-2-3.41-2.65-5.46S577.5,513,577,510.9s-.29-4.65-1.09-6.55c-1.06.47-.38,3-.46,4a19.09,19.09,0,0,1-.83,3.31c-.34,1.37-.35,2.84-.8,4.18-.38,1.15-1.12,2.32-1.44,3.4-.7,2.4-.95,4.93-1.42,7.39a30.32,30.32,0,0,1-1.56,5c-.25.66-.29,1.7-1,2.08-1.23.69-1.82-.29-2.59,1.28s-.38,7.22-2.57,7.11c0-2.24.37-4.86,0-7.08-.16-1.07-.59-2-.71-3.11-.19-1.79.33-3.68-.06-5.47s-1.37-1.53-1.8-3-.25-3.32-.52-4.81c-.4-2.12,0-4.31-.1-6.44a82.53,82.53,0,0,0-1.19-9c-.19-1.43-.09-4.44-.94-5.82-1.48,1.35-.46,5.63-1.26,7.47a8.78,8.78,0,0,1-1.12-5.63,24.66,24.66,0,0,0-.64,6c-.06,2.85-.65,5.63-.69,8.5,0,2.49,0,5,.06,7.47.08-.52-.09-.72-.5-.61-.5,2-.51,3.85-.83,5.79-.21,1.24-.94,2.45-1.28,3.68-.2.7-.36,3.19-1.1,3.77-1.4-3.24-.6-7.19-2.07-10.3a34.75,34.75,0,0,1-3.2-9.73c-.48-3.81-2.94-5.93-3.3-9.91-.33-3.69-1.15-7.27-1.67-10.93s-.85-7.82-2.62-11c-.45,1.71-.13,3.95-.11,5.72a46.6,46.6,0,0,1-.5,6.46c-.54,4.11.14,8.21.44,12.3a15.18,15.18,0,0,1,0,3.75A37,37,0,0,1,536,515l-.48,1.51a1,1,0,0,1-.79.17c-.48.46-.53.2-1,1a13.65,13.65,0,0,0-.9,3.43c-.37,1.67,0,3.47-.5,5.06-1.33,0-1.06-2.83-1.21-3.73a11.48,11.48,0,0,0-1.55-3.58c-1.43-2.65-.72-6.15-2.22-8.66-.29-.49-.93-.72-1.19-1.19s-.05-1.36-.09-1.94a34.75,34.75,0,0,0-.8-4.63c-.82-3.95-1.19-8.08-2.45-11.92.08,1.77,0,3.55,0,5.32,0,2.46-.63,4.8-.69,7.26,0,1,.54,3.27-.43,3.87-.29-.32-.57-.66-.83-1,.1.89-.48,1.49-.65,2.33-.13.61.12,1.32,0,1.94-.15,1.22-.67,1.86-.65,3.19,0,1.56,1,10.51-1.92,9.6.55-2-1.48-3.22-2.26-4.73-1-2-1.33-4.38-2-6.48-.3-1-2.33-3.92-1.22-4.78.51-.39,2.75,0,3.31,0-.8-.81-1.12-2.18-1.66-3.2a53.41,53.41,0,0,0-3.76-6.53,27.07,27.07,0,0,1-2.69-5c-.63-1.44-2-3.49-1.88-5.1.8-.23,2.5.47,3.11-.14s-.69-2.57-.91-3.18c-1.41-4-2.18-8.11-3.86-12.08s-1.93-7.53-2.82-11.56c-.5-2.29-1.72-4.24-2.37-6.45-.06-.24-.1-.46-.14-.69a19,19,0,0,1-.12,2.93c-.23,1.68-1.07,3-1.55,4.56a15.41,15.41,0,0,0-.33,4.18,21,21,0,0,1-.83,4.22,56.81,56.81,0,0,0-.56,5.81,23.52,23.52,0,0,1-2.37,6.72c-.38.84-1.22,2.16-.65,3.07.79-.32,1.06-1.1,1.88-1.42,1.89.69.08,8.33,0,9.65-.22,2.28-.82,4.51-1.1,6.79a20.18,20.18,0,0,1-.85,4.69,3.18,3.18,0,0,0-.53,2.08c.75-.19,1.23-1.61,2.11-1.29s.37,1.87.37,2.56c0,1.65.12,3.05-.7,4.57s-2.06,3-2.81,4.73a20,20,0,0,1-1.16,2.73c-.55-.6-.93-2.89-1.12-3.8a21.93,21.93,0,0,1,0-3.62,19.39,19.39,0,0,0-.51-2.81c-.49-2.74-.58-5.36-1.42-8.08a26.19,26.19,0,0,1-1.21-5.08,6.65,6.65,0,0,1-.22,2.32.4.4,0,0,1-.49-.37c-1,2.55-.48,5-.62,7.64-.22,3.95-1.62,7.39-1.3,11.38-1.06-2.56-1.83-5.5-3-7.83-.9-1.73-2.46-3.77-2.77-5.71a23.14,23.14,0,0,0-.42-3.78c-.54-1.71-1.33-3.33-1.78-5.09-.92-3.54-1.41-7.15-2-10.74-.22-1.37-.5-2.72-.76-4.08-.07.67-.12,1.25-.12,1.64v13.31c0,2.54,0,5.09,0,7.63s.93,6.89-.63,9c-1.53.18-1.22-3.66-1.26-4.53-.15-3.06-1.64-5.08-2.88-7.74a16,16,0,0,1-1.65-5.37,15.43,15.43,0,0,0-.13-3.33c-.12-.5-.51-.58-.49-1.2,0-.79,1.08-1.17,1.25-2a3,3,0,0,0-.12-1.44c0-.11-.59-2.09-.57-2.06-.46-1.39-1.83-1.52-2.57-2.56-1.27-1.79-.43-4.71-.69-6.8-.36-2.9-.82-5.76-1-8.69-.12-1.64.19-4.11-.26-5.8-.76.35-.94,2.76-1.16,3.59a20.57,20.57,0,0,0-.66,5.65,45.12,45.12,0,0,1-.11,7.8,64.61,64.61,0,0,0-1.17,8.55c-.05,1.4,1.06,7.25-.61,8-1.5-.66-.64-6.25-.64-7.86,0-2.88,0-5.76,0-8.64.09-9.81-3.85-19.24-3.85-29,0,3.38-.37,6.43-.64,9.77-.17,2.06-.61,4.11-.68,6.17s.12,3.77-.11,5.74c-.34,3-.44,5.93-.81,8.9a52.75,52.75,0,0,0-.32,7.65c0,1.18.68,4.57-.49,5.25a16.32,16.32,0,0,1-.8-5.16,21.36,21.36,0,0,0-.31-5.37c-.36-1.45-.86-2.79-1.3-4.21-.62-2-.66-4.11-1.34-6.09-.51-1.5-1.68-2.47-2-4s-.27-3.14-.91-4.78c-1.76-4.51-1.74-9.6-1.78-14.43a50.86,50.86,0,0,1-1,8c-.41,2.45-.27,4.89-.78,7.33-.21,1-.29,3.8-1.29,4.29-.45-.68-.67-2.29-1.28-2.52-1.08,3.23-.77,6.57-1.62,9.87-.48,1.84-.16,3.74-.61,5.54a10.81,10.81,0,0,1-1,2c-1.33,2.85-1.15,6.31-2.31,9.33-.6,1.53-2.4,7.95-4.91,7.21a3.19,3.19,0,0,0-.53-.06c-.45-1.75-.52-3.7-.93-5.51a15,15,0,0,1-.48-5.33,6.63,6.63,0,0,1,1-2.2c.68-1.37.33-3.19-.08-4.57s-1.17-3.07-1.4-4.25a29.92,29.92,0,0,1-.13-5c0-2.12-.69-4-.67-6.19,0-1.92,0-3.84,0-5.75.08,1.32-.67,2.57-.66,4,0,3.2,0,6.41,0,9.61v14.92c0,5.33.37,10.85-.06,16.16-.09,1.13-.24,2.26-.41,3.38a17.63,17.63,0,0,1-1.15-2.84,10.55,10.55,0,0,0-1-2.81c-.22-.41-.74-.52-1-1-.73-1.41-.92-4.53-1-6a28.47,28.47,0,0,0-2.64-11.67,25.16,25.16,0,0,1-1.44-5c-.28-1.21-.33-3.43-1.2-4.27-.51,1.67,0,3.58-.35,5.35a46.52,46.52,0,0,0-.61,9.29,13.67,13.67,0,0,1-.07,2.72c-.09.49-.62.66-.75,1.2-.39,1.6,0,3.86,0,5.51.08,6.22-3.81,11.31-3.93,17.34-.08,4,.27,7.79-.92,11.65-3.1.89-2.15-15.93-2.36-17.38-.76-5.41-2-11-3.17-16.37-1.25.56-.49,4-.65,5.29-.21,1.66-1,3.23-.66,4.92-1.07-5.74-3.23-11.43-4-17.19a20.29,20.29,0,0,0-1-5.39c-.49-1.2-1.25-2-1.77-3.19-.75-1.72-.91-3.63-1.66-5.31-.35-.78-.77-.87-1-1.61-.46-1.45-.24-3.29-.54-4.81a33.92,33.92,0,0,1-1.11-7.54v-1.12c-.27,8.63-2.18,17.23-2.39,25.87a17.5,17.5,0,0,1-1,6.43,15.37,15.37,0,0,0-.49,6.85c-.22-1.83-1.56-8.39-4.06-8.89-1.66,1.19-2.1,5.74-2.61,7.76-.56,2.22-.65,4.66-1.19,6.81-.35,1.43-1.45,2.42-2.19,3.65a18.77,18.77,0,0,0-1,1.81c.61-5.16-.09-10.75-.06-15.76,0-3.11.22-6.27-.77-9.29a10.27,10.27,0,0,1-.4-5.94,11.67,11.67,0,0,0-.39-6.45,1.8,1.8,0,0,1-.83-2.15,17.79,17.79,0,0,0,0-3.86c-.38-3.19-1.53-6-1.58-9.31,0-1.8.24-3.71,0-5.53a16.64,16.64,0,0,0-.73-7.58c-.44-1.16-1.4-2.08-1.66-3.27a15.2,15.2,0,0,1-.12-4c-.36,1.84-1,3.66-1.24,5.51-.48,4.08-.65,8.06-1.33,12.14-.55,3.33-.95,6.67-1.26,10-.39,4.23-1.68,8.84-1.39,13.06a1.4,1.4,0,0,0,1.36-.57c.78,2.27-.3,5.63-.5,8a85.19,85.19,0,0,1-1,10c-.89,4.45-.57,8.84-1.57,13.25l-3.14-8.62a49.57,49.57,0,0,0,.05-5.45c-.26-2.18-1.34-3.92-2-5.91-.79-2.25-.55-5.2-1-7.64a73.42,73.42,0,0,1-1-11.37c0,3.68-1.61,6.91-1.57,10.52,0,2.64.27,5.45,0,8.08a16.46,16.46,0,0,1-3.18,7.85,16.75,16.75,0,0,0-.72-4.31c-.28-1.38,0-2.86-.13-4.27-.37-2.88-1-5.76-1.3-8.66-.29-2.37-.24-4.69-1-7a37.27,37.27,0,0,1-.39,8.51c-.74,3.7-2.36,7.14-2.75,10.93.32-1.06-.53-1.35-.77-2.2s-.41-2.28-.58-3.23c-.44-2.35,0-4.78-.35-7.15-.59-4.41-.58-8.84-1.29-13.24a108.46,108.46,0,0,1-1.67-18.78c0,3.37,0,6.74,0,10.1,0,2.37.41,5,.07,7.35-.21,1.42-1,2.21-1.64,3.46a13.59,13.59,0,0,0-1.65,6.71c0,3.24,1.11,8.59-.9,11.49a6.25,6.25,0,0,1-.76-2.09,5.1,5.1,0,0,0-1.26-1.62c-.77-1.76-.14-4.44-.13-6.36,0-2.3,0-4.6,0-6.89,0-4.52-.14-9.33-1.8-13.49-.67-1.68-.58-3.18-.76-5a54.28,54.28,0,0,1-.57-9c.1,1.16-.66,1.91-.85,3a17.85,17.85,0,0,0,0,3.1,17.15,17.15,0,0,1-.7,5.77c-.77,2.13-1.46,4.27-2.08,6.45A3.06,3.06,0,0,1,323,459.9c-1-1.17-.81-2.83-1.39-4.18-.47,1.15.14,2.32-.12,3.46-.22.94-.7,1.21-.84,2.28-.49,3.65.87,9.36-1.77,12.4-1.2-.79-.53-4-.74-5.18a25.4,25.4,0,0,0-1.18-4c-1-2.82-.84-4.92-1-7.9-.11-2.23-1.95-3.79-2.37-6.13-.58-3.25-.29-6.66-.94-9.86-.17-.84-1.09-5-2-5.15-.76,2-.16,5.1-.16,7.22,0,2.86-.8,5.23-.78,8.09,0,2.51,0,5,0,7.53A37.72,37.72,0,0,1,309,465c-.3,1.89-1.08,4-.88,5.88-.69-2.6-1.76-5.3-2.22-7.93s.15-5-.29-7.44c-.41-2.3-1.11-4.71-1.41-7.13-.57-4.59.12-10.82-2.21-15-1,2.94-.13,8.19-.14,11.4.9,1-1.35,9.73-1.55,11.74-.26,2.7-1.42,5.09-1.61,7.71a76.24,76.24,0,0,1-.79,8.25c.34-1.71-.82-3.2-1.54-4.63-1-2-.82-5.61-2.33-7a15.29,15.29,0,0,0-1.63,7.76c-.25-1.95-1-3.71-1.4-5.73s0-4.2-.3-6.29c-.69-4.3,0-8.84-1.4-13-.8-2.37-.68-4.54-.91-7.06-.26-2.83-1.56-3.63-2.18-5.78a13.56,13.56,0,0,1,0-3.71,26.34,26.34,0,0,0-.5-5.95c-.31-2-.81-4-1-6a122.79,122.79,0,0,1,0,12.29c-.22,3.08-.67,6.09-.81,9.19-.07,1.3.35,5.62-1.4,6.18-.14-.92.09-4.51-1.6-3.91a8.71,8.71,0,0,0-.09,2.7c0,2.53-.76,4.95-.87,7.46a33.88,33.88,0,0,1-.57,4.7c-.37,2-.36,3.8-.86,5.8-.95,3.81-.2,7.84-1,11.59-1.05-.78-1.19-2.84-1.8-4a16,16,0,0,1-1.18-2.82,31,31,0,0,1-.92-4.39c-.35-2.12-2.48-4.84-2.11-6.94,1,.37,1.69,1.64,2.93,1.45.56-1.07-1.06-2.6-1.31-3.7-.51-2.25.28-4.3-.92-6.27-.43-.71-.86-.64-1.23-1.66a16.83,16.83,0,0,1-.45-3.55,57.05,57.05,0,0,1-.79-5.66,15.46,15.46,0,0,0,3.72,3c-.8-.67-.34-1.72-.6-2.64-.35-1.2-1.45-1.9-2.07-2.92a54.42,54.42,0,0,1-3.91-8.44,34.08,34.08,0,0,0-1.75-4.77,15.73,15.73,0,0,1-2-4.9c-.82-3.93-1.67-7.93-3.58-11.51.21,2.35.75,6.56,0,8.77-.42,1.2-1.37,2-1.55,3.53-.22,1.87.08,3.9.05,5.78-.05,3.48-2.68,5.46-3.32,8.7a25.12,25.12,0,0,1-1.88,6c-.61,1.26-1.7,2.38-1.75,3.81a14.86,14.86,0,0,0,2.23-.84c.92-.65,1.32-1.85,2.25-2.2.26,1.26-1.22,3.42-1.68,4.61a31.05,31.05,0,0,0-1.56,6.81,27.21,27.21,0,0,1-.72,4.1c-.35.86-1.05,1.42-1.34,2.22,1.07-.25,1.79-1.8,3-1.19.15,1-.72,2.92-.69,4.21a13,13,0,0,1-.75,5.32c-.4.95-1.11,1.76-1.45,2.73s-.18,1.65-.72,2.57-.79-.28-1,.75a30.13,30.13,0,0,0-.61-6.13c-.23-2-.07-3.82-.13-5.78s-.75-4-.85-6a52.7,52.7,0,0,0-.41-7.31c-.37-2-1.44-3.53-1.86-5.45s0-4.05-.59-6c-.93-3.17-1.68-4.94-2.07-8.54a60.63,60.63,0,0,1-.56-8.87c.2,3-.65,6.15-.94,9.14-.42,4.36-1.92,8.57-2.19,12.89-.29,4.53-1.38,8.88-1.64,13.38-.16,2.76.21,17.81-3.76,18.06a61.93,61.93,0,0,1-.83-13.14c.07-5.63-1.32-11-1.56-16.63.05,2.74.17,5.51,0,8.23s-.85,5.31-.83,8.19c0,3.15.19,6.43-.06,9.58-.16,1.93-.52,3.8-.62,5.74-.09,1.55.39,3.84-.69,5.06a62.67,62.67,0,0,1-1.74-8.81c-.29,1.89-.78,3.75-1.1,5.63s-.15,3.94-1.07,5.55c-2.06-3.35-1.8-8.51-1.77-12.26,0-1.72,0-3.44,0-5.15a1.4,1.4,0,0,0-.67-1.7c-.46-2.16.37-4.32.57-6.51a13.41,13.41,0,0,0-.72-5.85c-.71-2.29-.4-4.13-.75-6.34s-1.11-4.1-1.39-6.27c-.47-3.65-.68-7.42-1.84-10.94.23,10.79.06,21.61.06,32.4,0,3,0,6,0,9.05,0,4.76.77,11.37-1.39,15.71-.33-2-1.71-3.7-2.35-5.58-1.17-3.43-1.83-7.34-2.71-10.86-.94.63-.51,1.64-.58,2.63a20,20,0,0,1-1,6.14c-2-2.15-2.17-5.72-2.15-8.51,0-3.51,0-7,0-10.51a51.82,51.82,0,0,0-.65-8,5.71,5.71,0,0,1,0-3c.92.32.95,2.19,1.16,3.12a9.44,9.44,0,0,0,3.14,5.36c-.84-1.12-.54-2.53-.52-3.83,0-2.24.12-5-1-7a11.75,11.75,0,0,1-1.57-3.1c-.84-3.4-1.89-6.76-3-10.08a72.26,72.26,0,0,1-3.83-29.65c-.34,2.81-1.77,5.24-2.62,7.86-1.17,3.59-1,8.14-1.45,11.9a93.41,93.41,0,0,1-3,14.78c-.88,3.22-3.17,7.29-3.06,10.64,2.74,1,3.42-2.83,5.47-2.38,2.31.5-1.37,8.87-1.63,9.71-1.9,6.07-2.63,13-5.49,18.68-1.46,2.91-2.59,9.48-7.05,8.57-2.06.37-3.4-2-4.27-3.48-1.89-3.23-3.82-6.35-5.57-9.68-2.93-5.57-3.11-11.15-4.63-17-1.65-6.36-5-12.39-5.85-18.91a27.92,27.92,0,0,0-.82-5.48,54.55,54.55,0,0,0-2.42-6.42c.11,1.75-.1,3.51,0,5.25.15,2.73.87,5.27.84,8,0,3.75.92,8.71-.84,12.2a30.54,30.54,0,0,0-.46-9.11c-.66-2.58-2.24-4.68-3.22-7.12a68.27,68.27,0,0,1-4.84-18.78c-.3-3.38.06-6.63-.63-10-.44-2.12-1.37-4-1.79-6.15-.6-3-.55-6.14-1.34-9.07-.47-1.71-.57-3.84-1.18-5.4-.88,1.73-.65,4.13-.64,6,0,3,0,6.09.05,9.13a61.39,61.39,0,0,1-.73,9.7c-.69,4.5-2.58,8.79-3.44,13.28-.48,2.51-.28,4.73-.61,7.25-.28,2.12-1.67,4-1.08,6,.23.77,1,1.1,1.21,2,.34,1.29-.26,2.94-.47,4.21-.39,2.35-.19,4.71-.78,7a16.23,16.23,0,0,0-.39,4.25c.32-10.65-2.46-21.12-2.35-31.79a85,85,0,0,0-1.39-14,33.77,33.77,0,0,1-.16-5.87c0-1.5.86-7.28-1-8.37-1.35,1-1.22,3.76-1.32,5.27-.25,4.17.09,8.35-.12,12.52-.26,5.37-.76,10.56-.7,16,0,4.18-1.42,8.1-1.62,12.24-.14,2.77,0,4.83-1.38,7.43a10.82,10.82,0,0,1-.13-3.68c0-2.88-.42-5.6-.61-8.47-.25-3.65-.37-7.25-.8-10.88a13.3,13.3,0,0,1-.12-3.83c-.62,4.25-2.48,8.17-2.45,12.54,0,1.58.13,2.47-.71,3.81-.73-4.88-2.29-9.66-3.25-14.51-.71-3.56-1-7.15-1.55-10.72-.91-5.45-4.07-10-5.53-15.2-.88-3.17-1.2-6-3-8.89a8.41,8.41,0,0,0,.09,4.61q.61,5.73.66,11.5c.08,5.1-.07,10.2,0,15.31,0,5.74-.41,12.66-2.53,18-3.52-3.92-1.51-11-3.09-15.68-1.13-3.29-4.24-5.27-5.34-8.67-.82-2.58-1.29-5.24-2.33-7.76s-2.51-4.7-3.6-7.09a44.7,44.7,0,0,1-2.74-8.66c-.34-1.44-.56-4.48-2.2-5.06-.83,3.66-.07,9.49.08,12.74.28,6.38.78,12.72.22,19.11a111.06,111.06,0,0,0-.29,17.11c-1.17-3.43-2.72-6.68-3.73-10.17-1.27-4.43-1.61-8.94-2.59-13.42a34.92,34.92,0,0,0-4.51-10.52c-.81-1.39-.78-3.25-1.66-4.45-.47,5.16-.94,10.17-1.77,15.31-.49,3-1.47,5.65-1.59,8.63-.13,3.41.69,7.45-.06,10.82-.49,2.2-2.38,4.67-3.79,6.37-2.36-.63-2.93-4.78-3.55-6.71A92.31,92.31,0,0,1,63.12,403a43.3,43.3,0,0,0-13-25.63c-1.16-1.16-2-2.26-3.6-2.51-2.59-.41-4.08,2.4-5.56,4-.82.91-2.56,3-4,2.82-1.92-.2-1.9-2.37-2.41-3.86a.9.9,0,0,0-1.28.5c-8.92-12.37-13.09-27.25-17-41.77a2.7,2.7,0,0,0-.72,3q-.66,5.16-1.27,10.33c-.23,3,0,5.75-.62,8.68a112.1,112.1,0,0,1-6.45,19c-1.06-5.44.27-11.28-.86-16.82-.32-1.56-1.22-3.11-1.49-4.62a39,39,0,0,1-.16-4.46c-.27-3.53-1.06-7.22-1.62-10.72-.31-1.9-.68-5.42-2.12-6.72a8.79,8.79,0,0,0-.15,4q0,5.2,0,10.4c0,3,0,5.92,0,8.88a35,35,0,0,1-1.54,12c-.72,2.32-2.9,5.61-3.15,8.12-1.42-3.13-2-7.44-2.59-10.6-1-5.44-1.78-10.92-2.84-16.36-.89,7.24,0,14.66-.84,22a154,154,0,0,0-1.52,15.62,108.66,108.66,0,0,1-.88,13.25c-1.31,9.2-.62,18.48-1.66,27.73-1,8.6-2,17.16-2.56,25.8-.66,11-.38,22-.66,33-.47,18.06-.46,35.95,0,54,.39,15.45.92,30.95,1,46.41.08,12.36.32,24.66.67,37,.11,3.82.11,7.63.07,11.44,0,2.33-.36,4.92.13,7.2l.66-.79c44.05,7,90.18,16,134.68,18.95,23.64,1.6,47.38,2.62,71,1.14,43-2.71,84.93-13.66,126.41-25.14q53.53-14.79,106.71-30.87c2.94-.89,6.1-1.94,7.85-4.46a11.64,11.64,0,0,0,1.66-6l196.43,7.9C631,602.55,630.49,599.36,630.5,596.64Z" style="fill: url('#linear-gradient-6');"/><path d="M -75.010002 750.809998 H 1472.500008 V 1789.639954 H -75.010002 V 750.809998 Z" id="_Rectangle_3" data-name="&lt;Rectangle&gt;" class="cls-10" style="fill: url('#linear-gradient-7');"/><path id="_Path_7" data-name="&lt;Path&gt;" class="cls-11" d="M1298.21,1073.36c-10.47,3.54-27.56,1.42-38.89.05-6.1-.73-11.89-3-18-3.93-7.4-1.1-23.85,2.59-29.9-1-5.58-3.29-.64-6-4.06-9-4.18-3.73-15.23-5.68-20.32-6.77-9.91-2.13-20.54-4.81-30.65-5.28-23.42-1.09-45.9,9.68-68.62,5.25-8-1.57-53.86-2.61-49.21-12.21-11.1-9.11-31.89-3.57-45.49-4.74-12.36-1.07-25.27-2.36-36.92-6.12,3.23-15.18,51.58-11.87,64.55-16.22,75-25.19,161.79-2.4,241.15-2.36,25,0,49.92-2.59,74.88-3.26,10.09-.27,18.52-2.14,22.71,6.66,7.65,16.05-12.16,38.77-25.75,43.52C1325.78,1060.71,1301.61,1065.26,1298.21,1073.36Z" style="fill: url('#linear-gradient-8');"/><path id="_Path_8" data-name="&lt;Path&gt;" class="cls-12" d="M1277.05,980.46c-20-8.46-60.82,2.49-83,4.7-28.14,2.81-60.06,8.74-88.42,4.62-21.33-3.1-30.31-7.74-52.64-4.79-20,2.64-40.56,9.5-60.61,9.76-19.82.25-39.6-2.25-60.15,0-17.06,1.87-28.61,5.78-41.08,13.93-3.12,2-5.58,9.26-13.24,13.22-26.83,13.88-77.91,1.34-106.5-1.39s-55.59-.92-84.39,0c-37.79,1.15-75.31,2.34-113.22,2.33-27.51,0-46.36-6.37-70.65-11.87-24.67-5.58-102.1,11.45-115.48-13.59-16.25,1.3-14.75-17-29.48-21.57-21.18-6.58-51.31,2.69-73.22-.47C241.57,969,176.73,972,138.76,945.18c-40.4-28.47-86.52-67.51-91.6-114.29-1.89-17.4-13.55-38.46-2.56-51.91,13.09-16,53.41-12.4,71.21-12.54,49.6-.36,99.38-4.68,149-6.47,269.38-9.69,540.06-14.42,809.39-.18A951.43,951.43,0,0,1,1180,771.09c27.38,4.57,67.41,4.58,91.8,19.21,16,9.59,22.86,32.66,40.55,37.29Z" style="fill: url('#linear-gradient-9');"/><path id="_Path_9" data-name="&lt;Path&gt;" class="cls-13" d="M1207.34,773.92c-4.58-6.56-8.59-9.51-10.26-16.89-2.29-10.15,1.44-21.3-3.42-31.25-7.47-15.3-29.05-22.46-43.74-27.82-33.71-12.33-72-10-107.33-12.21-31.51-2-61.49-.54-93,1.2-39.59,2.2-80,10.35-119.42,8.94L204.61,708.82c-21.83,5.76-43.76,13-65.41,19.82-28.95,9.17-67.3,9.82-86.83,36.48C35.09,788.7,7.5,867.37,50.56,882.86c20.66-.33,42.65,2.09,63,4.71,17.24,2.23,34.67-1.87,51.7.08,14.82,1.7,27.87,4.91,43.38,5.53,15.86.64,37.88,5.37,53.68,1.5,13.62-3.35,21.24-6.64,36.77-7.38,17.25-.81,34.83-1.44,52.16-2.1,48.52-1.84,98.09,1.58,146.84,1.18,31.37-.25,60.11,3.59,91.72,2.42,15-.55,43.06-3.61,55.67,5.55-20.12,1.54-40.18,5.56-60.46,6.15-28.35.82-56.9-.42-85.13,1.38,4.37,10.06,43.74,6.37,54.68,8.88-7.34,3.4-19.43,1.5-27.7,1.5-18.17,0-35.51,0-53.48,2.94-15.79,2.62-30.39,1.3-46,3.15-15.36,1.82-46.78,1.07-58.59,11.4-13.51,7.55,51.65,6.37,120.48,4,1.84,4.62,44.43,8.32,96.73,8.32,53.47,0,96.82-3.86,96.82-8.63,0-1.26-3.07-2.45-8.53-3.53,13.94,0,27.87-.3,41.74-1.21,14.35-.94,28.63-2.53,43.09-3.49,8.28-.55,26.74,1.93,33.45-3.53,7.1-5.87-38.92-6.25-49.62-6.79-24.16-1.21-47.65-.84-71.19-3.74-35.61-4.4-72.8,1.66-108.19-5.93,26-3.89,55.81-1.82,82.17-.59,21.09,1,65.67,4.25,83.54-7.61-7-8.84-44.5-9.66-56.66-9.44-7.48.14-19.11-4.58-24.66-8,23.55-1.56,48.54,2.36,72.31,3.25,14.69.55,29.4.77,44.16,1.19,13.42.37,24.86,4.1,38.46,3.61,44.05-1.58,88.94-12.23,132.61-6.22,28.54,3.92,55-.45,83.55-1.86,17.36-.85,37.42-3.89,54.56-2.59,41.43,3.13,97-26.27,123.42-51.76C1213.85,809,1221.57,794.27,1207.34,773.92Z" style="fill: url('#linear-gradient-10');"/><path id="_Path_10" data-name="&lt;Path&gt;" class="cls-14" d="M1065.38,666.38l-2.85-68.1a457.14,457.14,0,0,1-118.48,1.61,422.48,422.48,0,0,1-59.74-11.3c-10.24-2.74-20.86-5.91-31.28-3.92-9.73,1.87-18.24,8.11-28,9.77-12.48,2.13-24.88-3.45-36-9.4a408.06,408.06,0,0,1-57.05-36.77c-10.64-8.19-21.32-17.13-34.31-20.49-15.44-4-31.66.52-47,5L471.06,585.38c22.48,24.93,47.46,49.57,77.43,64.68,21,10.57,44.23,15.53,67.2,20.38,57.53,12.15,115.32,24.34,174,28C814.25,700,839,700,863.3,695.93c18.47-3.12,36.45-8.58,54.54-13.44C966.69,669.36,1015,670.67,1065.38,666.38Z" style="fill: rgb(229, 126, 119);"/><g id="_Group_3" data-name="&lt;Group&gt;"><path id="_Path_11" data-name="&lt;Path&gt;" class="cls-15" d="M1416.88,533.82c0-3.66,0-7.32,0-11s.33-7.74-.06-11.5c-.3-2.95-.93-5.88-1.17-8.84-.43-5.31,0-10.83,0-16.16V471.42c0-3.2,0-6.41,0-9.61,0-1.45-.74-2.7-.66-4,.06,1.91,0,3.83,0,5.75,0,2.17-.63,4.07-.67,6.19a27.94,27.94,0,0,1-.13,5c-.23,1.18-1,2.92-1.4,4.25s-.75,3.2-.08,4.57a6.43,6.43,0,0,1,1,2.2,14.53,14.53,0,0,1-.48,5.33c-.4,1.81-.48,3.76-.92,5.51a3.07,3.07,0,0,0-.53.06c-2.51.74-4.32-5.68-4.91-7.21-1.16-3-1-6.48-2.32-9.33a12.31,12.31,0,0,1-1-2c-.45-1.8-.13-3.7-.6-5.54-.86-3.3-.54-6.64-1.62-9.87-.61.23-.84,1.84-1.28,2.52-1-.49-1.08-3.26-1.3-4.29-.51-2.45-.36-4.88-.78-7.33a50.84,50.84,0,0,1-1-8c0,4.83,0,9.92-1.78,14.43-.64,1.64-.52,3.14-.91,4.78s-1.53,2.5-2,4c-.68,2-.72,4.11-1.34,6.09-.44,1.42-.94,2.76-1.3,4.21a20.47,20.47,0,0,0-.31,5.37,16.62,16.62,0,0,1-.81,5.16c-1.16-.68-.49-4.07-.48-5.25a54.21,54.21,0,0,0-.32-7.65c-.37-3-.48-5.92-.82-8.9-.22-2,0-3.78-.1-5.74s-.51-4.11-.68-6.17c-.27-3.33-.64-6.39-.64-9.77,0,9.8-3.94,19.23-3.85,29,0,2.88,0,5.76,0,8.64,0,1.61.86,7.2-.64,7.86-1.67-.78-.56-6.63-.61-8a66.32,66.32,0,0,0-1.17-8.55,45.12,45.12,0,0,1-.11-7.8,20.57,20.57,0,0,0-.66-5.65c-.22-.83-.4-3.24-1.17-3.59-.45,1.69-.14,4.16-.25,5.8-.2,2.93-.67,5.79-1,8.69-.26,2.09.58,5-.69,6.8-.73,1-2.11,1.17-2.56,2.56,0,0-.55,1.95-.57,2.06a3,3,0,0,0-.12,1.44c.17.78,1.22,1.16,1.25,1.95,0,.62-.37.7-.5,1.2a15.43,15.43,0,0,0-.12,3.33,16,16,0,0,1-1.66,5.37c-1.23,2.66-2.72,4.68-2.87,7.74-.05.87.27,4.71-1.27,4.53-1.56-2.09-.62-6.54-.62-9s0-5.09,0-7.63V479.65c0-.39-.06-1-.12-1.64-.26,1.36-.55,2.71-.76,4.08-.6,3.59-1.09,7.2-2,10.74-.46,1.76-1.24,3.38-1.78,5.09a23.14,23.14,0,0,0-.42,3.78c-.31,1.94-1.87,4-2.77,5.71-1.21,2.33-2,5.27-3,7.83.32-4-1.09-7.43-1.3-11.38-.15-2.63.34-5.09-.62-7.64a.41.41,0,0,1-.5.37,6.9,6.9,0,0,1-.21-2.32,26.94,26.94,0,0,1-1.21,5.08c-.84,2.72-.93,5.34-1.42,8.08a19.39,19.39,0,0,0-.52,2.81,21.94,21.94,0,0,1,.05,3.62c-.2.91-.58,3.2-1.13,3.8a19.93,19.93,0,0,1-1.15-2.73c-.75-1.72-1.93-3.11-2.81-4.73s-.71-2.92-.71-4.57c0-.69-.37-2.29.37-2.56s1.37,1.1,2.12,1.29a3.24,3.24,0,0,0-.53-2.08,20.18,20.18,0,0,1-.85-4.69c-.28-2.28-.89-4.51-1.1-6.79-.13-1.32-1.94-9,0-9.65.82.32,1.08,1.1,1.88,1.42.56-.91-.27-2.23-.65-3.07a23.41,23.41,0,0,1-2.37-6.72,56.81,56.81,0,0,0-.56-5.81,21,21,0,0,1-.83-4.22,15.42,15.42,0,0,0-.34-4.18c-.47-1.6-1.31-2.88-1.54-4.56a17.77,17.77,0,0,1-.13-2.93,6,6,0,0,1-.14.69c-.65,2.21-1.86,4.16-2.37,6.45-.89,4-1.19,7.75-2.81,11.56-1.69,4-2.45,8.06-3.87,12.08-.21.61-1.51,2.57-.9,3.18s2.31-.09,3.11.14c.12,1.61-1.25,3.66-1.89,5.1a26.46,26.46,0,0,1-2.68,5,52.14,52.14,0,0,0-3.76,6.53c-.54,1-.86,2.39-1.67,3.2.57-.07,2.81-.43,3.32,0,1.1.86-.93,3.79-1.23,4.78-.64,2.1-.95,4.51-2,6.48-.78,1.51-2.81,2.76-2.26,4.73-2.91.91-1.94-8-1.92-9.6,0-1.33-.5-2-.66-3.19-.07-.62.18-1.33,0-1.94-.17-.84-.75-1.44-.66-2.33a12.93,12.93,0,0,1-.83,1c-1-.6-.4-2.86-.43-3.87-.06-2.46-.71-4.8-.68-7.26,0-1.77,0-3.55,0-5.32-1.26,3.84-1.63,8-2.45,11.92a36.46,36.46,0,0,0-.81,4.63c0,.58.22,1.38-.08,1.94s-.9.7-1.19,1.19c-1.5,2.51-.79,6-2.22,8.66a11.48,11.48,0,0,0-1.55,3.58c-.15.9.12,3.72-1.21,3.73-.45-1.59-.14-3.39-.5-5.06a14.09,14.09,0,0,0-.9-3.43c-.43-.77-.49-.51-1-1a1,1,0,0,1-.8-.17c-.15-.5-.31-1-.47-1.51a35.44,35.44,0,0,1-1.54-4.67,15.68,15.68,0,0,1,0-3.75c.31-4.09,1-8.19.45-12.3a45.11,45.11,0,0,1-.5-6.46c0-1.77.34-4-.12-5.72-1.76,3.18-2.13,7.49-2.62,11s-1.34,7.24-1.67,10.93c-.35,4-2.81,6.1-3.29,9.91a34.75,34.75,0,0,1-3.2,9.73c-1.48,3.11-.67,7.06-2.07,10.3-.74-.58-.91-3.07-1.1-3.77a37.36,37.36,0,0,1-1.28-3.68c-.32-1.94-.33-3.8-.84-5.79-.4-.11-.57.1-.49.61,0-2.49.09-5,.06-7.47,0-2.87-.63-5.65-.7-8.5a24.65,24.65,0,0,0-.63-6,8.91,8.91,0,0,1-1.12,5.63c-.8-1.84.21-6.12-1.27-7.47-.84,1.38-.74,4.39-.94,5.83a84.53,84.53,0,0,0-1.19,9c0,2.13.31,4.32-.09,6.44-.28,1.49-.11,3.42-.53,4.81s-1.42,1.26-1.79,3,.13,3.68-.06,5.47c-.12,1.09-.55,2-.71,3.11-.33,2.22,0,4.84,0,7.08-2.19.11-1.78-5.5-2.56-7.11s-1.36-.59-2.6-1.28c-.69-.38-.74-1.42-1-2.08a31.32,31.32,0,0,1-1.57-5c-.47-2.46-.71-5-1.41-7.39-.32-1.08-1.06-2.25-1.45-3.4-.44-1.34-.45-2.81-.79-4.18a20.07,20.07,0,0,1-.84-3.31c-.08-1,.61-3.55-.45-4-.81,1.9-.6,4.48-1.09,6.55s-1,4.11-1.71,6.11-1.89,3.51-2.64,5.46-2,2.35-2.59,4.31-.09,3.77-.48,5.71c-.31,1.56-1.19,3-1.54,4.56s-.23,3-.81,4.48c-1.06,2.56-.74,5.12-1.29,7.88a68,68,0,0,1-2.76,10.74c-.66,1.73-.08,6.19-1.77,7.06a19.51,19.51,0,0,1-.11-5,29.33,29.33,0,0,0-.66-7.18,15.68,15.68,0,0,1-.59-5c-.62,2-1.22,4.11-1.93,6.09-.56,1.56-2.2,3.56-1.93,5.23a50.25,50.25,0,0,0-2.42-9.51c-1.35-3.87-1.89-8-2.73-12.06-.34-1.6-1-3.19-1.17-4.83-.28-2.32.09-4.68-.1-7-.06-.74-.2-1.46-.33-2.2-.3-1.84,0-4.07-.79-5.76-.88.62-.92,3.29-1.12,4.33a111,111,0,0,0-1.47,12.73,56.92,56.92,0,0,1-.93,9.19c-.3,1.25-.89,2.22-1.14,3.41a44.35,44.35,0,0,0-.55,7c-.11,2.41.23,5.17-1,7.34-.77,1.35-1,1.58-2,.52-1.62-1.7-1.12-4.65-2.88-6.24-1.64,2.84-.3,7.48-2.33,10.06-.36-.72-.59-1.53-1.34-1.88-.83,3-.8,6.31-1.26,9.35-.33,2.2.2,4.12-.91,6.11-2.2.19-3.61-14.46-3.68-16-.1-1.89-.12-3.69-.35-5.56-.25-2.05,0-4.49-.79-6.42-.87.67-.79,2.49-.94,3.49-.55,3.48-1.63,6.87-1.77,10.4-.09,2.28-.07,4.49-.35,6.75a17.46,17.46,0,0,0-.21,5.9l.53.17c0,2.22,0,5.08,0,7.3,0,2.95-.67,5.78-.66,8.75,0,2.72-.51,5.91.64,8.28l206.85-8.32c0-2-.61-3.81-.66-5.81,0-1.07,0-2.15,0-3.21V555.19c0-3.89-.5-8.1.08-12C1414.86,539.91,1416.89,537.26,1416.88,533.82Z" style="fill: url('#linear-gradient-11');"/></g><path id="_Path_12" data-name="&lt;Path&gt;" class="cls-16" d="M1345.89,589.86a468.88,468.88,0,0,1-128.39-33.42c-8.16-3.42-16.34-7.11-25.09-8.42-12.16-1.83-25.51.84-36.17-5.29-7.61-4.38-14-13.15-22.73-11.87-3.24.49-6.07,2.39-8.78,4.24l-69.62,47.53-12.48,8.52L935.28,664.46c30.9,2.67,68.32,2.69,99.32,1.72,49.88-1.55,99.51-7.81,149.38-9.79,32.14-1.27,64.78-.83,95.79-9.35S1333.47,619.53,1345.89,589.86Z" style="fill: rgb(226, 158, 121);"/><g id="_Group_4" data-name="&lt;Group&gt;"><path id="_Path_13" data-name="&lt;Path&gt;" class="cls-17" d="M1328.89,731.17H-35.36c25.5-25.94,28.88-67.82,16.65-102.08,89.59-32.31,195.51,26.74,282-13.15,39.44-18.19,69.25-55.16,111-67.11,35.31-10.11,72.91-.53,108.37,9C531.38,571,582,585.11,619.87,618.39c13,11.38,24.49,25,40.08,32.38,29.3,13.83,65.11,2.16,95.65,13,21.38,7.58,40.07,26,62.67,24.13,17.27-1.44,30.92-14.46,45.73-23.45,24.59-14.93,54-19.21,82.45-23.17,78-10.87,156.43-21.77,235.17-19.83,40.9,1,82.11,5.46,122.55-.81,28.63-4.43,59.22-13.94,85.41-1.56Z" style="fill: url('#linear-gradient-12');"/><g id="_Group_5" data-name="&lt;Group&gt;"><path d="M 245.110001 727.640015 H 1328.89003 V 734.700015 H 245.110001 V 727.640015 Z" id="_Path_14" data-name="&lt;Path&gt;" class="cls-18" style="fill: rgb(253, 238, 214);"/></g></g><path id="_Path_15" data-name="&lt;Path&gt;" class="cls-19" d="M1427.3,552.86c-36,1.62-73.33,3.62-105,20.71-29.79,16.07-52.81,44.64-85.28,54.15-24.18,7.08-53.39,3.72-71.16,21.59-6.28,6.32-10.18,14.57-15.43,21.77-17,23.24-46.13,33.48-73.48,42.45h375Z" style="fill: rgb(118, 142, 129);"/><path id="_Path_16" data-name="&lt;Path&gt;" class="cls-20" d="M1423.12,633.56c-13.46-.15-26.95-.3-40.35,1-77.92,7.36-146,61.63-224.16,66.29-35,2.09-71.16-5.9-104.69,4.39-30.47,9.35-55,32.8-85.39,42.5-35.07,11.22-72.95,2.81-109.2-3.62-37.13-6.58-79.4-9.76-108.59,14.12-11.72,9.59-20.53,23.06-34.19,29.6-24.14,11.56-56.67,3.36-74.5,23.33h787.88Z" style="fill: url('#linear-gradient-13');"/><path id="_Path_17" data-name="&lt;Path&gt;" class="cls-21" d="M-44.68,782.12H606c-33.43-5.53-67.21-17.69-97.79-32.28-6.12-2.92-12.14-6.21-18.7-7.9-4.73-1.22-9.66-1.58-14.37-2.85-15.71-4.23-27.09-17.82-41.81-24.74-27.54-12.94-60.15-.44-90.29-4.54-4.7-.64-9.52-1.78-13.19-4.78-3.28-2.69-5.3-6.6-8.26-9.65-4.46-4.61-10.71-6.93-16.6-9.47a156.94,156.94,0,0,1-44.78-29.34c-7.39-6.91-14.78-14.92-24.71-16.84-6-1.17-12.22.09-18.34,0-18.94-.38-34.78-13.52-51.62-22.17-18.74-9.63-39.69-13.92-60.34-18.11l-42.57-8.63C29.25,584-5.08,577.21-38.62,583.14Z" style="fill: rgb(128, 145, 130);"/><g id="_Group_6" data-name="&lt;Group&gt;"><path id="_Path_18" data-name="&lt;Path&gt;" class="cls-22" d="M34.49,720.19c12.36-38.21,20-82.38,13.33-122.29a35,35,0,0,1,19.6,0c.06,44.32,1.59,89.81,17.25,131.7Z" style="fill: url('#linear-gradient-14');"/><path id="_Path_19" data-name="&lt;Path&gt;" class="cls-23" d="M58,608.09c-9.51,8.29-68.37,56.7-71.38,19.34-1.81-22.4,17.51-40.17,23.54-60.17-7.41,3.38-15.18,8.14-24.26,6-14.85-3.55-16.4-17.73-14.46-30.67C-25.29,520.79-8.37,499.33,1,479.68c6.38-13.33,19.72-32.48,18.56-48-1.74-2.1-.87-.32-4,1.84-6.13,4.23-8.93,9.36-17.19,10-14.72,1.21-12.6-9.22-7.06-18.54C-2.22,414.22,6.94,405.36,13,394.4c4.06-7.34,6.09-15.62,9.68-23-9.58,8-15.58,14.61-28.82,14,1-11.88,17.45-25.7,24-35.52,6.84-10.16,15.84-29.16,15.81-39.62C28,314,13.55,319,9.49,309.56c-3.17-7.4,5.16-20.64,8.07-26.87,13-27.85,29.12-55.2,38.1-84.61,3.55,41.06,21.87,80.62,41.12,116.45,5.18,9.63,20.22,31.6,11.77,43.07-9.37,12.73-29.8-7.46-35.64-15.27-3.44,11.78,13,41.19,18.82,52.46a241.09,241.09,0,0,0,29.5,44c-10.22-.32-15.15-2.92-24-7.89,4,20.12,26.8,26.47,37.23,41.51,9.1,13.12-6.31,17.19-16.85,13.36,3,19.57,20.86,31,19.6,52.51-.94,16-15.94,16.25-25.87,5.5,9.34,18,22.65,28.9,33.61,45.5,9.16,13.88-7.66,7.17-14.86,3.46,12,13,27.43,21.22,39.22,34.23,8.57,9.47,15.53,23.7.29,29.53-20.76,7.93-44.61,3.68-64.27-5.4A105,105,0,0,1,77.58,632.7C75.35,630.62,57.07,608.91,58,608.09Z" style="fill: url('#linear-gradient-15');"/></g><g id="_Group_7" data-name="&lt;Group&gt;"><path d="M 172.470001 544.52002 H 185.800001 V 761.740021 H 172.470001 V 544.52002 Z" id="_Rectangle_4" data-name="&lt;Rectangle&gt;" class="cls-24" style="fill: url('#linear-gradient-16');"/><path id="_Path_20" data-name="&lt;Path&gt;" class="cls-25" d="M197.34,587.8a22.81,22.81,0,0,1,1.41,14.32,113,113,0,0,1-22.16-28.37A45.45,45.45,0,0,1,173,592a29.75,29.75,0,0,1-4.29-19,212,212,0,0,1-22.81,33.25c-2.84,3.39-7,7-11.13,5.51a155.07,155.07,0,0,1,12.13-39.49L136,581.5c1.43-15.69,9.91-29.74,18.18-43.15-5.69,6.68-13.43,14-21.89,11.75a96.06,96.06,0,0,0,21.23-35.63,9.62,9.62,0,0,1-11.65,5.09,169.07,169.07,0,0,1,11.83-37.39,41.28,41.28,0,0,1-24.25,16.22c4.26-14.95,24.18-22.94,24.73-38.48a24.35,24.35,0,0,1-11.25,11,69,69,0,0,0,8.4-26.44,20.94,20.94,0,0,1-12.2,12.75,307.14,307.14,0,0,1,10.93-48.58l-13.86,22.26c3.53-33.19,24.15-66.11,19.76-99.19a29.5,29.5,0,0,1-21.28,20.1c3.58-24.5,24.11-44.22,26.68-68.85A17.76,17.76,0,0,1,151.81,294c5.73-18.95,8.93-39.35,10.44-59.09-2.61,10.09-6.87,16.6-14.66,23.52,9.53-47.43,19.1-95.15,20.26-143.51,1,57.35,12.77,115.36,32.18,169.34a107.41,107.41,0,0,1-15.92-18.66q1.84,7.88,3.7,15.74c.87,3.69,1.62,8-.76,10.95s-8.79,1.31-7.82-2.36c-1.66,15.11,3.54,29.84,11.54,42.77s17.6,25,23.06,39.23a83,83,0,0,1-19.61-12,80.31,80.31,0,0,1,14.89,45.92c0,1.51-.15,3.26-1.42,4.07s-3.11.15-4.48-.66a37.18,37.18,0,0,1-15.27-17.48c3.66,16.2,8.6,31.11,17.27,45.27a60.64,60.64,0,0,1-18.88-19.95c9.31,32.33,19.44,66.09,43,90.07A57.39,57.39,0,0,1,200,481.83c-2,2.13-1.06,5.74,0,8.43q8.25,21,16.48,42.1L198.79,511c2,11.16,7.62,21.25,12,31.68s7.66,22.1,4.59,33a44.38,44.38,0,0,1-16.21-16q7,21.88,14,43.77C207.83,599.19,201.2,593.48,197.34,587.8Z" style="fill: url('#linear-gradient-17');"/></g><path id="_Path_21" data-name="&lt;Path&gt;" class="cls-26" d="M-42.71,646.89A479.93,479.93,0,0,0,68.75,677c20.36,2.93,44.14,6.59,54,24.68,4,7.39,5.43,16.91,12.48,21.49,8.47,5.49,21,.93,29,7.14,3.5,2.74,5.35,7.07,8.33,10.37,6.89,7.63,18.34,8.55,28.61,8.9q33.48,1.17,67,1.75c10.49.18,21.24.37,31,4.13,4.74,1.82,9.14,4.44,13.91,6.18,14.43,5.24,31.55,2.18,44.56,10.33,8.62,5.4,14.1,15,23.07,19.79,17.81,9.48,39.27-3.85,59.4-2.63,21.79,1.33,38.48,19.18,58.15,28.63,17.56,8.43,37.46,10.09,56.7,13.13a374.15,374.15,0,0,1,106.89,33.93c-.53,0-3.54,2-4.06,2H-44.73Z" style="fill: url('#linear-gradient-18');"/><path id="_Path_22" data-name="&lt;Path&gt;" class="cls-27" d="M508,958.51c0,.87-13.34,1.57-29.79,1.57s-29.79-.7-29.79-1.57,13.33-1.57,29.79-1.57S508,957.64,508,958.51Z" style="fill: rgb(89, 211, 211);"/><path id="_Path_23" data-name="&lt;Path&gt;" class="cls-27" d="M688.3,947.14c0,2.82-30.53,5.1-68.2,5.1s-68.2-2.28-68.2-5.1,30.53-5.09,68.2-5.09S688.3,944.33,688.3,947.14Z" style="fill: rgb(89, 211, 211);"/><path d="M 732.200024 978.109985 A 56.049999 4.7 0 0 1 676.150024 982.809985 A 56.049999 4.7 0 0 1 620.100025 978.109985 A 56.049999 4.7 0 0 1 676.150024 973.409986 A 56.049999 4.7 0 0 1 732.200024 978.109985 Z" id="_Path_24" data-name="&lt;Path&gt;" class="cls-27" style="fill: rgb(89, 211, 211);"/><path id="_Path_25" data-name="&lt;Path&gt;" class="cls-27" d="M747.1,955.37c0,1.74-8.6,3.14-19.21,3.14s-19.2-1.4-19.2-3.14,8.6-3.13,19.2-3.13S747.1,953.64,747.1,955.37Z" style="fill: rgb(89, 211, 211);"/><path id="_Path_26" data-name="&lt;Path&gt;" class="cls-27" d="M758.86,937.23c0,.93-6,1.68-13.33,1.68s-13.33-.75-13.33-1.68,6-1.68,13.33-1.68S758.86,936.3,758.86,937.23Z" style="fill: rgb(89, 211, 211);"/><path d="M 601.28997 998.099976 A 33.32 2.74 0 0 1 567.969971 1000.839976 A 33.32 2.74 0 0 1 534.649971 998.099976 A 33.32 2.74 0 0 1 567.969971 995.359976 A 33.32 2.74 0 0 1 601.28997 998.099976 Z" id="_Path_27" data-name="&lt;Path&gt;" class="cls-27" style="fill: rgb(89, 211, 211);"/><path d="M 745.539995 1003.200012 A 21.17 2.35 0 0 1 724.369995 1005.550012 A 21.17 2.35 0 0 1 703.199995 1003.200012 A 21.17 2.35 0 0 1 724.369995 1000.850012 A 21.17 2.35 0 0 1 745.539995 1003.200012 Z" id="_Path_28" data-name="&lt;Path&gt;" class="cls-27" style="fill: rgb(89, 211, 211);"/><path id="_Path_29" data-name="&lt;Path&gt;" class="cls-27" d="M860.77,996.73c0,.75-12.37,1.37-27.63,1.37s-27.64-.62-27.64-1.37,12.38-1.37,27.64-1.37S860.77,996,860.77,996.73Z" style="fill: rgb(89, 211, 211);"/><path id="_Path_30" data-name="&lt;Path&gt;" class="cls-28" d="M1472.51,973.41h-687c17.17-15.44,31.09-28.1,53.24-34.6,32.87-9.63,73.4.78,98.37-22.66,15.55-14.61,22.31-40.57,43.07-45.52,6.41-1.53,13.21-.62,19.63-2.12,20.76-4.85,28.48-31.1,46.65-42.27,19.19-11.8,44.5-4,66.12-10.32,20.93-6.15,36-24.8,56.12-33.13,27.92-11.54,60.57-1.51,89.57-10,18.82-5.51,34.45-18.32,51-28.87a238,238,0,0,1,143.43-36.47Z" style="fill: url('#linear-gradient-19');"/><path id="_Path_31" data-name="&lt;Path&gt;" class="cls-29" d="M-24.49,760.41c16.43-2.24,37.47,1.67,41.84,17.66,1.29,4.73.83,9.92,2.88,14.37,3.23,7,11.71,10.06,19.44,10.36s15.49-1.36,23.17-.46c22,2.6,37.07,25,58.67,30.17,13.14,3.12,26.83-.62,39.81-4.34l59-16.89c11.69-3.34,24.85-6.54,35.46-.61,5.65,3.16,10,8.7,16.22,10.52,7.67,2.25,15.61-1.78,23.52-3,24-3.61,44.27,18.79,68.29,22.16,13.64,1.91,27.45-2.49,41.19-1.6,12.25.8,23.81,5.75,35,10.85q26.67,12.18,52.52,26H-38.44Z" style="fill: url('#linear-gradient-20');"/><path id="_Path_32" data-name="&lt;Path&gt;" class="cls-30" d="M1446.4,1027.5h-461c37-35,96.63-9,140.69-34.49,10.14-5.87,18.53-14.38,28.48-20.58,9.47-5.89,20.14-9.56,30.7-13.17l63.42-21.72c10.92-3.73,22.2-7.69,30.55-15.65,13.33-12.71,16.31-32.57,25-48.78,10.21-18.94,28-32.39,45.29-45.22l84.1-62.51Z" style="fill: rgb(11, 59, 97);"/><path id="_Path_33" data-name="&lt;Path&gt;" class="cls-30" d="M-16.41,804.42A319.72,319.72,0,0,0,147,896.67c6.09,1.32,12.41,2.55,17.57,6.06,10.13,6.92,12.85,20.31,17.11,31.82a94.43,94.43,0,0,0,54.51,54.83c12.58,4.74,26.26,6.79,37.9,13.52,17.59,10.15,29.15,30.19,48.65,35.88,14.09,4.12,29.56-.27,43.72,3.6,9.31,2.55,17.27,8.44,25.73,13.1,20.81,11.48,44.77,15.53,68.22,19.4Q347.21,1082.32,234,1089.8c-7.07.46-14.89,1.28-19.62,6.54-2.72,3-4,7.14-6.75,10.14-3.87,4.23-9.91,5.54-15.55,6.58A1010.29,1010.29,0,0,1-5.6,1129.68Z" style="fill: rgb(11, 59, 97);"/><path id="_Path_34" data-name="&lt;Path&gt;" class="cls-31" d="M-29,1189.68a187.87,187.87,0,0,0,68.28-8c12.31-3.82,24.4-9,37.25-10,9.68-.8,19.39.76,29,2A491.89,491.89,0,0,0,251.66,1171c-18.76-11.25-37.58-24.46-58.93-29.21-8.17-1.82-16.86-2.74-23.84-7.36-5.58-3.68-9.48-9.35-14.23-14-21.52-21.27-57.38-20.36-81.06-39.2-9.51-7.57-16.57-18-26.6-24.88-7.65-5.26-16.64-8.17-25.48-11l-50.66-16.28Z" style="fill: rgb(3, 37, 75);"/><path id="_Path_35" data-name="&lt;Path&gt;" class="cls-31" d="M1403.7,972.06c-34.57,9.45-70.6,19.7-96.8,44.16-18.91,17.67-32.47,42.5-56.37,52.43-9.8,4.08-20.57,5.23-30.66,8.56-28.85,9.52-49.33,35.67-77.18,47.81-28.83,12.56-67.48,12-83.24,39.21h362.18Z" style="fill: rgb(3, 37, 75);"/></g></g></g><path d="M 684.650024 363.540009 A 150 150 0 0 1 534.650024 513.540009 A 150 150 0 0 1 384.650024 363.540009 A 150 150 0 0 1 534.650024 213.540009 A 150 150 0 0 1 684.650024 363.540009 Z" id="_Path_36" data-name="&lt;Path&gt;" class="cls-32" style="fill: url('#radial-gradient');"/></svg>