<svg width="35" height="35" viewBox="0 0 35 35" fill="none" xmlns="http://www.w3.org/2000/svg">
<path d="M29.4727 11.9726C29.4727 5.36033 24.1123 0 17.5 0C10.8877 0 5.52739 5.36033 5.52739 11.9726C3.81797 12.1855 2.20166 13.3029 2.20166 15.897V22.1494C2.20166 25.076 4.25031 26.1403 6.19254 26.1403H8.12146C8.48879 26.1403 8.78661 25.8424 8.78661 25.4751V12.5979C8.78661 12.2305 8.48879 11.9327 8.12146 11.9327H6.85768C6.85768 6.05516 11.6225 1.29038 17.5 1.29038C23.3776 1.29038 28.1424 6.05516 28.1424 11.9327H26.8786C26.5113 11.9327 26.2134 12.2305 26.2134 12.5979V25.4552C26.2134 25.8225 26.5113 26.1203 26.8786 26.1203H28.1424C27.9561 30.6899 25.7611 31.7607 21.3778 31.9536V31.508C21.3778 30.7732 20.7823 30.1777 20.0475 30.1777H15.8638C15.129 30.1777 14.5335 30.7732 14.5335 31.508V33.6697C14.5335 34.4044 15.129 35 15.8638 35H20.0608C20.7956 35 21.3911 34.4044 21.3911 33.6697V33.2839C25.6082 33.091 29.2532 32.2197 29.4727 26.0804C31.1821 25.8675 32.7984 24.7501 32.7984 22.156V15.9036C32.7984 13.2963 31.1887 12.1855 29.4727 11.9726ZM7.45632 13.2165V24.79H6.15928C5.17486 24.79 3.4987 24.4441 3.4987 22.1294V15.877C3.4987 13.5823 5.15491 13.2165 6.15928 13.2165H7.45632ZM20.0608 32.6653V33.6764H15.8638V31.5146H20.0608V32.6653ZM31.4681 22.1494C31.4681 24.4441 29.8119 24.81 28.8075 24.81H27.5437V13.263H28.8408C29.8252 13.263 31.5014 13.6089 31.5014 15.9236L31.4681 22.1494Z" fill="black" fill-opacity="0.56"/>
</svg>
