<svg width="35" height="27" viewBox="0 0 35 27" fill="none" xmlns="http://www.w3.org/2000/svg">
<path d="M33.8373 7.45118L19.8855 0.635601C18.6827 0.0342267 16.638 0.0342267 15.4353 0.635601L1.16266 7.45118C0.160367 7.93228 0 8.61384 0 8.97466C0 9.33549 0.160367 9.97695 1.16266 10.4981L2.32531 11.0594V17.4741C1.60367 17.7547 1.08247 18.4764 1.08247 19.2782C1.08247 20.08 1.60367 20.8017 2.28522 21.0823L0.4811 26.8154H5.53265L3.72852 21.0823C4.45017 20.8017 4.93127 20.08 4.93127 19.2782C4.93127 18.4363 4.41008 17.7547 3.68843 17.4741V11.741L5.81329 12.7834V21.1224C5.81329 21.2427 5.85338 21.363 5.93356 21.4833C6.13402 21.7238 9.86254 26.8154 17.48 26.8154C25.0974 26.8154 28.8259 21.6837 28.9863 21.4833C29.0664 21.363 29.1065 21.2427 29.1065 21.1224V12.8235L33.8373 10.4981C34.8396 10.017 35 9.33549 35 8.97466C34.9599 8.61384 34.8396 7.93228 33.8373 7.45118ZM27.8236 20.922C27.1821 21.7238 23.7342 25.5726 17.48 25.5726C11.2257 25.5726 7.77778 21.7238 7.13631 20.922V13.3447L15.4353 17.3137C16.0367 17.5944 16.8385 17.7547 17.6403 17.7547C18.4822 17.7547 19.2841 17.5944 19.8855 17.2736L27.8236 13.3847V20.922ZM33.2761 9.37558L28.4651 11.741C28.2646 11.741 28.1042 11.8212 28.0241 11.9815L19.3242 16.1912C18.4822 16.6322 16.8385 16.6322 15.9565 16.1912L5.252 11.0594L17.5601 9.61613C17.921 9.57604 18.1615 9.2553 18.1214 8.93457C18.0813 8.57375 17.7606 8.33319 17.4399 8.37329L3.16724 10.0571L1.72394 9.37558C1.36312 9.21521 1.28293 9.01475 1.28293 9.01475C1.28293 8.97466 1.36312 8.81429 1.72394 8.65393L15.9966 1.79826C16.4376 1.5978 17.0389 1.47753 17.6403 1.47753C18.2818 1.47753 18.9233 1.5978 19.3242 1.79826L33.2761 8.61384C33.6369 8.7742 33.7171 8.93457 33.7171 9.01475C33.7171 9.01475 33.5968 9.21521 33.2761 9.37558Z" fill="black" fill-opacity="0.56"/>
</svg>
