<?xml version="1.0" encoding="utf-8"?>
<svg id="master-artboard" viewBox="0 0 376 229.79852294921875" version="1.1" xmlns="http://www.w3.org/2000/svg" x="0px" y="0px" style="enable-background:new 0 0 612 792;" width="376px" height="229.79852294921875px"><rect id="ee-background" x="0" y="0" width="376" height="229.79852294921875" style="fill: rgb(32, 86, 58); fill-opacity: 1; pointer-events: none;"/>

<path d="M 174 303 L 437 303 L 437 490.20001220703125 L 174 490.20001220703125 L 174 303 Z" class="st0" style="fill-rule: evenodd; clip-rule: evenodd; fill: rgb(32, 86, 58);" transform="matrix(1, 0, 0, 1, -123.17769622802734, -289.13982582092285)"/><path class="st1" d="M253.6,338.7h21c0.6,0,1.2,0.5,1.2,1.2v21c0,0.3-0.1,0.6-0.3,0.8c0,0,0,0,0,0l-0.9,0.9c0,0,0,0,0,0&#10;&#9;&#9;c-0.2,0.2-0.5,0.3-0.8,0.3h-21c-0.6,0-1.2-0.5-1.2-1.2v-21c0-0.3,0.1-0.6,0.3-0.8c0,0,0,0,0,0l0.9-0.9c0,0,0,0,0,0&#10;&#9;&#9;C253,338.8,253.2,338.7,253.6,338.7L253.6,338.7z" style="fill-rule: evenodd; clip-rule: evenodd; fill: rgb(238, 204, 97);" transform="matrix(1, 0, 0, 1, -123.17769622802734, -289.13982582092285)"/><path class="st2" d="M252.6,339.6h21c0.6,0,1.2,0.5,1.2,1.2v21c0,0.6-0.5,1.2-1.2,1.2h-21c-0.6,0-1.2-0.5-1.2-1.2v-21&#10;&#9;&#9;C251.5,340.2,252,339.6,252.6,339.6L252.6,339.6z" style="fill-rule: evenodd; clip-rule: evenodd; fill: rgb(246, 236, 171);" transform="matrix(1, 0, 0, 1, -123.17769622802734, -289.13982582092285)"/><path class="st3" d="M265.3,344.4l3.6,12.9h-3.8l-0.8-2.8h-3.9l-0.8,2.8h-1.5l3.8-12.9H265.3L265.3,344.4z M260.9,353.2h3.2&#10;&#9;&#9;l-1.5-5.7L260.9,353.2L260.9,353.2z" style="fill: rgb(52, 130, 86);" transform="matrix(1, 0, 0, 1, -123.17769622802734, -289.13982582092285)"/><path class="st3" d="M272.6,358.5v2.6h-0.7v-1.9c-0.2,0.1-0.4,0.1-0.5,0.2V359c0.4,0,0.6-0.2,0.8-0.5H272.6L272.6,358.5z" style="fill: rgb(52, 130, 86);" transform="matrix(1, 0, 0, 1, -123.17769622802734, -289.13982582092285)"/><path class="st1" d="M281.5,338.7h21c0.6,0,1.2,0.5,1.2,1.2v21c0,0.3-0.1,0.6-0.3,0.8c0,0,0,0,0,0l-0.9,0.9c0,0,0,0,0,0&#10;&#9;&#9;c-0.2,0.2-0.5,0.3-0.8,0.3h-21c-0.6,0-1.2-0.5-1.2-1.2v-21c0-0.3,0.1-0.6,0.3-0.8c0,0,0,0,0,0l0.9-0.9c0,0,0,0,0,0&#10;&#9;&#9;C280.9,338.8,281.2,338.7,281.5,338.7L281.5,338.7z" style="fill-rule: evenodd; clip-rule: evenodd; fill: rgb(238, 204, 97);" transform="matrix(1, 0, 0, 1, -123.17769622802734, -289.13982582092285)"/><path class="st2" d="M280.6,339.6h21c0.6,0,1.2,0.5,1.2,1.2v21c0,0.6-0.5,1.2-1.2,1.2h-21c-0.6,0-1.2-0.5-1.2-1.2v-21&#10;&#9;&#9;C279.4,340.2,279.9,339.6,280.6,339.6L280.6,339.6z" style="fill-rule: evenodd; clip-rule: evenodd; fill: rgb(246, 236, 171);" transform="matrix(1, 0, 0, 1, -123.17769622802734, -289.13982582092285)"/><path class="st3" d="M286.6,357.3v-12.9h5.8c3,0,4.4,1.1,4.4,3.2c0,1.5-0.9,2.5-2.7,2.9c2.2,0.4,3.2,1.6,3.2,3.4&#10;&#9;&#9;c0,2.3-1.4,3.4-4.4,3.4H286.6L286.6,357.3z M290.3,356.2h1.1c1.4,0,2.1-0.8,2.1-2.4c0-1.8-0.7-2.8-2.2-2.8h-1V356.2L290.3,356.2z&#10;&#9;&#9; M290.3,350h1.2c1.1,0,1.6-0.8,1.6-2.4c0-1.5-0.6-2.2-1.7-2.2h-1.1V350L290.3,350z" style="fill: rgb(52, 130, 86);" transform="matrix(1, 0, 0, 1, -123.17769622802734, -289.13982582092285)"/><path class="st3" d="M299.1,360.3l0.3,0c0,0.1,0,0.2,0,0.3c0,0.3,0.1,0.4,0.4,0.4c0.3,0,0.4-0.2,0.4-0.5c0-0.3-0.2-0.5-0.5-0.5&#10;&#9;&#9;l-0.2,0v-0.3l0.1,0c0.4,0,0.6-0.2,0.6-0.5c0-0.3-0.1-0.4-0.4-0.4c-0.3,0-0.4,0.1-0.4,0.4c0,0.1,0,0.1,0,0.2l-0.3-0.1&#10;&#9;&#9;c0-0.5,0.3-0.7,0.9-0.7c0.7,0,1,0.2,1,0.7c0,0.3-0.2,0.5-0.6,0.6c0.4,0.1,0.6,0.3,0.6,0.7c0,0.5-0.3,0.8-1,0.8&#10;&#9;&#9;c-0.6,0-0.9-0.2-0.9-0.6C299.1,360.5,299.1,360.4,299.1,360.3L299.1,360.3z" style="fill: rgb(52, 130, 86);" transform="matrix(1, 0, 0, 1, -123.17769622802734, -289.13982582092285)"/><path class="st1" d="M309.5,338.7h21c0.6,0,1.2,0.5,1.2,1.2v21c0,0.3-0.1,0.6-0.3,0.8c0,0,0,0,0,0l-0.9,0.9c0,0,0,0,0,0&#10;&#9;&#9;c-0.2,0.2-0.5,0.3-0.8,0.3h-21c-0.6,0-1.2-0.5-1.2-1.2v-21c0-0.3,0.1-0.6,0.3-0.8c0,0,0,0,0,0l0.9-0.9c0,0,0,0,0,0&#10;&#9;&#9;C308.9,338.8,309.2,338.7,309.5,338.7L309.5,338.7z" style="fill-rule: evenodd; clip-rule: evenodd; fill: rgb(238, 204, 97);" transform="matrix(1, 0, 0, 1, -123.17769622802734, -289.13982582092285)"/><path class="st2" d="M308.5,339.6h21c0.6,0,1.2,0.5,1.2,1.2v21c0,0.6-0.5,1.2-1.2,1.2h-21c-0.6,0-1.2-0.5-1.2-1.2v-21&#10;&#9;&#9;C307.4,340.2,307.9,339.6,308.5,339.6L308.5,339.6z" style="fill-rule: evenodd; clip-rule: evenodd; fill: rgb(246, 236, 171);" transform="matrix(1, 0, 0, 1, -123.17769622802734, -289.13982582092285)"/><path class="st3" d="M323.4,352.1l1.6,0.4c0,0.3,0,0.6,0,0.9c0,1.3-0.5,2.3-1.4,3c-0.9,0.8-2.1,1.1-3.7,1.1c-3.8,0-5.8-2.2-5.8-6.5&#10;&#9;&#9;c0-2,0.6-3.7,1.7-5c1.1-1.3,2.6-1.9,4.4-1.9c2.8,0,4.2,1.3,4.2,4l-1.6,0.7c0-0.4,0-0.7,0-0.9c0-1.9-0.8-2.9-2.3-2.9&#10;&#9;&#9;c-1.6,0-2.4,2-2.4,6.1c0,3.5,0.9,5.2,2.7,5.2c0.7,0,1.4-0.3,1.9-0.9c0.5-0.6,0.7-1.3,0.7-2.2C323.5,353.1,323.5,352.7,323.4,352.1&#10;&#9;&#9;L323.4,352.1z" style="fill: rgb(52, 130, 86);" transform="matrix(1, 0, 0, 1, -123.17769622802734, -289.13982582092285)"/><path class="st3" d="M327.1,360.3l0.3,0c0,0.1,0,0.2,0,0.3c0,0.3,0.1,0.4,0.4,0.4c0.3,0,0.4-0.2,0.4-0.5c0-0.3-0.2-0.5-0.5-0.5&#10;&#9;&#9;l-0.2,0v-0.3l0.1,0c0.4,0,0.6-0.2,0.6-0.5c0-0.3-0.1-0.4-0.4-0.4c-0.3,0-0.4,0.1-0.4,0.4c0,0.1,0,0.1,0,0.2l-0.3-0.1&#10;&#9;&#9;c0-0.5,0.3-0.7,0.9-0.7c0.7,0,1,0.2,1,0.7c0,0.3-0.2,0.5-0.6,0.6c0.4,0.1,0.6,0.3,0.6,0.7c0,0.5-0.3,0.8-1,0.8&#10;&#9;&#9;c-0.6,0-0.9-0.2-0.9-0.6C327.1,360.5,327.1,360.4,327.1,360.3L327.1,360.3z" style="fill: rgb(52, 130, 86);" transform="matrix(1, 0, 0, 1, -123.17769622802734, -289.13982582092285)"/><path class="st1" d="M337.4,338.7h21c0.6,0,1.2,0.5,1.2,1.2v21c0,0.3-0.1,0.6-0.3,0.8c0,0,0,0,0,0l-0.9,0.9c0,0,0,0,0,0&#10;&#9;&#9;c-0.2,0.2-0.5,0.3-0.8,0.3h-21c-0.6,0-1.2-0.5-1.2-1.2v-21c0-0.3,0.1-0.6,0.3-0.8c0,0,0,0,0,0l0.9-0.9c0,0,0,0,0,0&#10;&#9;&#9;C336.8,338.8,337.1,338.7,337.4,338.7L337.4,338.7z" style="fill-rule: evenodd; clip-rule: evenodd; fill: rgb(238, 204, 97);" transform="matrix(1, 0, 0, 1, -123.17769622802734, -289.13982582092285)"/><path class="st2" d="M336.5,339.6h21c0.6,0,1.2,0.5,1.2,1.2v21c0,0.6-0.5,1.2-1.2,1.2h-21c-0.6,0-1.2-0.5-1.2-1.2v-21&#10;&#9;&#9;C335.3,340.2,335.9,339.6,336.5,339.6L336.5,339.6z" style="fill-rule: evenodd; clip-rule: evenodd; fill: rgb(246, 236, 171);" transform="matrix(1, 0, 0, 1, -123.17769622802734, -289.13982582092285)"/><path class="st3" d="M342.2,357.3v-12.9h5.4c3.8,0,5.7,2.2,5.7,6.5c0,4.3-2,6.5-5.9,6.5H342.2L342.2,357.3z M346,356.2h1&#10;&#9;&#9;c0.9,0,1.5-0.4,1.9-1.2c0.3-0.8,0.5-2.2,0.5-4.2c0-2-0.2-3.4-0.5-4.2c-0.3-0.8-1-1.2-1.9-1.2h-1V356.2L346,356.2z" style="fill: rgb(52, 130, 86);" transform="matrix(1, 0, 0, 1, -123.17769622802734, -289.13982582092285)"/><path class="st3" d="M357,360.5v0.6H355v-0.4c0.2-0.2,0.3-0.4,0.5-0.6c0.5-0.4,0.7-0.8,0.7-1c0-0.3-0.1-0.5-0.4-0.5&#10;&#9;&#9;c-0.3,0-0.4,0.2-0.4,0.6c0,0.1,0,0.2,0.1,0.4l-0.4-0.1c0-0.1,0-0.2,0-0.3c0-0.5,0.3-0.8,1-0.8c0.3,0,0.5,0.1,0.7,0.2&#10;&#9;&#9;c0.2,0.1,0.3,0.3,0.3,0.5c0,0.2-0.2,0.5-0.5,0.8l-0.2,0.2l-0.3,0.2c0,0-0.1,0-0.1,0.1H357L357,360.5z" style="fill: rgb(52, 130, 86);" transform="matrix(1, 0, 0, 1, -123.17769622802734, -289.13982582092285)"/><path class="st1" d="M225.6,366.7h21c0.6,0,1.2,0.5,1.2,1.2v21c0,0.3-0.1,0.6-0.3,0.8c0,0,0,0,0,0l-0.9,0.9c0,0,0,0,0,0&#10;&#9;&#9;c-0.2,0.2-0.5,0.3-0.8,0.3h-21c-0.6,0-1.2-0.5-1.2-1.2v-21c0-0.3,0.1-0.6,0.3-0.8c0,0,0,0,0,0l0.9-0.9c0,0,0,0,0,0&#10;&#9;&#9;C225,366.8,225.3,366.7,225.6,366.7L225.6,366.7z" style="fill-rule: evenodd; clip-rule: evenodd; fill: rgb(238, 204, 97);" transform="matrix(1, 0, 0, 1, -123.17769622802734, -289.13982582092285)"/><path class="st2" d="M224.7,367.6h21c0.6,0,1.2,0.5,1.2,1.2v21c0,0.6-0.5,1.2-1.2,1.2h-21c-0.6,0-1.2-0.5-1.2-1.2v-21&#10;&#9;&#9;C223.5,368.1,224,367.6,224.7,367.6L224.7,367.6z" style="fill-rule: evenodd; clip-rule: evenodd; fill: rgb(246, 236, 171);" transform="matrix(1, 0, 0, 1, -123.17769622802734, -289.13982582092285)"/><path d="M 240 372.29998779296875 L 240 373.6000061035156 L 235.3000030517578 373.6000061035156 L 235.3000030517578 377.5 L 239.1999969482422 377.5 L 239.1999969482422 378.79998779296875 L 235.3000030517578 378.79998779296875 L 235.3000030517578 384 L 240.8000030517578 384 L 240.8000030517578 385.29998779296875 L 231.60000610351562 385.29998779296875 L 231.60000610351562 372.29998779296875 L 240 372.29998779296875 Z" class="st3" style="fill: rgb(52, 130, 86);" transform="matrix(1, 0, 0, 1, -123.17769622802734, -289.13982582092285)"/><path class="st3" d="M244.7,386.5v2.6h-0.7v-1.9c-0.2,0.1-0.4,0.1-0.5,0.2v-0.3c0.4,0,0.6-0.2,0.8-0.5H244.7L244.7,386.5z" style="fill: rgb(52, 130, 86);" transform="matrix(1, 0, 0, 1, -123.17769622802734, -289.13982582092285)"/><path class="st1" d="M253.6,366.7h21c0.6,0,1.2,0.5,1.2,1.2v21c0,0.3-0.1,0.6-0.3,0.8c0,0,0,0,0,0l-0.9,0.9c0,0,0,0,0,0&#10;&#9;&#9;c-0.2,0.2-0.5,0.3-0.8,0.3h-21c-0.6,0-1.2-0.5-1.2-1.2v-21c0-0.3,0.1-0.6,0.3-0.8c0,0,0,0,0,0l0.9-0.9c0,0,0,0,0,0&#10;&#9;&#9;C253,366.8,253.2,366.7,253.6,366.7L253.6,366.7z" style="fill-rule: evenodd; clip-rule: evenodd; fill: rgb(238, 204, 97);" transform="matrix(1, 0, 0, 1, -123.17769622802734, -289.13982582092285)"/><path class="st2" d="M252.6,367.6h21c0.6,0,1.2,0.5,1.2,1.2v21c0,0.6-0.5,1.2-1.2,1.2h-21c-0.6,0-1.2-0.5-1.2-1.2v-21&#10;&#9;&#9;C251.5,368.1,252,367.6,252.6,367.6L252.6,367.6z" style="fill-rule: evenodd; clip-rule: evenodd; fill: rgb(246, 236, 171);" transform="matrix(1, 0, 0, 1, -123.17769622802734, -289.13982582092285)"/><path d="M 268.29998779296875 372.29998779296875 L 268.29998779296875 373.6000061035156 L 263.6000061035156 373.6000061035156 L 263.6000061035156 377.8999938964844 L 267.6000061035156 377.8999938964844 L 267.6000061035156 379.20001220703125 L 263.6000061035156 379.20001220703125 L 263.6000061035156 385.29998779296875 L 259.8999938964844 385.29998779296875 L 259.8999938964844 372.29998779296875 L 268.29998779296875 372.29998779296875 Z" class="st3" style="fill: rgb(52, 130, 86);" transform="matrix(1, 0, 0, 1, -123.17769622802734, -289.13982582092285)"/><path class="st3" d="M273.1,388.5h-0.3v0.5h-0.7v-0.5h-1v-0.3l1.2-1.7h0.5v1.8h0.3V388.5L273.1,388.5z M271.5,388.2h0.6v-1&#10;&#9;&#9;L271.5,388.2L271.5,388.2z" style="fill: rgb(52, 130, 86);" transform="matrix(1, 0, 0, 1, -123.17769622802734, -289.13982582092285)"/><path class="st1" d="M281.5,366.7h21c0.6,0,1.2,0.5,1.2,1.2v21c0,0.3-0.1,0.6-0.3,0.8c0,0,0,0,0,0l-0.9,0.9c0,0,0,0,0,0&#10;&#9;&#9;c-0.2,0.2-0.5,0.3-0.8,0.3h-21c-0.6,0-1.2-0.5-1.2-1.2v-21c0-0.3,0.1-0.6,0.3-0.8c0,0,0,0,0,0l0.9-0.9c0,0,0,0,0,0&#10;&#9;&#9;C280.9,366.8,281.2,366.7,281.5,366.7L281.5,366.7z" style="fill-rule: evenodd; clip-rule: evenodd; fill: rgb(238, 204, 97);" transform="matrix(1, 0, 0, 1, -123.17769622802734, -289.13982582092285)"/><path class="st2" d="M280.6,367.6h21c0.6,0,1.2,0.5,1.2,1.2v21c0,0.6-0.5,1.2-1.2,1.2h-21c-0.6,0-1.2-0.5-1.2-1.2v-21&#10;&#9;&#9;C279.4,368.1,279.9,367.6,280.6,367.6L280.6,367.6z" style="fill-rule: evenodd; clip-rule: evenodd; fill: rgb(246, 236, 171);" transform="matrix(1, 0, 0, 1, -123.17769622802734, -289.13982582092285)"/><path class="st3" d="M291.6,378.3h5.3v7h-1.2l-0.4-0.9c-1,0.7-2.1,1.1-3.3,1.1c-1.9,0-3.4-0.6-4.5-1.7c-1.1-1.1-1.6-2.8-1.6-4.8&#10;&#9;&#9;c0-2,0.6-3.7,1.7-4.9c1.1-1.3,2.6-1.9,4.4-1.9c2.4,0,3.8,1.2,4.4,3.7l-1.8,0.8v-0.3l0-0.7c-0.1-1.5-0.8-2.3-2.1-2.3&#10;&#9;&#9;c-0.9,0-1.6,0.4-1.9,1.2c-0.3,0.8-0.5,2.3-0.5,4.5c0,2.1,0.1,3.5,0.4,4.2c0.3,0.7,0.8,1.1,1.6,1.1c0.9,0,1.4-0.5,1.4-1.6v-3.2h-1.9&#10;&#9;&#9;V378.3L291.6,378.3z" style="fill: rgb(52, 130, 86);" transform="matrix(1, 0, 0, 1, -123.17769622802734, -289.13982582092285)"/><path class="st3" d="M301.1,388.4v0.6h-1.9v-0.4c0.2-0.2,0.3-0.4,0.5-0.6c0.5-0.4,0.7-0.8,0.7-1c0-0.3-0.1-0.5-0.4-0.5&#10;&#9;&#9;c-0.3,0-0.4,0.2-0.4,0.6c0,0.1,0,0.2,0.1,0.4l-0.4-0.1c0-0.1,0-0.2,0-0.3c0-0.5,0.3-0.8,1-0.8c0.3,0,0.5,0.1,0.7,0.2&#10;&#9;&#9;c0.2,0.1,0.3,0.3,0.3,0.5c0,0.2-0.2,0.5-0.5,0.8l-0.2,0.2l-0.3,0.2c0,0-0.1,0-0.1,0.1H301.1L301.1,388.4z" style="fill: rgb(52, 130, 86);" transform="matrix(1, 0, 0, 1, -123.17769622802734, -289.13982582092285)"/><path class="st1" d="M309.5,366.7h21c0.6,0,1.2,0.5,1.2,1.2v21c0,0.3-0.1,0.6-0.3,0.8c0,0,0,0,0,0l-0.9,0.9c0,0,0,0,0,0&#10;&#9;&#9;c-0.2,0.2-0.5,0.3-0.8,0.3h-21c-0.6,0-1.2-0.5-1.2-1.2v-21c0-0.3,0.1-0.6,0.3-0.8c0,0,0,0,0,0l0.9-0.9c0,0,0,0,0,0&#10;&#9;&#9;C308.9,366.8,309.2,366.7,309.5,366.7L309.5,366.7z" style="fill-rule: evenodd; clip-rule: evenodd; fill: rgb(238, 204, 97);" transform="matrix(1, 0, 0, 1, -123.17769622802734, -289.13982582092285)"/><path class="st2" d="M308.5,367.6h21c0.6,0,1.2,0.5,1.2,1.2v21c0,0.6-0.5,1.2-1.2,1.2h-21c-0.6,0-1.2-0.5-1.2-1.2v-21&#10;&#9;&#9;C307.4,368.1,307.9,367.6,308.5,367.6L308.5,367.6z" style="fill-rule: evenodd; clip-rule: evenodd; fill: rgb(246, 236, 171);" transform="matrix(1, 0, 0, 1, -123.17769622802734, -289.13982582092285)"/><path d="M 318 378.79998779296875 L 318 385.29998779296875 L 314.20001220703125 385.29998779296875 L 314.20001220703125 372.29998779296875 L 318 372.29998779296875 L 318 377.5 L 321 377.5 L 321 372.29998779296875 L 324.79998779296875 372.29998779296875 L 324.79998779296875 385.29998779296875 L 321 385.29998779296875 L 321 378.79998779296875 L 318 378.79998779296875 Z" class="st3" style="fill: rgb(52, 130, 86);" transform="matrix(1, 0, 0, 1, -123.17769622802734, -289.13982582092285)"/><path class="st3" d="M329,388.5h-0.3v0.5H328v-0.5h-1v-0.3l1.2-1.7h0.5v1.8h0.3V388.5L329,388.5z M327.4,388.2h0.6v-1L327.4,388.2&#10;&#9;&#9;L327.4,388.2z" style="fill: rgb(52, 130, 86);" transform="matrix(1, 0, 0, 1, -123.17769622802734, -289.13982582092285)"/><path class="st1" d="M337.4,366.7h21c0.6,0,1.2,0.5,1.2,1.2v21c0,0.3-0.1,0.6-0.3,0.8c0,0,0,0,0,0l-0.9,0.9c0,0,0,0,0,0&#10;&#9;&#9;c-0.2,0.2-0.5,0.3-0.8,0.3h-21c-0.6,0-1.2-0.5-1.2-1.2v-21c0-0.3,0.1-0.6,0.3-0.8c0,0,0,0,0,0l0.9-0.9c0,0,0,0,0,0&#10;&#9;&#9;C336.8,366.8,337.1,366.7,337.4,366.7L337.4,366.7z" style="fill-rule: evenodd; clip-rule: evenodd; fill: rgb(238, 204, 97);" transform="matrix(1, 0, 0, 1, -123.17769622802734, -289.13982582092285)"/><path class="st2" d="M336.5,367.6h21c0.6,0,1.2,0.5,1.2,1.2v21c0,0.6-0.5,1.2-1.2,1.2h-21c-0.6,0-1.2-0.5-1.2-1.2v-21&#10;&#9;&#9;C335.3,368.1,335.9,367.6,336.5,367.6L336.5,367.6z" style="fill-rule: evenodd; clip-rule: evenodd; fill: rgb(246, 236, 171);" transform="matrix(1, 0, 0, 1, -123.17769622802734, -289.13982582092285)"/><path d="M 349.3999938964844 372.29998779296875 L 349.3999938964844 385.29998779296875 L 345.6000061035156 385.29998779296875 L 345.6000061035156 372.29998779296875 L 349.3999938964844 372.29998779296875 Z" class="st3" style="fill: rgb(52, 130, 86);" transform="matrix(1, 0, 0, 1, -123.17769622802734, -289.13982582092285)"/><path class="st3" d="M356.5,386.5v2.6h-0.7v-1.9c-0.2,0.1-0.4,0.1-0.5,0.2v-0.3c0.4,0,0.6-0.2,0.8-0.5H356.5L356.5,386.5z" style="fill: rgb(52, 130, 86);" transform="matrix(1, 0, 0, 1, -123.17769622802734, -289.13982582092285)"/><path class="st1" d="M365.4,366.7h21c0.6,0,1.2,0.5,1.2,1.2v21c0,0.3-0.1,0.6-0.3,0.8c0,0,0,0,0,0l-0.9,0.9c0,0,0,0,0,0&#10;&#9;&#9;c-0.2,0.2-0.5,0.3-0.8,0.3h-21c-0.6,0-1.2-0.5-1.2-1.2v-21c0-0.3,0.1-0.6,0.3-0.8c0,0,0,0,0,0l0.9-0.9c0,0,0,0,0,0&#10;&#9;&#9;C364.8,366.8,365.1,366.7,365.4,366.7L365.4,366.7z" style="fill-rule: evenodd; clip-rule: evenodd; fill: rgb(238, 204, 97);" transform="matrix(1, 0, 0, 1, -123.17769622802734, -289.13982582092285)"/><path class="st2" d="M364.5,367.6h21c0.6,0,1.2,0.5,1.2,1.2v21c0,0.6-0.5,1.2-1.2,1.2h-21c-0.6,0-1.2-0.5-1.2-1.2v-21&#10;&#9;&#9;C363.3,368.1,363.8,367.6,364.5,367.6L364.5,367.6z" style="fill-rule: evenodd; clip-rule: evenodd; fill: rgb(246, 236, 171);" transform="matrix(1, 0, 0, 1, -123.17769622802734, -289.13982582092285)"/><path class="st3" d="M378.4,372.3v8.3c0,3.3-1.1,4.9-3.4,4.9c-1,0-1.9-0.3-2.6-0.9c-0.7-0.6-1.1-1.3-1.1-2.1c0-0.5,0.1-1.1,0.3-1.9&#10;&#9;&#9;l1.4-0.4c-0.2,0.9-0.3,1.5-0.3,1.9c0,1.4,0.4,2.1,1.3,2.1c0.5,0,0.7-0.7,0.7-2v-10.1H378.4L378.4,372.3z" style="fill: rgb(52, 130, 86);" transform="matrix(1, 0, 0, 1, -123.17769622802734, -289.13982582092285)"/><path class="st3" d="M383.3,387.8c-0.2-0.2-0.3-0.4-0.3-0.6c0-0.2,0.1-0.4,0.3-0.6c0.2-0.1,0.4-0.2,0.7-0.2c0.3,0,0.5,0.1,0.6,0.2&#10;&#9;&#9;c0.2,0.1,0.2,0.3,0.2,0.4c0,0.2-0.1,0.4-0.3,0.5c0.3,0.2,0.5,0.4,0.5,0.7c0,0.3-0.1,0.5-0.3,0.6c-0.2,0.2-0.5,0.2-0.8,0.2&#10;&#9;&#9;c-0.3,0-0.5-0.1-0.7-0.2c-0.2-0.1-0.3-0.3-0.3-0.5C382.9,388.1,383.1,388,383.3,387.8L383.3,387.8z M383.5,387.9&#10;&#9;&#9;c-0.2,0.1-0.3,0.2-0.3,0.4c0,0.1,0.1,0.3,0.2,0.4c0.1,0.1,0.3,0.2,0.5,0.2c0.1,0,0.3,0,0.4-0.1c0.1-0.1,0.2-0.2,0.2-0.3&#10;&#9;&#9;c0-0.2-0.1-0.3-0.4-0.4C383.9,388.1,383.7,388,383.5,387.9L383.5,387.9z M384.3,387.5c0.1-0.1,0.2-0.2,0.2-0.3&#10;&#9;&#9;c0-0.3-0.2-0.5-0.5-0.5c-0.3,0-0.5,0.1-0.5,0.3c0,0.1,0.1,0.2,0.4,0.3l0.3,0.1C384.2,387.4,384.3,387.4,384.3,387.5L384.3,387.5z" style="fill: rgb(52, 130, 86);" transform="matrix(1, 0, 0, 1, -123.17769622802734, -289.13982582092285)"/><path class="st1" d="M225.6,394.6h21c0.6,0,1.2,0.5,1.2,1.2v21c0,0.3-0.1,0.6-0.3,0.8c0,0,0,0,0,0l-0.9,0.9c0,0,0,0,0,0&#10;&#9;&#9;c-0.2,0.2-0.5,0.3-0.8,0.3h-21c-0.6,0-1.2-0.5-1.2-1.2v-21c0-0.3,0.1-0.6,0.3-0.8c0,0,0,0,0,0l0.9-0.9c0,0,0,0,0,0&#10;&#9;&#9;C225,394.8,225.3,394.6,225.6,394.6L225.6,394.6z" style="fill-rule: evenodd; clip-rule: evenodd; fill: rgb(238, 204, 97);" transform="matrix(1, 0, 0, 1, -123.17769622802734, -289.13982582092285)"/><path class="st2" d="M224.7,395.6h21c0.6,0,1.2,0.5,1.2,1.2v21c0,0.6-0.5,1.2-1.2,1.2h-21c-0.6,0-1.2-0.5-1.2-1.2v-21&#10;&#9;&#9;C223.5,396.1,224,395.6,224.7,395.6L224.7,395.6z" style="fill-rule: evenodd; clip-rule: evenodd; fill: rgb(246, 236, 171);" transform="matrix(1, 0, 0, 1, -123.17769622802734, -289.13982582092285)"/><path d="M 240.5 400.29998779296875 L 237.3000030517578 404.3999938964844 L 242.10000610351562 413.29998779296875 L 237.89999389648438 413.29998779296875 L 234.8000030517578 407.6000061035156 L 234.3000030517578 408.20001220703125 L 234.3000030517578 413.29998779296875 L 230.5 413.29998779296875 L 230.5 400.29998779296875 L 234.3000030517578 400.29998779296875 L 234.3000030517578 406.1000061035156 L 238.8000030517578 400.29998779296875 L 240.5 400.29998779296875 Z" class="st3" style="fill: rgb(52, 130, 86);" transform="matrix(1, 0, 0, 1, -123.17769622802734, -289.13982582092285)"/><path class="st3" d="M245,414.4l-0.1,0.5h-1.2l-0.1,0.6c0.2-0.1,0.4-0.2,0.6-0.2c0.3,0,0.5,0.1,0.7,0.2c0.2,0.2,0.3,0.4,0.3,0.6&#10;&#9;&#9;c0,0.3-0.1,0.5-0.3,0.7c-0.2,0.2-0.5,0.2-0.8,0.2c-0.6,0-0.9-0.2-0.9-0.6c0-0.1,0-0.1,0-0.2l0.3-0.1c0,0.1,0,0.2,0,0.3&#10;&#9;&#9;c0,0.3,0.1,0.4,0.4,0.4c0.3,0,0.5-0.2,0.5-0.7c0-0.3-0.1-0.5-0.4-0.5c-0.2,0-0.3,0.1-0.4,0.3l-0.3-0.1l0.2-1.4H245L245,414.4z" style="fill: rgb(52, 130, 86);" transform="matrix(1, 0, 0, 1, -123.17769622802734, -289.13982582092285)"/><path class="st1" d="M253.6,394.6h21c0.6,0,1.2,0.5,1.2,1.2v21c0,0.3-0.1,0.6-0.3,0.8c0,0,0,0,0,0l-0.9,0.9c0,0,0,0,0,0&#10;&#9;&#9;c-0.2,0.2-0.5,0.3-0.8,0.3h-21c-0.6,0-1.2-0.5-1.2-1.2v-21c0-0.3,0.1-0.6,0.3-0.8c0,0,0,0,0,0l0.9-0.9c0,0,0,0,0,0&#10;&#9;&#9;C253,394.8,253.2,394.6,253.6,394.6L253.6,394.6z" style="fill-rule: evenodd; clip-rule: evenodd; fill: rgb(238, 204, 97);" transform="matrix(1, 0, 0, 1, -123.17769622802734, -289.13982582092285)"/><path class="st2" d="M252.6,395.6h21c0.6,0,1.2,0.5,1.2,1.2v21c0,0.6-0.5,1.2-1.2,1.2h-21c-0.6,0-1.2-0.5-1.2-1.2v-21&#10;&#9;&#9;C251.5,396.1,252,395.6,252.6,395.6L252.6,395.6z" style="fill-rule: evenodd; clip-rule: evenodd; fill: rgb(246, 236, 171);" transform="matrix(1, 0, 0, 1, -123.17769622802734, -289.13982582092285)"/><path d="M 263.5 400.29998779296875 L 263.5 411.8999938964844 L 268.8999938964844 411.8999938964844 L 268.8999938964844 413.20001220703125 L 259.79998779296875 413.20001220703125 L 259.79998779296875 400.29998779296875 L 263.5 400.29998779296875 Z" class="st3" style="fill: rgb(52, 130, 86);" transform="matrix(1, 0, 0, 1, -123.17769622802734, -289.13982582092285)"/><path class="st3" d="M272.6,414.4v2.6h-0.7v-1.9c-0.2,0.1-0.4,0.1-0.5,0.2v-0.3c0.4,0,0.6-0.2,0.8-0.5H272.6L272.6,414.4z" style="fill: rgb(52, 130, 86);" transform="matrix(1, 0, 0, 1, -123.17769622802734, -289.13982582092285)"/><path class="st1" d="M281.5,394.6h21c0.6,0,1.2,0.5,1.2,1.2v21c0,0.3-0.1,0.6-0.3,0.8c0,0,0,0,0,0l-0.9,0.9c0,0,0,0,0,0&#10;&#9;&#9;c-0.2,0.2-0.5,0.3-0.8,0.3h-21c-0.6,0-1.2-0.5-1.2-1.2v-21c0-0.3,0.1-0.6,0.3-0.8c0,0,0,0,0,0l0.9-0.9c0,0,0,0,0,0&#10;&#9;&#9;C280.9,394.8,281.2,394.6,281.5,394.6L281.5,394.6z" style="fill-rule: evenodd; clip-rule: evenodd; fill: rgb(238, 204, 97);" transform="matrix(1, 0, 0, 1, -123.17769622802734, -289.13982582092285)"/><path class="st2" d="M280.6,395.6h21c0.6,0,1.2,0.5,1.2,1.2v21c0,0.6-0.5,1.2-1.2,1.2h-21c-0.6,0-1.2-0.5-1.2-1.2v-21&#10;&#9;&#9;C279.4,396.1,279.9,395.6,280.6,395.6L280.6,395.6z" style="fill-rule: evenodd; clip-rule: evenodd; fill: rgb(246, 236, 171);" transform="matrix(1, 0, 0, 1, -123.17769622802734, -289.13982582092285)"/><path d="M 297.6000061035156 400.29998779296875 L 297.6000061035156 413.20001220703125 L 293.8999938964844 413.20001220703125 L 293.8999938964844 404.20001220703125 L 291.3999938964844 413.20001220703125 L 289.29998779296875 413.20001220703125 L 286.70001220703125 404.3999938964844 L 286.70001220703125 413.20001220703125 L 285.5 413.20001220703125 L 285.5 400.29998779296875 L 289.29998779296875 400.29998779296875 L 291.5 408.1000061035156 L 293.70001220703125 400.29998779296875 L 297.6000061035156 400.29998779296875 Z" class="st3" style="fill: rgb(52, 130, 86);" transform="matrix(1, 0, 0, 1, -123.17769622802734, -289.13982582092285)"/><path class="st3" d="M299.1,416.2l0.3,0c0,0.1,0,0.2,0,0.3c0,0.3,0.1,0.4,0.4,0.4c0.3,0,0.4-0.2,0.4-0.5c0-0.3-0.2-0.5-0.5-0.5&#10;&#9;&#9;l-0.2,0v-0.3l0.1,0c0.4,0,0.6-0.2,0.6-0.5c0-0.3-0.1-0.4-0.4-0.4c-0.3,0-0.4,0.1-0.4,0.4c0,0.1,0,0.1,0,0.2l-0.3-0.1&#10;&#9;&#9;c0-0.5,0.3-0.7,0.9-0.7c0.7,0,1,0.2,1,0.7c0,0.3-0.2,0.5-0.6,0.6c0.4,0.1,0.6,0.3,0.6,0.7c0,0.5-0.3,0.8-1,0.8&#10;&#9;&#9;c-0.6,0-0.9-0.2-0.9-0.6C299.1,416.4,299.1,416.3,299.1,416.2L299.1,416.2z" style="fill: rgb(52, 130, 86);" transform="matrix(1, 0, 0, 1, -123.17769622802734, -289.13982582092285)"/><path class="st1" d="M309.5,394.6h21c0.6,0,1.2,0.5,1.2,1.2v21c0,0.3-0.1,0.6-0.3,0.8c0,0,0,0,0,0l-0.9,0.9c0,0,0,0,0,0&#10;&#9;&#9;c-0.2,0.2-0.5,0.3-0.8,0.3h-21c-0.6,0-1.2-0.5-1.2-1.2v-21c0-0.3,0.1-0.6,0.3-0.8c0,0,0,0,0,0l0.9-0.9c0,0,0,0,0,0&#10;&#9;&#9;C308.9,394.8,309.2,394.6,309.5,394.6L309.5,394.6z" style="fill-rule: evenodd; clip-rule: evenodd; fill: rgb(238, 204, 97);" transform="matrix(1, 0, 0, 1, -123.17769622802734, -289.13982582092285)"/><path class="st2" d="M308.5,395.6h21c0.6,0,1.2,0.5,1.2,1.2v21c0,0.6-0.5,1.2-1.2,1.2h-21c-0.6,0-1.2-0.5-1.2-1.2v-21&#10;&#9;&#9;C307.4,396.1,307.9,395.6,308.5,395.6L308.5,395.6z" style="fill-rule: evenodd; clip-rule: evenodd; fill: rgb(246, 236, 171);" transform="matrix(1, 0, 0, 1, -123.17769622802734, -289.13982582092285)"/><path d="M 324.29998779296875 400.29998779296875 L 324.29998779296875 413.20001220703125 L 321.3999938964844 413.20001220703125 L 316 405 L 316 413.20001220703125 L 314.70001220703125 413.20001220703125 L 314.70001220703125 400.29998779296875 L 317.1000061035156 400.29998779296875 L 323 409.1000061035156 L 323 400.29998779296875 L 324.29998779296875 400.29998779296875 Z" class="st3" style="fill: rgb(52, 130, 86);" transform="matrix(1, 0, 0, 1, -123.17769622802734, -289.13982582092285)"/><path class="st3" d="M328.5,414.4v2.6h-0.7v-1.9c-0.2,0.1-0.4,0.1-0.5,0.2v-0.3c0.4,0,0.6-0.2,0.8-0.5H328.5L328.5,414.4z" style="fill: rgb(52, 130, 86);" transform="matrix(1, 0, 0, 1, -123.17769622802734, -289.13982582092285)"/><path class="st1" d="M337.4,394.6h21c0.6,0,1.2,0.5,1.2,1.2v21c0,0.3-0.1,0.6-0.3,0.8c0,0,0,0,0,0l-0.9,0.9c0,0,0,0,0,0&#10;&#9;&#9;c-0.2,0.2-0.5,0.3-0.8,0.3h-21c-0.6,0-1.2-0.5-1.2-1.2v-21c0-0.3,0.1-0.6,0.3-0.8c0,0,0,0,0,0l0.9-0.9c0,0,0,0,0,0&#10;&#9;&#9;C336.8,394.8,337.1,394.6,337.4,394.6L337.4,394.6z" style="fill-rule: evenodd; clip-rule: evenodd; fill: rgb(238, 204, 97);" transform="matrix(1, 0, 0, 1, -123.17769622802734, -289.13982582092285)"/><path class="st2" d="M336.5,395.6h21c0.6,0,1.2,0.5,1.2,1.2v21c0,0.6-0.5,1.2-1.2,1.2h-21c-0.6,0-1.2-0.5-1.2-1.2v-21&#10;&#9;&#9;C335.3,396.1,335.9,395.6,336.5,395.6L336.5,395.6z" style="fill-rule: evenodd; clip-rule: evenodd; fill: rgb(246, 236, 171);" transform="matrix(1, 0, 0, 1, -123.17769622802734, -289.13982582092285)"/><path class="st3" d="M347.6,400.1c3.8,0,5.7,2.2,5.7,6.7c0,4.5-1.9,6.7-5.8,6.7c-3.8,0-5.8-2.3-5.8-6.8&#10;&#9;&#9;C341.7,402.2,343.7,400.1,347.6,400.1L347.6,400.1z M347.5,401.1c-0.7,0-1.2,0.4-1.4,1.2c-0.2,0.8-0.4,2.3-0.4,4.5&#10;&#9;&#9;c0,2.2,0.1,3.7,0.4,4.5c0.2,0.8,0.7,1.2,1.4,1.2c0.7,0,1.2-0.4,1.4-1.2c0.2-0.8,0.4-2.3,0.4-4.5c0-2.2-0.1-3.7-0.4-4.5&#10;&#9;&#9;C348.7,401.5,348.2,401.1,347.5,401.1L347.5,401.1z" style="fill: rgb(52, 130, 86);" transform="matrix(1, 0, 0, 1, -123.17769622802734, -289.13982582092285)"/><path class="st3" d="M356.5,414.4v2.6h-0.7v-1.9c-0.2,0.1-0.4,0.1-0.5,0.2v-0.3c0.4,0,0.6-0.2,0.8-0.5H356.5L356.5,414.4z" style="fill: rgb(52, 130, 86);" transform="matrix(1, 0, 0, 1, -123.17769622802734, -289.13982582092285)"/><path class="st1" d="M365.4,394.6h21c0.6,0,1.2,0.5,1.2,1.2v21c0,0.3-0.1,0.6-0.3,0.8c0,0,0,0,0,0l-0.9,0.9c0,0,0,0,0,0&#10;&#9;&#9;c-0.2,0.2-0.5,0.3-0.8,0.3h-21c-0.6,0-1.2-0.5-1.2-1.2v-21c0-0.3,0.1-0.6,0.3-0.8c0,0,0,0,0,0l0.9-0.9c0,0,0,0,0,0&#10;&#9;&#9;C364.8,394.8,365.1,394.6,365.4,394.6L365.4,394.6z" style="fill-rule: evenodd; clip-rule: evenodd; fill: rgb(238, 204, 97);" transform="matrix(1, 0, 0, 1, -123.17769622802734, -289.13982582092285)"/><path class="st2" d="M364.5,395.6h21c0.6,0,1.2,0.5,1.2,1.2v21c0,0.6-0.5,1.2-1.2,1.2h-21c-0.6,0-1.2-0.5-1.2-1.2v-21&#10;&#9;&#9;C363.3,396.1,363.8,395.6,364.5,395.6L364.5,395.6z" style="fill-rule: evenodd; clip-rule: evenodd; fill: rgb(246, 236, 171);" transform="matrix(1, 0, 0, 1, -123.17769622802734, -289.13982582092285)"/><path class="st3" d="M370.8,413.2v-12.9h5.6c3.2,0,4.8,1.3,4.8,3.8c0,2.6-1.8,3.8-5.3,3.8h-1.3v5.3H370.8L370.8,413.2z&#10;&#9;&#9; M374.5,406.7h0.8c1.4,0,2-0.9,2-2.7c0-1.7-0.7-2.5-2-2.5h-0.8V406.7L374.5,406.7z" style="fill: rgb(52, 130, 86);" transform="matrix(1, 0, 0, 1, -123.17769622802734, -289.13982582092285)"/><path class="st3" d="M383,416.2l0.3,0c0,0.1,0,0.2,0,0.3c0,0.3,0.1,0.4,0.4,0.4c0.3,0,0.4-0.2,0.4-0.5c0-0.3-0.2-0.5-0.5-0.5&#10;&#9;&#9;l-0.2,0v-0.3l0.1,0c0.4,0,0.6-0.2,0.6-0.5c0-0.3-0.1-0.4-0.4-0.4c-0.3,0-0.4,0.1-0.4,0.4c0,0.1,0,0.1,0,0.2l-0.3-0.1&#10;&#9;&#9;c0-0.5,0.3-0.7,0.9-0.7c0.7,0,1,0.2,1,0.7c0,0.3-0.2,0.5-0.6,0.6c0.4,0.1,0.6,0.3,0.6,0.7c0,0.5-0.3,0.8-1,0.8&#10;&#9;&#9;c-0.6,0-0.9-0.2-0.9-0.6C383,416.4,383,416.3,383,416.2L383,416.2z" style="fill: rgb(52, 130, 86);" transform="matrix(1, 0, 0, 1, -123.17769622802734, -289.13982582092285)"/><path class="st1" d="M225.6,422.6h21c0.6,0,1.2,0.5,1.2,1.2v21c0,0.3-0.1,0.6-0.3,0.8c0,0,0,0,0,0l-0.9,0.9c0,0,0,0,0,0&#10;&#9;&#9;c-0.2,0.2-0.5,0.3-0.8,0.3h-21c-0.6,0-1.2-0.5-1.2-1.2v-21c0-0.3,0.1-0.6,0.3-0.8c0,0,0,0,0,0l0.9-0.9c0,0,0,0,0,0&#10;&#9;&#9;C225,422.7,225.3,422.6,225.6,422.6L225.6,422.6z" style="fill-rule: evenodd; clip-rule: evenodd; fill: rgb(238, 204, 97);" transform="matrix(1, 0, 0, 1, -123.17769622802734, -289.13982582092285)"/><path class="st2" d="M224.7,423.5h21c0.6,0,1.2,0.5,1.2,1.2v21c0,0.6-0.5,1.2-1.2,1.2h-21c-0.6,0-1.2-0.5-1.2-1.2v-21&#10;&#9;&#9;C223.5,424,224,423.5,224.7,423.5L224.7,423.5z" style="fill-rule: evenodd; clip-rule: evenodd; fill: rgb(246, 236, 171);" transform="matrix(1, 0, 0, 1, -123.17769622802734, -289.13982582092285)"/><path class="st3" d="M240.3,440.8l1,0.4c0,0.2,0,0.4,0,0.5c0,1.6-0.7,2.4-2.2,2.4c-1.5,0-2.4-0.9-2.7-2.6c-0.2,0-0.5,0-0.7,0&#10;&#9;&#9;c-3.9,0-5.8-2.2-5.8-6.7c0-4.5,1.9-6.7,5.8-6.7c3.8,0,5.7,2.3,5.7,6.8c0,3-1,5-2.9,6c0.3,0.8,0.7,1.2,1.1,1.2c0.5,0,0.8-0.3,0.7-1&#10;&#9;&#9;C240.3,441,240.3,440.9,240.3,440.8L240.3,440.8z M234.1,438.4c0.4-0.6,0.9-1,1.5-1c0.6,0,1.1,0.4,1.5,1.2c0.3-1.1,0.4-2.4,0.4-4&#10;&#9;&#9;c0-2.1-0.1-3.6-0.4-4.3c-0.2-0.8-0.7-1.2-1.4-1.2c-0.7,0-1.2,0.4-1.4,1.2c-0.3,0.8-0.4,2.2-0.4,4.3&#10;&#9;&#9;C233.9,436.3,233.9,437.5,234.1,438.4L234.1,438.4z M236.2,440.2c-0.1-1-0.4-1.4-0.9-1.4c-0.4,0-0.7,0.2-1,0.7&#10;&#9;&#9;c0.3,0.6,0.7,0.9,1.3,0.9C235.8,440.4,236,440.4,236.2,440.2L236.2,440.2z" style="fill: rgb(52, 130, 86);" transform="matrix(1, 0, 0, 1, -123.17769622802734, -289.13982582092285)"/><path class="st3" d="M243.5,442.4v2.6h-0.7V443c-0.2,0.1-0.4,0.1-0.5,0.2v-0.3c0.4,0,0.6-0.2,0.8-0.5H243.5L243.5,442.4z" style="fill: rgb(52, 130, 86);" transform="matrix(1, 0, 0, 1, -123.17769622802734, -289.13982582092285)"/><path class="st3" d="M245.4,442.4c0.7,0,1.1,0.4,1.1,1.3c0,0.9-0.4,1.3-1.1,1.3c-0.7,0-1.1-0.4-1.1-1.3&#10;&#9;&#9;C244.3,442.8,244.7,442.4,245.4,442.4L245.4,442.4z M245.4,442.6c-0.2,0-0.3,0.4-0.3,1.1c0,0.8,0.1,1.1,0.3,1.1&#10;&#9;&#9;c0.2,0,0.3-0.4,0.3-1.1C245.7,442.9,245.6,442.6,245.4,442.6L245.4,442.6z" style="fill: rgb(52, 130, 86);" transform="matrix(1, 0, 0, 1, -123.17769622802734, -289.13982582092285)"/><path class="st1" d="M253.6,422.6h21c0.6,0,1.2,0.5,1.2,1.2v21c0,0.3-0.1,0.6-0.3,0.8c0,0,0,0,0,0l-0.9,0.9c0,0,0,0,0,0&#10;&#9;&#9;c-0.2,0.2-0.5,0.3-0.8,0.3h-21c-0.6,0-1.2-0.5-1.2-1.2v-21c0-0.3,0.1-0.6,0.3-0.8c0,0,0,0,0,0l0.9-0.9c0,0,0,0,0,0&#10;&#9;&#9;C253,422.7,253.2,422.6,253.6,422.6L253.6,422.6z" style="fill-rule: evenodd; clip-rule: evenodd; fill: rgb(238, 204, 97);" transform="matrix(1, 0, 0, 1, -123.17769622802734, -289.13982582092285)"/><path class="st2" d="M252.6,423.5h21c0.6,0,1.2,0.5,1.2,1.2v21c0,0.6-0.5,1.2-1.2,1.2h-21c-0.6,0-1.2-0.5-1.2-1.2v-21&#10;&#9;&#9;C251.5,424,252,423.5,252.6,423.5L252.6,423.5z" style="fill-rule: evenodd; clip-rule: evenodd; fill: rgb(246, 236, 171);" transform="matrix(1, 0, 0, 1, -123.17769622802734, -289.13982582092285)"/><path class="st3" d="M258.6,441.2v-12.9h5.6c1.4,0,2.6,0.3,3.5,0.9c0.9,0.6,1.3,1.4,1.3,2.4c0,1.6-0.9,2.6-2.8,3.1&#10;&#9;&#9;c1,0.4,1.6,0.7,1.9,1.2c0.3,0.4,0.5,1.2,0.6,2.5c0.1,1.5,0.4,2.4,0.7,2.9h-4.1c-0.3-0.6-0.4-1.3-0.4-2.2l0-0.8l0-1&#10;&#9;&#9;c0-1.5-0.6-2.2-1.8-2.2h-0.6v6.2H258.6L258.6,441.2z M262.3,433.9h0.8c1.4,0,2.1-0.7,2.1-2.2c0-1.5-0.7-2.2-2.1-2.2h-0.8V433.9&#10;&#9;&#9;L262.3,433.9z" style="fill: rgb(52, 130, 86);" transform="matrix(1, 0, 0, 1, -123.17769622802734, -289.13982582092285)"/><path class="st3" d="M272.6,442.4v2.6h-0.7V443c-0.2,0.1-0.4,0.1-0.5,0.2v-0.3c0.4,0,0.6-0.2,0.8-0.5H272.6L272.6,442.4z" style="fill: rgb(52, 130, 86);" transform="matrix(1, 0, 0, 1, -123.17769622802734, -289.13982582092285)"/><path class="st1" d="M281.5,422.6h21c0.6,0,1.2,0.5,1.2,1.2v21c0,0.3-0.1,0.6-0.3,0.8c0,0,0,0,0,0l-0.9,0.9c0,0,0,0,0,0&#10;&#9;&#9;c-0.2,0.2-0.5,0.3-0.8,0.3h-21c-0.6,0-1.2-0.5-1.2-1.2v-21c0-0.3,0.1-0.6,0.3-0.8c0,0,0,0,0,0l0.9-0.9c0,0,0,0,0,0&#10;&#9;&#9;C280.9,422.7,281.2,422.6,281.5,422.6L281.5,422.6z" style="fill-rule: evenodd; clip-rule: evenodd; fill: rgb(238, 204, 97);" transform="matrix(1, 0, 0, 1, -123.17769622802734, -289.13982582092285)"/><path class="st2" d="M280.6,423.5h21c0.6,0,1.2,0.5,1.2,1.2v21c0,0.6-0.5,1.2-1.2,1.2h-21c-0.6,0-1.2-0.5-1.2-1.2v-21&#10;&#9;&#9;C279.4,424,279.9,423.5,280.6,423.5L280.6,423.5z" style="fill-rule: evenodd; clip-rule: evenodd; fill: rgb(246, 236, 171);" transform="matrix(1, 0, 0, 1, -123.17769622802734, -289.13982582092285)"/><path class="st3" d="M295.8,431.9l-1.7,0.3c0.1-0.3,0.1-0.6,0.1-0.9c0-1.5-0.9-2.3-2.7-2.3c-1.4,0-2.2,0.5-2.2,1.6&#10;&#9;&#9;c0,0.8,0.8,1.4,2.4,2c3.1,1.1,4.7,2.6,4.7,4.7c0,1.2-0.4,2.2-1.3,3c-0.9,0.7-2,1.1-3.5,1.1c-3.2,0-4.8-1.2-4.8-3.7&#10;&#9;&#9;c0-0.2,0-0.5,0-0.8l1.8-0.4c-0.1,0.6-0.2,1-0.2,1.4c0,1.6,0.9,2.4,2.8,2.4c1.5,0,2.2-0.6,2.2-1.7c0-0.9-0.9-1.6-2.6-2.3&#10;&#9;&#9;c-2.5-0.9-3.8-2.4-3.8-4.5c0-1.2,0.4-2.1,1.3-2.8c0.9-0.7,2-1.1,3.4-1.1C294.4,428,295.8,429.3,295.8,431.9L295.8,431.9z" style="fill: rgb(52, 130, 86);" transform="matrix(1, 0, 0, 1, -123.17769622802734, -289.13982582092285)"/><path class="st3" d="M300.6,442.4v2.6h-0.7V443c-0.2,0.1-0.4,0.1-0.5,0.2v-0.3c0.4,0,0.6-0.2,0.8-0.5H300.6L300.6,442.4z" style="fill: rgb(52, 130, 86);" transform="matrix(1, 0, 0, 1, -123.17769622802734, -289.13982582092285)"/><path class="st1" d="M309.5,422.6h21c0.6,0,1.2,0.5,1.2,1.2v21c0,0.3-0.1,0.6-0.3,0.8c0,0,0,0,0,0l-0.9,0.9c0,0,0,0,0,0&#10;&#9;&#9;c-0.2,0.2-0.5,0.3-0.8,0.3h-21c-0.6,0-1.2-0.5-1.2-1.2v-21c0-0.3,0.1-0.6,0.3-0.8c0,0,0,0,0,0l0.9-0.9c0,0,0,0,0,0&#10;&#9;&#9;C308.9,422.7,309.2,422.6,309.5,422.6L309.5,422.6z" style="fill-rule: evenodd; clip-rule: evenodd; fill: rgb(238, 204, 97);" transform="matrix(1, 0, 0, 1, -123.17769622802734, -289.13982582092285)"/><path class="st2" d="M308.5,423.5h21c0.6,0,1.2,0.5,1.2,1.2v21c0,0.6-0.5,1.2-1.2,1.2h-21c-0.6,0-1.2-0.5-1.2-1.2v-21&#10;&#9;&#9;C307.4,424,307.9,423.5,308.5,423.5L308.5,423.5z" style="fill-rule: evenodd; clip-rule: evenodd; fill: rgb(246, 236, 171);" transform="matrix(1, 0, 0, 1, -123.17769622802734, -289.13982582092285)"/><path d="M 324.70001220703125 428.20001220703125 L 324.70001220703125 429.5 L 321.5 429.5 L 321.5 441.20001220703125 L 317.5 441.20001220703125 L 317.5 429.5 L 314.29998779296875 429.5 L 314.29998779296875 428.20001220703125 L 324.70001220703125 428.20001220703125 Z" class="st3" style="fill: rgb(52, 130, 86);" transform="matrix(1, 0, 0, 1, -123.17769622802734, -289.13982582092285)"/><path class="st3" d="M328.5,442.4v2.6h-0.7V443c-0.2,0.1-0.4,0.1-0.5,0.2v-0.3c0.4,0,0.6-0.2,0.8-0.5H328.5L328.5,442.4z" style="fill: rgb(52, 130, 86);" transform="matrix(1, 0, 0, 1, -123.17769622802734, -289.13982582092285)"/><path class="st1" d="M337.4,422.6h21c0.6,0,1.2,0.5,1.2,1.2v21c0,0.3-0.1,0.6-0.3,0.8c0,0,0,0,0,0l-0.9,0.9c0,0,0,0,0,0&#10;&#9;&#9;c-0.2,0.2-0.5,0.3-0.8,0.3h-21c-0.6,0-1.2-0.5-1.2-1.2v-21c0-0.3,0.1-0.6,0.3-0.8c0,0,0,0,0,0l0.9-0.9c0,0,0,0,0,0&#10;&#9;&#9;C336.8,422.7,337.1,422.6,337.4,422.6L337.4,422.6z" style="fill-rule: evenodd; clip-rule: evenodd; fill: rgb(238, 204, 97);" transform="matrix(1, 0, 0, 1, -123.17769622802734, -289.13982582092285)"/><path class="st2" d="M336.5,423.5h21c0.6,0,1.2,0.5,1.2,1.2v21c0,0.6-0.5,1.2-1.2,1.2h-21c-0.6,0-1.2-0.5-1.2-1.2v-21&#10;&#9;&#9;C335.3,424,335.9,423.5,336.5,423.5L336.5,423.5z" style="fill-rule: evenodd; clip-rule: evenodd; fill: rgb(246, 236, 171);" transform="matrix(1, 0, 0, 1, -123.17769622802734, -289.13982582092285)"/><path class="st3" d="M352.4,428.2v8.7c0,3-1.6,4.5-4.9,4.5c-3.3,0-4.9-1.5-4.9-4.5v-8.7h3.8v8.8c0,1.1,0.2,1.9,0.5,2.3&#10;&#9;&#9;c0.3,0.4,0.9,0.6,1.8,0.6c1.7,0,2.5-1,2.5-3.1v-8.7H352.4L352.4,428.2z" style="fill: rgb(52, 130, 86);" transform="matrix(1, 0, 0, 1, -123.17769622802734, -289.13982582092285)"/><path class="st3" d="M356.5,442.4v2.6h-0.7V443c-0.2,0.1-0.4,0.1-0.5,0.2v-0.3c0.4,0,0.6-0.2,0.8-0.5H356.5L356.5,442.4z" style="fill: rgb(52, 130, 86);" transform="matrix(1, 0, 0, 1, -123.17769622802734, -289.13982582092285)"/><path class="st1" d="M365.4,422.6h21c0.6,0,1.2,0.5,1.2,1.2v21c0,0.3-0.1,0.6-0.3,0.8c0,0,0,0,0,0l-0.9,0.9c0,0,0,0,0,0&#10;&#9;&#9;c-0.2,0.2-0.5,0.3-0.8,0.3h-21c-0.6,0-1.2-0.5-1.2-1.2v-21c0-0.3,0.1-0.6,0.3-0.8c0,0,0,0,0,0l0.9-0.9c0,0,0,0,0,0&#10;&#9;&#9;C364.8,422.7,365.1,422.6,365.4,422.6L365.4,422.6z" style="fill-rule: evenodd; clip-rule: evenodd; fill: rgb(238, 204, 97);" transform="matrix(1, 0, 0, 1, -123.17769622802734, -289.13982582092285)"/><path class="st2" d="M364.5,423.5h21c0.6,0,1.2,0.5,1.2,1.2v21c0,0.6-0.5,1.2-1.2,1.2h-21c-0.6,0-1.2-0.5-1.2-1.2v-21&#10;&#9;&#9;C363.3,424,363.8,423.5,364.5,423.5L364.5,423.5z" style="fill-rule: evenodd; clip-rule: evenodd; fill: rgb(246, 236, 171);" transform="matrix(1, 0, 0, 1, -123.17769622802734, -289.13982582092285)"/><path d="M 380.70001220703125 428.20001220703125 L 377 441.20001220703125 L 373.6000061035156 441.20001220703125 L 370.20001220703125 428.20001220703125 L 374 428.20001220703125 L 376.5 438 L 379.29998779296875 428.20001220703125 L 380.70001220703125 428.20001220703125 Z" class="st3" style="fill: rgb(52, 130, 86);" transform="matrix(1, 0, 0, 1, -123.17769622802734, -289.13982582092285)"/><path class="st3" d="M385,444.4h-0.3v0.5h-0.7v-0.5h-1v-0.3l1.2-1.7h0.5v1.8h0.3V444.4L385,444.4z M383.3,444.2h0.6v-1L383.3,444.2&#10;&#9;&#9;L383.3,444.2z" style="fill: rgb(52, 130, 86);" transform="matrix(1, 0, 0, 1, -123.17769622802734, -289.13982582092285)"/><path class="st1" d="M253.6,450.5h21c0.6,0,1.2,0.5,1.2,1.2v21c0,0.3-0.1,0.6-0.3,0.8c0,0,0,0,0,0l-0.9,0.9c0,0,0,0,0,0&#10;&#9;&#9;c-0.2,0.2-0.5,0.3-0.8,0.3h-21c-0.6,0-1.2-0.5-1.2-1.2v-21c0-0.3,0.1-0.6,0.3-0.8c0,0,0,0,0,0l0.9-0.9c0,0,0,0,0,0&#10;&#9;&#9;C253,450.7,253.2,450.5,253.6,450.5L253.6,450.5z" style="fill-rule: evenodd; clip-rule: evenodd; fill: rgb(238, 204, 97);" transform="matrix(1, 0, 0, 1, -123.17769622802734, -289.13982582092285)"/><path class="st2" d="M252.6,451.5h21c0.6,0,1.2,0.5,1.2,1.2v21c0,0.6-0.5,1.2-1.2,1.2h-21c-0.6,0-1.2-0.5-1.2-1.2v-21&#10;&#9;&#9;C251.5,452,252,451.5,252.6,451.5L252.6,451.5z" style="fill-rule: evenodd; clip-rule: evenodd; fill: rgb(246, 236, 171);" transform="matrix(1, 0, 0, 1, -123.17769622802734, -289.13982582092285)"/><path d="M 271.29998779296875 456.20001220703125 L 267.79998779296875 469.1000061035156 L 265.29998779296875 469.1000061035156 L 263.5 462.1000061035156 L 261.70001220703125 469.1000061035156 L 259.29998779296875 469.1000061035156 L 255.89999389648438 456.20001220703125 L 259.70001220703125 456.20001220703125 L 261.70001220703125 464 L 263.6000061035156 456.20001220703125 L 265.79998779296875 456.20001220703125 L 267.79998779296875 464.1000061035156 L 269.79998779296875 456.20001220703125 L 271.29998779296875 456.20001220703125 Z" class="st3" style="fill: rgb(52, 130, 86);" transform="matrix(1, 0, 0, 1, -123.17769622802734, -289.13982582092285)"/><path class="st3" d="M273.1,472.4h-0.3v0.5h-0.7v-0.5h-1v-0.3l1.2-1.7h0.5v1.8h0.3V472.4L273.1,472.4z M271.5,472.1h0.6v-1&#10;&#9;&#9;L271.5,472.1L271.5,472.1z" style="fill: rgb(52, 130, 86);" transform="matrix(1, 0, 0, 1, -123.17769622802734, -289.13982582092285)"/><path class="st1" d="M281.5,450.6h21c0.6,0,1.2,0.5,1.2,1.2v21c0,0.3-0.1,0.6-0.3,0.8c0,0,0,0,0,0l-0.9,0.9c0,0,0,0,0,0&#10;&#9;&#9;c-0.2,0.2-0.5,0.3-0.8,0.3h-21c-0.6,0-1.2-0.5-1.2-1.2v-21c0-0.3,0.1-0.6,0.3-0.8c0,0,0,0,0,0l0.9-0.9c0,0,0,0,0,0&#10;&#9;&#9;C280.9,450.7,281.2,450.6,281.5,450.6L281.5,450.6z" style="fill-rule: evenodd; clip-rule: evenodd; fill: rgb(238, 204, 97);" transform="matrix(1, 0, 0, 1, -123.17769622802734, -289.13982582092285)"/><path class="st2" d="M280.6,451.5h21c0.6,0,1.2,0.5,1.2,1.2v21c0,0.6-0.5,1.2-1.2,1.2h-21c-0.6,0-1.2-0.5-1.2-1.2v-21&#10;&#9;&#9;C279.4,452,279.9,451.5,280.6,451.5L280.6,451.5z" style="fill-rule: evenodd; clip-rule: evenodd; fill: rgb(246, 236, 171);" transform="matrix(1, 0, 0, 1, -123.17769622802734, -289.13982582092285)"/><path d="M 296.5 456.20001220703125 L 293.1000061035156 461.70001220703125 L 297.20001220703125 469.1000061035156 L 293.1000061035156 469.1000061035156 L 290.6000061035156 464.6000061035156 L 287.79998779296875 469.1000061035156 L 286.1000061035156 469.1000061035156 L 289.79998779296875 463.20001220703125 L 285.8999938964844 456.20001220703125 L 290 456.20001220703125 L 292.29998779296875 460.3999938964844 L 294.79998779296875 456.20001220703125 L 296.5 456.20001220703125 Z" class="st3" style="fill: rgb(52, 130, 86);" transform="matrix(1, 0, 0, 1, -123.17769622802734, -289.13982582092285)"/><path class="st3" d="M299.5,471.7c-0.2-0.2-0.3-0.4-0.3-0.6c0-0.2,0.1-0.4,0.3-0.6c0.2-0.1,0.4-0.2,0.7-0.2c0.3,0,0.5,0.1,0.6,0.2&#10;&#9;&#9;c0.2,0.1,0.2,0.3,0.2,0.4c0,0.2-0.1,0.4-0.3,0.5c0.3,0.2,0.5,0.4,0.5,0.7c0,0.3-0.1,0.5-0.3,0.6c-0.2,0.2-0.5,0.2-0.8,0.2&#10;&#9;&#9;c-0.3,0-0.5-0.1-0.7-0.2c-0.2-0.1-0.3-0.3-0.3-0.5C299.1,472,299.2,471.8,299.5,471.7L299.5,471.7z M299.7,471.8&#10;&#9;&#9;c-0.2,0.1-0.3,0.2-0.3,0.4c0,0.1,0.1,0.3,0.2,0.4c0.1,0.1,0.3,0.2,0.5,0.2c0.1,0,0.3,0,0.4-0.1c0.1-0.1,0.2-0.2,0.2-0.3&#10;&#9;&#9;c0-0.2-0.1-0.3-0.4-0.4C300,471.9,299.9,471.9,299.7,471.8L299.7,471.8z M300.5,471.3c0.1-0.1,0.2-0.2,0.2-0.3&#10;&#9;&#9;c0-0.3-0.2-0.5-0.5-0.5c-0.3,0-0.5,0.1-0.5,0.3c0,0.1,0.1,0.2,0.4,0.3l0.3,0.1C300.4,471.3,300.4,471.3,300.5,471.3L300.5,471.3z" style="fill: rgb(52, 130, 86);" transform="matrix(1, 0, 0, 1, -123.17769622802734, -289.13982582092285)"/><path class="st1" d="M309.5,450.6h21c0.6,0,1.2,0.5,1.2,1.2v21c0,0.3-0.1,0.6-0.3,0.8c0,0,0,0,0,0l-0.9,0.9c0,0,0,0,0,0&#10;&#9;&#9;c-0.2,0.2-0.5,0.3-0.8,0.3h-21c-0.6,0-1.2-0.5-1.2-1.2v-21c0-0.3,0.1-0.6,0.3-0.8c0,0,0,0,0,0l0.9-0.9c0,0,0,0,0,0&#10;&#9;&#9;C308.9,450.7,309.2,450.6,309.5,450.6L309.5,450.6z" style="fill-rule: evenodd; clip-rule: evenodd; fill: rgb(238, 204, 97);" transform="matrix(1, 0, 0, 1, -123.17769622802734, -289.13982582092285)"/><path class="st2" d="M308.5,451.5h21c0.6,0,1.2,0.5,1.2,1.2v21c0,0.6-0.5,1.2-1.2,1.2h-21c-0.6,0-1.2-0.5-1.2-1.2v-21&#10;&#9;&#9;C307.4,452,307.9,451.5,308.5,451.5L308.5,451.5z" style="fill-rule: evenodd; clip-rule: evenodd; fill: rgb(246, 236, 171);" transform="matrix(1, 0, 0, 1, -123.17769622802734, -289.13982582092285)"/><path d="M 324.70001220703125 456.20001220703125 L 321.6000061035156 464.3999938964844 L 321.6000061035156 469.1000061035156 L 317.79998779296875 469.1000061035156 L 317.79998779296875 464.3999938964844 L 314.29998779296875 456.20001220703125 L 318.20001220703125 456.20001220703125 L 320.8999938964844 462.3999938964844 L 323.20001220703125 456.20001220703125 L 324.70001220703125 456.20001220703125 Z" class="st3" style="fill: rgb(52, 130, 86);" transform="matrix(1, 0, 0, 1, -123.17769622802734, -289.13982582092285)"/><path class="st3" d="M329,472.4h-0.3v0.5H328v-0.5h-1v-0.3l1.2-1.7h0.5v1.8h0.3V472.4L329,472.4z M327.4,472.1h0.6v-1L327.4,472.1&#10;&#9;&#9;L327.4,472.1z" style="fill: rgb(52, 130, 86);" transform="matrix(1, 0, 0, 1, -123.17769622802734, -289.13982582092285)"/><path class="st1" d="M337.4,450.6h21c0.6,0,1.2,0.5,1.2,1.2v21c0,0.3-0.1,0.6-0.3,0.8c0,0,0,0,0,0l-0.9,0.9c0,0,0,0,0,0&#10;&#9;&#9;c-0.2,0.2-0.5,0.3-0.8,0.3h-21c-0.6,0-1.2-0.5-1.2-1.2v-21c0-0.3,0.1-0.6,0.3-0.8c0,0,0,0,0,0l0.9-0.9c0,0,0,0,0,0&#10;&#9;&#9;C336.8,450.7,337.1,450.6,337.4,450.6L337.4,450.6z" style="fill-rule: evenodd; clip-rule: evenodd; fill: rgb(238, 204, 97);" transform="matrix(1, 0, 0, 1, -123.17769622802734, -289.13982582092285)"/><path class="st2" d="M336.5,451.5h21c0.6,0,1.2,0.5,1.2,1.2v21c0,0.6-0.5,1.2-1.2,1.2h-21c-0.6,0-1.2-0.5-1.2-1.2v-21&#10;&#9;&#9;C335.3,452,335.9,451.5,336.5,451.5L336.5,451.5z" style="fill-rule: evenodd; clip-rule: evenodd; fill: rgb(246, 236, 171);" transform="matrix(1, 0, 0, 1, -123.17769622802734, -289.13982582092285)"/><path d="M 352.6000061035156 456.20001220703125 L 352.6000061035156 457.3999938964844 L 346.3999938964844 467.79998779296875 L 352.20001220703125 467.79998779296875 L 352.20001220703125 469.1000061035156 L 342.29998779296875 469.1000061035156 L 342.29998779296875 467.79998779296875 L 348.3999938964844 457.5 L 343.1000061035156 457.5 L 343.1000061035156 456.20001220703125 L 352.6000061035156 456.20001220703125 Z" class="st3" style="fill: rgb(52, 130, 86);" transform="matrix(1, 0, 0, 1, -123.17769622802734, -289.13982582092285)"/><path class="st3" d="M355.3,470.4v2.6h-0.7V471c-0.2,0.1-0.4,0.1-0.5,0.2v-0.3c0.4,0,0.6-0.2,0.8-0.5H355.3L355.3,470.4z" style="fill: rgb(52, 130, 86);" transform="matrix(1, 0, 0, 1, -123.17769622802734, -289.13982582092285)"/><path class="st3" d="M357.2,470.3c0.7,0,1.1,0.4,1.1,1.3c0,0.9-0.4,1.3-1.1,1.3c-0.7,0-1.1-0.4-1.1-1.3&#10;&#9;&#9;C356.1,470.8,356.5,470.3,357.2,470.3L357.2,470.3z M357.2,470.5c-0.2,0-0.3,0.4-0.3,1.1c0,0.8,0.1,1.1,0.3,1.1&#10;&#9;&#9;c0.2,0,0.3-0.4,0.3-1.1C357.5,470.9,357.4,470.5,357.2,470.5L357.2,470.5z" style="fill: rgb(52, 130, 86);" transform="matrix(1, 0, 0, 1, -123.17769622802734, -289.13982582092285)"/>
</svg>