<svg width="20" height="20" viewBox="0 0 20 20" fill="none" xmlns="http://www.w3.org/2000/svg">
<g clip-path="url(#clip0)">
<path d="M11.1047 10.0008L19.7709 1.33448C20.0761 1.02937 20.0761 0.534678 19.7709 0.229601C19.4658 -0.0754772 18.9711 -0.0755163 18.6661 0.229601L9.99975 8.89592L1.33347 0.229601C1.02836 -0.0755163 0.533671 -0.0755163 0.228593 0.229601C-0.0764842 0.534718 -0.0765233 1.0294 0.228593 1.33448L8.89487 10.0008L0.228593 18.6671C-0.0765233 18.9722 -0.0765233 19.4669 0.228593 19.772C0.381132 19.9245 0.581093 20.0008 0.781053 20.0008C0.981014 20.0008 1.18094 19.9245 1.33351 19.772L9.99975 11.1057L18.666 19.772C18.8186 19.9245 19.0185 20.0008 19.2185 20.0008C19.4184 20.0008 19.6184 19.9245 19.7709 19.772C20.0761 19.4668 20.0761 18.9722 19.7709 18.6671L11.1047 10.0008Z" fill="black"/>
</g>
<defs>
<clipPath id="clip0">
<rect width="20" height="20" fill="white"/>
</clipPath>
</defs>
</svg>
