<svg width="35" height="35" viewBox="0 0 35 35" fill="none" xmlns="http://www.w3.org/2000/svg">
<path d="M20.3397 1.28165C19.9337 1.08798 19.4553 1.13932 19.1053 1.42165L7.756 10.5006H2.33333C1.04767 10.5006 0 11.5483 0 12.834V22.1673C0 23.4553 1.04767 24.5006 2.33333 24.5006H7.756L19.103 33.5796C19.3153 33.7476 19.5743 33.834 19.8333 33.834C20.006 33.834 20.1787 33.7943 20.3397 33.7173C20.7433 33.5236 21 33.1153 21 32.6673V2.33398C21 1.88598 20.7433 1.47765 20.3397 1.28165Z" fill="black" fill-opacity="0.56"/>
<path d="M26.9056 9.24998C26.446 8.79731 25.7086 8.80431 25.256 9.25931C24.8033 9.71898 24.808 10.4563 25.2653 10.9113C27.0293 12.652 28 14.9923 28 17.5006C28 20.009 27.0293 22.3493 25.2653 24.09C24.808 24.5403 24.8033 25.28 25.256 25.7397C25.4846 25.9707 25.7856 26.085 26.0843 26.085C26.3806 26.085 26.677 25.973 26.9056 25.7466C29.1176 23.5696 30.3333 20.639 30.3333 17.5006C30.3333 14.3623 29.1176 11.4316 26.9056 9.24998Z" fill="black" fill-opacity="0.56"/>
<path d="M30.198 5.9623C29.7383 5.5073 29.001 5.51196 28.546 5.9693C28.0933 6.42663 28.098 7.1663 28.553 7.61896C31.206 10.2486 32.6667 13.758 32.6667 17.5006C32.6667 21.2433 31.206 24.7503 28.553 27.38C28.098 27.835 28.0933 28.5746 28.546 29.032C28.777 29.2606 29.0757 29.375 29.3743 29.375C29.6707 29.375 29.9693 29.263 30.198 29.0366C33.2967 25.9683 35 21.871 35 17.5006C35 13.1303 33.2967 9.03296 30.198 5.9623Z" fill="black" fill-opacity="0.56"/>
</svg>
