<?xml version="1.0" standalone="no"?>
<!DOCTYPE svg PUBLIC "-//W3C//DTD SVG 20010904//EN"
 "http://www.w3.org/TR/2001/REC-SVG-20010904/DTD/svg10.dtd">
<svg version="1.0" xmlns="http://www.w3.org/2000/svg"
 width="47.000000pt" height="45.000000pt" viewBox="0 0 47.000000 45.000000"
 preserveAspectRatio="xMidYMid meet">

<g transform="translate(0.000000,45.000000) scale(0.100000,-0.100000)"
fill="#000000" stroke="none">
<path d="M163 439 c-39 -11 -100 -70 -109 -104 -4 -18 -13 -25 -30 -25 l-24 0
0 -150 0 -150 230 0 230 0 0 150 c0 140 -1 150 -19 150 -12 0 -21 9 -25 25 -8
32 -44 41 -108 26 -61 -14 -111 -14 -103 -1 3 6 19 10 34 10 47 0 66 34 35 64
-17 18 -61 19 -111 5z m102 -29 c0 -10 -12 -16 -32 -18 -40 -4 -61 -26 -43
-47 15 -18 42 -19 127 -3 54 10 66 9 74 -3 5 -8 9 -17 9 -21 0 -5 -74 -8 -165
-8 -91 0 -165 3 -165 8 0 24 46 76 83 93 49 22 112 22 112 -1z m-225 -211 c0
-87 1 -92 29 -120 41 -40 91 -40 132 0 21 22 29 39 29 66 0 73 -88 121 -146
80 -21 -14 -21 -13 -21 25 0 39 1 40 33 40 19 0 34 -4 34 -10 0 -6 40 -10 100
-10 60 0 100 4 100 10 0 6 15 10 34 10 32 0 33 -1 33 -41 0 -33 -3 -39 -16
-33 -56 23 -103 9 -121 -37 -30 -72 37 -139 109 -109 39 16 51 48 51 140 0 47
4 80 10 80 6 0 10 -50 10 -130 l0 -130 -210 0 -210 0 0 130 c0 80 4 130 10
130 6 0 10 -37 10 -91z m145 -4 c14 -13 25 -36 25 -50 0 -33 -42 -75 -75 -75
-33 0 -75 42 -75 75 0 33 42 75 75 75 14 0 37 -11 50 -25z m195 -5 c40 -40 11
-110 -45 -110 -32 0 -65 33 -65 65 0 32 33 65 65 65 14 0 34 -9 45 -20z"/>
<path d="M102 178 c-7 -7 -12 -21 -12 -33 0 -40 50 -61 78 -33 28 28 7 78 -33
78 -12 0 -26 -5 -33 -12z m52 -23 c5 -13 -7 -37 -19 -37 -12 0 -24 24 -19 37
6 15 32 15 38 0z"/>
<path d="M302 178 c-15 -15 -15 -51 0 -66 28 -28 78 -7 78 33 0 27 -18 45 -45
45 -12 0 -26 -5 -33 -12z m52 -23 c5 -13 -7 -37 -19 -37 -12 0 -24 24 -19 37
3 6 11 12 19 12 8 0 16 -6 19 -12z"/>
</g>
</svg>
